<?xml version="1.0" encoding="UTF-8"?>
<svg width="40" height="40" viewBox="0 0 40 40" fill="none" xmlns="http://www.w3.org/2000/svg">
<path d="M17.35 25.8806C17.1598 25.8806 16.9747 25.9577 16.84 26.0917C16.706 26.2256 16.6296 26.4115 16.6296 26.6009C16.6296 26.7903 16.706 26.9762 16.84 27.1102C16.9747 27.2441 17.1598 27.3212 17.35 27.3212C17.5394 27.3212 17.7245 27.2442 17.8592 27.1102C17.9932 26.9762 18.0696 26.7903 18.0696 26.6009C18.0696 26.4115 17.9932 26.2256 17.8592 26.0917C17.7244 25.9577 17.5394 25.8806 17.35 25.8806Z" fill="#5481CE"/>
<path d="M7.94362 22.188C7.44163 21.8365 6.83267 21.7013 6.22919 21.8079C5.62563 21.9143 5.09959 22.2494 4.74807 22.7515C4.39656 23.2535 4.26157 23.8624 4.36796 24.466C4.47435 25.0695 4.80944 25.5956 5.31158 25.9471C5.7017 26.2202 6.15629 26.3626 6.62277 26.3626C6.7566 26.3626 6.89145 26.351 7.02608 26.3272C8.27201 26.1076 9.107 24.9152 8.8873 23.6692C8.78077 23.0655 8.44568 22.5395 7.94362 22.188ZM6.77584 24.9083C6.55131 24.9478 6.3247 24.8977 6.13785 24.7669C5.951 24.636 5.82631 24.4403 5.7867 24.2157C5.74708 23.9911 5.79729 23.7645 5.92817 23.5778C6.05898 23.3909 6.25469 23.2662 6.47928 23.2266C6.52934 23.2178 6.57955 23.2134 6.62932 23.2134C6.80292 23.2134 6.97212 23.2664 7.11727 23.368C7.30412 23.4988 7.4288 23.6945 7.46842 23.9191C7.55018 24.3828 7.23943 24.8266 6.77584 24.9083Z" fill="#5481CE"/>
<path d="M26.1611 18.2933C25.5575 18.3997 25.0316 18.7348 24.68 19.2369C24.3284 19.7389 24.1935 20.3478 24.2999 20.9514C24.4063 21.555 24.7413 22.081 25.2434 22.4326C25.6335 22.7057 26.0881 22.8481 26.5546 22.8481C26.6884 22.8481 26.8233 22.8364 26.958 22.8127C28.2038 22.5929 29.0387 21.4006 28.8191 20.1546C28.8191 20.1546 28.8191 20.1546 28.8191 20.1546C28.5994 18.9086 27.4072 18.0733 26.1611 18.2933ZM26.7078 21.3939C26.4832 21.4333 26.2566 21.3832 26.0698 21.2524C25.883 21.1216 25.7583 20.9258 25.7187 20.7012C25.679 20.4766 25.7293 20.25 25.8601 20.0632C25.9909 19.8764 26.1867 19.7517 26.4112 19.7121C26.4612 19.7033 26.5109 19.699 26.5599 19.699C26.9663 19.699 27.3275 19.991 27.4004 20.4047C27.4821 20.8682 27.1714 21.3121 26.7078 21.3939Z" fill="#5481CE"/>
<path d="M19.3985 12.2127C19.588 12.2127 19.7738 12.1357 19.9078 12.001C20.0418 11.867 20.1189 11.6818 20.1189 11.4917C20.1189 11.3023 20.0418 11.1172 19.9078 10.9825C19.7738 10.8486 19.588 10.7714 19.3985 10.7714C19.2091 10.7714 19.0233 10.8485 18.8893 10.9825C18.7553 11.1165 18.6782 11.3023 18.6782 11.4917C18.6782 11.6819 18.7553 11.867 18.8893 12.001C19.0233 12.1357 19.2091 12.2127 19.3985 12.2127Z" fill="#5481CE"/>
<path d="M20.4928 23.4494C20.8816 23.3808 21.2128 23.1425 21.4015 22.7958C21.5902 22.4489 21.6102 22.0414 21.4566 21.6776L20.8335 20.2032C20.5981 19.6461 20.0175 19.33 19.4219 19.4353L12.9515 20.5762C12.3557 20.6812 11.9182 21.1765 11.8876 21.7806L11.8064 23.3793C11.7864 23.7737 11.9446 24.1497 12.2406 24.4111C12.479 24.6217 12.7802 24.7343 13.0916 24.7343C13.1668 24.7343 13.2425 24.7278 13.3181 24.7145L20.4928 23.4494ZM13.2548 23.2628L13.3203 21.974L19.5535 20.8749L20.0558 22.0636L13.2548 23.2628Z" fill="#5481CE"/>
<path d="M37.1599 24.9216H35.2151C35.0755 24.9216 34.939 24.9622 34.822 25.0383L32.0505 26.8431C31.7401 26.9116 30.9115 27.0947 30.082 27.2788C29.7755 27.3467 29.4697 27.4146 29.189 27.4771C29.1843 27.4266 29.1781 27.3759 29.1691 27.3251L28.814 25.3112L29.7194 25.1515C30.8687 24.9488 31.6389 23.8489 31.4362 22.6997L30.6926 18.4827C30.4047 16.8499 29.0962 15.6493 27.5394 15.4193L27.1309 14.4903L27.6182 14.4044C28.7916 14.1975 29.578 13.0745 29.371 11.901C29.1641 10.7276 28.0415 9.94103 26.8677 10.1482L25.3403 10.4175L24.8157 9.22432C24.1234 7.64972 22.4568 6.75862 20.763 7.05727L7.45739 9.40339C5.76553 9.70167 4.50433 11.1071 4.39053 12.8215L4.30387 14.1268L2.78625 14.3943C2.21778 14.4945 1.72242 14.8101 1.39137 15.2829C1.06032 15.7557 0.93318 16.3292 1.03338 16.8976C1.13357 17.4661 1.44921 17.9615 1.92202 18.2925C2.28945 18.5497 2.71753 18.6839 3.15692 18.6839C3.28298 18.6839 3.40997 18.6729 3.53674 18.6505L4.00905 18.5672L3.94156 19.5833C2.56223 20.3337 1.74691 21.9063 2.03425 23.5359L2.77782 27.7529C2.95862 28.7783 3.85382 29.502 4.8611 29.5019C4.98262 29.5019 5.10579 29.4914 5.22954 29.4696L6.13497 29.31L6.49009 31.3239C6.64769 32.2177 7.42793 32.8484 8.30585 32.8484C8.4118 32.8484 8.5192 32.8392 8.62703 32.8202L9.95579 32.5859C10.4411 32.5003 10.864 32.2309 11.1466 31.8273C11.4292 31.4236 11.5377 30.9341 11.4522 30.4488L11.097 28.4349L14.6253 27.8128C15.0171 27.7437 15.2787 27.3701 15.2097 26.9784C15.1407 26.5867 14.767 26.325 14.3753 26.3941L4.97952 28.0509C4.61231 28.1163 4.2613 27.8697 4.19662 27.5028L3.45304 23.2858C3.23133 22.0283 4.07395 20.825 5.33132 20.6033L26.5916 16.8545C27.8491 16.6328 29.0523 17.4754 29.274 18.7328L30.0176 22.9498C30.0823 23.3168 29.8364 23.668 29.4694 23.7327L20.0506 25.3936C19.6588 25.4626 19.3972 25.8363 19.4663 26.228C19.5353 26.6197 19.9095 26.8814 20.3007 26.8122L23.8519 26.186L24.2071 28.2C24.2926 28.6852 24.562 29.1081 24.9657 29.3907C25.2793 29.6103 25.6448 29.7249 26.0199 29.7249C26.046 29.7249 26.0723 29.7225 26.0985 29.7214C25.9061 29.9459 25.6904 30.1978 25.4454 30.4838C25.077 30.9137 24.9952 31.5002 25.2318 32.0145C25.4685 32.529 25.9673 32.8485 26.5336 32.8485H37.16C37.5578 32.8485 37.8803 32.5259 37.8803 32.1282V25.6419C37.8802 25.2441 37.5577 24.9216 37.1599 24.9216ZM9.67847 28.6852L10.0336 30.6991C10.0523 30.8054 10.0285 30.9126 9.96667 31.001C9.90479 31.0894 9.81209 31.1485 9.70584 31.1673V31.1672L8.37701 31.4015C8.15746 31.44 7.94763 31.2932 7.90895 31.0738L7.55384 29.0598L7.86494 29.005L9.67847 28.6852ZM27.118 11.5668C27.5094 11.4983 27.8834 11.7601 27.9524 12.1511C28.0214 12.5423 27.7593 12.9166 27.3681 12.9856L26.5342 13.1327L25.9373 11.775L27.118 11.5668ZM21.0133 8.47584C22.0515 8.29267 23.0728 8.83895 23.497 9.80395L25.9995 15.496L16.2731 17.211L18.3496 14.2455C18.5778 13.9197 18.4986 13.4705 18.1727 13.2423C17.8468 13.014 17.3977 13.0933 17.1696 13.4192L14.2668 17.5648L9.65614 18.3778L15.9665 9.36572L21.0133 8.47584ZM7.70756 10.8221L13.9602 9.7196L7.64986 18.7316L5.41582 19.1256L5.82805 12.9169C5.89778 11.8663 6.67067 11.0049 7.70756 10.8221ZM3.28651 17.2319C3.09692 17.2649 2.90582 17.2229 2.74829 17.1125C2.59069 17.0022 2.48552 16.8371 2.4521 16.6475C2.38309 16.2563 2.64521 15.8821 3.03641 15.8131L4.20562 15.6069L4.10737 17.0872L3.28651 17.2319ZM25.792 28.2106C25.7035 28.1487 25.6445 28.056 25.6258 27.9498L25.2707 25.9359L27.3953 25.5613L27.7504 27.5752C27.7891 27.7946 27.6421 28.0046 27.4227 28.0433L26.0939 28.2776C25.9874 28.2961 25.8803 28.2725 25.792 28.2106ZM36.4396 31.4079H26.5507C27.5397 30.2534 28.2373 29.4395 28.5271 29.1016C29.1717 28.9553 31.1351 28.5204 32.489 28.2215C32.5737 28.2028 32.6542 28.169 32.7268 28.1217L35.4288 26.3622H36.4395V31.4079H36.4396Z" fill="#5481CE"/>
</svg>
