<?xml version="1.0" encoding="UTF-8"?>
<svg xmlns="http://www.w3.org/2000/svg" width="186" height="87.84" viewBox="0 0 186 87.84">
  <g id="Grupo_99" data-name="Grupo 99" transform="translate(-3140 -5394.84)">
    <path id="Trazado_266" data-name="Trazado 266" d="M1139.4,6729.83v3.69h3.5v1.65h-3.5v3.71h-1.8v-3.71h-3.48v-1.65h3.48v-3.69Zm6.76,8.9h2.64v-7.59c0-.29.01-.6.02-.93l-1.87,1.57a.71.71,0,0,1-.24.13.661.661,0,0,1-.23.04.763.763,0,0,1-.34-.07.789.789,0,0,1-.21-.18l-.71-.97,3.97-3.37h1.83v11.37h2.34v1.66h-7.2Zm18.01-4.85a10.48,10.48,0,0,1-.37,2.97,5.883,5.883,0,0,1-1.01,2.07,4.055,4.055,0,0,1-1.52,1.22,4.666,4.666,0,0,1-3.78,0,4.239,4.239,0,0,1-1.5-1.22,6.049,6.049,0,0,1-1-2.07,12.391,12.391,0,0,1,0-5.93,6.049,6.049,0,0,1,1-2.07,4.1,4.1,0,0,1,1.5-1.21,4.56,4.56,0,0,1,3.78,0,3.93,3.93,0,0,1,1.52,1.21,5.883,5.883,0,0,1,1.01,2.07A10.405,10.405,0,0,1,1164.17,6733.88Zm-2.29,0a10.875,10.875,0,0,0-.21-2.34,4.761,4.761,0,0,0-.56-1.47,2,2,0,0,0-.79-.77,2.061,2.061,0,0,0-.94-.22,1.927,1.927,0,0,0-1.71.99,4.769,4.769,0,0,0-.55,1.47,11.732,11.732,0,0,0-.19,2.34,11.6,11.6,0,0,0,.19,2.34,4.837,4.837,0,0,0,.55,1.48,1.927,1.927,0,0,0,1.71.99,2.061,2.061,0,0,0,.94-.22,2,2,0,0,0,.79-.77,4.829,4.829,0,0,0,.56-1.48A10.753,10.753,0,0,0,1161.88,6733.88Zm12.73,0a10.48,10.48,0,0,1-.37,2.97,5.881,5.881,0,0,1-1.01,2.07,4.053,4.053,0,0,1-1.52,1.22,4.576,4.576,0,0,1-1.89.4,4.646,4.646,0,0,1-1.89-.4,4.237,4.237,0,0,1-1.5-1.22,6.047,6.047,0,0,1-1-2.07,12.387,12.387,0,0,1,0-5.93,6.047,6.047,0,0,1,1-2.07,4.1,4.1,0,0,1,1.5-1.21,4.491,4.491,0,0,1,1.89-.41,4.425,4.425,0,0,1,1.89.41,3.928,3.928,0,0,1,1.52,1.21,5.881,5.881,0,0,1,1.01,2.07A10.405,10.405,0,0,1,1174.61,6733.88Zm-2.29,0a10.875,10.875,0,0,0-.21-2.34,4.522,4.522,0,0,0-.56-1.47,2,2,0,0,0-.79-.77,2.062,2.062,0,0,0-.94-.22,2.04,2.04,0,0,0-.92.22,2,2,0,0,0-.79.77,5.039,5.039,0,0,0-.55,1.47,11.731,11.731,0,0,0-.19,2.34,11.6,11.6,0,0,0,.19,2.34,5.112,5.112,0,0,0,.55,1.48,2,2,0,0,0,.79.77,2.04,2.04,0,0,0,.92.22,2.062,2.062,0,0,0,.94-.22,2,2,0,0,0,.79-.77,4.585,4.585,0,0,0,.56-1.48A10.753,10.753,0,0,0,1172.32,6733.88Zm10.59,1.11a5.49,5.49,0,0,1,.28.6c.09.21.18.42.26.63.09-.22.17-.43.26-.64s.19-.41.29-.61l3.85-7.21a.961.961,0,0,1,.15-.21.484.484,0,0,1,.17-.12.711.711,0,0,1,.21-.04,2.3,2.3,0,0,1,.28-.01h1.83v13.01h-2.13v-8.4c0-.16,0-.33.01-.52s.02-.37.04-.56l-3.93,7.38a1.107,1.107,0,0,1-.35.39.976.976,0,0,1-.51.14h-.33a.916.916,0,0,1-.5-.14,1.044,1.044,0,0,1-.36-.39l-3.98-7.41c.02.2.04.39.04.58s.02.36.02.53v8.4h-2.13v-13.01h1.82a2.211,2.211,0,0,1,.28.01.652.652,0,0,1,.21.04.441.441,0,0,1,.18.12.715.715,0,0,1,.15.21Z" transform="translate(2065 -1285)" fill="#084bb9"/>
    <path id="Trazado_267" data-name="Trazado 267" d="M1168,6679.84a17.7,17.7,0,0,1,17.71,17.72,1.762,1.762,0,0,1-.51,1.25,1.812,1.812,0,0,1-1.26.52h-14.17v10.63a5.315,5.315,0,0,1-10.63,0,1.812,1.812,0,0,1,.52-1.26,1.762,1.762,0,0,1,1.25-.51,1.759,1.759,0,0,1,1.78,1.77,1.762,1.762,0,0,0,.51,1.25,1.813,1.813,0,0,0,1.26.52,1.775,1.775,0,0,0,1.77-1.77v-10.63h-14.17a1.812,1.812,0,0,1-1.26-.52,1.762,1.762,0,0,1-.51-1.25,17.713,17.713,0,0,1,17.71-17.72Zm14.07,15.95a14.176,14.176,0,0,0-28.14,0Z" transform="translate(2065 -1285)" fill="#084bb9"/>
    <path id="Trazado_268" data-name="Trazado 268" d="M1241.82,6710.83c-1.27-3.29-4.37-5.46-6.81-6.72-.88,2.55-1.7,6.39-.36,9.84,1.27,3.28,4.28,5.48,6.65,6.77C1242.25,6718.15,1243.15,6714.28,1241.82,6710.83Z" transform="translate(2065 -1285)" fill="#ffad00"/>
    <path id="Trazado_269" data-name="Trazado 269" d="M1230.6,6717.47c-1.2,2.37-2.41,5.79-1.69,9.18.81,3.85,3.98,6.71,6.19,8.29,1.28-2.39,2.58-5.84,1.86-9.24C1236.15,6721.87,1232.89,6719.04,1230.6,6717.47Z" transform="translate(2065 -1285)" fill="#ffad00"/>
    <path id="Trazado_270" data-name="Trazado 270" d="M1222.76,6728.56c-1.32,2.34-2.97,6.23-2.17,10.07.69,3.24,3.04,5.78,5.1,7.45,1.4-2.36,3.14-6.26,2.33-10.09C1227.33,6732.74,1224.89,6730.21,1222.76,6728.56Z" transform="translate(2065 -1285)" fill="#ffad00"/>
    <path id="Trazado_271" data-name="Trazado 271" d="M1217.73,6745.53c-.09-3.59-2.37-6.72-4.27-8.73-1.67,2.11-3.71,5.43-3.61,9.11.09,3.59,2.27,6.73,4.1,8.74C1215.7,6752.54,1217.83,6749.21,1217.73,6745.53Z" transform="translate(2065 -1285)" fill="#ffad00"/>
    <path id="Trazado_272" data-name="Trazado 272" d="M1239.01,6739.85Z" transform="translate(2065 -1285)" fill="#ffad00"/>
    <path id="Trazado_273" data-name="Trazado 273" d="M1245.99,6728.9c-5.5,2.83-6.97,10.89-6.98,10.95h0a14.136,14.136,0,0,0,1.41.5,12.57,12.57,0,0,0,6.52-1.18c5.51-2.84,7.1-10.69,7.11-10.72h0a17.79,17.79,0,0,0-1.9-.69A11.971,11.971,0,0,0,1245.99,6728.9Z" transform="translate(2065 -1285)" fill="#ffad00"/>
    <path id="Trazado_274" data-name="Trazado 274" d="M1239.91,6743.57c-6.18.35-10.8,7.1-10.84,7.16h0a21,21,0,0,0,3.82,3.07,10.717,10.717,0,0,0,3.06.29c6.19-.35,10.84-6.86,10.86-6.89h0a21.931,21.931,0,0,0-4.08-3.37A10.168,10.168,0,0,0,1239.91,6743.57Z" transform="translate(2065 -1285)" fill="#ffad00"/>
    <path id="Trazado_275" data-name="Trazado 275" d="M1214.98,6760.65Z" transform="translate(2065 -1285)" fill="#ffad00"/>
    <path id="Trazado_276" data-name="Trazado 276" d="M1227.7,6756.66c-6.19-1.41-12.66,3.95-12.72,3.99h0a21.405,21.405,0,0,0,2.1,3.16,11.89,11.89,0,0,0,4.58,2.24c6.2,1.41,12.63-3.69,12.66-3.72h0a21.8,21.8,0,0,0-2.32-3.58A11.417,11.417,0,0,0,1227.7,6756.66Z" transform="translate(2065 -1285)" fill="#ffad00"/>
    <path id="Trazado_277" data-name="Trazado 277" d="M1251.94,6713.42c-4.52,3.11-5.5,9.73-5.66,11.23a12.9,12.9,0,0,0,7.48-1.95c4.41-3.03,5.33-9.57,5.5-11.31A13.164,13.164,0,0,0,1251.94,6713.42Z" transform="translate(2065 -1285)" fill="#ffad00"/>
    <path id="Trazado_278" data-name="Trazado 278" d="M1260.73,6710.1a1.435,1.435,0,0,0-.85-.59c-.69-.18-8.49-2.13-13.95,1.62a11.448,11.448,0,0,0-1.02.78,60.134,60.134,0,0,0,.53-7.96,1.48,1.48,0,0,0-2.96,0c0,1.45-.05,2.9-.16,4.33-3.01-4.6-8.98-6.62-10.01-6.94a1.411,1.411,0,0,0-1.03.01,1.439,1.439,0,0,0-.79.7c-.3.57-3.52,6.72-2.08,12.53a1.244,1.244,0,0,0-.38.03,1.528,1.528,0,0,0-.85.56c-.39.51-4.39,5.86-4.1,11.68a20.837,20.837,0,0,0-2.96-1.81,1.454,1.454,0,0,0-1.88.38,21.141,21.141,0,0,0-4.08,9.85,22.23,22.23,0,0,0-2.25-1.96,1.426,1.426,0,0,0-.96-.34,1.463,1.463,0,0,0-.99.39c-.52.47-6.42,5.92-6.24,12.52.12,4.81,3.46,8.75,5.56,10.78a58.836,58.836,0,0,1-19.29,5.43,1.468,1.468,0,0,0,.15,2.93.894.894,0,0,0,.16-.01,61.772,61.772,0,0,0,20.79-6c1.34,2.15,4.95,7.16,10.35,8.38a11.51,11.51,0,0,0,2.59.29c5.37,0,10.19-3.41,11.23-4.2a1.444,1.444,0,0,0,.37-.33,1.474,1.474,0,0,0,.16-1.55,22.177,22.177,0,0,0-6.63-7.78,14.207,14.207,0,0,0,6.4,1.68c.21,0,.41-.01.62-.02,6.32-.35,11.03-6.18,11.92-7.37a1.285,1.285,0,0,0,.26-.42,1.474,1.474,0,0,0-.26-1.53,23.073,23.073,0,0,0-5.7-4.39,13.093,13.093,0,0,0,5.41-1.35c5.62-2.89,7.53-10.12,7.85-11.57a1.3,1.3,0,0,0,.07-.48,1.446,1.446,0,0,0-.87-1.3,22.747,22.747,0,0,0-4.47-1.35,12.379,12.379,0,0,0,4.41-1.84c5.35-3.66,6.11-11.56,6.19-12.77A1.42,1.42,0,0,0,1260.73,6710.1Zm-17.78,15.67a10.2,10.2,0,0,0-1.76.61c.11-.3.23-.59.34-.89C1241.9,6725.58,1242.38,6725.68,1242.95,6725.77Zm-10.38-21.22c2.14.85,6.57,3.02,8.04,6.8s-.22,8.34-1.18,10.4a19.846,19.846,0,0,1-4.13-2.33,20.6,20.6,0,0,0-2.19-2.04,9.407,9.407,0,0,1-1.52-2.51C1230.13,6711.09,1231.67,6706.61,1232.57,6704.55Zm6.15,20.08c-.07.19-.13.37-.21.55a5.693,5.693,0,0,0-.19-.71C1238.47,6724.53,1238.6,6724.58,1238.72,6724.63Zm-9.9-6.66a19.144,19.144,0,0,1,2.27,1.56,29.611,29.611,0,0,1,2.18,2.03,9.325,9.325,0,0,1,2.4,4.41c.84,3.98-1.57,8.2-2.85,10.08-1.9-1.19-5.77-4.05-6.62-8.05C1225.36,6724.04,1227.61,6719.86,1228.82,6717.97Zm1,19.59c.5.37.97.68,1.38.94-.54.73-1.09,1.44-1.66,2.15A13.171,13.171,0,0,0,1229.82,6737.56Zm-9.96-9.31c1.98,1.18,6,4.03,6.84,8s-1.57,8.19-2.84,10.07c-1.91-1.19-5.78-4.05-6.63-8.04C1216.39,6734.31,1218.65,6730.13,1219.86,6728.25Zm-13.19,17.56c-.11-4.05,2.86-7.76,4.4-9.39,1.73,1.52,5.17,5.04,5.28,9.09s-3.03,7.78-4.63,9.4C1210.07,6753.4,1206.78,6749.89,1206.67,6745.81Zm12.6.76a24.174,24.174,0,0,0,2.58,1.96q-1.995,1.68-4.13,3.19A13.8,13.8,0,0,0,1219.27,6746.57Zm13.26,15.24c-1.92,1.25-6.3,3.66-10.44,2.72-4.1-.93-7.07-4.85-8.3-6.78,1.94-1.33,6.37-3.88,10.48-2.95S1231.32,6759.83,1232.53,6761.81Zm-7.61-9.87a10.971,10.971,0,0,0-2.33-.27c.53-.43,1.06-.87,1.58-1.32a22.7,22.7,0,0,0,3.14,2.41A11.841,11.841,0,0,0,1224.92,6751.94Zm11.09.61c-4.06.22-7.87-2.63-9.55-4.1,1.47-1.77,4.91-5.3,8.97-5.53,4.08-.22,7.91,2.79,9.58,4.33C1243.54,6748.94,1240.11,6752.32,1236.01,6752.55Zm16.48-23.23c-.65,2.14-2.39,6.62-6.04,8.49-3.61,1.85-8.26.8-10.41.14.63-2.21,2.31-6.83,5.93-8.69S1250.33,6728.59,1252.49,6729.32Zm.64-7.86c-3.36,2.31-8.21,1.72-10.44,1.27.37-2.21,1.53-6.87,4.91-9.18,3.35-2.3,8.09-1.84,10.31-1.45C1257.57,6714.37,1256.48,6719.16,1253.13,6721.46Z" transform="translate(2065 -1285)" fill="#084bb9"/>
    <path id="Trazado_279" data-name="Trazado 279" d="M1094.18,6710.83c1.27-3.29,4.37-5.46,6.81-6.72.88,2.55,1.7,6.39.36,9.84-1.27,3.28-4.28,5.48-6.65,6.77C1093.75,6718.15,1092.85,6714.28,1094.18,6710.83Z" transform="translate(2065 -1285)" fill="#ffad00"/>
    <path id="Trazado_280" data-name="Trazado 280" d="M1105.4,6717.47c1.2,2.37,2.41,5.79,1.69,9.18-.81,3.85-3.98,6.71-6.19,8.29-1.28-2.39-2.58-5.84-1.86-9.24C1099.85,6721.87,1103.11,6719.04,1105.4,6717.47Z" transform="translate(2065 -1285)" fill="#ffad00"/>
    <path id="Trazado_281" data-name="Trazado 281" d="M1113.24,6728.56c1.32,2.34,2.97,6.23,2.17,10.07-.69,3.24-3.04,5.78-5.1,7.45-1.4-2.36-3.14-6.26-2.33-10.09C1108.67,6732.74,1111.11,6730.21,1113.24,6728.56Z" transform="translate(2065 -1285)" fill="#ffad00"/>
    <path id="Trazado_282" data-name="Trazado 282" d="M1118.27,6745.53c.09-3.59,2.37-6.72,4.27-8.73,1.67,2.11,3.71,5.43,3.61,9.11-.09,3.59-2.27,6.73-4.1,8.74C1120.3,6752.54,1118.17,6749.21,1118.27,6745.53Z" transform="translate(2065 -1285)" fill="#ffad00"/>
    <path id="Trazado_283" data-name="Trazado 283" d="M1096.99,6739.85Z" transform="translate(2065 -1285)" fill="#ffad00"/>
    <path id="Trazado_284" data-name="Trazado 284" d="M1090.01,6728.9c5.5,2.83,6.97,10.89,6.98,10.95h0a14.136,14.136,0,0,1-1.41.5,12.57,12.57,0,0,1-6.52-1.18c-5.51-2.84-7.1-10.69-7.11-10.72h0a17.79,17.79,0,0,1,1.9-.69A11.971,11.971,0,0,1,1090.01,6728.9Z" transform="translate(2065 -1285)" fill="#ffad00"/>
    <path id="Trazado_285" data-name="Trazado 285" d="M1096.09,6743.57c6.18.35,10.8,7.1,10.84,7.16h0a21,21,0,0,1-3.82,3.07,10.717,10.717,0,0,1-3.06.29c-6.19-.35-10.84-6.86-10.86-6.89h0a21.931,21.931,0,0,1,4.08-3.37A10.168,10.168,0,0,1,1096.09,6743.57Z" transform="translate(2065 -1285)" fill="#ffad00"/>
    <path id="Trazado_286" data-name="Trazado 286" d="M1121.02,6760.65Z" transform="translate(2065 -1285)" fill="#ffad00"/>
    <path id="Trazado_287" data-name="Trazado 287" d="M1108.3,6756.66c6.19-1.41,12.66,3.95,12.72,3.99h0a21.405,21.405,0,0,1-2.1,3.16,11.89,11.89,0,0,1-4.58,2.24c-6.2,1.41-12.63-3.69-12.66-3.72h0a21.8,21.8,0,0,1,2.32-3.58A11.417,11.417,0,0,1,1108.3,6756.66Z" transform="translate(2065 -1285)" fill="#ffad00"/>
    <path id="Trazado_288" data-name="Trazado 288" d="M1084.06,6713.42c4.52,3.11,5.5,9.73,5.66,11.23a12.9,12.9,0,0,1-7.48-1.95c-4.41-3.03-5.33-9.57-5.5-11.31A13.164,13.164,0,0,1,1084.06,6713.42Z" transform="translate(2065 -1285)" fill="#ffad00"/>
    <path id="Trazado_289" data-name="Trazado 289" d="M1075.27,6710.1a1.435,1.435,0,0,1,.85-.59c.69-.18,8.49-2.13,13.95,1.62a11.448,11.448,0,0,1,1.02.78,60.134,60.134,0,0,1-.53-7.96,1.48,1.48,0,0,1,2.96,0c0,1.45.05,2.9.16,4.33,3.01-4.6,8.98-6.62,10.01-6.94a1.411,1.411,0,0,1,1.03.01,1.439,1.439,0,0,1,.79.7c.3.57,3.52,6.72,2.08,12.53a1.244,1.244,0,0,1,.38.03,1.528,1.528,0,0,1,.85.56c.39.51,4.39,5.86,4.1,11.68a20.837,20.837,0,0,1,2.96-1.81,1.454,1.454,0,0,1,1.88.38,21.141,21.141,0,0,1,4.08,9.85,22.23,22.23,0,0,1,2.25-1.96,1.426,1.426,0,0,1,.96-.34,1.463,1.463,0,0,1,.99.39c.52.47,6.42,5.92,6.24,12.52-.12,4.81-3.46,8.75-5.56,10.78a58.836,58.836,0,0,0,19.29,5.43,1.468,1.468,0,0,1-.15,2.93.894.894,0,0,1-.16-.01,61.772,61.772,0,0,1-20.79-6c-1.34,2.15-4.95,7.16-10.35,8.38a11.51,11.51,0,0,1-2.59.29c-5.37,0-10.19-3.41-11.23-4.2a1.444,1.444,0,0,1-.37-.33,1.474,1.474,0,0,1-.16-1.55,22.177,22.177,0,0,1,6.63-7.78,14.207,14.207,0,0,1-6.4,1.68c-.21,0-.41-.01-.62-.02-6.32-.35-11.03-6.18-11.92-7.37a1.285,1.285,0,0,1-.26-.42,1.474,1.474,0,0,1,.26-1.53,23.073,23.073,0,0,1,5.7-4.39,13.093,13.093,0,0,1-5.41-1.35c-5.62-2.89-7.53-10.12-7.85-11.57a1.3,1.3,0,0,1-.07-.48,1.446,1.446,0,0,1,.87-1.3,22.747,22.747,0,0,1,4.47-1.35,12.379,12.379,0,0,1-4.41-1.84c-5.35-3.66-6.11-11.56-6.19-12.77A1.42,1.42,0,0,1,1075.27,6710.1Zm17.78,15.67a10.2,10.2,0,0,1,1.76.61c-.11-.3-.23-.59-.34-.89C1094.1,6725.58,1093.62,6725.68,1093.05,6725.77Zm10.38-21.22c-2.14.85-6.57,3.02-8.04,6.8s.22,8.34,1.18,10.4a19.846,19.846,0,0,0,4.13-2.33,20.6,20.6,0,0,1,2.19-2.04,9.407,9.407,0,0,0,1.52-2.51C1105.87,6711.09,1104.33,6706.61,1103.43,6704.55Zm-6.15,20.08c.07.19.13.37.21.55a5.693,5.693,0,0,1,.19-.71C1097.53,6724.53,1097.4,6724.58,1097.28,6724.63Zm9.9-6.66a19.144,19.144,0,0,0-2.27,1.56,29.611,29.611,0,0,0-2.18,2.03,9.325,9.325,0,0,0-2.4,4.41c-.84,3.98,1.57,8.2,2.85,10.08,1.9-1.19,5.77-4.05,6.62-8.05C1110.64,6724.04,1108.39,6719.86,1107.18,6717.97Zm-1,19.59c-.5.37-.97.68-1.38.94.54.73,1.09,1.44,1.66,2.15A13.171,13.171,0,0,1,1106.18,6737.56Zm9.96-9.31c-1.98,1.18-6,4.03-6.84,8s1.57,8.19,2.84,10.07c1.91-1.19,5.78-4.05,6.63-8.04C1119.61,6734.31,1117.35,6730.13,1116.14,6728.25Zm13.19,17.56c.11-4.05-2.86-7.76-4.4-9.39-1.73,1.52-5.17,5.04-5.28,9.09s3.03,7.78,4.63,9.4C1125.93,6753.4,1129.22,6749.89,1129.33,6745.81Zm-12.6.76a24.174,24.174,0,0,1-2.58,1.96q1.995,1.68,4.13,3.19A13.8,13.8,0,0,1,1116.73,6746.57Zm-13.26,15.24c1.92,1.25,6.3,3.66,10.44,2.72,4.1-.93,7.07-4.85,8.3-6.78-1.94-1.33-6.37-3.88-10.48-2.95S1104.68,6759.83,1103.47,6761.81Zm7.61-9.87a10.971,10.971,0,0,1,2.33-.27c-.53-.43-1.06-.87-1.58-1.32a22.7,22.7,0,0,1-3.14,2.41A11.841,11.841,0,0,1,1111.08,6751.94Zm-11.09.61c4.06.22,7.87-2.63,9.55-4.1-1.47-1.77-4.91-5.3-8.97-5.53-4.08-.22-7.91,2.79-9.58,4.33C1092.46,6748.94,1095.89,6752.32,1099.99,6752.55Zm-16.48-23.23c.65,2.14,2.39,6.62,6.04,8.49,3.61,1.85,8.26.8,10.41.14-.63-2.21-2.31-6.83-5.93-8.69S1085.67,6728.59,1083.51,6729.32Zm-.64-7.86c3.36,2.31,8.21,1.72,10.44,1.27-.37-2.21-1.53-6.87-4.91-9.18-3.35-2.3-8.09-1.84-10.31-1.45C1078.43,6714.37,1079.52,6719.16,1082.87,6721.46Z" transform="translate(2065 -1285)" fill="#084bb9"/>
  </g>
</svg>
