<?xml version="1.0" encoding="UTF-8"?>
<svg xmlns="http://www.w3.org/2000/svg" xmlns:xlink="http://www.w3.org/1999/xlink" width="219.55" height="89.216" viewBox="0 0 219.55 89.216">
  <defs>
    <linearGradient id="linear-gradient" x1="0.5" x2="0.5" y2="1" gradientUnits="objectBoundingBox">
      <stop offset="0.119" stop-color="#fada17"/>
      <stop offset="0.968" stop-color="#f76268"/>
    </linearGradient>
  </defs>
  <g id="Grupo_98" data-name="Grupo 98" transform="translate(-2675.725 -6453.607)">
    <g id="Grupo_95" data-name="Grupo 95" transform="translate(2065 -210)">
      <path id="Trazado_257" data-name="Trazado 257" d="M718.893,6665.76a5,5,0,0,1,8.214,0l11.584,16.68a5.018,5.018,0,0,0,2.665,1.94l19.448,5.86a5,5,0,0,1,2.539,7.81l-12.289,16.18a4.99,4.99,0,0,0-1.018,3.13l.435,20.31a5.007,5.007,0,0,1-6.645,4.83l-19.179-6.69a4.9,4.9,0,0,0-3.294,0l-19.179,6.69a5.007,5.007,0,0,1-6.645-4.83l.435-20.31a4.99,4.99,0,0,0-1.018-3.13l-12.289-16.18a5,5,0,0,1,2.539-7.81l19.448-5.86a5.018,5.018,0,0,0,2.665-1.94Z" fill="url(#linear-gradient)"/>
      <path id="Trazado_258" data-name="Trazado 258" d="M720.125,6666.61a3.505,3.505,0,0,1,5.75,0l11.584,16.69a6.519,6.519,0,0,0,3.464,2.52l19.448,5.86a3.5,3.5,0,0,1,1.777,5.47l-12.289,16.17a6.5,6.5,0,0,0-1.323,4.07l.436,20.31a3.5,3.5,0,0,1-4.652,3.38l-19.179-6.69a6.547,6.547,0,0,0-4.282,0l-19.179,6.69a3.5,3.5,0,0,1-4.652-3.38l.436-20.31a6.5,6.5,0,0,0-1.323-4.07l-12.289-16.17a3.5,3.5,0,0,1,1.777-5.47l19.448-5.86a6.519,6.519,0,0,0,3.464-2.52Z" fill="none" stroke="#fff" stroke-width="3"/>
    </g>
    <g id="Grupo_97" data-name="Grupo 97" transform="translate(2065 -210)">
      <path id="Trazado_259" data-name="Trazado 259" d="M800.371,6704.89a5,5,0,0,1,8.258,0l5.711,8.36a5.02,5.02,0,0,0,2.664,1.96l9.707,2.97a5,5,0,0,1,2.54,7.78l-6.2,8.29a4.982,4.982,0,0,0-.994,3.1l.218,10.34a5,5,0,0,1-6.67,4.81l-9.434-3.34a5.037,5.037,0,0,0-3.342,0l-9.434,3.34a5,5,0,0,1-6.67-4.81l.218-10.34a4.982,4.982,0,0,0-.994-3.1l-6.2-8.29a5,5,0,0,1,2.54-7.78l9.707-2.97a5.02,5.02,0,0,0,2.664-1.96Z" fill="url(#linear-gradient)"/>
      <path id="Trazado_260" data-name="Trazado 260" d="M801.61,6705.73a3.5,3.5,0,0,1,5.78,0l5.711,8.36,1.239-.84-1.239.84a6.48,6.48,0,0,0,3.464,2.55l9.707,2.98a3.5,3.5,0,0,1,1.778,5.44l-6.2,8.29a6.5,6.5,0,0,0-1.292,4.03l.218,10.34a3.5,3.5,0,0,1-4.669,3.37l-9.434-3.34a6.478,6.478,0,0,0-4.344,0l-9.434,3.34a3.5,3.5,0,0,1-4.669-3.37l.218-10.34a6.5,6.5,0,0,0-1.292-4.03l-6.2-8.29a3.5,3.5,0,0,1,1.778-5.44l9.707-2.98a6.48,6.48,0,0,0,3.464-2.55l-1.239-.84,1.239.84Z" fill="none" stroke="#fff" stroke-width="3"/>
    </g>
    <g id="Grupo_96" data-name="Grupo 96" transform="translate(2065 -210)">
      <path id="Trazado_261" data-name="Trazado 261" d="M632.371,6704.89a5,5,0,0,1,8.258,0l5.711,8.36a5.02,5.02,0,0,0,2.664,1.96l9.707,2.97a5,5,0,0,1,2.54,7.78l-6.2,8.29a4.982,4.982,0,0,0-.994,3.1l.218,10.34a5,5,0,0,1-6.67,4.81l-9.434-3.34a5.037,5.037,0,0,0-3.342,0l-9.434,3.34a5,5,0,0,1-6.67-4.81l.218-10.34a4.982,4.982,0,0,0-.994-3.1l-6.2-8.29a5,5,0,0,1,2.54-7.78l9.707-2.97a5.02,5.02,0,0,0,2.664-1.96Z" fill="url(#linear-gradient)"/>
      <path id="Trazado_262" data-name="Trazado 262" d="M633.61,6705.73a3.5,3.5,0,0,1,5.78,0l5.711,8.36,1.239-.84-1.239.84a6.48,6.48,0,0,0,3.464,2.55l9.707,2.98a3.5,3.5,0,0,1,1.778,5.44l-6.2,8.29a6.5,6.5,0,0,0-1.292,4.03l.218,10.34a3.5,3.5,0,0,1-4.669,3.37l-9.434-3.34a6.478,6.478,0,0,0-4.344,0l-9.434,3.34a3.5,3.5,0,0,1-4.669-3.37l.218-10.34a6.5,6.5,0,0,0-1.292-4.03l-6.2-8.29a3.5,3.5,0,0,1,1.778-5.44l9.707-2.98a6.48,6.48,0,0,0,3.464-2.55l-1.239-.84,1.239.84Z" fill="none" stroke="#fff" stroke-width="3"/>
    </g>
    <path id="Trazado_407" data-name="Trazado 407" d="M717.188,6710.21h2.548v2.01a.739.739,0,0,1-.182.49.691.691,0,0,1-.532.19h-1.834v4.94h-3.024v-4.94h-8.54a.965.965,0,0,1-.616-.21.975.975,0,0,1-.336-.54l-.35-1.75,9.59-12.81h3.276Zm-3.024-6.62q0-.45.028-.96c.019-.35.051-.71.1-1.08L708,6710.21h6.16Zm7.1,12.35a2.266,2.266,0,0,1,.154-.83,2.176,2.176,0,0,1,.448-.67,2.392,2.392,0,0,1,.686-.45,2.138,2.138,0,0,1,.84-.16,2.094,2.094,0,0,1,.826.16,2.183,2.183,0,0,1,.672.45,2.158,2.158,0,0,1,.448.67,2.159,2.159,0,0,1,0,1.67,2.233,2.233,0,0,1-.448.66,1.978,1.978,0,0,1-.672.43,2.111,2.111,0,0,1-.826.17,2.324,2.324,0,0,1-1.526-.6,2.251,2.251,0,0,1-.448-.66A2.276,2.276,0,0,1,721.264,6715.94Zm20.611-18.34v1.5a3.2,3.2,0,0,1-.154,1.09,5.931,5.931,0,0,1-.28.69l-7.658,15.79a2.543,2.543,0,0,1-.672.84,1.9,1.9,0,0,1-1.176.33h-2.506l7.84-15.47a7.949,7.949,0,0,1,1.092-1.63h-9.688a.764.764,0,0,1-.56-.24.779.779,0,0,1-.238-.56v-2.34Z" transform="translate(2065 -210)" fill="#fff"/>
  </g>
</svg>
