<?xml version="1.0" encoding="UTF-8"?>
<svg xmlns="http://www.w3.org/2000/svg" width="68.535" height="115.82" viewBox="0 0 68.535 115.82">
  <g id="Grupo_100" data-name="Grupo 100" transform="translate(-2302 -5375)">
    <path id="Trazado_233" data-name="Trazado 233" d="M256.986,6695.21h14.175c3.473,0,8.009,0,10.348,1.4a9.277,9.277,0,0,1,4.607,8.09,8.837,8.837,0,0,1-5.812,8.64v.14c4.819.98,7.442,4.57,7.442,9.35,0,5.69-4.111,11.1-11.836,11.1H256.986Zm5.174,16.58h10.419c5.882,0,8.292-2.1,8.292-6.18,0-5.34-3.827-6.11-8.292-6.11H262.16Zm0,17.78H275.2c4.465,0,7.3-2.74,7.3-6.95,0-5.06-4.111-6.47-8.505-6.47H262.16Z" transform="translate(2065 -1285)" fill="#084bb9"/>
    <path id="Trazado_234" data-name="Trazado 234" d="M301,6714.54a29.7,29.7,0,1,1-29.7-29.45A29.606,29.606,0,0,1,301,6714.54Zm-29.7-33.95a33.946,33.946,0,1,0,34.232,33.95A34.068,34.068,0,0,0,271.3,6680.59Z" transform="translate(2065 -1285)" fill="#084bb9"/>
    <path id="Trazado_235" data-name="Trazado 235" d="M305.322,6755.58H237.071V6760h68.251Z" transform="translate(2065 -1285)" fill="#084bb9"/>
    <path id="Trazado_236" data-name="Trazado 236" d="M303.2,6750.73h.213a.262.262,0,0,0,.212-.07.152.152,0,0,0,.142-.14.255.255,0,0,0,.071-.21.286.286,0,0,0-.071-.22c0-.07-.071-.07-.142-.14-.071,0-.071-.07-.141-.07h-.709v.78h.425Zm.213-1.06a1.435,1.435,0,0,1,.638.14.64.64,0,0,1,.212.5.633.633,0,0,1-.212.49l-.426.21.709,1.05H303.9l-.638-.98h-.425v.98h-.355v-2.39Zm-1.7,1.83a1.521,1.521,0,0,0,.354.56,1.547,1.547,0,0,0,.567.35,2.1,2.1,0,0,0,.638.14,1.714,1.714,0,0,0,.638-.14,2.52,2.52,0,0,0,.567-.35,1.52,1.52,0,0,0,.354-.56,2.045,2.045,0,0,0,.142-.7,2.16,2.16,0,0,0-.142-.71,1.52,1.52,0,0,0-.354-.56,1.555,1.555,0,0,0-.567-.35,2.083,2.083,0,0,0-.638-.14,1.7,1.7,0,0,0-.638.14,2.5,2.5,0,0,0-.567.35,1.521,1.521,0,0,0-.354.56,2.16,2.16,0,0,0-.142.71A2.045,2.045,0,0,0,301.708,6751.5Zm-.355-1.48.426-.63a1.671,1.671,0,0,1,.637-.42,2.241,2.241,0,0,1,1.56,0,3.349,3.349,0,0,1,.638.42,1.659,1.659,0,0,1,.425.63,1.543,1.543,0,0,1,.142.78,2.484,2.484,0,0,1-.142.77,1.431,1.431,0,0,1-.425.63,1.852,1.852,0,0,1-.638.43,3.038,3.038,0,0,1-.78.14,2.574,2.574,0,0,1-.78-.14,1.085,1.085,0,0,1-.637-.43,1.653,1.653,0,0,1-.426-.63,1.376,1.376,0,0,1-.141-.77A1.553,1.553,0,0,1,301.353,6750.02Z" transform="translate(2065 -1285)" fill="#084bb9"/>
    <path id="Trazado_237" data-name="Trazado 237" d="M246,6660v2.18h-6.308v2.53h5.811v2.04h-5.811v2.95h6.449v2.18h-9.072V6660Z" transform="translate(2065 -1285)" fill="#084bb9"/>
    <path id="Trazado_238" data-name="Trazado 238" d="M249.97,6663.3v1.2a4.074,4.074,0,0,1,1.134-1.06,3.326,3.326,0,0,1,1.488-.35,4.688,4.688,0,0,1,1.489.28,2.393,2.393,0,0,1,1.063,1.13,5.02,5.02,0,0,1,1.063-.99,2.885,2.885,0,0,1,1.559-.42,7.939,7.939,0,0,1,1.276.14,2.214,2.214,0,0,1,.992.57,2,2,0,0,1,.638.98,4.16,4.16,0,0,1,.212,1.4v5.77h-2.409v-5.84a.849.849,0,0,0-.213-.63.821.821,0,0,0-.425-.42c-.071-.14-.355-.14-.709-.14a1.154,1.154,0,0,0-.78.21,1.658,1.658,0,0,0-.5.49,1.186,1.186,0,0,0-.212.71,2.831,2.831,0,0,0-.071.77v4.78h-2.41v-5.63a2.048,2.048,0,0,0-.142-.7.938.938,0,0,0-.425-.49,2.673,2.673,0,0,0-.85-.14.908.908,0,0,0-.426.07,2.137,2.137,0,0,0-.567.28,1.094,1.094,0,0,0-.425.56,2.355,2.355,0,0,0-.212,1.06v4.99H247.7v-8.58Z" transform="translate(2065 -1285)" fill="#084bb9"/>
    <path id="Trazado_239" data-name="Trazado 239" d="M264.782,6663.3v1.13a2.221,2.221,0,0,1,1.134-.99,3.328,3.328,0,0,1,1.489-.28,4.424,4.424,0,0,1,1.772.35,3.49,3.49,0,0,1,1.2.99,3.559,3.559,0,0,1,.708,1.47,7.094,7.094,0,0,1,.213,1.76,6.89,6.89,0,0,1-.213,1.69,4.35,4.35,0,0,1-.708,1.4,3.38,3.38,0,0,1-1.2.99,4.328,4.328,0,0,1-1.7.35,3.334,3.334,0,0,1-1.489-.35,3.053,3.053,0,0,1-1.134-.99v4.08h-2.409v-11.6Zm3.048,6.75a1.378,1.378,0,0,0,.638-.63,4.079,4.079,0,0,0,.354-.85,4.886,4.886,0,0,0,.071-.98,4.083,4.083,0,0,0-.142-.98,3.4,3.4,0,0,0-.354-.92,1.383,1.383,0,0,0-.638-.63,1.621,1.621,0,0,0-.921-.21,2.076,2.076,0,0,0-.992.21,1.378,1.378,0,0,0-.638.63,3.429,3.429,0,0,0-.355.92,5.3,5.3,0,0,0-.071,1.05,4.081,4.081,0,0,0,.142.98,2.3,2.3,0,0,0,.355.85,1.814,1.814,0,0,0,.637.63,2.086,2.086,0,0,0,.993.21A1.318,1.318,0,0,0,267.83,6670.05Z" transform="translate(2065 -1285)" fill="#084bb9"/>
    <path id="Trazado_240" data-name="Trazado 240" d="M274.634,6663.3v1.62c.142-.28.283-.49.425-.77a5.52,5.52,0,0,1,.78-.64,2.634,2.634,0,0,1,.779-.35,3.586,3.586,0,0,1,.851-.14,1.222,1.222,0,0,1,.5.07v2.18c-.142,0-.213-.07-.425-.07h-.425a2.964,2.964,0,0,0-1.134.21,1.916,1.916,0,0,0-.709.56,4.681,4.681,0,0,0-.425.85,5.336,5.336,0,0,0-.142,1.05v3.87H272.3v-8.44Z" transform="translate(2065 -1285)" fill="#084bb9"/>
    <path id="Trazado_241" data-name="Trazado 241" d="M281.154,6669.77a2.086,2.086,0,0,0,1.56.49,2.042,2.042,0,0,0,1.2-.35,1.3,1.3,0,0,0,.638-.77h2.127a3.789,3.789,0,0,1-1.56,2.18,4.827,4.827,0,0,1-2.48.63,5.075,5.075,0,0,1-1.843-.35,3.8,3.8,0,0,1-1.417-.92,4.651,4.651,0,0,1-.851-1.4,6.057,6.057,0,0,1,0-3.66,3.25,3.25,0,0,1,.921-1.4,5.122,5.122,0,0,1,1.418-.99,4.99,4.99,0,0,1,1.772-.35,4.266,4.266,0,0,1,1.913.42,3.517,3.517,0,0,1,1.347,1.13,10.106,10.106,0,0,1,.78,1.82,5.783,5.783,0,0,1,.141,1.9h-6.237A2.017,2.017,0,0,0,281.154,6669.77Zm2.694-4.5a1.773,1.773,0,0,0-1.276-.49,1.791,1.791,0,0,0-.922.21,1.31,1.31,0,0,0-.567.49,1.255,1.255,0,0,0-.283.63c-.071.22-.071.43-.142.57h3.9A4.274,4.274,0,0,0,283.848,6665.27Z" transform="translate(2065 -1285)" fill="#084bb9"/>
    <path id="Trazado_242" data-name="Trazado 242" d="M290.226,6669.7a.637.637,0,0,0,.425.42,1.439,1.439,0,0,0,.567.28,2.206,2.206,0,0,0,.709.07,1.212,1.212,0,0,0,.5-.07c.213-.07.355-.07.5-.21a.848.848,0,0,0,.355-.35,1,1,0,0,0,.142-.49c0-.35-.213-.64-.709-.78a14.572,14.572,0,0,0-1.985-.56,4.1,4.1,0,0,1-.992-.28,1.62,1.62,0,0,1-.85-.42,1.809,1.809,0,0,1-.638-.63,2.053,2.053,0,0,1-.213-.99,2.482,2.482,0,0,1,1.205-2.18,3.525,3.525,0,0,1,1.2-.42,8.8,8.8,0,0,1,1.346-.14,7.956,7.956,0,0,1,1.347.14,3.525,3.525,0,0,1,1.205.42,2.456,2.456,0,0,1,.85.85,3.278,3.278,0,0,1,.426,1.33h-2.268a1,1,0,0,0-.5-.91,2.736,2.736,0,0,0-1.134-.21h-.426a1.022,1.022,0,0,0-.425.14c-.142.07-.213.14-.354.21a.987.987,0,0,0-.142.42.632.632,0,0,0,.213.49,2.546,2.546,0,0,0,.637.35c.284.07.567.15.851.22.354.07.638.14.992.21a4.094,4.094,0,0,1,.992.28,4.708,4.708,0,0,1,.851.42,2,2,0,0,1,.638.7,2.238,2.238,0,0,1,.212.99,2.726,2.726,0,0,1-.354,1.4,2.376,2.376,0,0,1-.921.92,3.461,3.461,0,0,1-1.276.49,9.739,9.739,0,0,1-1.418.14,10.724,10.724,0,0,1-1.488-.14,3.461,3.461,0,0,1-1.276-.49,2.979,2.979,0,0,1-.921-.92,3.637,3.637,0,0,1-.425-1.4h2.268C290.084,6669.35,290.155,6669.56,290.226,6669.7Z" transform="translate(2065 -1285)" fill="#084bb9"/>
    <path id="Trazado_243" data-name="Trazado 243" d="M297.526,6664.57a3.991,3.991,0,0,1,.922-.92,5.339,5.339,0,0,1,1.275-.49,9.685,9.685,0,0,1,1.418-.14,9.164,9.164,0,0,1,1.346.07,3.913,3.913,0,0,1,1.276.42,2.106,2.106,0,0,1,.851.71,2.063,2.063,0,0,1,.354,1.26v4.5a5.581,5.581,0,0,0,.071,1.12,3.879,3.879,0,0,0,.212.78h-2.409c-.071-.14-.071-.28-.142-.43,0-.14-.071-.28-.071-.42a3.373,3.373,0,0,1-1.347.85,5.965,5.965,0,0,1-1.559.21,5.6,5.6,0,0,1-1.134-.14,2.247,2.247,0,0,1-.921-.5,2.193,2.193,0,0,1-.638-.77,2.867,2.867,0,0,1-.213-1.12,2.015,2.015,0,0,1,.284-1.2,3.378,3.378,0,0,1,.638-.77,2.211,2.211,0,0,1,.921-.42l1.063-.21c.355-.07.709-.07,1.063-.14a3.645,3.645,0,0,0,.922-.14,1.264,1.264,0,0,0,.638-.29.687.687,0,0,0,.212-.56,1.379,1.379,0,0,0-.142-.63c0-.21-.141-.28-.283-.35a1.033,1.033,0,0,0-.5-.14c-.213,0-.355-.07-.567-.07a1.815,1.815,0,0,0-1.134.28,1.46,1.46,0,0,0-.5.98h-2.41A4.82,4.82,0,0,1,297.526,6664.57Zm4.678,3.3a4.624,4.624,0,0,1-.5.14c-.142,0-.355.07-.567.07s-.355.07-.567.07a1.031,1.031,0,0,0-.5.14,2.377,2.377,0,0,0-.426.21.7.7,0,0,0-.283.35,1.39,1.39,0,0,0-.142.57,1.305,1.305,0,0,0,.142.56,1.562,1.562,0,0,0,.283.35,1.039,1.039,0,0,0,.5.14c.212,0,.354.07.566.07a2.014,2.014,0,0,0,1.064-.21,1.448,1.448,0,0,0,.567-.56,1.124,1.124,0,0,0,.212-.63c0-.22.071-.43.071-.57v-.91A2.433,2.433,0,0,1,302.2,6667.87Z" transform="translate(2065 -1285)" fill="#084bb9"/>
    <path id="Trazado_244" data-name="Trazado 244" d="M243.733,6768.51a3.51,3.51,0,0,0-.5-.56,2.951,2.951,0,0,0-.638-.36,2.584,2.584,0,0,0-.78-.14,2.044,2.044,0,0,0-1.2.28,1.718,1.718,0,0,0-.78.78,2.354,2.354,0,0,0-.425,1.05,3.245,3.245,0,0,0-.213,1.2,6.809,6.809,0,0,0,.142,1.19,3.413,3.413,0,0,0,.425,1.06,2.44,2.44,0,0,0,.78.7,2.192,2.192,0,0,0,1.2.28,2.355,2.355,0,0,0,1.559-.56,2.8,2.8,0,0,0,.638-1.55H246a5.465,5.465,0,0,1-.425,1.62,3.234,3.234,0,0,1-.922,1.26,3.087,3.087,0,0,1-1.275.78,4.2,4.2,0,0,1-1.63.28,5.886,5.886,0,0,1-1.985-.35,5.946,5.946,0,0,1-1.488-1.06,3.99,3.99,0,0,1-.922-1.62,6.023,6.023,0,0,1-.354-1.96,5.714,5.714,0,0,1,.354-1.97,4.6,4.6,0,0,1,.922-1.62,3.614,3.614,0,0,1,1.488-1.05,4.58,4.58,0,0,1,1.985-.42,4.759,4.759,0,0,1,1.488.21,3.628,3.628,0,0,1,1.276.63,3.321,3.321,0,0,1,.921,1.05,4.639,4.639,0,0,1,.5,1.48h-1.984A1.121,1.121,0,0,0,243.733,6768.51Z" transform="translate(2065 -1285)" fill="#084bb9"/>
    <path id="Trazado_245" data-name="Trazado 245" d="M249.19,6773.85a1.748,1.748,0,0,0,1.276.42,1.641,1.641,0,0,0,.992-.28,1.29,1.29,0,0,0,.5-.63h1.7a3.553,3.553,0,0,1-1.275,1.82,3.829,3.829,0,0,1-2.056.57,3.321,3.321,0,0,1-1.488-.28,2.539,2.539,0,0,1-1.134-.78,3.746,3.746,0,0,1-.709-1.12,4.582,4.582,0,0,1-.283-1.48,3.625,3.625,0,0,1,.283-1.47,4,4,0,0,1,.709-1.2,3.236,3.236,0,0,1,1.134-.77,3.321,3.321,0,0,1,1.488-.28,3.645,3.645,0,0,1,1.56.35,3.33,3.33,0,0,1,1.063.91,3.928,3.928,0,0,1,.637,1.34,5.414,5.414,0,0,1,.142,1.54h-5.1A1.815,1.815,0,0,0,249.19,6773.85Zm2.127-3.66a1.23,1.23,0,0,0-1.064-.35,2.577,2.577,0,0,0-.779.14,1.189,1.189,0,0,0-.5.36,1.126,1.126,0,0,0-.284.49,1.176,1.176,0,0,0-.071.49h3.119A1.508,1.508,0,0,0,251.317,6770.19Z" transform="translate(2065 -1285)" fill="#084bb9"/>
    <path id="Trazado_246" data-name="Trazado 246" d="M256.207,6768.58v1.26a2.82,2.82,0,0,1,.354-.63,3.282,3.282,0,0,1,.5-.49,3.251,3.251,0,0,1,1.347-.42.9.9,0,0,1,.425.07v1.75a.775.775,0,0,1-.354-.07h-.355a3.643,3.643,0,0,0-.921.14,2.087,2.087,0,0,0-.567.5,2.174,2.174,0,0,0-.354.7,3.36,3.36,0,0,0-.071.84v3.17h-1.914v-6.96h1.914Z" transform="translate(2065 -1285)" fill="#084bb9"/>
    <path id="Trazado_247" data-name="Trazado 247" d="M264,6768.58v1.26h-1.418v3.45a1,1,0,0,0,.142.63c.142.14.355.14.638.14h.284a.431.431,0,0,0,.283-.07v1.48c-.142,0-.354.07-.567.07H262.8a3.5,3.5,0,0,1-.85-.07c-.284-.07-.5-.15-.709-.22a1.641,1.641,0,0,1-.5-.49,1.5,1.5,0,0,1-.142-.84v-4.08h-1.134v-1.26H260.6v-2.11h1.984v2.11Z" transform="translate(2065 -1285)" fill="#084bb9"/>
    <path id="Trazado_248" data-name="Trazado 248" d="M264.995,6765.91h1.914v1.55h-1.914Zm1.914,9.63h-1.914v-6.96h1.914Z" transform="translate(2065 -1285)" fill="#084bb9"/>
    <path id="Trazado_249" data-name="Trazado 249" d="M267.688,6769.84v-1.26h1.134v-.56a2.3,2.3,0,0,1,.567-1.55,2.35,2.35,0,0,1,1.772-.56h.992v1.4c-.212,0-.5-.07-.708-.07a.674.674,0,0,0-.567.22c-.142.14-.142.35-.142.63v.42h1.347v1.26h-1.347v5.7h-1.914v-5.7h-1.134Z" transform="translate(2065 -1285)" fill="#084bb9"/>
    <path id="Trazado_250" data-name="Trazado 250" d="M273,6765.91h1.914v1.55H273Zm1.984,9.63h-1.913v-6.96h1.913Z" transform="translate(2065 -1285)" fill="#084bb9"/>
    <path id="Trazado_251" data-name="Trazado 251" d="M279.312,6769.84a1.446,1.446,0,0,0-.78.21,1.814,1.814,0,0,0-.5.57,2.9,2.9,0,0,0-.284.7,3.14,3.14,0,0,0-.07.77,2.869,2.869,0,0,0,.07.77,2.051,2.051,0,0,0,.284.71,1.647,1.647,0,0,0,.5.49,1.442,1.442,0,0,0,.78.21,1.479,1.479,0,0,0,1.063-.35,1.832,1.832,0,0,0,.5-1.06h1.843a3.04,3.04,0,0,1-3.331,2.82,3.207,3.207,0,0,1-1.418-.28,4.055,4.055,0,0,1-1.134-.71,3.049,3.049,0,0,1-.709-1.12,4.56,4.56,0,0,1-.283-1.41,4.623,4.623,0,0,1,.212-1.47,3.3,3.3,0,0,1,.709-1.2,2.52,2.52,0,0,1,1.134-.77,3.319,3.319,0,0,1,1.489-.28,6.28,6.28,0,0,1,1.2.14,7.221,7.221,0,0,1,1.064.49,2.061,2.061,0,0,1,.708.84,2.99,2.99,0,0,1,.355,1.2H280.8A1.446,1.446,0,0,0,279.312,6769.84Z" transform="translate(2065 -1285)" fill="#084bb9"/>
    <path id="Trazado_252" data-name="Trazado 252" d="M283.706,6769.63a1.873,1.873,0,0,1,.779-.7,2.381,2.381,0,0,1,1.064-.35,6.239,6.239,0,0,1,1.134-.14,5.447,5.447,0,0,1,1.063.07,4.119,4.119,0,0,1,.992.28,1.551,1.551,0,0,1,.709.63,1.472,1.472,0,0,1,.283.98v3.66a3.941,3.941,0,0,0,.071.91c.071.28.071.5.213.64h-1.985a.64.64,0,0,1-.071-.36c0-.14-.071-.21-.071-.35a2.068,2.068,0,0,1-1.063.64,4.05,4.05,0,0,1-1.275.21,3.622,3.622,0,0,1-.922-.14,2.413,2.413,0,0,1-.779-.36,1.53,1.53,0,0,1-.5-.63,1.928,1.928,0,0,1-.212-.91,2.088,2.088,0,0,1,.212-.99,1.667,1.667,0,0,1,.567-.63,2.652,2.652,0,0,1,.78-.35l.851-.21c.283-.07.567-.07.85-.14a3.058,3.058,0,0,0,.78-.14,3.52,3.52,0,0,0,.5-.21.335.335,0,0,0,.142-.42,1.046,1.046,0,0,0-.071-.5.552.552,0,0,0-.284-.28.766.766,0,0,0-.425-.14h-.5a1.792,1.792,0,0,0-.922.21.958.958,0,0,0-.354.85h-1.914A2.335,2.335,0,0,1,283.706,6769.63Zm3.827,2.67a.9.9,0,0,1-.425.07c-.142,0-.284.07-.425.07s-.284.07-.5.07a1.023,1.023,0,0,0-.425.14,1.564,1.564,0,0,0-.354.21c-.071.08-.213.15-.284.29a1.279,1.279,0,0,0,0,.84.551.551,0,0,0,.284.28c.142.07.212.14.354.14s.284.07.425.07a1.375,1.375,0,0,0,.851-.21,3.065,3.065,0,0,0,.5-.42,4.794,4.794,0,0,0,.213-.56v-1.13C287.746,6772.23,287.675,6772.3,287.533,6772.3Z" transform="translate(2065 -1285)" fill="#084bb9"/>
    <path id="Trazado_253" data-name="Trazado 253" d="M295.684,6774.69a2.233,2.233,0,0,1-.922.85,3.414,3.414,0,0,1-1.276.28,3.205,3.205,0,0,1-1.417-.28,3.014,3.014,0,0,1-.992-.85,3.669,3.669,0,0,1-.567-1.19,4.518,4.518,0,0,1-.213-1.41,4.027,4.027,0,0,1,.213-1.33,4.207,4.207,0,0,1,.567-1.13,2.126,2.126,0,0,1,.992-.77,2.725,2.725,0,0,1,1.347-.28,2.527,2.527,0,0,1,1.2.28,2.36,2.36,0,0,1,.922.77v-3.51h1.913v9.63h-1.842Zm-.071-3.44a2.082,2.082,0,0,0-.284-.7,1.679,1.679,0,0,0-.5-.5,1.552,1.552,0,0,0-1.559,0,1.127,1.127,0,0,0-.5.5,2.082,2.082,0,0,0-.284.7,3.361,3.361,0,0,0-.071.84,2.589,2.589,0,0,0,.071.77,2.051,2.051,0,0,0,.284.71,1.636,1.636,0,0,0,.5.49,1.552,1.552,0,0,0,1.559,0,1.647,1.647,0,0,0,.5-.49,2.051,2.051,0,0,0,.284-.71,3.361,3.361,0,0,0,.071-.84A2.59,2.59,0,0,0,295.613,6771.25Z" transform="translate(2065 -1285)" fill="#084bb9"/>
    <path id="Trazado_254" data-name="Trazado 254" d="M299.015,6769.63a1.872,1.872,0,0,1,.779-.7,2.381,2.381,0,0,1,1.063-.35,6.26,6.26,0,0,1,1.134-.14,5.437,5.437,0,0,1,1.063.07,4.114,4.114,0,0,1,.993.28,1.543,1.543,0,0,1,.708.63,1.467,1.467,0,0,1,.284.98v3.66a3.941,3.941,0,0,0,.071.91c.071.28.071.5.212.64h-1.984a.639.639,0,0,1-.071-.36c0-.14-.071-.21-.071-.35a2.072,2.072,0,0,1-1.063.64,4.052,4.052,0,0,1-1.276.21,3.614,3.614,0,0,1-.921-.14,2.418,2.418,0,0,1-.78-.36,1.536,1.536,0,0,1-.5-.63,1.916,1.916,0,0,1-.212-.91,2.076,2.076,0,0,1,.212-.99,1.667,1.667,0,0,1,.567-.63,2.641,2.641,0,0,1,.78-.35l.85-.21c.284-.07.567-.07.851-.14a3.051,3.051,0,0,0,.779-.14,3.487,3.487,0,0,0,.5-.21.335.335,0,0,0,.141-.42,1.046,1.046,0,0,0-.071-.5.546.546,0,0,0-.283-.28.769.769,0,0,0-.425-.14h-.5a1.791,1.791,0,0,0-.922.21.958.958,0,0,0-.354.85H298.66A1.774,1.774,0,0,1,299.015,6769.63Zm3.827,2.67a.906.906,0,0,1-.425.07c-.142,0-.284.07-.426.07s-.283.07-.5.07a1.018,1.018,0,0,0-.425.14,1.542,1.542,0,0,0-.354.21c-.071.08-.213.15-.284.29a1.278,1.278,0,0,0,0,.84.551.551,0,0,0,.284.28c.141.07.212.14.354.14s.283.07.425.07a1.375,1.375,0,0,0,.851-.21,3.109,3.109,0,0,0,.5-.42,4.633,4.633,0,0,0,.212-.56v-1.13C303.054,6772.23,302.913,6772.3,302.842,6772.3Z" transform="translate(2065 -1285)" fill="#084bb9"/>
  </g>
</svg>
