<?xml version="1.0" encoding="utf-8"?>
<svg width="40" height="40" viewBox="0 0 40 40" fill="none" xmlns="http://www.w3.org/2000/svg">
<path d="M37.3518 20.3432H36.3436C35.4844 17.8808 33.7836 15.7952 31.5481 14.4456V10.5198C31.5481 10.178 31.2763 9.90638 30.9344 9.90638C29.9086 9.90638 28.9004 10.1693 28.0062 10.66C29.067 6.51507 26.5597 2.29127 22.4041 1.2397C18.2486 0.188135 14.0316 2.69437 12.9708 6.8393C12.813 7.46148 12.7341 8.10995 12.7341 8.74965C12.7341 10.4146 13.2689 12.0358 14.2596 13.3678C10.3846 14.5508 7.4827 17.7668 6.6849 21.7365C6.64107 21.6927 6.59724 21.6489 6.5534 21.6138C6.58847 20.8252 6.35176 20.0452 5.86958 19.4231C5.11561 18.3364 3.86194 17.6967 2.54689 17.7318C2.21374 17.7668 1.96827 18.0648 2.00334 18.4066C2.0384 18.7308 2.32771 18.9762 2.65209 18.9586C3.55509 18.9674 4.38796 19.4231 4.89644 20.1679C5.08055 20.4133 5.21205 20.6849 5.29095 20.9829C5.05425 20.9391 4.81754 20.9391 4.58083 20.9741C3.43235 21.1494 3.05537 21.9118 3.08168 22.5077C3.11674 23.2525 3.70413 23.8572 4.44932 23.9185C4.48439 23.9185 4.51946 23.9185 4.55453 23.9185C5.22082 23.901 5.81697 23.5329 6.15012 22.9633C6.27286 23.1211 6.38683 23.2963 6.49203 23.4716C6.48326 23.6293 6.48326 23.7958 6.48326 23.9536C6.49203 27.5289 8.21036 30.8764 11.1122 32.962C12.4448 33.9347 13.2251 35.4945 13.2075 37.142C13.2075 37.4838 13.4793 37.7554 13.8212 37.7554H19.4409C19.7828 37.7554 20.0546 37.4838 20.0546 37.142V35.0301H23.3772V37.142C23.3772 37.4838 23.649 37.7554 23.9909 37.7554H29.6106C29.9525 37.7554 30.2243 37.475 30.2243 37.1332C30.2418 35.442 31.0659 33.8646 32.4335 32.8744C34.2483 31.5424 35.6159 29.6846 36.3524 27.564H37.3606C38.2636 27.564 39 26.8279 39 25.9253V21.9819C38.9912 21.0705 38.2548 20.3432 37.3518 20.3432ZM5.14192 22.2185C5.03671 22.4814 4.79124 22.6566 4.51069 22.6742C4.38796 22.6479 4.30029 22.5515 4.29152 22.4288C4.28275 22.2448 4.6685 22.1747 4.7474 22.1659C4.79124 22.1571 4.84384 22.1571 4.88767 22.1571C4.97534 22.1571 5.06301 22.1659 5.14192 22.1922C5.15068 22.2097 5.15068 22.2185 5.14192 22.2185ZM20.2211 14.4982C19.4233 14.4982 18.6255 14.5771 17.8365 14.7085C14.5401 13.2451 13.0497 9.39812 14.5138 6.10321C15.5659 3.74594 17.9066 2.22117 20.4929 2.22117C24.1049 2.22993 27.0243 5.15679 27.0243 8.76718C27.0243 10.0553 26.6386 11.3085 25.9284 12.3776C25.7619 12.5791 25.5953 12.7807 25.455 12.9997C24.7975 13.7621 23.9822 14.358 23.0616 14.7436C22.2989 14.5946 21.5362 14.5158 20.7647 14.4982H20.2211ZM37.7639 25.9165C37.7639 26.1443 37.5798 26.3284 37.3518 26.3284H35.8965C35.6247 26.3284 35.388 26.5036 35.3091 26.7665C34.6866 28.8171 33.4242 30.6135 31.6971 31.8754C30.1892 32.9708 29.216 34.662 29.0232 36.5198H24.6046V34.4079C24.6046 34.0662 24.3328 33.7945 23.9909 33.7945H19.4409C19.099 33.7945 18.8272 34.0662 18.8272 34.4079V36.5198H14.4086C14.2508 34.6971 13.304 33.0321 11.8311 31.9543C7.4038 28.7908 6.38683 22.6391 9.55171 18.2138C10.9106 16.3122 12.9095 14.9539 15.1889 14.3843C15.487 14.6647 15.8026 14.9189 16.1445 15.1467C15.4519 15.3745 14.8031 15.7163 14.2245 16.1544C13.9615 16.3648 13.9177 16.7503 14.1281 17.0132C14.3385 17.2761 14.7242 17.3199 14.9872 17.1096C16.0656 16.2421 18.1258 15.7075 20.3526 15.7075C22.5794 15.7075 24.6397 16.2421 25.718 17.1096C25.981 17.3199 26.3668 17.2761 26.5772 17.0132C26.7876 16.7503 26.7438 16.3648 26.4808 16.1544C25.9635 15.7513 25.3761 15.4359 24.7624 15.2168C25.306 14.8663 25.7969 14.4456 26.2353 13.9724C26.3054 13.9199 26.358 13.8585 26.4018 13.7884C26.4018 13.7884 26.4194 13.7621 26.4369 13.7358C26.5947 13.543 26.7525 13.3503 26.8928 13.1487C27.7607 12.0971 28.9793 11.3873 30.3295 11.1683V14.7962C30.3295 15.0152 30.4522 15.2256 30.6451 15.3307C32.8982 16.5838 34.5727 18.6607 35.3179 21.1231C35.3968 21.386 35.6335 21.5613 35.9053 21.5613H37.3606C37.5885 21.5613 37.7726 21.7453 37.7726 21.9731L37.7639 25.9165Z" fill="#FA9152" stroke="#FA9152" stroke-width="0.4"/>
<path d="M31.4956 20.019C31.1537 20.019 30.8819 20.2907 30.8819 20.6325C30.8819 21.0881 30.5137 21.4562 30.0578 21.4562C29.6019 21.4562 29.2337 21.0881 29.2337 20.6325C29.2337 20.2907 28.9619 20.019 28.62 20.019C28.2781 20.019 28.0063 20.2907 28.0063 20.6325C28.0063 21.7629 28.9181 22.683 30.0578 22.683C31.1888 22.683 32.1093 21.7717 32.1093 20.6325C32.1093 20.2907 31.8288 20.019 31.4956 20.019Z" fill="#FA9152" stroke="#FA9152" stroke-width="0.4"/>
<path d="M20.334 7.57031C19.914 7.57031 19.5723 7.22861 19.5723 6.80859C19.5723 6.38858 19.914 6.04688 20.334 6.04688C20.6038 6.04688 20.8888 6.18459 21.1579 6.44503C21.4603 6.7376 21.9424 6.72953 22.2349 6.42735C22.5274 6.12495 22.5195 5.64278 22.2172 5.35021C21.8306 4.97613 21.4438 4.7646 21.0956 4.64904V3.76172C21.0956 3.3411 20.7546 3 20.3339 3C19.9132 3 19.5722 3.3411 19.5722 3.76172V4.65445C18.6856 4.96889 18.0488 5.81554 18.0488 6.80859C18.0488 8.06863 19.0739 9.09375 20.3339 9.09375C20.7539 9.09375 21.0956 9.43546 21.0956 9.85547C21.0956 10.2755 20.7539 10.6172 20.3339 10.6172C20.0084 10.6172 19.6571 10.4125 19.3448 10.041C19.074 9.71889 18.5935 9.67738 18.2716 9.94809C17.9495 10.2188 17.908 10.6993 18.1787 11.0213C18.5859 11.5057 19.0647 11.8433 19.5722 12.0134V12.9023C19.5722 13.323 19.9132 13.6641 20.3339 13.6641C20.7546 13.6641 21.0957 13.323 21.0957 12.9023V12.0096C21.9823 11.6952 22.6192 10.8485 22.6192 9.85547C22.6192 8.59543 21.594 7.57031 20.334 7.57031Z" fill="#FA9152"/>
</svg>
