<?xml version="1.0" encoding="utf-8"?>
<svg width="40" height="40" viewBox="0 0 40 40" fill="none" xmlns="http://www.w3.org/2000/svg">
<rect width="40" height="40" fill="white"/>
<path fill-rule="evenodd" clip-rule="evenodd" d="M35.5577 8.60016H37.3349C38.1907 8.60016 38.8869 9.29638 38.8867 10.1521V21.4924C38.8867 22.3482 38.1905 23.0444 37.3347 23.0444H35.5575V24.5213C35.5575 25.692 34.605 26.6445 33.4342 26.6445H31.7404C30.5697 26.6445 29.6172 25.692 29.6172 24.5213V18.4418H27.7166V19.4546C27.7166 19.975 27.5344 20.483 27.2038 20.8851L25.4814 22.9791L25.4924 26.8136C25.4924 26.8497 25.4887 26.8881 25.4816 26.9275V32.9627C25.4816 33.269 25.2333 33.5173 24.927 33.5173C24.6207 33.5173 24.3724 33.269 24.3724 32.9627V26.6374C24.3722 26.6322 24.3722 26.6272 24.3722 26.6222V22.7804C24.3722 22.6518 24.4168 22.5273 24.4985 22.428L26.3472 20.1804C26.515 19.9765 26.6074 19.7186 26.6074 19.4546V16.1027C26.6074 15.775 26.3408 15.5085 26.0132 15.5085H21.2445C20.7239 15.5085 20.3003 15.9321 20.3003 16.4527C20.3003 16.9732 20.7239 17.3968 21.2445 17.3968H23.7679C24.0742 17.3968 24.3226 17.645 24.3226 17.9514C24.3226 18.2578 24.0742 18.506 23.7679 18.506L13.2793 18.4419V19.4546C13.2793 19.7187 13.3717 19.9765 13.5395 20.1804L15.3882 22.4281C15.4699 22.5274 15.5145 22.6519 15.5145 22.7804V32.9627C15.5145 33.2691 15.2662 33.5173 14.9599 33.5173C14.6536 33.5173 14.4053 33.2691 14.4053 32.9627V22.9792L12.6829 20.8852C12.3522 20.4831 12.1702 19.9751 12.1702 19.4546V18.4419H10.2695V24.5213C10.2695 25.6921 9.31709 26.6446 8.14627 26.6446H6.45249C5.28174 26.6446 4.32922 25.6921 4.32922 24.5213V23.0445H2.55202C1.69622 23.0445 1 22.3483 1 21.4925V10.1521C1 9.29638 1.69622 8.60016 2.55202 8.60016H4.32922V7.12335C4.32922 5.95253 5.28167 5 6.45249 5H8.14627C9.31701 5 10.2695 5.95253 10.2695 7.12335L10.2698 11.6372C10.2698 11.6372 10.2698 11.6373 10.2698 11.6373V13.2029H12.9211V11.8557C12.9211 10.6711 13.8847 9.70746 15.0693 9.70746C15.6021 9.70746 16.0898 9.90283 16.4657 10.2252C16.8506 9.64475 17.5093 9.26089 18.2564 9.26089C18.7488 9.26089 19.2024 9.42808 19.565 9.70768C19.932 9.0477 20.6365 8.60016 21.4437 8.60016C22.2976 8.60016 23.0365 9.10101 23.3826 9.82422C23.7346 9.57169 24.1654 9.42239 24.6308 9.42239C25.8153 9.42239 26.779 10.386 26.779 11.5706V13.2028H29.6174V7.12335C29.6174 5.95253 30.5698 5 31.7407 5H33.4344C34.6052 5 35.5577 5.95253 35.5577 7.12335V8.60016ZM9.16054 11.6373L9.16032 7.12335C9.16032 6.56415 8.70546 6.10922 8.14627 6.10922H6.45249C5.89337 6.10922 5.43844 6.56415 5.43844 7.12335V24.5214C5.43844 25.0806 5.89329 25.5355 6.45249 25.5355H8.14649C8.70561 25.5355 9.16054 25.0806 9.16054 24.5214V11.6373ZM2.10922 21.4925C2.10922 21.7366 2.30785 21.9353 2.55202 21.9353H4.32922V9.70938H2.55202C2.30785 9.70938 2.10922 9.90793 2.10922 10.1521V21.4925ZM25.6697 11.5706C25.6697 10.9977 25.2037 10.5316 24.6308 10.5316C24.0578 10.5316 23.5917 10.9977 23.5917 11.5706V13.6354C23.5917 13.9283 23.716 14.2038 23.9286 14.3994H25.3329C25.5455 14.2038 25.6697 13.9283 25.6697 13.6354V11.5706ZM21.4435 9.70938C20.8707 9.70938 20.4046 10.1755 20.4046 10.7484L20.4045 13.6354C20.4045 13.9571 20.5519 14.2538 20.7988 14.4487C20.9424 14.4168 21.0915 14.3994 21.2445 14.3994H22.1457C22.3583 14.2038 22.4825 13.9283 22.4825 13.6354V10.7484C22.4825 10.1755 22.0164 9.70938 21.4435 9.70938ZM18.2563 10.37C17.6834 10.37 17.2173 10.8361 17.2173 11.409V13.6354C17.2173 14.2083 17.6834 14.6744 18.2563 14.6744C18.8293 14.6744 19.2953 14.2083 19.2953 13.6354V11.409C19.2953 10.8361 18.8292 10.37 18.2563 10.37ZM15.0691 10.8166C14.4962 10.8166 14.0301 11.2827 14.0301 11.8556V13.6354C14.0301 14.2084 14.4962 14.6745 15.0691 14.6745C15.6419 14.6745 16.108 14.2084 16.108 13.6354V11.8556C16.108 11.2827 15.6419 10.8166 15.0691 10.8166ZM13.0307 14.312H10.2696V17.3326H19.3898C19.2627 17.0658 19.1913 16.7674 19.1913 16.4527C19.1913 16.0655 19.2991 15.7031 19.4861 15.3937C19.1374 15.6385 18.7139 15.7836 18.2564 15.7836C17.6248 15.7836 17.0564 15.5094 16.663 15.074C16.2696 15.5094 15.7008 15.7836 15.0691 15.7836C14.121 15.7836 13.3149 15.1659 13.0307 14.312ZM27.7168 16.1028V17.3327H29.6174V14.312H26.669C26.6476 14.3765 26.6232 14.44 26.5959 14.502C27.2491 14.7405 27.7168 15.368 27.7168 16.1028ZM37.3349 21.9353C37.5791 21.9353 37.7777 21.7367 37.7777 21.4925V10.1521C37.7777 9.90801 37.5791 9.70938 37.3349 9.70938H35.5577V17.9689C35.5577 18.2753 35.3094 18.5236 35.0031 18.5236C34.6968 18.5236 34.4485 18.2753 34.4485 17.9689V7.12335C34.4485 6.56415 33.9936 6.10922 33.4344 6.10922H31.7407C31.1815 6.10922 30.7266 6.56415 30.7266 7.12335V24.5213C30.7266 25.0805 31.1815 25.5354 31.7407 25.5354H33.4344C33.9936 25.5354 34.4485 25.0805 34.4485 24.5213V20.3325C34.4485 20.0262 34.6968 19.7779 35.0031 19.7779C35.3094 19.7779 35.5577 20.0262 35.5577 20.3325V21.9353H37.3349Z" fill="#7C76FF"/>
<path d="M35.5577 8.60016H35.3577V8.80016H35.5577V8.60016ZM38.8867 10.1521L38.6867 10.1521V10.1521H38.8867ZM35.5575 23.0444V22.8444H35.3575V23.0444H35.5575ZM29.6172 18.4418H29.8172V18.2418H29.6172V18.4418ZM27.7166 18.4418V18.2418H27.5166V18.4418H27.7166ZM27.2038 20.8851L27.3583 21.0121L27.3583 21.0121L27.2038 20.8851ZM25.4814 22.9791L25.3269 22.8521L25.2812 22.9077L25.2814 22.9797L25.4814 22.9791ZM25.4924 26.8136H25.6924L25.6924 26.813L25.4924 26.8136ZM25.4816 26.9275L25.2847 26.8921L25.2816 26.9097V26.9275H25.4816ZM24.3724 26.6374H24.5724L24.5723 26.6325L24.3724 26.6374ZM24.4985 22.428L24.344 22.301L24.344 22.301L24.4985 22.428ZM26.3472 20.1804L26.1928 20.0533L26.1927 20.0533L26.3472 20.1804ZM23.7679 18.506L23.7667 18.706H23.7679V18.506ZM13.2793 18.4419L13.2805 18.2419L13.0793 18.2407V18.4419H13.2793ZM13.5395 20.1804L13.694 20.0534L13.694 20.0534L13.5395 20.1804ZM15.3882 22.4281L15.5427 22.3011L15.5427 22.301L15.3882 22.4281ZM14.4053 22.9792H14.6053V22.9075L14.5598 22.8522L14.4053 22.9792ZM12.6829 20.8852L12.5284 21.0122L12.6829 20.8852ZM12.1702 18.4419H12.3702V18.2419H12.1702V18.4419ZM10.2695 18.4419V18.2419H10.0695V18.4419H10.2695ZM4.32922 23.0445H4.52922V22.8445H4.32922V23.0445ZM4.32922 8.60016V8.80016H4.52922V8.60016H4.32922ZM10.2695 7.12335H10.0695V7.12335L10.2695 7.12335ZM10.2698 11.6372H10.4698V11.6372L10.2698 11.6372ZM10.2698 13.2029H10.0698V13.4029H10.2698V13.2029ZM12.9211 13.2029V13.4029H13.1211V13.2029H12.9211ZM16.4657 10.2252L16.3355 10.377L16.5073 10.5244L16.6324 10.3358L16.4657 10.2252ZM19.565 9.70768L19.4429 9.86607L19.6269 10.0079L19.7398 9.80487L19.565 9.70768ZM23.3826 9.82422L23.2022 9.91055L23.3052 10.1259L23.4992 9.98673L23.3826 9.82422ZM26.779 13.2028H26.579V13.4028H26.779V13.2028ZM29.6174 13.2028V13.4028H29.8174V13.2028H29.6174ZM9.16032 7.12335H8.96032V7.12335L9.16032 7.12335ZM9.16054 11.6373H9.36054V11.6373L9.16054 11.6373ZM4.32922 21.9353V22.1353H4.52922V21.9353H4.32922ZM4.32922 9.70938H4.52922V9.50938H4.32922V9.70938ZM23.9286 14.3994L23.7931 14.5466L23.8506 14.5994H23.9286V14.3994ZM25.3329 14.3994V14.5994H25.4109L25.4683 14.5466L25.3329 14.3994ZM20.4046 10.7484L20.6046 10.7484V10.7484H20.4046ZM20.4045 13.6354L20.2045 13.6354V13.6354H20.4045ZM20.7988 14.4487L20.6749 14.6057L20.7494 14.6646L20.8422 14.6439L20.7988 14.4487ZM22.1457 14.3994V14.5994H22.2237L22.2811 14.5466L22.1457 14.3994ZM10.2696 14.312V14.112H10.0696V14.312H10.2696ZM13.0307 14.312L13.2205 14.2488L13.1749 14.112H13.0307V14.312ZM10.2696 17.3326H10.0696V17.5326H10.2696V17.3326ZM19.3898 17.3326V17.5326H19.7066L19.5703 17.2466L19.3898 17.3326ZM19.4861 15.3937L19.6573 15.4972L19.3712 15.23L19.4861 15.3937ZM16.663 15.074L16.8114 14.9399L16.663 14.7757L16.5146 14.9399L16.663 15.074ZM27.7168 17.3327H27.5168V17.5327H27.7168V17.3327ZM29.6174 17.3327V17.5327H29.8174V17.3327H29.6174ZM29.6174 14.312H29.8174V14.112H29.6174V14.312ZM26.669 14.312V14.112H26.5247L26.4792 14.2489L26.669 14.312ZM26.5959 14.502L26.4129 14.4213L26.3267 14.6167L26.5273 14.6899L26.5959 14.502ZM35.5577 9.70938V9.50938H35.3577V9.70938H35.5577ZM35.5577 21.9353H35.3577V22.1353H35.5577V21.9353ZM37.3349 8.40016H35.5577V8.80016H37.3349V8.40016ZM39.0867 10.1522C39.087 9.18592 38.3012 8.40016 37.3349 8.40016V8.80016C38.0803 8.80016 38.6869 9.40684 38.6867 10.1521L39.0867 10.1522ZM39.0867 21.4924V10.1521H38.6867V21.4924H39.0867ZM37.3347 23.2444C38.3009 23.2444 39.0867 22.4587 39.0867 21.4924H38.6867C38.6867 22.2378 38.08 22.8444 37.3347 22.8444V23.2444ZM35.5575 23.2444H37.3347V22.8444H35.5575V23.2444ZM35.7575 24.5213V23.0444H35.3575V24.5213H35.7575ZM33.4342 26.8445C34.7155 26.8445 35.7575 25.8025 35.7575 24.5213H35.3575C35.3575 25.5816 34.4946 26.4445 33.4342 26.4445V26.8445ZM31.7404 26.8445H33.4342V26.4445H31.7404V26.8445ZM29.4172 24.5213C29.4172 25.8025 30.4592 26.8445 31.7404 26.8445V26.4445C30.6801 26.4445 29.8172 25.5815 29.8172 24.5213H29.4172ZM29.4172 18.4418V24.5213H29.8172V18.4418H29.4172ZM27.7166 18.6418H29.6172V18.2418H27.7166V18.6418ZM27.9166 19.4546V18.4418H27.5166V19.4546H27.9166ZM27.3583 21.0121C27.7183 20.5743 27.9166 20.0214 27.9166 19.4546H27.5166C27.5166 19.9286 27.3505 20.3918 27.0493 20.758L27.3583 21.0121ZM25.6359 23.1062L27.3583 21.0121L27.0493 20.758L25.3269 22.8521L25.6359 23.1062ZM25.6924 26.813L25.6814 22.9786L25.2814 22.9797L25.2924 26.8141L25.6924 26.813ZM25.6784 26.9629C25.6873 26.9135 25.6924 26.8633 25.6924 26.8136H25.2924C25.2924 26.8362 25.2901 26.8626 25.2847 26.8921L25.6784 26.9629ZM25.6816 32.9627V26.9275H25.2816V32.9627H25.6816ZM24.927 33.7173C25.3437 33.7173 25.6816 33.3795 25.6816 32.9627H25.2816C25.2816 33.1586 25.1228 33.3173 24.927 33.3173V33.7173ZM24.1724 32.9627C24.1724 33.3795 24.5102 33.7173 24.927 33.7173V33.3173C24.7311 33.3173 24.5724 33.1586 24.5724 32.9627H24.1724ZM24.1724 26.6374V32.9627H24.5724V26.6374H24.1724ZM24.1722 26.6222C24.1722 26.6289 24.1723 26.6356 24.1724 26.6423L24.5723 26.6325C24.5722 26.6289 24.5722 26.6255 24.5722 26.6222H24.1722ZM24.1722 22.7804V26.6222H24.5722V22.7804H24.1722ZM24.344 22.301C24.233 22.436 24.1722 22.6054 24.1722 22.7804H24.5722C24.5722 22.6982 24.6007 22.6186 24.653 22.555L24.344 22.301ZM26.1927 20.0533L24.344 22.301L24.6529 22.5551L26.5016 20.3074L26.1927 20.0533ZM26.4074 19.4546C26.4074 19.6723 26.3311 19.8852 26.1928 20.0533L26.5016 20.3074C26.6989 20.0678 26.8074 19.765 26.8074 19.4546H26.4074ZM26.4074 16.1027V19.4546H26.8074V16.1027H26.4074ZM26.0132 15.7085C26.2304 15.7085 26.4074 15.8855 26.4074 16.1027H26.8074C26.8074 15.6646 26.4512 15.3085 26.0132 15.3085V15.7085ZM21.2445 15.7085H26.0132V15.3085H21.2445V15.7085ZM20.5003 16.4527C20.5003 16.0426 20.8343 15.7085 21.2445 15.7085V15.3085C20.6134 15.3085 20.1003 15.8217 20.1003 16.4527H20.5003ZM21.2445 17.1968C20.8343 17.1968 20.5003 16.8628 20.5003 16.4527H20.1003C20.1003 17.0837 20.6134 17.5968 21.2445 17.5968V17.1968ZM23.7679 17.1968H21.2445V17.5968H23.7679V17.1968ZM24.5226 17.9514C24.5226 17.5346 24.1847 17.1968 23.7679 17.1968V17.5968C23.9638 17.5968 24.1226 17.7555 24.1226 17.9514H24.5226ZM23.7679 18.706C24.1847 18.706 24.5226 18.3683 24.5226 17.9514H24.1226C24.1226 18.1473 23.9638 18.306 23.7679 18.306V18.706ZM13.2781 18.6419L23.7667 18.706L23.7692 18.306L13.2805 18.2419L13.2781 18.6419ZM13.4793 19.4546V18.4419H13.0793V19.4546H13.4793ZM13.694 20.0534C13.5556 19.8852 13.4793 19.6723 13.4793 19.4546H13.0793C13.0793 19.7651 13.1878 20.0678 13.3851 20.3075L13.694 20.0534ZM15.5427 22.301L13.694 20.0534L13.3851 20.3075L15.2338 22.5551L15.5427 22.301ZM15.7145 22.7804C15.7145 22.6055 15.6537 22.4361 15.5427 22.3011L15.2337 22.5551C15.286 22.6187 15.3145 22.6983 15.3145 22.7804H15.7145ZM15.7145 32.9627V22.7804H15.3145V32.9627H15.7145ZM14.9599 33.7173C15.3767 33.7173 15.7145 33.3796 15.7145 32.9627H15.3145C15.3145 33.1586 15.1558 33.3173 14.9599 33.3173V33.7173ZM14.2053 32.9627C14.2053 33.3796 14.5432 33.7173 14.9599 33.7173V33.3173C14.7641 33.3173 14.6053 33.1586 14.6053 32.9627H14.2053ZM14.2053 22.9792V32.9627H14.6053V22.9792H14.2053ZM12.5284 21.0122L14.2508 23.1063L14.5598 22.8522L12.8374 20.7581L12.5284 21.0122ZM11.9702 19.4546C11.9702 20.0214 12.1683 20.5744 12.5284 21.0122L12.8374 20.7581C12.5361 20.3918 12.3702 19.9287 12.3702 19.4546H11.9702ZM11.9702 18.4419V19.4546H12.3702V18.4419H11.9702ZM10.2695 18.6419H12.1702V18.2419H10.2695V18.6419ZM10.4695 24.5213V18.4419H10.0695V24.5213H10.4695ZM8.14627 26.8446C9.42755 26.8446 10.4695 25.8025 10.4695 24.5213H10.0695C10.0695 25.5816 9.20663 26.4446 8.14627 26.4446V26.8446ZM6.45249 26.8446H8.14627V26.4446H6.45249V26.8446ZM4.12922 24.5213C4.12922 25.8025 5.17128 26.8446 6.45249 26.8446V26.4446C5.3922 26.4446 4.52922 25.5816 4.52922 24.5213H4.12922ZM4.12922 23.0445V24.5213H4.52922V23.0445H4.12922ZM2.55202 23.2445H4.32922V22.8445H2.55202V23.2445ZM0.8 21.4925C0.8 22.4587 1.58576 23.2445 2.55202 23.2445V22.8445C1.80668 22.8445 1.2 22.2378 1.2 21.4925H0.8ZM0.8 10.1521V21.4925H1.2V10.1521H0.8ZM2.55202 8.40016C1.58577 8.40016 0.8 9.18592 0.8 10.1521H1.2C1.2 9.40685 1.80667 8.80016 2.55202 8.80016V8.40016ZM4.32922 8.40016H2.55202V8.80016H4.32922V8.40016ZM4.12922 7.12335V8.60016H4.52922V7.12335H4.12922ZM6.45249 4.8C5.1712 4.8 4.12922 5.84208 4.12922 7.12335H4.52922C4.52922 6.06297 5.39213 5.2 6.45249 5.2V4.8ZM8.14627 4.8H6.45249V5.2H8.14627V4.8ZM10.4695 7.12335C10.4695 5.84207 9.42747 4.8 8.14627 4.8V5.2C9.20655 5.2 10.0695 6.06298 10.0695 7.12335H10.4695ZM10.4698 11.6372L10.4695 7.12334L10.0695 7.12335L10.0698 11.6372L10.4698 11.6372ZM10.4698 11.6373C10.4698 11.6373 10.4698 11.6373 10.4698 11.6373V11.6373C10.4698 11.6373 10.4698 11.6373 10.4698 11.6373C10.4698 11.6373 10.4698 11.6373 10.4698 11.6373C10.4698 11.6373 10.4698 11.6373 10.4698 11.6373C10.4698 11.6373 10.4698 11.6373 10.4698 11.6373V11.6373C10.4698 11.6373 10.4698 11.6373 10.4698 11.6373C10.4698 11.6373 10.4698 11.6373 10.4698 11.6373V11.6373C10.4698 11.6373 10.4698 11.6373 10.4698 11.6373C10.4698 11.6373 10.4698 11.6373 10.4698 11.6373V11.6373C10.4698 11.6373 10.4698 11.6373 10.4698 11.6373C10.4698 11.6373 10.4698 11.6373 10.4698 11.6373V11.6373C10.4698 11.6373 10.4698 11.6373 10.4698 11.6373C10.4698 11.6373 10.4698 11.6373 10.4698 11.6373V11.6373C10.4698 11.6373 10.4698 11.6373 10.4698 11.6373V11.6373C10.4698 11.6373 10.4698 11.6373 10.4698 11.6373C10.4698 11.6373 10.4698 11.6373 10.4698 11.6373V11.6373C10.4698 11.6373 10.4698 11.6373 10.4698 11.6373C10.4698 11.6373 10.4698 11.6373 10.4698 11.6373V11.6373C10.4698 11.6373 10.4698 11.6373 10.4698 11.6373C10.4698 11.6373 10.4698 11.6373 10.4698 11.6373V11.6373C10.4698 11.6373 10.4698 11.6373 10.4698 11.6373C10.4698 11.6373 10.4698 11.6373 10.4698 11.6373V11.6373C10.4698 11.6373 10.4698 11.6373 10.4698 11.6373C10.4698 11.6373 10.4698 11.6373 10.4698 11.6373V11.6373C10.4698 11.6373 10.4698 11.6373 10.4698 11.6373C10.4698 11.6373 10.4698 11.6373 10.4698 11.6373V11.6373C10.4698 11.6373 10.4698 11.6373 10.4698 11.6373C10.4698 11.6373 10.4698 11.6373 10.4698 11.6373V11.6373C10.4698 11.6373 10.4698 11.6373 10.4698 11.6373C10.4698 11.6373 10.4698 11.6373 10.4698 11.6373V11.6373V11.6373C10.4698 11.6373 10.4698 11.6373 10.4698 11.6373C10.4698 11.6373 10.4698 11.6373 10.4698 11.6373V11.6373C10.4698 11.6373 10.4698 11.6373 10.4698 11.6373C10.4698 11.6373 10.4698 11.6373 10.4698 11.6373V11.6373C10.4698 11.6373 10.4698 11.6373 10.4698 11.6373C10.4698 11.6373 10.4698 11.6373 10.4698 11.6373V11.6373C10.4698 11.6373 10.4698 11.6373 10.4698 11.6373C10.4698 11.6373 10.4698 11.6373 10.4698 11.6373V11.6373C10.4698 11.6373 10.4698 11.6373 10.4698 11.6373C10.4698 11.6373 10.4698 11.6373 10.4698 11.6373V11.6373C10.4698 11.6373 10.4698 11.6373 10.4698 11.6373C10.4698 11.6373 10.4698 11.6373 10.4698 11.6373V11.6373C10.4698 11.6373 10.4698 11.6373 10.4698 11.6373C10.4698 11.6373 10.4698 11.6373 10.4698 11.6373V11.6373C10.4698 11.6373 10.4698 11.6373 10.4698 11.6373C10.4698 11.6373 10.4698 11.6373 10.4698 11.6373V11.6373C10.4698 11.6373 10.4698 11.6373 10.4698 11.6372C10.4698 11.6372 10.4698 11.6372 10.4698 11.6372V11.6372V11.6372C10.4698 11.6372 10.4698 11.6372 10.4698 11.6372C10.4698 11.6372 10.4698 11.6372 10.4698 11.6372V11.6372C10.4698 11.6372 10.4698 11.6372 10.4698 11.6372C10.4698 11.6372 10.4698 11.6372 10.4698 11.6372V11.6372C10.4698 11.6372 10.4698 11.6372 10.4698 11.6372C10.4698 11.6372 10.4698 11.6372 10.4698 11.6372V11.6372C10.4698 11.6372 10.4698 11.6372 10.4698 11.6372C10.4698 11.6372 10.4698 11.6372 10.4698 11.6372V11.6372C10.4698 11.6372 10.4698 11.6372 10.4698 11.6372C10.4698 11.6372 10.4698 11.6372 10.4698 11.6372V11.6372C10.4698 11.6372 10.4698 11.6372 10.4698 11.6372C10.4698 11.6372 10.4698 11.6372 10.4698 11.6372V11.6372C10.4698 11.6372 10.4698 11.6372 10.4698 11.6372C10.4698 11.6372 10.4698 11.6372 10.4698 11.6372V11.6372C10.4698 11.6372 10.4698 11.6372 10.4698 11.6372C10.4698 11.6372 10.4698 11.6372 10.4698 11.6372V11.6372C10.4698 11.6372 10.4698 11.6372 10.4698 11.6372V11.6372C10.4698 11.6372 10.4698 11.6372 10.4698 11.6372C10.4698 11.6372 10.4698 11.6372 10.4698 11.6372V11.6372C10.4698 11.6372 10.4698 11.6372 10.4698 11.6372C10.4698 11.6372 10.4698 11.6372 10.4698 11.6372V11.6372C10.4698 11.6372 10.4698 11.6372 10.4698 11.6372C10.4698 11.6372 10.4698 11.6372 10.4698 11.6372V11.6372C10.4698 11.6372 10.4698 11.6372 10.4698 11.6372C10.4698 11.6372 10.4698 11.6372 10.4698 11.6372V11.6372C10.4698 11.6372 10.4698 11.6372 10.4698 11.6372C10.4698 11.6372 10.4698 11.6372 10.4698 11.6372C10.4698 11.6372 10.4698 11.6372 10.4698 11.6372C10.4698 11.6372 10.4698 11.6372 10.4698 11.6372V11.6372C10.4698 11.6372 10.4698 11.6372 10.4698 11.6372H10.0698C10.0698 11.6372 10.0698 11.6372 10.0698 11.6372V11.6372C10.0698 11.6372 10.0698 11.6372 10.0698 11.6372C10.0698 11.6372 10.0698 11.6372 10.0698 11.6372C10.0698 11.6372 10.0698 11.6372 10.0698 11.6372C10.0698 11.6372 10.0698 11.6372 10.0698 11.6372V11.6372C10.0698 11.6372 10.0698 11.6372 10.0698 11.6372C10.0698 11.6372 10.0698 11.6372 10.0698 11.6372V11.6372C10.0698 11.6372 10.0698 11.6372 10.0698 11.6372C10.0698 11.6372 10.0698 11.6372 10.0698 11.6372V11.6372C10.0698 11.6372 10.0698 11.6372 10.0698 11.6372C10.0698 11.6372 10.0698 11.6372 10.0698 11.6372V11.6372C10.0698 11.6372 10.0698 11.6372 10.0698 11.6372C10.0698 11.6372 10.0698 11.6372 10.0698 11.6372V11.6372C10.0698 11.6372 10.0698 11.6372 10.0698 11.6372V11.6372C10.0698 11.6372 10.0698 11.6372 10.0698 11.6372C10.0698 11.6372 10.0698 11.6372 10.0698 11.6372V11.6372C10.0698 11.6372 10.0698 11.6372 10.0698 11.6372C10.0698 11.6372 10.0698 11.6372 10.0698 11.6372V11.6372C10.0698 11.6372 10.0698 11.6372 10.0698 11.6372C10.0698 11.6372 10.0698 11.6372 10.0698 11.6372V11.6372C10.0698 11.6372 10.0698 11.6372 10.0698 11.6372C10.0698 11.6372 10.0698 11.6372 10.0698 11.6372V11.6372C10.0698 11.6372 10.0698 11.6372 10.0698 11.6372C10.0698 11.6372 10.0698 11.6372 10.0698 11.6372V11.6372C10.0698 11.6372 10.0698 11.6372 10.0698 11.6372C10.0698 11.6372 10.0698 11.6372 10.0698 11.6372V11.6372C10.0698 11.6372 10.0698 11.6372 10.0698 11.6372C10.0698 11.6372 10.0698 11.6372 10.0698 11.6372V11.6372C10.0698 11.6372 10.0698 11.6372 10.0698 11.6372C10.0698 11.6372 10.0698 11.6372 10.0698 11.6372V11.6372V11.6372C10.0698 11.6372 10.0698 11.6372 10.0698 11.6372C10.0698 11.6373 10.0698 11.6373 10.0698 11.6373V11.6373C10.0698 11.6373 10.0698 11.6373 10.0698 11.6373C10.0698 11.6373 10.0698 11.6373 10.0698 11.6373V11.6373C10.0698 11.6373 10.0698 11.6373 10.0698 11.6373C10.0698 11.6373 10.0698 11.6373 10.0698 11.6373V11.6373C10.0698 11.6373 10.0698 11.6373 10.0698 11.6373C10.0698 11.6373 10.0698 11.6373 10.0698 11.6373V11.6373C10.0698 11.6373 10.0698 11.6373 10.0698 11.6373C10.0698 11.6373 10.0698 11.6373 10.0698 11.6373V11.6373C10.0698 11.6373 10.0698 11.6373 10.0698 11.6373C10.0698 11.6373 10.0698 11.6373 10.0698 11.6373V11.6373C10.0698 11.6373 10.0698 11.6373 10.0698 11.6373C10.0698 11.6373 10.0698 11.6373 10.0698 11.6373V11.6373C10.0698 11.6373 10.0698 11.6373 10.0698 11.6373C10.0698 11.6373 10.0698 11.6373 10.0698 11.6373V11.6373C10.0698 11.6373 10.0698 11.6373 10.0698 11.6373C10.0698 11.6373 10.0698 11.6373 10.0698 11.6373V11.6373V11.6373C10.0698 11.6373 10.0698 11.6373 10.0698 11.6373C10.0698 11.6373 10.0698 11.6373 10.0698 11.6373V11.6373C10.0698 11.6373 10.0698 11.6373 10.0698 11.6373C10.0698 11.6373 10.0698 11.6373 10.0698 11.6373V11.6373C10.0698 11.6373 10.0698 11.6373 10.0698 11.6373C10.0698 11.6373 10.0698 11.6373 10.0698 11.6373V11.6373C10.0698 11.6373 10.0698 11.6373 10.0698 11.6373C10.0698 11.6373 10.0698 11.6373 10.0698 11.6373V11.6373C10.0698 11.6373 10.0698 11.6373 10.0698 11.6373C10.0698 11.6373 10.0698 11.6373 10.0698 11.6373V11.6373C10.0698 11.6373 10.0698 11.6373 10.0698 11.6373C10.0698 11.6373 10.0698 11.6373 10.0698 11.6373V11.6373C10.0698 11.6373 10.0698 11.6373 10.0698 11.6373C10.0698 11.6373 10.0698 11.6373 10.0698 11.6373V11.6373C10.0698 11.6373 10.0698 11.6373 10.0698 11.6373C10.0698 11.6373 10.0698 11.6373 10.0698 11.6373V11.6373C10.0698 11.6373 10.0698 11.6373 10.0698 11.6373V11.6373C10.0698 11.6373 10.0698 11.6373 10.0698 11.6373C10.0698 11.6373 10.0698 11.6373 10.0698 11.6373V11.6373C10.0698 11.6373 10.0698 11.6373 10.0698 11.6373C10.0698 11.6373 10.0698 11.6373 10.0698 11.6373V11.6373C10.0698 11.6373 10.0698 11.6373 10.0698 11.6373C10.0698 11.6373 10.0698 11.6373 10.0698 11.6373V11.6373C10.0698 11.6373 10.0698 11.6373 10.0698 11.6373C10.0698 11.6373 10.0698 11.6373 10.0698 11.6373V11.6373C10.0698 11.6373 10.0698 11.6373 10.0698 11.6373C10.0698 11.6373 10.0698 11.6373 10.0698 11.6373C10.0698 11.6373 10.0698 11.6373 10.0698 11.6373C10.0698 11.6373 10.0698 11.6373 10.0698 11.6373V11.6373C10.0698 11.6373 10.0698 11.6373 10.0698 11.6373H10.4698ZM10.4698 13.2029V11.6373H10.0698V13.2029H10.4698ZM12.9211 13.0029H10.2698V13.4029H12.9211V13.0029ZM12.7211 11.8557V13.2029H13.1211V11.8557H12.7211ZM15.0693 9.50746C13.7743 9.50746 12.7211 10.5606 12.7211 11.8557H13.1211C13.1211 10.7815 13.9952 9.90746 15.0693 9.90746V9.50746ZM16.5959 10.0734C16.1854 9.7213 15.6519 9.50746 15.0693 9.50746V9.90746C15.5523 9.90746 15.9943 10.0844 16.3355 10.377L16.5959 10.0734ZM18.2564 9.06089C17.4391 9.06089 16.7192 9.48103 16.299 10.1147L16.6324 10.3358C16.982 9.80847 17.5795 9.46089 18.2564 9.46089V9.06089ZM19.6872 9.54929C19.2911 9.24391 18.7949 9.06089 18.2564 9.06089V9.46089C18.7027 9.46089 19.1137 9.61226 19.4429 9.86607L19.6872 9.54929ZM21.4437 8.40016C20.5607 8.40016 19.7909 8.88983 19.3902 9.6105L19.7398 9.80487C20.073 9.20556 20.7122 8.80016 21.4437 8.80016V8.40016ZM23.563 9.73789C23.1851 8.94809 22.3777 8.40016 21.4437 8.40016V8.80016C22.2174 8.80016 22.888 9.25394 23.2022 9.91055L23.563 9.73789ZM24.6308 9.22239C24.1219 9.22239 23.6506 9.38579 23.266 9.66172L23.4992 9.98673C23.8186 9.75759 24.2089 9.62239 24.6308 9.62239V9.22239ZM26.979 11.5706C26.979 10.2755 25.9258 9.22239 24.6308 9.22239V9.62239C25.7049 9.62239 26.579 10.4965 26.579 11.5706H26.979ZM26.979 13.2028V11.5706H26.579V13.2028H26.979ZM29.6174 13.0028H26.779V13.4028H29.6174V13.0028ZM29.4174 7.12335V13.2028H29.8174V7.12335H29.4174ZM31.7407 4.8C30.4594 4.8 29.4174 5.84208 29.4174 7.12335H29.8174C29.8174 6.06297 30.6803 5.2 31.7407 5.2V4.8ZM33.4344 4.8H31.7407V5.2H33.4344V4.8ZM35.7577 7.12335C35.7577 5.84207 34.7156 4.8 33.4344 4.8V5.2C34.4947 5.2 35.3577 6.06298 35.3577 7.12335H35.7577ZM35.7577 8.60016V7.12335H35.3577V8.60016H35.7577ZM8.96032 7.12335L8.96054 11.6373L9.36054 11.6373L9.36032 7.12334L8.96032 7.12335ZM8.14627 6.30922C8.59499 6.30922 8.96032 6.67459 8.96032 7.12335H9.36032C9.36032 6.45371 8.81594 5.90922 8.14627 5.90922V6.30922ZM6.45249 6.30922H8.14627V5.90922H6.45249V6.30922ZM5.63844 7.12335C5.63844 6.6746 6.00383 6.30922 6.45249 6.30922V5.90922C5.7829 5.90922 5.23844 6.4537 5.23844 7.12335H5.63844ZM5.63844 24.5214V7.12335H5.23844V24.5214H5.63844ZM6.45249 25.3355C6.00375 25.3355 5.63844 24.9701 5.63844 24.5214H5.23844C5.23844 25.1911 5.78284 25.7355 6.45249 25.7355V25.3355ZM8.14649 25.3355H6.45249V25.7355H8.14649V25.3355ZM8.96054 24.5214C8.96054 24.9701 8.59516 25.3355 8.14649 25.3355V25.7355C8.81606 25.7355 9.36054 25.1911 9.36054 24.5214H8.96054ZM8.96054 11.6373V24.5214H9.36054V11.6373H8.96054ZM2.55202 21.7353C2.41832 21.7353 2.30922 21.6262 2.30922 21.4925H1.90922C1.90922 21.847 2.19737 22.1353 2.55202 22.1353V21.7353ZM4.32922 21.7353H2.55202V22.1353H4.32922V21.7353ZM4.12922 9.70938V21.9353H4.52922V9.70938H4.12922ZM2.55202 9.90938H4.32922V9.50938H2.55202V9.90938ZM2.30922 10.1521C2.30922 10.0184 2.41826 9.90938 2.55202 9.90938V9.50938C2.19743 9.50938 1.90922 9.79743 1.90922 10.1521H2.30922ZM2.30922 21.4925V10.1521H1.90922V21.4925H2.30922ZM24.6308 10.7316C25.0933 10.7316 25.4697 11.1082 25.4697 11.5706H25.8697C25.8697 10.8873 25.3142 10.3316 24.6308 10.3316V10.7316ZM23.7917 11.5706C23.7917 11.1082 24.1683 10.7316 24.6308 10.7316V10.3316C23.9474 10.3316 23.3917 10.8872 23.3917 11.5706H23.7917ZM23.7917 13.6354V11.5706H23.3917V13.6354H23.7917ZM24.064 14.2522C23.8917 14.0937 23.7917 13.8712 23.7917 13.6354H23.3917C23.3917 13.9854 23.5402 14.3139 23.7931 14.5466L24.064 14.2522ZM25.3329 14.1994H23.9286V14.5994H25.3329V14.1994ZM25.4697 13.6354C25.4697 13.8712 25.3698 14.0937 25.1975 14.2522L25.4683 14.5466C25.7212 14.3139 25.8697 13.9854 25.8697 13.6354H25.4697ZM25.4697 11.5706V13.6354H25.8697V11.5706H25.4697ZM20.6046 10.7484C20.6046 10.2859 20.9811 9.90938 21.4435 9.90938V9.50938C20.7602 9.50938 20.2046 10.065 20.2046 10.7484H20.6046ZM20.6045 13.6354L20.6046 10.7484L20.2046 10.7483L20.2045 13.6354L20.6045 13.6354ZM20.9227 14.2917C20.7232 14.1342 20.6045 13.8951 20.6045 13.6354H20.2045C20.2045 14.0191 20.3805 14.3733 20.6749 14.6057L20.9227 14.2917ZM21.2445 14.1994C21.0763 14.1994 20.9126 14.2185 20.7554 14.2535L20.8422 14.6439C20.9722 14.615 21.1067 14.5994 21.2445 14.5994V14.1994ZM22.1457 14.1994H21.2445V14.5994H22.1457V14.1994ZM22.2825 13.6354C22.2825 13.8712 22.1826 14.0937 22.0103 14.2522L22.2811 14.5466C22.534 14.3139 22.6825 13.9854 22.6825 13.6354H22.2825ZM22.2825 10.7484V13.6354H22.6825V10.7484H22.2825ZM21.4435 9.90938C21.906 9.90938 22.2825 10.2859 22.2825 10.7484H22.6825C22.6825 10.065 22.1269 9.50938 21.4435 9.50938V9.90938ZM17.4173 11.409C17.4173 10.9466 17.7939 10.57 18.2563 10.57V10.17C17.573 10.17 17.0173 10.7257 17.0173 11.409H17.4173ZM17.4173 13.6354V11.409H17.0173V13.6354H17.4173ZM18.2563 14.4744C17.7938 14.4744 17.4173 14.0979 17.4173 13.6354H17.0173C17.0173 14.3187 17.5729 14.8744 18.2563 14.8744V14.4744ZM19.0953 13.6354C19.0953 14.0979 18.7188 14.4744 18.2563 14.4744V14.8744C18.9397 14.8744 19.4953 14.3188 19.4953 13.6354H19.0953ZM19.0953 11.409V13.6354H19.4953V11.409H19.0953ZM18.2563 10.57C18.7187 10.57 19.0953 10.9466 19.0953 11.409H19.4953C19.4953 10.7257 18.9396 10.17 18.2563 10.17V10.57ZM14.2301 11.8556C14.2301 11.3932 14.6066 11.0166 15.0691 11.0166V10.6166C14.3857 10.6166 13.8301 11.1722 13.8301 11.8556H14.2301ZM14.2301 13.6354V11.8556H13.8301V13.6354H14.2301ZM15.0691 14.4745C14.6067 14.4745 14.2301 14.0979 14.2301 13.6354H13.8301C13.8301 14.3188 14.3857 14.8745 15.0691 14.8745V14.4745ZM15.908 13.6354C15.908 14.0979 15.5315 14.4745 15.0691 14.4745V14.8745C15.7524 14.8745 16.308 14.3188 16.308 13.6354H15.908ZM15.908 11.8556V13.6354H16.308V11.8556H15.908ZM15.0691 11.0166C15.5315 11.0166 15.908 11.3932 15.908 11.8556H16.308C16.308 11.1722 15.7524 10.6166 15.0691 10.6166V11.0166ZM10.2696 14.512H13.0307V14.112H10.2696V14.512ZM10.4696 17.3326V14.312H10.0696V17.3326H10.4696ZM19.3898 17.1326H10.2696V17.5326H19.3898V17.1326ZM18.9913 16.4527C18.9913 16.798 19.0696 17.1257 19.2092 17.4186L19.5703 17.2466C19.4557 17.006 19.3913 16.7369 19.3913 16.4527H18.9913ZM19.315 15.2902C19.1097 15.6298 18.9913 16.0279 18.9913 16.4527H19.3913C19.3913 16.1031 19.4885 15.7763 19.6573 15.4972L19.315 15.2902ZM18.2564 15.9836C18.757 15.9836 19.2203 15.8247 19.601 15.5574L19.3712 15.23C19.0545 15.4523 18.6708 15.5836 18.2564 15.5836V15.9836ZM16.5146 15.2081C16.9441 15.6834 17.5656 15.9836 18.2564 15.9836V15.5836C17.684 15.5836 17.1687 15.3353 16.8114 14.9399L16.5146 15.2081ZM15.0691 15.9836C15.7599 15.9836 16.3819 15.6835 16.8114 15.2081L16.5146 14.9399C16.1574 15.3353 15.6417 15.5836 15.0691 15.5836V15.9836ZM12.8409 14.3751C13.1514 15.3081 14.032 15.9836 15.0691 15.9836V15.5836C14.21 15.5836 13.4784 15.0238 13.2205 14.2488L12.8409 14.3751ZM27.9168 17.3327V16.1028H27.5168V17.3327H27.9168ZM29.6174 17.1327H27.7168V17.5327H29.6174V17.1327ZM29.4174 14.312V17.3327H29.8174V14.312H29.4174ZM26.669 14.512H29.6174V14.112H26.669V14.512ZM26.7789 14.5827C26.8089 14.5147 26.8355 14.4453 26.8588 14.375L26.4792 14.2489C26.4597 14.3078 26.4376 14.3653 26.4129 14.4213L26.7789 14.5827ZM27.9168 16.1028C27.9168 15.2811 27.3939 14.5804 26.6645 14.3142L26.5273 14.6899C27.1044 14.9006 27.5168 15.4549 27.5168 16.1028H27.9168ZM37.5777 21.4925C37.5777 21.6262 37.4686 21.7353 37.3349 21.7353V22.1353C37.6895 22.1353 37.9777 21.8471 37.9777 21.4925H37.5777ZM37.5777 10.1521V21.4925H37.9777V10.1521H37.5777ZM37.3349 9.90938C37.4686 9.90938 37.5777 10.0185 37.5777 10.1521H37.9777C37.9777 9.79753 37.6895 9.50938 37.3349 9.50938V9.90938ZM35.5577 9.90938H37.3349V9.50938H35.5577V9.90938ZM35.7577 17.9689V9.70938H35.3577V17.9689H35.7577ZM35.0031 18.7235C35.4198 18.7235 35.7577 18.3858 35.7577 17.9689H35.3577C35.3577 18.1648 35.199 18.3236 35.0031 18.3236V18.7235ZM34.2485 17.9689C34.2485 18.3858 34.5864 18.7235 35.0031 18.7235V18.3236C34.8072 18.3236 34.6485 18.1648 34.6485 17.9689H34.2485ZM34.2485 7.12335V17.9689H34.6485V7.12335H34.2485ZM33.4344 6.30922C33.8832 6.30922 34.2485 6.67459 34.2485 7.12335H34.6485C34.6485 6.45371 34.1041 5.90922 33.4344 5.90922V6.30922ZM31.7407 6.30922H33.4344V5.90922H31.7407V6.30922ZM30.9266 7.12335C30.9266 6.6746 31.292 6.30922 31.7407 6.30922V5.90922C31.0711 5.90922 30.5266 6.4537 30.5266 7.12335H30.9266ZM30.9266 24.5213V7.12335H30.5266V24.5213H30.9266ZM31.7407 25.3354C31.2919 25.3354 30.9266 24.9701 30.9266 24.5213H30.5266C30.5266 25.191 31.071 25.7354 31.7407 25.7354V25.3354ZM33.4344 25.3354H31.7407V25.7354H33.4344V25.3354ZM34.2485 24.5213C34.2485 24.9701 33.8831 25.3354 33.4344 25.3354V25.7354C34.104 25.7354 34.6485 25.191 34.6485 24.5213H34.2485ZM34.2485 20.3325V24.5213H34.6485V20.3325H34.2485ZM35.0031 19.5779C34.5864 19.5779 34.2485 19.9157 34.2485 20.3325H34.6485C34.6485 20.1366 34.8072 19.9779 35.0031 19.9779V19.5779ZM35.7577 20.3325C35.7577 19.9157 35.4198 19.5779 35.0031 19.5779V19.9779C35.199 19.9779 35.3577 20.1366 35.3577 20.3325H35.7577ZM35.7577 21.9353V20.3325H35.3577V21.9353H35.7577ZM37.3349 21.7353H35.5577V22.1353H37.3349V21.7353Z" fill="#7C76FF"/>
</svg>
