<?xml version="1.0" encoding="utf-8"?>
<svg width="40" height="40" viewBox="0 0 40 40" fill="none" xmlns="http://www.w3.org/2000/svg">
<rect width="40" height="40" fill="white"/>
<path d="M38.4434 35.8978H36.2988C36.7949 35.2271 36.9993 34.3766 36.8413 33.5323C36.7558 33.0769 36.5699 32.6582 36.3075 32.2978C36.7778 32.1904 37.2283 31.9795 37.6232 31.6667C37.8467 31.4897 37.9775 31.2254 37.9821 30.9421C37.9867 30.6586 37.8647 30.3903 37.647 30.2061L32.4948 25.8462C32.1156 25.5251 31.8312 25.1081 31.6726 24.6398L30.4689 21.082L30.4677 21.0785L29.3837 17.8757C28.8923 16.4234 27.7176 15.2824 26.2413 14.8235L22.5084 13.663C23.5219 12.9557 24.1858 11.7886 24.1858 10.4702V7.90561C24.1858 5.75193 22.4156 4 20.2401 4C18.0645 4 16.2943 5.75193 16.2943 7.90561V10.4705C16.2943 11.728 16.8985 12.848 17.834 13.5626C17.7372 13.589 17.6407 13.6168 17.5444 13.6467L13.7587 14.8235C12.2824 15.2824 11.1077 16.4234 10.6163 17.8757L8.32707 24.6398C8.16849 25.1081 7.88437 25.5254 7.50516 25.8462L2.35304 30.2064C2.13531 30.3906 2.01326 30.6586 2.0179 30.9421C2.02254 31.2257 2.15329 31.4897 2.37682 31.6667C2.78966 31.9939 3.26309 32.2097 3.75653 32.3118C3.29063 33.1604 3.20221 34.1952 3.56142 35.1333C3.67043 35.4171 3.81393 35.6728 3.98672 35.898H1.55664C1.24904 35.898 1 36.1446 1 36.449C1 36.7532 1.24904 37 1.55664 37H34.8727H34.8739H38.4434C38.751 37 39 36.7532 39 36.449C39 36.1446 38.7507 35.8978 38.4434 35.8978ZM25.7754 23.0445L27.7414 27.8865C27.7524 27.9135 27.7654 27.9396 27.7805 27.9646C28.1284 28.5379 28.6239 29.0129 29.2139 29.3386L29.8656 29.6981L25.7754 28.4619V23.0445ZM31.7712 26.6838L36.7743 30.9175C36.1034 31.3611 35.2398 31.4004 34.5251 31.0073L29.756 28.3761C29.3481 28.1511 29.0034 27.8254 28.7569 27.4331L27.0047 23.1171L29.6035 21.9942L30.6171 24.9896C30.8397 25.6473 31.2389 26.233 31.7712 26.6838ZM17.4076 10.4705V7.90561C17.4076 6.35973 18.6783 5.10195 20.2401 5.10195C21.8018 5.10195 23.0725 6.35973 23.0725 7.90561V10.4705C23.0725 12.0164 21.8018 13.2742 20.2401 13.2742C18.6783 13.2742 17.4076 12.0164 17.4076 10.4705ZM14.0921 15.8747L17.8781 14.6981C19.2662 14.2665 20.7338 14.2665 22.1219 14.6981L25.9079 15.8747C27.045 16.2282 27.9498 17.1069 28.3282 18.2258L29.2486 20.9454L26.5892 22.0941L25.7351 19.9906C25.6357 19.7459 25.3751 19.605 25.113 19.6552C24.8512 19.7054 24.6622 19.9324 24.6622 20.1961V28.3187H15.3378V20.1961C15.3378 19.9324 15.1488 19.7054 14.887 19.6552C14.6258 19.605 14.3643 19.7459 14.2649 19.9906L13.5256 21.8111L10.8986 20.5109L11.6718 18.2258C12.0502 17.1069 12.955 16.2282 14.0921 15.8747ZM8.2285 26.6838C8.76108 26.233 9.16029 25.6473 9.38266 24.9896L10.5412 21.5661L13.109 22.8371L11.6417 26.4505C11.5272 26.7329 11.6397 27.0129 11.925 27.1265C12.21 27.2399 12.5602 27.1438 12.6747 26.8615L14.2246 23.0448V28.4602L10.2147 29.6539L10.7859 29.3386C11.3758 29.0131 11.8716 28.5382 12.2195 27.9649C12.2346 27.9399 12.2476 27.9138 12.2586 27.8865L12.6747 26.8615C12.7895 26.5791 12.6512 26.2583 12.3659 26.1449C12.0806 26.0313 11.7565 26.1682 11.6417 26.4505L11.2428 27.4331C10.9963 27.8257 10.6519 28.1511 10.244 28.3761L5.47545 31.007C4.76022 31.4004 3.89685 31.3611 3.22569 30.9175L8.2285 26.6838ZM6.31998 35.8978H6.31795C5.50908 35.8978 4.88402 35.4768 4.60251 34.7424C4.28418 33.9114 4.5022 32.9317 5.13045 32.3179L14.863 29.4206H25.1359L34.3755 32.2134C35.0966 32.4312 35.6091 32.9994 35.7466 33.7332C35.884 34.4669 35.6115 35.1792 35.0171 35.6383L34.6817 35.898H22.9267C22.8548 35.5118 22.6814 34.9981 22.2712 34.541L23.3801 34.4804C23.6872 34.4638 23.9223 34.2038 23.9052 33.8999C23.8884 33.5963 23.6257 33.3638 23.319 33.3802L20.3021 33.5452C20.1745 33.5225 20.0415 33.5036 19.9017 33.4895L11.3164 32.602C11.0085 32.5701 10.7369 32.7902 10.705 33.0927C10.6731 33.3954 10.8952 33.6663 11.2007 33.6979L19.7866 34.5855C19.9165 34.5987 20.0386 34.6167 20.1528 34.6386C20.1551 34.6391 20.1577 34.6394 20.16 34.64C21.2713 34.8558 21.6621 35.4544 21.7969 35.8978H6.31998Z" fill="#FA9195"/>
<path d="M11.6417 26.4505L13.109 22.8371L10.5412 21.5661L9.38266 24.9896C9.16029 25.6473 8.76108 26.233 8.2285 26.6838L3.22569 30.9175C3.89685 31.3611 4.76022 31.4004 5.47545 31.007L10.244 28.3761C10.6519 28.1511 10.9963 27.8257 11.2428 27.4331L11.6417 26.4505ZM11.6417 26.4505C11.5272 26.7329 11.6397 27.0129 11.925 27.1265C12.21 27.2399 12.5601 27.1438 12.6747 26.8615M11.6417 26.4505C11.7565 26.1682 12.0806 26.0313 12.3659 26.1449C12.6512 26.2583 12.7895 26.5791 12.6747 26.8615M12.6747 26.8615L14.2246 23.0448V28.4602L10.2147 29.6539L10.7859 29.3386C11.3758 29.0131 11.8716 28.5382 12.2195 27.9649C12.2346 27.9399 12.2476 27.9138 12.2586 27.8865L12.6747 26.8615ZM38.4434 35.8978H36.2988C36.7949 35.2271 36.9993 34.3766 36.8413 33.5323C36.7558 33.0769 36.5699 32.6582 36.3075 32.2978C36.7778 32.1904 37.2283 31.9795 37.6232 31.6667C37.8467 31.4897 37.9775 31.2254 37.9821 30.9421C37.9867 30.6586 37.8647 30.3903 37.647 30.2061L32.4948 25.8462C32.1156 25.5251 31.8312 25.1081 31.6726 24.6398L30.4689 21.082L30.4677 21.0785L29.3837 17.8757C28.8923 16.4234 27.7176 15.2824 26.2413 14.8235L22.5084 13.663C23.5219 12.9557 24.1858 11.7886 24.1858 10.4702V7.90561C24.1858 5.75193 22.4156 4 20.2401 4C18.0645 4 16.2943 5.75193 16.2943 7.90561V10.4705C16.2943 11.728 16.8985 12.848 17.834 13.5626C17.7372 13.589 17.6407 13.6168 17.5444 13.6467L13.7587 14.8235C12.2824 15.2824 11.1077 16.4234 10.6163 17.8757L8.32707 24.6398C8.16849 25.1081 7.88437 25.5254 7.50516 25.8462L2.35304 30.2064C2.13531 30.3906 2.01326 30.6586 2.0179 30.9421C2.02254 31.2257 2.15329 31.4897 2.37682 31.6667C2.78966 31.9939 3.26309 32.2097 3.75653 32.3118C3.29063 33.1604 3.20221 34.1952 3.56142 35.1333C3.67043 35.4171 3.81393 35.6728 3.98672 35.898H1.55664C1.24904 35.898 1 36.1446 1 36.449C1 36.7532 1.24904 37 1.55664 37H34.8727H34.8739H38.4434C38.751 37 39 36.7532 39 36.449C39 36.1446 38.7507 35.8978 38.4434 35.8978ZM25.7754 23.0445L27.7414 27.8865C27.7524 27.9135 27.7654 27.9396 27.7805 27.9646C28.1284 28.5379 28.6239 29.0129 29.2139 29.3386L29.8656 29.6981L25.7754 28.4619V23.0445ZM31.7712 26.6838L36.7743 30.9175C36.1034 31.3611 35.2398 31.4004 34.5251 31.0073L29.756 28.3761C29.3481 28.1511 29.0034 27.8254 28.7569 27.4331L27.0047 23.1171L29.6035 21.9942L30.617 24.9896C30.8397 25.6473 31.2389 26.233 31.7712 26.6838ZM17.4076 10.4705V7.90561C17.4076 6.35973 18.6783 5.10195 20.2401 5.10195C21.8018 5.10195 23.0725 6.35973 23.0725 7.90561V10.4705C23.0725 12.0164 21.8018 13.2742 20.2401 13.2742C18.6783 13.2742 17.4076 12.0164 17.4076 10.4705ZM14.0921 15.8747L17.8781 14.6981C19.2662 14.2665 20.7338 14.2665 22.1219 14.6981L25.9079 15.8747C27.045 16.2282 27.9498 17.1069 28.3282 18.2258L29.2486 20.9454L26.5892 22.0941L25.7351 19.9906C25.6357 19.7459 25.3751 19.605 25.113 19.6552C24.8512 19.7054 24.6622 19.9324 24.6622 20.1961V28.3187H15.3378V20.1961C15.3378 19.9324 15.1488 19.7054 14.887 19.6552C14.6258 19.605 14.3643 19.7459 14.2649 19.9906L13.5256 21.8111L10.8986 20.5109L11.6718 18.2258C12.0502 17.1069 12.955 16.2282 14.0921 15.8747ZM6.31998 35.8978H6.31795C5.50908 35.8978 4.88402 35.4768 4.60251 34.7424C4.28418 33.9114 4.5022 32.9317 5.13045 32.3179L14.863 29.4206H25.1359L34.3755 32.2134C35.0966 32.4312 35.6091 32.9994 35.7466 33.7332C35.884 34.4669 35.6114 35.1792 35.0171 35.6383L34.6817 35.898H22.9267C22.8548 35.5118 22.6814 34.9981 22.2712 34.541L23.3801 34.4804C23.6872 34.4638 23.9223 34.2038 23.9052 33.8999C23.8884 33.5963 23.6257 33.3638 23.319 33.3802L20.3021 33.5452C20.1745 33.5225 20.0415 33.5036 19.9017 33.4895L11.3164 32.602C11.0085 32.5701 10.7369 32.7902 10.705 33.0927C10.6731 33.3954 10.8952 33.6663 11.2007 33.6979L19.7866 34.5855C19.9165 34.5987 20.0386 34.6167 20.1528 34.6386C20.1551 34.6391 20.1577 34.6394 20.16 34.64C21.2713 34.8558 21.6621 35.4544 21.7969 35.8978H6.31998Z" stroke="#FA9195" stroke-width="0.4"/>
</svg>
