<?xml version="1.0" encoding="utf-8"?>
<svg width="40" height="40" viewBox="0 0 40 40" fill="none" xmlns="http://www.w3.org/2000/svg">
<rect width="40" height="40" fill="white"/>
<path d="M38.2667 12.8375L30.2451 10.1917C29.9539 10.0961 29.6379 10.2482 29.5394 10.5325C29.441 10.8167 29.5973 11.1251 29.8886 11.2211L37.8337 13.8417L34.0938 15.6211C33.9385 15.5189 33.7642 15.4404 33.5752 15.3922L22.3575 12.5311C22.001 10.7408 19.7424 9.98942 18.355 11.2635C17.8749 11.7045 17.5995 12.3264 17.5995 12.9697V12.9816C17.6035 13.739 18.2459 14.3552 19.0317 14.3552H20.9684C21.4686 14.3552 21.9688 14.1006 22.2282 13.6211L32.6894 16.2894C29.3839 17.8621 21.9636 21.3927 21.0177 21.8428C20.3499 22.1605 19.606 22.1396 18.9823 21.8428L2.16624 13.8417L19.2564 8.20481C19.7358 8.04661 20.2641 8.04661 20.7435 8.20481L29.8886 11.2211C30.1799 11.3171 30.4822 11.3438 30.5806 11.0594C30.6791 10.7752 30.5363 10.2878 30.2451 10.1917L21.1 7.17542C20.3905 6.94152 19.6093 6.94152 18.8999 7.17542L1.73315 12.8375C0.821098 13.1385 0.738785 14.3713 1.60564 14.7837L10.4158 18.9756C9.9311 21.2244 9.19109 23.6454 8.38681 25.7943C8.05756 26.6731 8.34124 27.6507 9.09252 28.227C11.635 30.1772 14.6391 31.6838 17.7181 32.6522C19.165 33.1071 20.7784 33.1247 22.2815 32.6522C25.3614 31.6833 28.3658 30.1762 30.907 28.227C31.661 27.6485 31.9409 26.6704 31.6127 25.7943C30.8254 23.6931 30.0753 21.2562 29.5838 18.9758L33.728 17.004V25.1806C33.0197 25.2336 32.4596 25.8117 32.4596 26.5163V28.0995C32.4596 28.3347 32.5643 28.546 32.7298 28.6931L32.523 31.7443C32.4826 32.3404 32.9682 32.847 33.5806 32.847H34.9889C35.6009 32.847 36.0868 32.3406 36.0464 31.7443L35.8397 28.6931C36.0052 28.546 36.1099 28.3347 36.1099 28.0995V26.5162C36.1099 25.8116 35.5497 25.2335 34.8414 25.1806V16.9922C34.8414 16.8252 34.8145 16.6635 34.7664 16.5099L38.3943 14.7838C39.26 14.3718 39.1803 13.139 38.2667 12.8375ZM20.9684 13.2687H19.0317C18.8597 13.2687 18.7137 13.1347 18.7129 12.9788V12.9697C18.7129 12.6197 18.8567 12.2948 19.1181 12.0547C19.9197 11.3184 21.2335 11.8484 21.2855 12.9075C21.2979 13.1611 21.1306 13.2687 20.9684 13.2687ZM29.9403 24.3977C26.9326 26.695 22.6644 28.3384 21.1942 28.6119C20.8921 28.6681 20.694 28.9526 20.7516 29.2473C20.8092 29.5421 21.1016 29.7354 21.4027 29.6792C22.9406 29.393 27.154 27.7949 30.317 25.4849C30.3948 25.7014 30.4849 25.9479 30.5671 26.1673C30.7303 26.6034 30.5904 27.0877 30.219 27.3727C27.2212 29.6721 24.0621 30.9504 21.94 31.6178C20.6724 32.0165 19.2956 32.0067 18.0596 31.6178C15.9375 30.9503 12.7784 29.6721 9.78057 27.3727C9.40923 27.0878 9.2691 26.6036 9.43261 26.1672C9.43588 26.1585 9.43907 26.1497 9.44234 26.141C9.52324 25.9247 9.6129 25.6792 9.6826 25.4847C12.7709 27.7395 16.9728 29.3771 18.5964 29.6794C18.8987 29.7354 19.1899 29.5422 19.2475 29.2476C19.3051 28.9528 19.107 28.6683 18.8051 28.6121C17.4171 28.3539 13.1342 26.7453 10.0593 24.3977C10.5114 23.0484 11.0352 21.3144 11.447 19.4663L18.4944 22.8194C19.4327 23.2659 20.5306 23.2833 21.5056 22.8194L28.5525 19.4664C28.9643 21.3145 29.4881 23.0485 29.9403 24.3977ZM33.6376 31.7604L33.8312 28.9036H34.7381L34.9317 31.7604H33.6376ZM34.9965 26.5161V27.817H33.5729V26.5161C33.5729 26.3783 33.6922 26.2618 33.8335 26.2618H34.7358C34.877 26.2619 34.9965 26.3783 34.9965 26.5161Z" fill="#FFBD32"/>
<path d="M30.2451 10.1917L38.2667 12.8375C39.1803 13.139 39.26 14.3718 38.3943 14.7838L34.7664 16.5099C34.8145 16.6635 34.8414 16.8252 34.8414 16.9922V25.1806C35.5497 25.2335 36.1099 25.8116 36.1099 26.5162V28.0995C36.1099 28.3347 36.0052 28.546 35.8397 28.6931L36.0464 31.7443C36.0868 32.3406 35.6009 32.847 34.9889 32.847H33.5806C32.9682 32.847 32.4826 32.3404 32.523 31.7443L32.7298 28.6931C32.5643 28.546 32.4596 28.3347 32.4596 28.0995V26.5163C32.4596 25.8117 33.0197 25.2336 33.728 25.1806V17.004L29.5838 18.9758C30.0753 21.2562 30.8254 23.6931 31.6127 25.7943C31.9409 26.6704 31.661 27.6485 30.907 28.227C28.3658 30.1762 25.3614 31.6833 22.2815 32.6522C20.7784 33.1247 19.165 33.1071 17.7181 32.6522C14.6391 31.6838 11.635 30.1772 9.09252 28.227C8.34124 27.6507 8.05756 26.6731 8.38681 25.7943C9.19109 23.6454 9.9311 21.2244 10.4158 18.9756L1.60564 14.7837C0.738785 14.3713 0.821098 13.1385 1.73315 12.8375L18.8999 7.17542C19.6093 6.94152 20.3905 6.94152 21.1 7.17542L30.2451 10.1917ZM30.2451 10.1917C29.9539 10.0961 29.6379 10.2482 29.5394 10.5325C29.441 10.8167 29.5973 11.1251 29.8886 11.2211M30.2451 10.1917C30.5363 10.2878 30.6791 10.7752 30.5806 11.0594C30.4822 11.3438 30.1799 11.3171 29.8886 11.2211M29.8886 11.2211L37.8337 13.8417L34.0938 15.6211C33.9385 15.5189 33.7642 15.4404 33.5752 15.3922L22.3575 12.5311C22.001 10.7408 19.7424 9.98942 18.355 11.2635C17.8749 11.7045 17.5995 12.3264 17.5995 12.9697V12.9816C17.6035 13.739 18.2459 14.3552 19.0317 14.3552H20.9684C21.4686 14.3552 21.9688 14.1006 22.2282 13.6211L32.6894 16.2894C29.3839 17.8621 21.9636 21.3927 21.0177 21.8428C20.3499 22.1605 19.606 22.1396 18.9823 21.8428L2.16624 13.8417L19.2564 8.20481C19.7358 8.04661 20.2641 8.04661 20.7435 8.20481L29.8886 11.2211ZM20.9684 13.2687H19.0317C18.8597 13.2687 18.7137 13.1347 18.7129 12.9788V12.9697C18.7129 12.6197 18.8567 12.2948 19.1181 12.0547C19.9197 11.3184 21.2335 11.8484 21.2855 12.9075C21.2979 13.1611 21.1306 13.2687 20.9684 13.2687ZM29.9403 24.3977C26.9326 26.695 22.6644 28.3384 21.1942 28.6119C20.8921 28.6681 20.694 28.9526 20.7516 29.2473C20.8092 29.5421 21.1016 29.7354 21.4027 29.6792C22.9406 29.393 27.154 27.7949 30.317 25.4849C30.3948 25.7014 30.4849 25.9479 30.5671 26.1673C30.7303 26.6034 30.5904 27.0877 30.219 27.3727C27.2212 29.6721 24.0621 30.9504 21.94 31.6178C20.6724 32.0165 19.2956 32.0067 18.0596 31.6178C15.9375 30.9503 12.7784 29.6721 9.78057 27.3727C9.40923 27.0878 9.2691 26.6036 9.43261 26.1672C9.43588 26.1585 9.43907 26.1497 9.44234 26.141C9.52324 25.9247 9.6129 25.6792 9.6826 25.4847C12.7709 27.7395 16.9728 29.3771 18.5964 29.6794C18.8987 29.7354 19.1899 29.5422 19.2475 29.2476C19.3051 28.9528 19.107 28.6683 18.8051 28.6121C17.4171 28.3539 13.1342 26.7453 10.0593 24.3977C10.5114 23.0484 11.0352 21.3144 11.447 19.4663L18.4944 22.8194C19.4327 23.2659 20.5306 23.2833 21.5056 22.8194L28.5525 19.4664C28.9643 21.3145 29.4881 23.0485 29.9403 24.3977ZM33.6376 31.7604L33.8312 28.9036H34.7381L34.9317 31.7604H33.6376ZM34.9965 26.5161V27.817H33.5729V26.5161C33.5729 26.3783 33.6922 26.2618 33.8335 26.2618H34.7358C34.877 26.2619 34.9965 26.3783 34.9965 26.5161Z" stroke="#FFBD32" stroke-width="0.4"/>
</svg>
