<?xml version="1.0" encoding="utf-8"?>
<svg width="39" height="38" viewBox="0 0 39 38" fill="none" xmlns="http://www.w3.org/2000/svg">
<path d="M34.9714 15.0685C35.6449 14.412 35.8827 13.4485 35.5921 12.554C35.3014 11.6594 34.5427 11.0198 33.6119 10.8846L25.4732 9.70195C25.3135 9.67878 25.1754 9.57845 25.1039 9.43359L21.4642 2.05875C21.048 1.21531 20.2051 0.691376 19.2646 0.691376C18.324 0.691376 17.4811 1.21531 17.0649 2.05875L13.4252 9.43366C13.3537 9.57845 13.2156 9.67878 13.0558 9.70202L4.91727 10.8846C3.98652 11.0198 3.22786 11.6594 2.93712 12.554C2.64639 13.4485 2.88424 14.412 3.55782 15.0685L9.44699 20.8091C9.56257 20.9218 9.61538 21.0842 9.58807 21.2434L8.19781 29.3491C8.03886 30.2762 8.4127 31.1954 9.17361 31.7482C9.93452 32.3012 10.9246 32.3726 11.757 31.9351L19.0363 28.1081C19.1793 28.0329 19.3499 28.0329 19.493 28.1081L26.7724 31.9351C27.1345 32.1254 27.5262 32.2195 27.9161 32.2194C28.4225 32.2194 28.9256 32.0608 29.3555 31.7482C30.1164 31.1952 30.4903 30.2759 30.3313 29.349L28.941 21.2433C28.9138 21.0841 28.9665 20.9217 29.0821 20.809L34.9714 15.0685ZM27.0071 21.5751L28.3974 29.681C28.4438 29.9523 28.2764 30.107 28.2022 30.1608C28.128 30.2146 27.9291 30.3262 27.6856 30.1981L20.4061 26.3711C20.0488 26.1833 19.6568 26.0893 19.2647 26.0893C18.8726 26.0893 18.4805 26.1833 18.1233 26.371L10.8439 30.1979C10.6003 30.326 10.4014 30.2145 10.3273 30.1607C10.2531 30.1068 10.0856 29.9522 10.1321 29.6809L11.5224 21.5751C11.6589 20.7793 11.3952 19.9677 10.8169 19.404L4.92774 13.6634C4.73064 13.4712 4.77525 13.2477 4.80365 13.1605C4.83191 13.0732 4.9273 12.8661 5.19966 12.8266L13.3381 11.644C14.1372 11.5279 14.8277 11.0263 15.1851 10.3021L18.8248 2.92718C18.9467 2.6804 19.173 2.65374 19.2648 2.65374C19.3564 2.65374 19.5828 2.68033 19.7047 2.92718V2.92726L23.3444 10.3022C23.7017 11.0264 24.3922 11.528 25.1912 11.644L33.3298 12.8267C33.6022 12.8662 33.6975 13.0733 33.7258 13.1606C33.7542 13.2478 33.7988 13.4714 33.6017 13.6635L27.7125 19.4041C27.1342 19.9677 26.8706 20.7793 27.0071 21.5751Z" fill="#084BB9" stroke="#084BB9" stroke-width="0.5"/>
<path d="M30.7272 2.05826C30.2887 1.73976 29.6752 1.83697 29.3567 2.27534L28.3151 3.70889C27.9967 4.14727 28.0938 4.76095 28.5322 5.07945C28.7065 5.20594 28.9082 5.26689 29.1082 5.26689C29.4116 5.26689 29.7108 5.1266 29.9027 4.86244L30.9443 3.42889C31.2627 2.99045 31.1656 2.37676 30.7272 2.05826Z" fill="#084BB9" stroke="#084BB9" stroke-width="0.5"/>
<path d="M10.2098 3.70311L9.16831 2.26961C8.84989 1.83139 8.23631 1.73419 7.79781 2.05253C7.35946 2.37103 7.26226 2.98469 7.58074 3.42305L8.62229 4.85655C8.81429 5.12091 9.11346 5.26113 9.41698 5.26113C9.61698 5.26113 9.81879 5.20017 9.99285 5.07362C10.4312 4.7552 10.5284 4.14154 10.2098 3.70311Z" fill="#084BB9" stroke="#084BB9" stroke-width="0.5"/>
<path d="M4.26659 22.705C4.09914 22.1897 3.54563 21.9077 3.03019 22.0751L1.34498 22.6227C0.829538 22.7902 0.547591 23.3438 0.715044 23.8591C0.849734 24.2738 1.23441 24.5374 1.64799 24.5374C1.74846 24.5374 1.85068 24.5218 1.95144 24.489L3.63666 23.9414C4.15202 23.7739 4.43404 23.2205 4.26659 22.705Z" fill="#084BB9" stroke="#084BB9" stroke-width="0.5"/>
<path d="M19.2647 33.5989C18.7229 33.5989 18.2836 34.0382 18.2836 34.5801V36.3522C18.2836 36.8941 18.7229 37.3334 19.2647 37.3334C19.8066 37.3334 20.2459 36.8941 20.2459 36.3522V34.5801C20.2459 34.0382 19.8067 33.5989 19.2647 33.5989Z" fill="#084BB9" stroke="#084BB9" stroke-width="0.5"/>
<path d="M37.184 22.6241L35.4988 22.0765C34.9836 21.9093 34.4299 22.1911 34.2624 22.7065C34.095 23.2219 34.3769 23.7753 34.8923 23.9428L36.5776 24.4904C36.6783 24.523 36.7805 24.5386 36.8809 24.5386C37.2946 24.5386 37.6793 24.275 37.814 23.8603C37.9814 23.345 37.6994 22.7916 37.184 22.6241Z" fill="#084BB9" stroke="#084BB9" stroke-width="0.5"/>
</svg>
