<?xml version="1.0" encoding="utf-8"?>
<svg width="40" height="40" viewBox="0 0 40 40" fill="none" xmlns="http://www.w3.org/2000/svg">
<path d="M3.83561 24.1899C4.02182 24.3192 4.21841 24.4329 4.42335 24.5299C4.66876 24.6557 5.07967 24.8653 5.10801 25.0121C5.1439 25.2054 5.12079 25.405 5.0417 25.585C4.95725 25.7663 4.86827 25.9222 4.79232 26.057C4.58432 26.4237 4.23689 27.0374 4.76115 27.4652C4.88357 27.5785 5.09498 27.7423 5.28824 27.8902C5.14615 28.1381 5.08179 28.423 5.10348 28.7079C5.13349 28.9323 5.25518 29.1342 5.43957 29.2655C5.5654 29.3539 5.69972 29.4315 5.83234 29.5063C6.1673 29.6973 6.29823 29.7863 6.34244 29.9637C6.374 30.1917 6.35465 30.424 6.28576 30.6437C6.25289 30.7955 6.22001 30.9474 6.20131 31.097C6.14495 31.6134 6.20857 32.1358 6.38721 32.6236C6.64171 33.5238 7.45584 34.1511 8.39131 34.1678C8.54771 34.1676 8.70366 34.151 8.85663 34.1185C10.4759 33.7354 12.0714 33.2582 13.6351 32.6893C14.9114 33.4379 15.7185 35.7165 15.9288 36.571C15.9916 36.8238 16.2186 37.0012 16.4791 37.0011L30.705 36.9615C30.8853 36.9611 31.0547 36.875 31.1612 36.7296C31.2677 36.5842 31.2987 36.3967 31.2446 36.2248C31.1045 35.8408 30.9112 35.4784 30.6705 35.1481C30.5347 34.952 30.412 34.7472 30.3032 34.535C30.047 34.0152 29.833 33.4757 29.6633 32.9217C29.3399 31.8271 29.1157 30.7057 28.9934 29.571C28.9343 29.0252 28.9239 28.4752 28.9622 27.9276C28.9991 27.9276 29.0342 27.9333 29.071 27.9333C32.5547 27.9305 35.6292 25.6563 36.6507 22.3263C37.6723 18.9964 36.402 15.3897 33.5191 13.4345C33.4256 12.7002 33.2805 11.9734 33.0849 11.2596C32.5091 9.31341 31.3214 7.60453 29.6979 6.38623C28.2832 5.23701 26.6876 4.33049 24.9761 3.70361C24.9599 3.69859 24.9435 3.69443 24.9268 3.69115C23.9135 3.23656 22.8154 3.00135 21.7047 3.00094C21.5914 3.00094 21.482 3.01341 21.3698 3.01794C21.3618 3.01794 21.3556 3.01284 21.3477 3.01284C20.8846 2.99358 20.4488 2.99641 20.0141 3.01851C18.17 3.14625 16.3378 3.40933 14.5323 3.80561C11.9773 4.31562 10.1194 5.21039 8.85153 6.55056C7.85155 7.62085 7.07829 8.88221 6.57821 10.2588C6.37388 10.8509 6.20618 11.455 6.07605 12.0677L6.01938 12.3062C5.89868 12.7511 5.73604 13.1835 5.53366 13.5977C5.4203 13.8555 5.30355 14.1133 5.20096 14.3819C5.07181 14.6798 5.0207 15.0057 5.05247 15.3288C5.16654 15.8365 5.45969 16.2861 5.87825 16.5953C6.1554 16.8498 6.33734 17.0289 6.3396 17.1847C6.31868 17.2708 6.28628 17.3537 6.24325 17.4312C5.56423 18.8604 4.73226 20.2119 3.76193 21.4619C3.35159 21.9617 2.92198 22.5442 3.0121 23.1273C3.13325 23.5775 3.4299 23.9602 3.83561 24.1899ZM35.874 20.001C35.8699 23.7549 32.8273 26.797 29.0727 26.8011C28.88 26.8011 28.6907 26.788 28.502 26.7722H28.4992H28.4929C26.588 26.6255 24.8349 25.6772 23.67 24.1631C22.5052 22.649 22.038 20.7116 22.3849 18.8331C23.1244 18.7698 23.8513 18.6019 24.5437 18.3345C24.5541 19.1663 25.165 19.8685 25.9876 19.9939C26.8102 20.1192 27.6026 19.631 27.8605 18.8401C28.1183 18.0491 27.7658 17.1878 27.0273 16.8044C28.0985 15.837 28.8856 14.5959 29.304 13.2146C32.9637 13.3405 35.8673 16.3398 35.874 20.001ZM21.7047 4.13428C25.461 4.13428 28.506 7.17876 28.506 10.9343C28.506 14.6899 25.461 17.7344 21.7047 17.7344C17.9485 17.7344 14.9035 14.6899 14.9035 10.9343C14.9076 7.18044 17.9502 4.13834 21.7047 4.13428ZM26.8057 18.301C26.8057 18.614 26.5519 18.8677 26.2389 18.8677C25.9259 18.8677 25.6721 18.614 25.6721 18.301C25.6721 17.9881 25.9259 17.7344 26.2389 17.7344C26.5519 17.7344 26.8057 17.9881 26.8057 18.301ZM31.9961 11.5701C32.101 11.9396 32.1894 12.334 32.2671 12.7443C31.4064 12.3663 30.4851 12.1452 29.5466 12.0915C29.8276 10.3084 29.4734 8.48327 28.5456 6.93476C28.697 7.0481 28.8489 7.16143 28.9991 7.2793C30.4388 8.34503 31.4912 9.85165 31.9961 11.5701ZM4.65856 22.1544C5.67294 20.8483 6.54255 19.436 7.2521 17.9423C7.38528 17.7085 7.46031 17.4462 7.47088 17.1773C7.41284 16.6076 7.11083 16.0909 6.64282 15.7606C6.41612 15.5504 6.19734 15.3521 6.17241 15.1685C6.17677 15.0345 6.20658 14.9026 6.26025 14.7797C6.35264 14.5372 6.45919 14.2992 6.56631 14.0612C6.7989 13.5819 6.98472 13.0813 7.12118 12.5663L7.17786 12.3255C7.29821 11.7584 7.45323 11.1991 7.64204 10.651C8.08899 9.4183 8.78072 8.28876 9.67561 7.3303C10.7604 6.18223 12.4664 5.37132 14.7561 4.91629C15.485 4.76782 16.2796 4.61652 17.1009 4.48505C14.3612 6.43279 13.1498 9.89754 14.0791 13.1276C15.0085 16.3577 17.876 18.6493 21.232 18.8439C21.1729 19.2268 21.1414 19.6136 21.138 20.001C21.1447 23.8948 23.9749 27.2089 27.8202 27.8256C27.7794 28.4533 27.7959 29.0834 27.8695 29.7081C27.9998 30.9114 28.2385 32.1006 28.5825 33.2611C28.7688 33.8705 29.004 34.4638 29.2859 35.0353C29.4151 35.2921 29.5621 35.5396 29.7257 35.776C29.7381 35.7947 29.7506 35.8134 29.7631 35.8326L16.9076 35.8678C16.5311 34.5236 15.8483 33.285 14.9126 32.249L15.4448 32.0632C15.8143 31.9345 16.0931 31.8365 16.2382 31.7906C18.6668 31.0239 19.8809 29.9206 19.848 28.5039C19.8432 28.3015 19.7308 28.1169 19.5531 28.0198C19.3753 27.9227 19.1593 27.9278 18.9863 28.0331C18.8133 28.1385 18.7097 28.3281 18.7145 28.5305C18.7281 29.1136 18.2503 29.9642 15.8931 30.7088C15.7417 30.7576 15.4544 30.8579 15.0724 30.9922C14.6479 31.1406 14.1049 31.3322 13.5041 31.5345C11.9092 32.1191 10.2817 32.6111 8.62992 33.0078C8.10071 33.1092 7.58534 32.7764 7.46011 32.2524C7.33934 31.93 7.29378 31.5842 7.32692 31.2415C7.34222 31.1225 7.36886 31.0041 7.39493 30.8856C7.5102 30.4938 7.52695 30.0796 7.44367 29.6798C7.27866 29.1599 6.89609 28.7373 6.39515 28.5215C6.35547 28.4994 6.31637 28.4767 6.27726 28.454C6.33857 28.3303 6.41184 28.2128 6.49603 28.1033C6.59087 27.9828 6.63282 27.829 6.61232 27.6771C6.59181 27.5251 6.5106 27.388 6.38721 27.2969C6.25119 27.1966 5.93039 26.9569 5.69575 26.7676C5.72296 26.7183 5.75243 26.6639 5.78077 26.6152C5.86975 26.4588 5.97177 26.2752 6.07039 26.0678C6.25003 25.6707 6.30287 25.2278 6.22171 24.7996C6.08569 24.1077 5.42314 23.7688 4.93911 23.5218C4.77601 23.4447 4.61977 23.3539 4.4721 23.2503C4.35064 23.1692 4.23681 23.0772 4.13203 22.9755C4.13487 22.891 4.22668 22.6819 4.65856 22.1544Z" fill="#C05EEC" stroke="#C05EEC" stroke-width="0.4"/>
<path d="M18.8704 10.9343C19.8093 10.9343 20.5704 10.1732 20.5704 9.23431C20.5704 8.29542 19.8093 7.5343 18.8704 7.5343C17.9315 7.5343 17.1704 8.29542 17.1704 9.23431C17.1704 10.1732 17.9315 10.9343 18.8704 10.9343ZM18.8704 8.66764C19.1834 8.66764 19.4371 8.92135 19.4371 9.23431C19.4371 9.54727 19.1834 9.80098 18.8704 9.80098C18.5575 9.80098 18.3037 9.54727 18.3037 9.23431C18.3037 8.92135 18.5575 8.66764 18.8704 8.66764Z" fill="#C05EEC" stroke="#C05EEC" stroke-width="0.4"/>
<path d="M24.5384 10.9343C25.4773 10.9343 26.2384 10.1732 26.2384 9.23431C26.2384 8.29542 25.4773 7.5343 24.5384 7.5343C23.5995 7.5343 22.8384 8.29542 22.8384 9.23431C22.8384 10.1732 23.5995 10.9343 24.5384 10.9343ZM24.5384 8.66764C24.8513 8.66764 25.1051 8.92135 25.1051 9.23431C25.1051 9.54727 24.8513 9.80098 24.5384 9.80098C24.2254 9.80098 23.9717 9.54727 23.9717 9.23431C23.9717 8.92135 24.2254 8.66764 24.5384 8.66764Z" fill="#C05EEC" stroke="#C05EEC" stroke-width="0.4"/>
<path d="M19.4377 12.6343C19.4377 12.3214 19.184 12.0677 18.871 12.0677C18.558 12.0677 18.3042 12.3214 18.3042 12.6343C18.3042 14.5121 19.8267 16.0343 21.7048 16.0343C23.5829 16.0343 25.1054 14.5121 25.1054 12.6343C25.1054 12.3214 24.8517 12.0677 24.5387 12.0677C24.2256 12.0677 23.9719 12.3214 23.9719 12.6343C23.9719 13.8862 22.9569 14.901 21.7048 14.901C20.4527 14.901 19.4377 13.8862 19.4377 12.6343Z" fill="#C05EEC" stroke="#C05EEC" stroke-width="0.4"/>
<path d="M31.9065 20.001C32.8454 20.001 33.6066 19.2399 33.6066 18.301C33.6066 17.3621 32.8454 16.601 31.9065 16.601C30.9677 16.601 30.2065 17.3621 30.2065 18.301C30.2065 19.2399 30.9677 20.001 31.9065 20.001ZM31.9065 17.7344C32.2195 17.7344 32.4732 17.9881 32.4732 18.301C32.4732 18.614 32.2195 18.8677 31.9065 18.8677C31.5936 18.8677 31.3399 18.614 31.3399 18.301C31.3399 17.9881 31.5936 17.7344 31.9065 17.7344Z" fill="#C05EEC" stroke="#C05EEC" stroke-width="0.4"/>
<path d="M29.0725 21.1344C27.1952 21.1363 25.6737 22.6574 25.6719 24.5344C25.6719 24.8474 25.9256 25.1011 26.2386 25.1011C26.5517 25.1011 26.8054 24.8474 26.8054 24.5344C26.8054 23.2826 27.8204 22.2677 29.0725 22.2677C30.3246 22.2677 31.3396 23.2826 31.3396 24.5344C31.3396 24.8474 31.5933 25.1011 31.9063 25.1011C32.2193 25.1011 32.4731 24.8474 32.4731 24.5344C32.4712 22.6574 30.9498 21.1363 29.0725 21.1344Z" fill="#C05EEC" stroke="#C05EEC" stroke-width="0.4"/>
</svg>
