<?xml version="1.0" encoding="utf-8"?>
<svg width="42" height="40" viewBox="0 0 42 40" fill="none" xmlns="http://www.w3.org/2000/svg">
<path d="M40.9516 22.3391C40.656 20.2913 39.0473 18.6826 36.9995 18.387V17.175C36.9995 13.8311 34.4575 11.1084 31.3329 11.1084C28.2983 11.1084 25.7576 13.7484 25.6663 16.9937H25.705L25.6663 17.0003V30.1381C25.6663 34.3381 22.5263 37.7487 18.6664 37.7487C14.8065 37.7487 11.6665 34.3334 11.6665 30.1381V29.0002C12.6332 29.0002 13.6665 28.2995 13.6665 26.3335V24.6569C17.9451 23.5629 20.9997 19.889 20.9997 15.7237V14.3337H19.6664L19.6384 5.65718C19.6287 4.05112 18.4762 2.6798 16.8958 2.39389C16.5548 1.34949 15.4318 0.779166 14.3873 1.12016C13.3429 1.46107 12.7726 2.58414 13.1136 3.62862C13.4545 4.67302 14.5775 5.24335 15.622 4.90235C16.1813 4.71977 16.631 4.29903 16.8504 3.75321C17.7045 3.9962 18.2962 4.77319 18.3031 5.66118L18.3331 14.3337H16.9998V15.743C16.9466 18.0619 15.3919 20.077 13.1625 20.717C11.9696 21.0954 10.6888 21.0954 9.49587 20.717C7.26899 20.0749 5.71784 18.0601 5.6666 15.743V14.3337H3.66663V5.66718C3.67046 4.76611 4.27645 3.97879 5.1466 3.74454C5.55235 4.77744 6.71858 5.28577 7.75148 4.88002C8.78438 4.47428 9.29271 3.30796 8.88696 2.27514C8.48122 1.24233 7.3149 0.733916 6.28209 1.13966C5.72243 1.35957 5.2906 1.81848 5.10527 2.39056C3.50754 2.66355 2.33773 4.04628 2.33331 5.66718V14.3337H1V15.7204C1 19.8903 4.05662 23.5656 8.33322 24.6569V26.3335C8.33322 28.2995 9.36654 29.0002 10.3332 29.0002V30.1381C10.3332 35.0714 14.0711 39.082 18.6664 39.082C23.2617 39.082 26.9996 35.0667 26.9996 30.1381V17.0323C27.0663 14.5024 29.0116 12.4437 31.3329 12.4437C33.7222 12.4437 35.6661 14.5664 35.6661 17.177V18.387C33.1153 18.7551 31.3459 21.1215 31.714 23.6724C32.0822 26.2233 34.4486 27.9927 36.9995 27.6245C39.5503 27.2564 41.3197 24.8899 40.9516 22.3391ZM14.9998 3.66721C14.6316 3.66721 14.3331 3.36871 14.3331 3.00055C14.3331 2.63239 14.6316 2.33389 14.9998 2.33389C15.3679 2.33389 15.6664 2.63239 15.6664 3.00055C15.6664 3.36871 15.3679 3.66721 14.9998 3.66721ZM6.99991 2.33389C7.36807 2.33389 7.66656 2.63239 7.66656 3.00055C7.66656 3.36871 7.36807 3.66721 6.99991 3.66721C6.63175 3.66721 6.33325 3.36871 6.33325 3.00055C6.33325 2.63239 6.63175 2.33389 6.99991 2.33389ZM2.33331 15.7204V15.667H4.33328V15.743C4.38328 18.6406 6.311 21.1693 9.09188 21.9849C10.5491 22.4463 12.1132 22.4463 13.5705 21.9849C16.3527 21.1704 18.2822 18.6416 18.3331 15.743V15.667H19.6664V15.7204C19.6664 19.429 16.8078 22.6923 12.8665 23.4816C11.941 23.6669 10.993 23.7134 10.0539 23.6196C9.7447 23.5896 9.43737 23.5431 9.13321 23.4802C5.19194 22.6923 2.33331 19.429 2.33331 15.7204ZM10.3332 27.6668C9.7332 27.6668 9.66653 26.7335 9.66653 26.3335V24.9189C9.71987 24.9256 9.77453 24.9282 9.82853 24.9336C9.8952 24.9409 9.96186 24.9462 10.0285 24.9522C10.3439 24.9802 10.6619 24.9989 10.9825 24.9996H11.0158C11.3358 24.9996 11.6532 24.9802 11.9665 24.9522C12.0332 24.9462 12.1038 24.9409 12.1725 24.9336C12.2252 24.9276 12.2798 24.9256 12.3325 24.9189V26.3335C12.3325 26.7335 12.2658 27.6668 11.6658 27.6668H10.3332ZM36.3328 26.3335C34.4919 26.3335 32.9995 24.8411 32.9995 23.0003C32.9995 21.1594 34.4919 19.667 36.3328 19.667C38.1737 19.667 39.6661 21.1594 39.6661 23.0003C39.6639 24.8403 38.1728 26.3314 36.3328 26.3335Z" fill="#C05EEC" stroke="#C05EEC" stroke-width="0.4"/>
</svg>
