<svg xmlns="http://www.w3.org/2000/svg" width="24" height="24" viewBox="0 0 24 24">
  <path id="Trazado_227" data-name="Trazado 227" d="M1300.06,7327h-.02a12.027,12.027,0,0,0-12.04,11.95,11.69,11.69,0,0,0,.96,4.67,12.146,12.146,0,0,0,6.42,6.42,11.687,11.687,0,0,0,4.67.96h0a12,12,0,0,0,.01-24Zm-2.34,1.66a14.062,14.062,0,0,0-2.92,3.96h-3.26A10.691,10.691,0,0,1,1297.72,7328.66Zm-7.08,5.36h3.56a14.881,14.881,0,0,0-.86,4.23h-3.91A10.459,10.459,0,0,1,1290.64,7334.02Zm.02,9.95a10.648,10.648,0,0,1-1.23-4.31h3.91a14.746,14.746,0,0,0,.86,4.31Zm.91,1.4h3.23a14.129,14.129,0,0,0,2.91,3.97A10.675,10.675,0,0,1,1291.57,7345.37Zm3.18-5.71h4.59v4.31h-3.62A12.828,12.828,0,0,1,1294.75,7339.66Zm4.59,9.24a12.942,12.942,0,0,1-2.94-3.53h2.94v3.53Zm0-10.65h-4.59a13.12,13.12,0,0,1,.97-4.22h3.62Zm0-5.63h-2.94a13.048,13.048,0,0,1,2.94-3.52Zm10.03,1.41a10.406,10.406,0,0,1,1.2,4.22h-3.82a14.157,14.157,0,0,0-.86-4.22Zm-.89-1.41h-3.19a13.663,13.663,0,0,0-2.91-3.95A10.565,10.565,0,0,1,1308.48,7332.62Zm-7.73-3.52a12.693,12.693,0,0,1,2.94,3.52h-2.94Zm0,4.93h3.63a12.848,12.848,0,0,1,.96,4.22h-4.59Zm4.6,5.62a13.134,13.134,0,0,1-.97,4.32h-3.63v-4.32Zm-4.6,9.25v-3.53h2.94A12.733,12.733,0,0,1,1300.75,7348.9Zm1.64.43a14.01,14.01,0,0,0,2.9-3.96h3.16A10.579,10.579,0,0,1,1302.39,7349.33Zm3.5-5.36a14.5,14.5,0,0,0,.87-4.32h3.81a10.683,10.683,0,0,1-1.22,4.32Z" transform="translate(-1288 -7327)" fill="#222426"/>
</svg>
