<?xml version="1.0" encoding="UTF-8"?>
<svg width="40" height="40" viewBox="0 0 40 40" fill="none" xmlns="http://www.w3.org/2000/svg">
<path fill-rule="evenodd" clip-rule="evenodd" d="M30.7485 16.0826C30.8835 16.2466 30.9375 16.4624 30.8962 16.6708L30.2593 19.8752C30.244 20.0522 30.2091 20.2262 30.1559 20.3944L30.0451 20.9526C29.9601 21.381 29.9168 21.8195 29.9168 22.2562V37.6C29.9168 37.6016 29.9169 37.6031 29.9169 37.6046C29.9169 37.6061 29.9168 37.6077 29.9168 37.6092V37.6158C29.9168 37.6608 29.9126 37.7001 29.9046 37.7344C29.8783 37.8741 29.8101 38.0051 29.7091 38.1061C29.5772 38.238 29.3941 38.3139 29.2076 38.3139C29.0211 38.3139 28.838 38.238 28.7061 38.1061C28.6052 38.0052 28.5371 37.8745 28.5107 37.735C28.5026 37.7005 28.4983 37.661 28.4983 37.6158V24.2884H26.2761C25.8843 24.2884 25.5668 23.9708 25.5668 23.5791C25.5668 23.1873 25.8843 22.8698 26.2761 22.8698H28.4983V22.2562C28.4983 22.1661 28.5003 22.0764 28.5033 21.9863C28.2911 22.0451 28.0761 22.0739 27.8633 22.0739C26.9873 22.0739 26.1522 21.5899 25.73 20.7501L24.2001 17.7072V26.8918C24.2001 27.7576 23.5737 28.4799 22.7503 28.6298V37.6046C22.7503 37.9964 22.4328 38.3139 22.0411 38.3139C21.6493 38.3139 21.3318 37.9964 21.3318 37.6046V28.6586H20.6904C20.571 28.6586 20.4546 28.6467 20.3419 28.624V34.6368C20.3419 34.6443 20.3414 34.6516 20.3409 34.6588C20.3407 34.6624 20.3404 34.666 20.3402 34.6695V36.8594C20.3402 37.6614 19.6875 38.3139 18.8854 38.3139H16.5197C15.7176 38.3139 15.0651 37.6614 15.0651 36.8594V29.9482C15.065 29.9414 15.0649 29.9346 15.0649 29.9279V17.7072L13.535 20.7501C13.1127 21.5899 12.2777 22.0739 11.4019 22.0739C11.0581 22.0739 10.7085 21.9993 10.3746 21.8425C9.20519 21.2931 8.67935 19.8849 9.20242 18.7032L12.7099 10.7795C13.4286 9.15572 14.9959 8.07826 16.7535 7.97381C16.2576 7.34518 15.9603 6.55281 15.9603 5.69173C15.9603 3.65622 17.6165 2 19.652 2C21.6875 2 23.3438 3.65622 23.3438 5.69173C23.3438 6.55364 23.0459 7.34712 22.5489 7.97603C24.2913 8.09322 25.8417 9.16708 26.5554 10.7795L28.7878 15.8233H30.2005C30.4128 15.8233 30.6139 15.9183 30.7485 16.0826ZM16.4834 29.8856C16.4836 29.8922 16.4836 29.8989 16.4836 29.9056V33.9276H18.9234V23.7791C18.9234 23.3874 19.2409 23.0699 19.6326 23.0699C20.0244 23.0699 20.3419 23.3874 20.3419 23.7791V24.2471H22.7816V20.8753H16.4834V29.8856ZM26.9853 18.3057H29.125L29.3364 17.2418H26.9853V18.3057ZM21.925 5.69173C21.925 4.43834 20.9054 3.41851 19.652 3.41851C18.3986 3.41851 17.3788 4.43834 17.3788 5.69173C17.3788 6.94512 18.3984 7.96495 19.652 7.96495C20.9054 7.96495 21.925 6.94512 21.925 5.69173ZM18.8854 36.8954C18.9054 36.8954 18.9217 36.8793 18.9217 36.8594V35.3461H16.4834V36.8594C16.4834 36.8793 16.4997 36.8954 16.5197 36.8954H18.8854ZM20.6901 27.2401H22.4331C22.6254 27.2401 22.7816 27.0838 22.7816 26.8918V25.6656H20.3419V26.8918C20.3419 27.0838 20.4981 27.2401 20.6901 27.2401ZM22.7816 12.899C22.7816 12.5072 23.0991 12.1897 23.4909 12.1897C23.8826 12.1897 24.2001 12.5072 24.1999 12.899V14.5497L25.5666 17.2676V16.5325C25.5666 16.1408 25.8841 15.8233 26.2758 15.8233H27.2366L25.2582 11.3539C24.7282 10.157 23.5402 9.38346 22.2311 9.38346H17.0339C15.7248 9.38346 14.5368 10.157 14.0068 11.3539L10.4993 19.2776C10.286 19.7596 10.5004 20.3345 10.9778 20.5587C11.4612 20.7861 12.0278 20.59 12.2677 20.1129L15.0649 14.5497V12.899C15.0649 12.5072 15.3824 12.1897 15.7741 12.1897C16.1659 12.1897 16.4834 12.5072 16.4834 12.899V19.4568H22.7816V12.899ZM26.8019 19.7242L26.9973 20.1129C27.2375 20.59 27.804 20.7858 28.2872 20.5587C28.5224 20.4484 28.6939 20.255 28.7823 20.0295L28.843 19.7242H26.8019Z" fill="#5481CE"/>
</svg>
