<?xml version="1.0" encoding="utf-8"?>
<!-- Generator: Adobe Illustrator 26.0.3, SVG Export Plug-In . SVG Version: 6.00 Build 0)  -->
<svg version="1.1" id="Capa_1" xmlns="http://www.w3.org/2000/svg" xmlns:xlink="http://www.w3.org/1999/xlink" x="0px" y="0px"
	 viewBox="0 0 202 36.1" style="enable-background:new 0 0 202 36.1;" xml:space="preserve">
<style type="text/css">
	.st0{fill:#FFFFFF;}
	.st1{fill:url(#SVGID_1_);}
	.st2{fill:url(#SVGID_00000075867156762929777940000010990843472286552717_);}
	.st3{fill:url(#SVGID_00000141439157782639175470000018444896647463877038_);}
	
		.st4{clip-path:url(#SVGID_00000020394798421564164370000004164587362619112623_);fill:url(#SVGID_00000088850398043302088270000007824462867601427848_);}
	
		.st5{clip-path:url(#SVGID_00000167391798034196851580000007343359629573803656_);fill:url(#SVGID_00000153666332370252869940000009428072186968998566_);}
	.st6{fill:url(#SVGID_00000015324229857721190160000009168519355673778877_);}
	.st7{fill:url(#SVGID_00000181085130558799470460000009453525109442208695_);}
	
		.st8{clip-path:url(#SVGID_00000157308521775556335030000018343876649106941852_);fill:url(#SVGID_00000172416855705208302020000017511023650829684879_);}
	
		.st9{clip-path:url(#SVGID_00000130609793761134494230000014407961866544954770_);fill:url(#SVGID_00000179626969057920111160000006013851129227197568_);}
	.st10{fill:url(#SVGID_00000140697554979723283840000011318686939593475720_);}
</style>
<g>
	<g>
		<g>
			<path class="st0" d="M66.1,6c0-0.6,0.2-1.1,0.6-1.4c0.4-0.3,0.9-0.4,1.6-0.4c0.4,0,0.8,0.1,1.1,0.2c0.3,0.1,0.6,0.2,0.7,0.2v9.1
				c0.6-0.7,1.4-1.4,2.4-1.9c1-0.5,2.2-0.8,3.5-0.8c1.3,0,2.4,0.2,3.5,0.7c1.1,0.4,2,1.1,2.8,1.9c0.8,0.8,1.4,1.8,1.9,2.9
				c0.4,1.1,0.7,2.3,0.7,3.7c0,1.3-0.2,2.5-0.7,3.7c-0.5,1.1-1.1,2.1-1.9,2.9c-0.8,0.8-1.8,1.4-3,1.9c-1.1,0.5-2.4,0.7-3.7,0.7
				c-1.4,0-2.6-0.2-3.7-0.6c-1.1-0.4-2.1-1-3-1.9c-0.8-0.8-1.5-1.9-1.9-3.1c-0.5-1.2-0.7-2.7-0.7-4.4V6z M75.4,25.8
				c0.8,0,1.5-0.1,2.2-0.4c0.7-0.3,1.2-0.7,1.7-1.2c0.5-0.5,0.8-1.1,1.1-1.8c0.3-0.7,0.4-1.4,0.4-2.2c0-0.8-0.1-1.6-0.4-2.2
				c-0.3-0.7-0.6-1.3-1.1-1.8c-0.5-0.5-1-0.9-1.7-1.2c-0.7-0.3-1.4-0.4-2.2-0.4c-0.8,0-1.5,0.1-2.2,0.4c-0.7,0.3-1.2,0.7-1.7,1.2
				c-0.5,0.5-0.8,1.1-1.1,1.8c-0.3,0.7-0.4,1.4-0.4,2.2c0,0.8,0.1,1.6,0.4,2.3c0.3,0.7,0.6,1.3,1.1,1.8c0.5,0.5,1,0.9,1.7,1.1
				C73.9,25.6,74.6,25.8,75.4,25.8"/>
			<path class="st0" d="M102.9,27.6c-0.2,0.1-0.5,0.3-0.9,0.5c-0.4,0.2-0.9,0.4-1.5,0.6c-0.6,0.2-1.3,0.3-2,0.5
				c-0.8,0.1-1.6,0.2-2.5,0.2c-1.3,0-2.5-0.2-3.6-0.6c-1.1-0.4-2.1-1-2.9-1.7c-0.8-0.8-1.5-1.7-2-2.8c-0.5-1.1-0.7-2.4-0.7-3.9
				c0-1.4,0.2-2.6,0.7-3.8c0.5-1.1,1.1-2.1,2-2.9c0.8-0.8,1.8-1.5,3-1.9c1.1-0.4,2.4-0.7,3.7-0.7c1.2,0,2.3,0.2,3.2,0.5
				c0.9,0.3,1.7,0.7,2.3,1.2c0.6,0.5,1.1,1.1,1.4,1.8c0.3,0.7,0.5,1.4,0.5,2.2c0,0.8-0.1,1.5-0.4,2.2c-0.3,0.7-0.8,1.2-1.6,1.7
				c-0.8,0.5-1.8,0.8-3.1,1.1c-1.3,0.3-2.9,0.4-4.9,0.4c-0.5,0-0.9,0-1.3,0c-0.4,0-0.8,0-1.3-0.1c0.2,1.2,0.8,2.1,1.7,2.8
				c1,0.7,2.3,1.1,4.1,1.1c0.6,0,1.2,0,1.7-0.1c0.5-0.1,1-0.2,1.4-0.3c0.4-0.1,0.7-0.3,1-0.4c0.3-0.1,0.5-0.2,0.6-0.3L102.9,27.6z
				 M90.7,19.4c0.5,0,1,0,1.5,0h1.5c1.3,0,2.3-0.1,3.1-0.2c0.8-0.2,1.4-0.4,1.8-0.6c0.4-0.3,0.7-0.5,0.9-0.9c0.1-0.3,0.2-0.7,0.2-1
				c0-0.9-0.4-1.5-1.1-2C97.9,14.3,97.1,14,96,14c-0.9,0-1.6,0.1-2.2,0.4c-0.6,0.3-1.2,0.7-1.6,1.2c-0.4,0.5-0.8,1.1-1,1.7
				C90.9,18,90.8,18.7,90.7,19.4"/>
			<path class="st0" d="M106,6.1c0-0.6,0.2-1.1,0.6-1.4c0.4-0.3,0.9-0.4,1.5-0.4c0.4,0,0.8,0.1,1.2,0.2c0.4,0.1,0.6,0.2,0.7,0.2v6.9
				h5c0.8,0,1.3,0.2,1.6,0.5c0.3,0.3,0.5,0.8,0.5,1.4c0,0.4-0.1,0.8-0.2,1.1c-0.1,0.3-0.2,0.6-0.3,0.7h-6.6v7.7
				c0,0.6,0.1,1.1,0.2,1.5c0.2,0.4,0.4,0.7,0.7,0.9c0.3,0.2,0.6,0.4,1,0.5c0.4,0.1,0.8,0.1,1.2,0.1c0.7,0,1.3-0.1,1.9-0.3
				c0.6-0.2,1-0.4,1.2-0.6l1.6,2.6c-0.2,0.1-0.4,0.3-0.8,0.5c-0.3,0.2-0.7,0.4-1.2,0.6c-0.5,0.2-1,0.3-1.6,0.5
				c-0.6,0.1-1.3,0.2-2,0.2c-2,0-3.6-0.5-4.6-1.6c-1-1-1.6-2.4-1.6-4.1V6.1z"/>
			<path class="st0" d="M119.1,6.1c0-0.6,0.2-1.1,0.6-1.4c0.4-0.3,0.9-0.4,1.5-0.4c0.4,0,0.8,0.1,1.2,0.2c0.4,0.1,0.6,0.2,0.7,0.2
				v6.9h5c0.8,0,1.3,0.2,1.6,0.5c0.3,0.3,0.5,0.8,0.5,1.4c0,0.4-0.1,0.8-0.2,1.1c-0.1,0.3-0.2,0.6-0.3,0.7H123v7.7
				c0,0.6,0.1,1.1,0.2,1.5c0.2,0.4,0.4,0.7,0.7,0.9c0.3,0.2,0.6,0.4,1,0.5c0.4,0.1,0.8,0.1,1.2,0.1c0.7,0,1.3-0.1,1.9-0.3
				c0.6-0.2,1-0.4,1.2-0.6l1.6,2.6c-0.2,0.1-0.4,0.3-0.8,0.5c-0.3,0.2-0.7,0.4-1.2,0.6c-0.5,0.2-1,0.3-1.6,0.5
				c-0.6,0.1-1.3,0.2-2,0.2c-2,0-3.6-0.5-4.6-1.6c-1-1-1.6-2.4-1.6-4.1V6.1z"/>
			<path class="st0" d="M147.3,27.6c-0.2,0.1-0.5,0.3-0.9,0.5c-0.4,0.2-0.9,0.4-1.5,0.6c-0.6,0.2-1.3,0.3-2,0.5
				c-0.8,0.1-1.6,0.2-2.5,0.2c-1.3,0-2.5-0.2-3.6-0.6c-1.1-0.4-2.1-1-2.9-1.7c-0.8-0.8-1.5-1.7-2-2.8c-0.5-1.1-0.7-2.4-0.7-3.9
				c0-1.4,0.2-2.6,0.7-3.8c0.5-1.1,1.1-2.1,2-2.9c0.8-0.8,1.8-1.5,3-1.9c1.1-0.4,2.4-0.7,3.7-0.7c1.2,0,2.3,0.2,3.2,0.5
				c0.9,0.3,1.7,0.7,2.3,1.2c0.6,0.5,1.1,1.1,1.4,1.8c0.3,0.7,0.5,1.4,0.5,2.2c0,0.8-0.1,1.5-0.4,2.2c-0.3,0.7-0.8,1.2-1.6,1.7
				c-0.8,0.5-1.8,0.8-3.1,1.1c-1.3,0.3-2.9,0.4-4.9,0.4c-0.5,0-0.9,0-1.3,0c-0.4,0-0.8,0-1.3-0.1c0.2,1.2,0.8,2.1,1.7,2.8
				c1,0.7,2.3,1.1,4.1,1.1c0.6,0,1.2,0,1.7-0.1c0.5-0.1,1-0.2,1.4-0.3c0.4-0.1,0.7-0.3,1-0.4c0.3-0.1,0.5-0.2,0.6-0.3L147.3,27.6z
				 M135.2,19.4c0.5,0,1,0,1.5,0h1.5c1.3,0,2.3-0.1,3.1-0.2c0.8-0.2,1.4-0.4,1.8-0.6c0.4-0.3,0.7-0.5,0.9-0.9c0.1-0.3,0.2-0.7,0.2-1
				c0-0.9-0.4-1.5-1.1-2c-0.7-0.4-1.6-0.7-2.6-0.7c-0.9,0-1.6,0.1-2.2,0.4c-0.6,0.3-1.2,0.7-1.6,1.2c-0.4,0.5-0.8,1.1-1,1.7
				C135.3,18,135.2,18.7,135.2,19.4"/>
			<path class="st0" d="M150.4,17.7c0-2.1,0.7-3.8,2-4.9c1.3-1.2,3.1-1.7,5.4-1.7c1.5,0,2.6,0.2,3.5,0.6c0.9,0.4,1.4,1,1.4,1.8
				c0,0.4-0.1,0.8-0.3,1.1c-0.2,0.4-0.4,0.6-0.5,0.7c-0.4-0.2-0.9-0.4-1.5-0.5c-0.6-0.2-1.2-0.2-2-0.2c-2.7,0-4,1.4-4,4.3v10h-3.9
				V17.7z"/>
			<path class="st0" d="M164.3,13.4c0-1.2,0.2-4.4,0.5-5.3c0.3-0.9,0.8-1.6,1.5-2.2c0.6-0.6,1.4-1,2.2-1.2c0.9-0.3,1.8-0.4,2.8-0.4
				c1.9,0,3.2,0.2,4,0.7c0.8,0.4,1.2,1,1.2,1.7c0,0.4-0.1,0.7-0.3,1c-0.2,0.3-0.5,0.5-0.7,0.7c-0.4-0.3-0.9-0.5-1.5-0.7
				c-0.6-0.2-1.3-0.3-2-0.3c-1.4,0-2.3,0.3-2.9,1c-0.6,0.7-0.9,1.4-0.9,2.7v2.3h5.2c0.8,0,1.3,0.2,1.6,0.5c0.3,0.3,0.5,0.8,0.5,1.4
				c0,0.4-0.1,0.8-0.2,1.1c-0.1,0.3-0.2,0.6-0.3,0.7h-6.8v11.7h-3.9V13.4z"/>
			<path class="st0" d="M177.6,6.4c0-0.6,0.2-1.1,0.6-1.4c0.4-0.3,0.9-0.4,1.6-0.4c0.4,0,0.8,0.1,1.1,0.2c0.3,0.1,0.6,0.2,0.7,0.2
				l0,23.9h-3.9L177.6,6.4z"/>
			<path class="st0" d="M185.1,13.3c0-0.6,0.2-1.1,0.6-1.4c0.4-0.3,0.9-0.4,1.5-0.4c0.4,0,0.8,0.1,1.2,0.2c0.4,0.1,0.6,0.2,0.7,0.2
				v9.2c0,1.4,0.4,2.4,1.1,3.2c0.7,0.8,1.8,1.2,3.4,1.2c1.4,0,2.5-0.4,3.3-1.2c0.8-0.8,1.2-2,1.2-3.6v-7.4c0-0.6,0.2-1.1,0.6-1.4
				c0.4-0.3,0.9-0.4,1.5-0.4c0.4,0,0.8,0.1,1.2,0.2c0.4,0.1,0.6,0.2,0.7,0.2V27c0,1.6-0.2,3-0.7,4.2c-0.4,1.1-1.1,2.1-1.9,2.8
				c-0.8,0.7-1.8,1.3-2.9,1.6c-1.1,0.3-2.4,0.5-3.8,0.5c-0.9,0-1.8-0.1-2.6-0.2c-0.8-0.1-1.5-0.2-2.1-0.4c-0.6-0.1-1.1-0.3-1.5-0.4
				c-0.4-0.1-0.7-0.2-0.8-0.3c0.2-0.5,0.4-1,0.5-1.5c0.2-0.5,0.3-1,0.5-1.5c0.2,0.1,0.4,0.2,0.8,0.3c0.3,0.1,0.8,0.2,1.2,0.3
				c0.5,0.1,1,0.2,1.6,0.3c0.6,0.1,1.3,0.1,2,0.1c0.9,0,1.7-0.1,2.4-0.3c0.7-0.2,1.3-0.5,1.8-1c0.5-0.5,0.9-1.1,1.1-1.9
				c0.3-0.8,0.4-1.8,0.4-3c-0.5,0.7-1.2,1.2-2.2,1.6c-1,0.4-2.1,0.6-3.2,0.6c-1.1,0-2.1-0.2-3.1-0.5c-0.9-0.3-1.8-0.8-2.4-1.3
				c-0.7-0.6-1.2-1.3-1.6-2.2c-0.4-0.9-0.6-1.9-0.6-3V13.3z"/>
		</g>
	</g>
	<g>
		<linearGradient id="SVGID_1_" gradientUnits="userSpaceOnUse" x1="10.6449" y1="13.082" x2="54.3475" y2="13.082">
			<stop  offset="0" style="stop-color:#EB7000"/>
			<stop  offset="0.5" style="stop-color:#FF9100"/>
			<stop  offset="0.9954" style="stop-color:#FDB60B"/>
		</linearGradient>
		<path class="st1" d="M44.7,1.1L18.5,16.2l-0.9,0.5l-6.9,4v5.4L51.3,2.7c0.8-0.4,1.6-0.6,2.5-0.5c0,0,0,0,0,0
			c0.2,0,0.3,0.1,0.5,0.1c0,0,0.1,0,0.1,0C52.8,0.8,50.8,0,48.7,0C47.3,0,46,0.3,44.7,1.1"/>
		
			<linearGradient id="SVGID_00000173118557463124818130000014102268979480688513_" gradientUnits="userSpaceOnUse" x1="11.1286" y1="31.5767" x2="11.1286" y2="2.9857">
			<stop  offset="0" style="stop-color:#EB7000"/>
			<stop  offset="0.5" style="stop-color:#FF9100"/>
			<stop  offset="0.9954" style="stop-color:#FDB60B"/>
		</linearGradient>
		<path style="fill:url(#SVGID_00000173118557463124818130000014102268979480688513_);" d="M3.2,2.8C3.2,2.8,3.2,2.8,3.2,2.8
			c-0.1,0-0.2,0-0.2,0L3,2.8c0,0,0,0,0,0c0,0-0.1,0-0.1,0l-0.1,0c0,0-0.1,0-0.1,0c0,0-0.1,0-0.1,0c0,0-0.1,0-0.1,0c0,0-0.1,0-0.1,0
			c0,0-0.1,0-0.1,0c0,0,0,0-0.1,0l0,0c0,0,0,0-0.1,0c0,0-0.1,0-0.1,0c0,0,0,0,0,0l0,0c-0.1,0-0.1,0.1-0.2,0.1c0,0,0,0-0.1,0l0,0
			c0,0-0.1,0-0.1,0.1c0,0,0,0,0,0c-0.1,0-0.1,0.1-0.2,0.1c0,0,0,0,0,0c0,0-0.1,0-0.1,0.1l0,0C1.1,3.7,1,3.7,0.9,3.8l0,0
			c0,0-0.1,0.1-0.1,0.1l0,0C0.7,4.1,0.6,4.1,0.6,4.2C0.2,4.7,0,5.4,0,6.1v23.7v0v0c0,1.8,0.9,3.3,2.3,4.2l0.5,0.3
			c0.6,0.3,1.3,0.5,2,0.5v-10V9.4c0-0.2,0.1-0.3,0.2-0.4c0.1-0.1,0.3-0.1,0.5,0l5.2,3v0l6.9,4l4.7-2.7l-7-4.1l-10.3-6c0,0,0,0,0,0
			c0,0-0.1-0.1-0.1-0.1l0,0c0,0,0,0-0.1,0c0,0-0.1,0-0.1,0l0,0c0,0-0.1,0-0.1,0c0,0,0,0-0.1,0C4.2,3,4.2,3,4.1,3c0,0,0,0,0,0
			c-0.1,0-0.1,0-0.2,0c0,0,0,0-0.1,0c-0.1,0-0.1,0-0.2,0c0,0,0,0-0.1,0c0,0-0.1,0-0.1,0c0,0-0.1,0-0.1,0l0,0c0,0-0.1,0-0.1,0
			C3.3,2.8,3.3,2.8,3.2,2.8C3.2,2.8,3.2,2.8,3.2,2.8"/>
		
			<linearGradient id="SVGID_00000134238832729361231290000010536375705355381924_" gradientUnits="userSpaceOnUse" x1="14.9148" y1="12.7569" x2="14.9148" y2="1.2888">
			<stop  offset="0" style="stop-color:#EB7000"/>
			<stop  offset="0.5" style="stop-color:#FF9100"/>
			<stop  offset="0.9954" style="stop-color:#FDB60B"/>
		</linearGradient>
		<path style="fill:url(#SVGID_00000134238832729361231290000010536375705355381924_);" d="M2.3,2.3C2.6,2.2,3,2.2,3.3,2.2
			c0,0,0,0,0.1,0l0,0c0,0,0.1,0,0.1,0c0,0,0.1,0,0.1,0l0.1,0c0,0,0.1,0,0.1,0c0,0,0.1,0,0.1,0l0,0c0,0,0,0,0,0c0,0,0.1,0,0.1,0
			c0,0,0.1,0,0.1,0l0,0c0,0,0.1,0,0.1,0c0,0,0.1,0,0.1,0l0.1,0c0,0,0,0,0,0c0,0,0.1,0,0.1,0c0,0,0.1,0,0.1,0l0,0c0,0,0.1,0,0.1,0.1
			c0,0,0.1,0,0.1,0l0,0c0,0,0.1,0,0.1,0.1c0,0,0.1,0,0.1,0.1l0,0L22.9,13l3.6-2.1l1.1-0.6L13.2,2C11,0.8,9.1,0.2,7.4,0.2
			C5.5,0.2,3.9,0.9,2.3,2.3"/>
		<g>
			<defs>
				<path id="SVGID_00000142138066991372507420000010571903104596001713_" d="M32.8,20.2l0.7-0.4L32.8,20.2z"/>
			</defs>
			
				<linearGradient id="SVGID_00000173138840758056168030000010001430884083713950_" gradientUnits="userSpaceOnUse" x1="32.8243" y1="20.0172" x2="33.5162" y2="20.0172">
				<stop  offset="0" style="stop-color:#EB7000"/>
				<stop  offset="0.5" style="stop-color:#FF9100"/>
				<stop  offset="0.9954" style="stop-color:#FDB60B"/>
			</linearGradient>
			
				<use xlink:href="#SVGID_00000142138066991372507420000010571903104596001713_"  style="overflow:visible;fill:url(#SVGID_00000173138840758056168030000010001430884083713950_);"/>
			<clipPath id="SVGID_00000026861025679750419540000002964066018334068103_">
				<use xlink:href="#SVGID_00000142138066991372507420000010571903104596001713_"  style="overflow:visible;"/>
			</clipPath>
			
				<linearGradient id="SVGID_00000041977035575483692680000003866154519761845685_" gradientUnits="userSpaceOnUse" x1="32.8243" y1="20.0172" x2="33.5162" y2="20.0172">
				<stop  offset="0" style="stop-color:#EB7000"/>
				<stop  offset="0.5" style="stop-color:#FF9100"/>
				<stop  offset="0.9954" style="stop-color:#FDB60B"/>
			</linearGradient>
			
				<rect x="32.8" y="19.8" style="clip-path:url(#SVGID_00000026861025679750419540000002964066018334068103_);fill:url(#SVGID_00000041977035575483692680000003866154519761845685_);" width="0.7" height="0.4"/>
		</g>
		<g>
			<defs>
				<polygon id="SVGID_00000054953887849228687180000002705895500122212740_" points="51,9.7 51.1,16.4 51.1,9.7 				"/>
			</defs>
			
				<linearGradient id="SVGID_00000003076671416061192470000012298492016637643180_" gradientUnits="userSpaceOnUse" x1="51.0449" y1="13.0255" x2="51.0591" y2="13.0255">
				<stop  offset="0" style="stop-color:#EB7000"/>
				<stop  offset="0.5" style="stop-color:#FF9100"/>
				<stop  offset="0.9954" style="stop-color:#FDB60B"/>
			</linearGradient>
			
				<use xlink:href="#SVGID_00000054953887849228687180000002705895500122212740_"  style="overflow:visible;fill:url(#SVGID_00000003076671416061192470000012298492016637643180_);"/>
			<clipPath id="SVGID_00000070077552612670809600000003694183642698899861_">
				<use xlink:href="#SVGID_00000054953887849228687180000002705895500122212740_"  style="overflow:visible;"/>
			</clipPath>
			
				<linearGradient id="SVGID_00000152970743746969548280000014344206512509355684_" gradientUnits="userSpaceOnUse" x1="51.0449" y1="13.0255" x2="51.0591" y2="13.0255">
				<stop  offset="0" style="stop-color:#EB7000"/>
				<stop  offset="0.5" style="stop-color:#FF9100"/>
				<stop  offset="0.9954" style="stop-color:#FDB60B"/>
			</linearGradient>
			
				<rect x="51" y="9.7" style="clip-path:url(#SVGID_00000070077552612670809600000003694183642698899861_);fill:url(#SVGID_00000152970743746969548280000014344206512509355684_);" width="0" height="6.7"/>
		</g>
		
			<linearGradient id="SVGID_00000082354188809408775820000017421975667693293981_" gradientUnits="userSpaceOnUse" x1="39.9451" y1="25.3062" x2="39.9451" y2="17.5605">
			<stop  offset="0" style="stop-color:#EB7000"/>
			<stop  offset="0.5" style="stop-color:#FF9100"/>
			<stop  offset="0.9954" style="stop-color:#FDB60B"/>
		</linearGradient>
		<polygon style="fill:url(#SVGID_00000082354188809408775820000017421975667693293981_);" points="34.1,19.5 45.8,26.2 45.8,20.7 
			38.8,16.7 		"/>
		
			<linearGradient id="SVGID_00000062904129080099702540000000178988149103072400_" gradientUnits="userSpaceOnUse" x1="30.8591" y1="31.5767" x2="30.8591" y2="3.0067">
			<stop  offset="0" style="stop-color:#EB7000"/>
			<stop  offset="0.5" style="stop-color:#FF9100"/>
			<stop  offset="0.9954" style="stop-color:#FDB60B"/>
		</linearGradient>
		<path style="fill:url(#SVGID_00000062904129080099702540000000178988149103072400_);" d="M51.6,3.2L10,27.2v0h0V12.4L5.3,9.7v15.1
			v10c0.7,0,1.4-0.2,1.9-0.5c5.2-2.8,20.3-11.7,20.3-11.7l11.1-6.4L51,9c0.1-0.1,0.3-0.1,0.5,0c0.1,0.1,0.2,0.2,0.2,0.4v15.4v10
			c0.7,0,1.4-0.2,2-0.5l0.6-0.3c1.3-0.9,2.2-2.4,2.2-4.1v0l0-23.8c0-0.8-0.3-1.6-0.9-2.2l-0.1-0.1c-0.3-0.3-0.5-0.4-0.9-0.6
			c0,0,0,0,0,0c-0.1,0-0.1-0.1-0.2-0.1c0,0,0,0,0,0c-0.1,0-0.1,0-0.2-0.1c0,0,0,0,0,0c-0.3-0.1-0.6-0.1-0.9-0.1
			C52.7,2.8,52.1,2.9,51.6,3.2"/>
		<g>
			<defs>
				<polygon id="SVGID_00000039826193005139635730000000306042006404691620_" points="56.4,29.8 56.4,29.8 56.4,29.8 				"/>
			</defs>
			
				<linearGradient id="SVGID_00000062171007722250070930000007294611885379799984_" gradientUnits="userSpaceOnUse" x1="56.3955" y1="29.7873" x2="56.3958" y2="29.7873">
				<stop  offset="4.091662e-04" style="stop-color:#FD9801"/>
				<stop  offset="0.9954" style="stop-color:#FF9100"/>
			</linearGradient>
			
				<use xlink:href="#SVGID_00000039826193005139635730000000306042006404691620_"  style="overflow:visible;fill:url(#SVGID_00000062171007722250070930000007294611885379799984_);"/>
			<clipPath id="SVGID_00000125592283784776843140000012764805408725367447_">
				<use xlink:href="#SVGID_00000039826193005139635730000000306042006404691620_"  style="overflow:visible;"/>
			</clipPath>
			
				<linearGradient id="SVGID_00000013182231541600016480000012276207559011400097_" gradientUnits="userSpaceOnUse" x1="-1739.0544" y1="5521.3657" x2="-1738.7959" y2="5521.3657" gradientTransform="matrix(0 2.389640e-02 2.389640e-02 0 -75.5451 71.3411)">
				<stop  offset="4.091662e-04" style="stop-color:#FD9801"/>
				<stop  offset="0.9954" style="stop-color:#FF9100"/>
			</linearGradient>
			
				<rect x="56.4" y="29.8" style="clip-path:url(#SVGID_00000125592283784776843140000012764805408725367447_);fill:url(#SVGID_00000013182231541600016480000012276207559011400097_);" width="0" height="0"/>
		</g>
		<g>
			<defs>
				<path id="SVGID_00000056408988111201936100000000570669148095431600_" d="M53.6,34.3c0.2-0.1,0.4-0.2,0.6-0.3L53.6,34.3z"/>
			</defs>
			
				<linearGradient id="SVGID_00000060724647103374255110000002883003800777769358_" gradientUnits="userSpaceOnUse" x1="53.6315" y1="34.1014" x2="54.1916" y2="34.1014">
				<stop  offset="4.091662e-04" style="stop-color:#FD9801"/>
				<stop  offset="0.9954" style="stop-color:#FDA800"/>
			</linearGradient>
			
				<use xlink:href="#SVGID_00000056408988111201936100000000570669148095431600_"  style="overflow:visible;fill:url(#SVGID_00000060724647103374255110000002883003800777769358_);"/>
			<clipPath id="SVGID_00000092430155536017701910000005474784130268814013_">
				<use xlink:href="#SVGID_00000056408988111201936100000000570669148095431600_"  style="overflow:visible;"/>
			</clipPath>
			
				<linearGradient id="SVGID_00000163793167584873889600000004689540806826005908_" gradientUnits="userSpaceOnUse" x1="-433.1831" y1="619.3857" x2="-432.9246" y2="619.3857" gradientTransform="matrix(0 1.2496 1.2496 0 -720.0424 575.2242)">
				<stop  offset="4.091662e-04" style="stop-color:#FD9801"/>
				<stop  offset="0.9954" style="stop-color:#FDA800"/>
			</linearGradient>
			
				<rect x="53.6" y="33.9" style="clip-path:url(#SVGID_00000092430155536017701910000005474784130268814013_);fill:url(#SVGID_00000163793167584873889600000004689540806826005908_);" width="0.6" height="0.3"/>
		</g>
		
			<linearGradient id="SVGID_00000035500689160385058160000010707556728218056374_" gradientUnits="userSpaceOnUse" x1="39.9377" y1="31.5767" x2="39.9377" y2="2.4908">
			<stop  offset="0" style="stop-color:#EB7000"/>
			<stop  offset="0.5" style="stop-color:#FF9100"/>
			<stop  offset="0.9954" style="stop-color:#FDB60B"/>
		</linearGradient>
		<path style="fill:url(#SVGID_00000035500689160385058160000010707556728218056374_);" d="M46.4,12.4v8v6.9l-12.9-7.4l-4.7,2.7
			c0,0,15.2,8.9,20.3,11.7c0.6,0.3,1.2,0.5,1.9,0.5l0-25.1L46.4,12.4z"/>
	</g>
</g>
</svg>
