<?xml version="1.0" encoding="utf-8"?>
<!-- Generator: Adobe Illustrator 26.0.3, SVG Export Plug-In . SVG Version: 6.00 Build 0)  -->
<svg version="1.1" id="Capa_1" xmlns="http://www.w3.org/2000/svg" xmlns:xlink="http://www.w3.org/1999/xlink" x="0px" y="0px"
	 viewBox="0 0 202 36.1" style="enable-background:new 0 0 202 36.1;" xml:space="preserve">
<style type="text/css">
	.st0{fill:#002254;}
	.st1{fill:url(#SVGID_1_);}
	.st2{fill:url(#SVGID_00000133505736972370820160000002789846062154773939_);}
	.st3{fill:url(#SVGID_00000165942522432228544260000001645549195637679265_);}
	
		.st4{clip-path:url(#SVGID_00000131365294163675876210000016319878208250256825_);fill:url(#SVGID_00000080897699222919323440000013945989202310210945_);}
	
		.st5{clip-path:url(#SVGID_00000088812379095406294740000006685411587822699179_);fill:url(#SVGID_00000150804594548770346730000018202555557666390442_);}
	.st6{fill:url(#SVGID_00000020390345820930886890000000977485430215565748_);}
	.st7{fill:url(#SVGID_00000030471110133828564750000016693037763900265101_);}
	
		.st8{clip-path:url(#SVGID_00000169519577585961699520000002669448095752280960_);fill:url(#SVGID_00000022551660955896757790000016303253530362153363_);}
	
		.st9{clip-path:url(#SVGID_00000142151250761690052250000016055456815100125576_);fill:url(#SVGID_00000133503589391007383130000006682238461628040354_);}
	.st10{fill:url(#SVGID_00000171685682337089135150000002810356228031174821_);}
</style>
<g>
	<g>
		<g>
			<path class="st0" d="M66.1,6c0-0.6,0.2-1.1,0.6-1.4c0.4-0.3,0.9-0.4,1.6-0.4c0.4,0,0.8,0.1,1.1,0.2c0.3,0.1,0.6,0.2,0.7,0.2v9.1
				c0.6-0.7,1.4-1.4,2.4-1.9c1-0.5,2.2-0.8,3.5-0.8c1.3,0,2.4,0.2,3.5,0.7c1.1,0.4,2,1.1,2.8,1.9c0.8,0.8,1.4,1.8,1.9,2.9
				c0.4,1.1,0.7,2.3,0.7,3.7c0,1.3-0.2,2.5-0.7,3.7c-0.5,1.1-1.1,2.1-1.9,2.9c-0.8,0.8-1.8,1.4-3,1.9c-1.1,0.5-2.4,0.7-3.7,0.7
				c-1.4,0-2.6-0.2-3.7-0.6c-1.1-0.4-2.1-1-3-1.9c-0.8-0.8-1.5-1.9-1.9-3.1c-0.5-1.2-0.7-2.7-0.7-4.4V6z M75.4,25.8
				c0.8,0,1.5-0.1,2.2-0.4c0.7-0.3,1.2-0.7,1.7-1.2c0.5-0.5,0.8-1.1,1.1-1.8c0.3-0.7,0.4-1.4,0.4-2.2c0-0.8-0.1-1.6-0.4-2.2
				c-0.3-0.7-0.6-1.3-1.1-1.8c-0.5-0.5-1-0.9-1.7-1.2c-0.7-0.3-1.4-0.4-2.2-0.4c-0.8,0-1.5,0.1-2.2,0.4c-0.7,0.3-1.2,0.7-1.7,1.2
				c-0.5,0.5-0.8,1.1-1.1,1.8c-0.3,0.7-0.4,1.4-0.4,2.2c0,0.8,0.1,1.6,0.4,2.3c0.3,0.7,0.6,1.3,1.1,1.8c0.5,0.5,1,0.9,1.7,1.1
				C73.9,25.6,74.6,25.8,75.4,25.8"/>
			<path class="st0" d="M102.9,27.6c-0.2,0.1-0.5,0.3-0.9,0.5c-0.4,0.2-0.9,0.4-1.5,0.6c-0.6,0.2-1.3,0.3-2,0.5
				c-0.8,0.1-1.6,0.2-2.5,0.2c-1.3,0-2.5-0.2-3.6-0.6c-1.1-0.4-2.1-1-2.9-1.7c-0.8-0.8-1.5-1.7-2-2.8c-0.5-1.1-0.7-2.4-0.7-3.9
				c0-1.4,0.2-2.6,0.7-3.8c0.5-1.1,1.1-2.1,2-2.9c0.8-0.8,1.8-1.5,3-1.9c1.1-0.4,2.4-0.7,3.7-0.7c1.2,0,2.3,0.2,3.2,0.5
				c0.9,0.3,1.7,0.7,2.3,1.2c0.6,0.5,1.1,1.1,1.4,1.8c0.3,0.7,0.5,1.4,0.5,2.2c0,0.8-0.1,1.5-0.4,2.2c-0.3,0.7-0.8,1.2-1.6,1.7
				c-0.8,0.5-1.8,0.8-3.1,1.1c-1.3,0.3-2.9,0.4-4.9,0.4c-0.5,0-0.9,0-1.3,0c-0.4,0-0.8,0-1.3-0.1c0.2,1.2,0.8,2.1,1.7,2.8
				c1,0.7,2.3,1.1,4.1,1.1c0.6,0,1.2,0,1.7-0.1c0.5-0.1,1-0.2,1.4-0.3c0.4-0.1,0.7-0.3,1-0.4c0.3-0.1,0.5-0.2,0.6-0.3L102.9,27.6z
				 M90.7,19.4c0.5,0,1,0,1.5,0h1.5c1.3,0,2.3-0.1,3.1-0.2c0.8-0.2,1.4-0.4,1.8-0.6c0.4-0.3,0.7-0.5,0.9-0.9c0.1-0.3,0.2-0.7,0.2-1
				c0-0.9-0.4-1.5-1.1-2C97.9,14.3,97.1,14,96,14c-0.9,0-1.6,0.1-2.2,0.4c-0.6,0.3-1.2,0.7-1.6,1.2c-0.4,0.5-0.8,1.1-1,1.7
				C90.9,18,90.8,18.7,90.7,19.4"/>
			<path class="st0" d="M106,6.1c0-0.6,0.2-1.1,0.6-1.4c0.4-0.3,0.9-0.4,1.5-0.4c0.4,0,0.8,0.1,1.2,0.2c0.4,0.1,0.6,0.2,0.7,0.2v6.9
				h5c0.8,0,1.3,0.2,1.6,0.5c0.3,0.3,0.5,0.8,0.5,1.4c0,0.4-0.1,0.8-0.2,1.1c-0.1,0.3-0.2,0.6-0.3,0.7h-6.6v7.7
				c0,0.6,0.1,1.1,0.2,1.5c0.2,0.4,0.4,0.7,0.7,0.9c0.3,0.2,0.6,0.4,1,0.5c0.4,0.1,0.8,0.1,1.2,0.1c0.7,0,1.3-0.1,1.9-0.3
				c0.6-0.2,1-0.4,1.2-0.6l1.6,2.6c-0.2,0.1-0.4,0.3-0.8,0.5c-0.3,0.2-0.7,0.4-1.2,0.6c-0.5,0.2-1,0.3-1.6,0.5
				c-0.6,0.1-1.3,0.2-2,0.2c-2,0-3.6-0.5-4.6-1.6c-1-1-1.6-2.4-1.6-4.1V6.1z"/>
			<path class="st0" d="M119.1,6.1c0-0.6,0.2-1.1,0.6-1.4c0.4-0.3,0.9-0.4,1.5-0.4c0.4,0,0.8,0.1,1.2,0.2c0.4,0.1,0.6,0.2,0.7,0.2
				v6.9h5c0.8,0,1.3,0.2,1.6,0.5c0.3,0.3,0.5,0.8,0.5,1.4c0,0.4-0.1,0.8-0.2,1.1c-0.1,0.3-0.2,0.6-0.3,0.7H123v7.7
				c0,0.6,0.1,1.1,0.2,1.5c0.2,0.4,0.4,0.7,0.7,0.9c0.3,0.2,0.6,0.4,1,0.5c0.4,0.1,0.8,0.1,1.2,0.1c0.7,0,1.3-0.1,1.9-0.3
				c0.6-0.2,1-0.4,1.2-0.6l1.6,2.6c-0.2,0.1-0.4,0.3-0.8,0.5c-0.3,0.2-0.7,0.4-1.2,0.6c-0.5,0.2-1,0.3-1.6,0.5
				c-0.6,0.1-1.3,0.2-2,0.2c-2,0-3.6-0.5-4.6-1.6c-1-1-1.6-2.4-1.6-4.1V6.1z"/>
			<path class="st0" d="M147.3,27.6c-0.2,0.1-0.5,0.3-0.9,0.5c-0.4,0.2-0.9,0.4-1.5,0.6c-0.6,0.2-1.3,0.3-2,0.5
				c-0.8,0.1-1.6,0.2-2.5,0.2c-1.3,0-2.5-0.2-3.6-0.6c-1.1-0.4-2.1-1-2.9-1.7c-0.8-0.8-1.5-1.7-2-2.8c-0.5-1.1-0.7-2.4-0.7-3.9
				c0-1.4,0.2-2.6,0.7-3.8c0.5-1.1,1.1-2.1,2-2.9c0.8-0.8,1.8-1.5,3-1.9c1.1-0.4,2.4-0.7,3.7-0.7c1.2,0,2.3,0.2,3.2,0.5
				c0.9,0.3,1.7,0.7,2.3,1.2c0.6,0.5,1.1,1.1,1.4,1.8c0.3,0.7,0.5,1.4,0.5,2.2c0,0.8-0.1,1.5-0.4,2.2c-0.3,0.7-0.8,1.2-1.6,1.7
				c-0.8,0.5-1.8,0.8-3.1,1.1c-1.3,0.3-2.9,0.4-4.9,0.4c-0.5,0-0.9,0-1.3,0c-0.4,0-0.8,0-1.3-0.1c0.2,1.2,0.8,2.1,1.7,2.8
				c1,0.7,2.3,1.1,4.1,1.1c0.6,0,1.2,0,1.7-0.1c0.5-0.1,1-0.2,1.4-0.3c0.4-0.1,0.7-0.3,1-0.4c0.3-0.1,0.5-0.2,0.6-0.3L147.3,27.6z
				 M135.2,19.4c0.5,0,1,0,1.5,0h1.5c1.3,0,2.3-0.1,3.1-0.2c0.8-0.2,1.4-0.4,1.8-0.6c0.4-0.3,0.7-0.5,0.9-0.9c0.1-0.3,0.2-0.7,0.2-1
				c0-0.9-0.4-1.5-1.1-2c-0.7-0.4-1.6-0.7-2.6-0.7c-0.9,0-1.6,0.1-2.2,0.4c-0.6,0.3-1.2,0.7-1.6,1.2c-0.4,0.5-0.8,1.1-1,1.7
				C135.3,18,135.2,18.7,135.2,19.4"/>
			<path class="st0" d="M150.4,17.7c0-2.1,0.7-3.8,2-4.9c1.3-1.2,3.1-1.7,5.4-1.7c1.5,0,2.6,0.2,3.5,0.6c0.9,0.4,1.4,1,1.4,1.8
				c0,0.4-0.1,0.8-0.3,1.1c-0.2,0.4-0.4,0.6-0.5,0.7c-0.4-0.2-0.9-0.4-1.5-0.5c-0.6-0.2-1.2-0.2-2-0.2c-2.7,0-4,1.4-4,4.3v10h-3.9
				V17.7z"/>
			<path class="st0" d="M164.3,13.4c0-1.2,0.2-4.4,0.5-5.3c0.3-0.9,0.8-1.6,1.5-2.2c0.6-0.6,1.4-1,2.2-1.2c0.9-0.3,1.8-0.4,2.8-0.4
				c1.9,0,3.2,0.2,4,0.7c0.8,0.4,1.2,1,1.2,1.7c0,0.4-0.1,0.7-0.3,1c-0.2,0.3-0.5,0.5-0.7,0.7c-0.4-0.3-0.9-0.5-1.5-0.7
				c-0.6-0.2-1.3-0.3-2-0.3c-1.4,0-2.3,0.3-2.9,1c-0.6,0.7-0.9,1.4-0.9,2.7v2.3h5.2c0.8,0,1.3,0.2,1.6,0.5c0.3,0.3,0.5,0.8,0.5,1.4
				c0,0.4-0.1,0.8-0.2,1.1c-0.1,0.3-0.2,0.6-0.3,0.7h-6.8v11.7h-3.9V13.4z"/>
			<path class="st0" d="M177.6,6.4c0-0.6,0.2-1.1,0.6-1.4c0.4-0.3,0.9-0.4,1.6-0.4c0.4,0,0.8,0.1,1.1,0.2c0.3,0.1,0.6,0.2,0.7,0.2
				l0,23.9h-3.9L177.6,6.4z"/>
			<path class="st0" d="M185.1,13.3c0-0.6,0.2-1.1,0.6-1.4c0.4-0.3,0.9-0.4,1.5-0.4c0.4,0,0.8,0.1,1.2,0.2c0.4,0.1,0.6,0.2,0.7,0.2
				v9.2c0,1.4,0.4,2.4,1.1,3.2c0.7,0.8,1.8,1.2,3.4,1.2c1.4,0,2.5-0.4,3.3-1.2c0.8-0.8,1.2-2,1.2-3.6v-7.4c0-0.6,0.2-1.1,0.6-1.4
				c0.4-0.3,0.9-0.4,1.5-0.4c0.4,0,0.8,0.1,1.2,0.2c0.4,0.1,0.6,0.2,0.7,0.2V27c0,1.6-0.2,3-0.7,4.2c-0.4,1.1-1.1,2.1-1.9,2.8
				c-0.8,0.7-1.8,1.3-2.9,1.6c-1.1,0.3-2.4,0.5-3.8,0.5c-0.9,0-1.8-0.1-2.6-0.2c-0.8-0.1-1.5-0.2-2.1-0.4c-0.6-0.1-1.1-0.3-1.5-0.4
				c-0.4-0.1-0.7-0.2-0.8-0.3c0.2-0.5,0.4-1,0.5-1.5c0.2-0.5,0.3-1,0.5-1.5c0.2,0.1,0.4,0.2,0.8,0.3c0.3,0.1,0.8,0.2,1.2,0.3
				c0.5,0.1,1,0.2,1.6,0.3c0.6,0.1,1.3,0.1,2,0.1c0.9,0,1.7-0.1,2.4-0.3c0.7-0.2,1.3-0.5,1.8-1c0.5-0.5,0.9-1.1,1.1-1.9
				c0.3-0.8,0.4-1.8,0.4-3c-0.5,0.7-1.2,1.2-2.2,1.6c-1,0.4-2.1,0.6-3.2,0.6c-1.1,0-2.1-0.2-3.1-0.5c-0.9-0.3-1.8-0.8-2.4-1.3
				c-0.7-0.6-1.2-1.3-1.6-2.2c-0.4-0.9-0.6-1.9-0.6-3V13.3z"/>
		</g>
	</g>
	<g>
		<linearGradient id="SVGID_1_" gradientUnits="userSpaceOnUse" x1="10.6449" y1="13.082" x2="54.3475" y2="13.082">
			<stop  offset="0" style="stop-color:#EB7000"/>
			<stop  offset="0.5" style="stop-color:#FF9100"/>
			<stop  offset="0.9954" style="stop-color:#FDB60B"/>
		</linearGradient>
		<path class="st1" d="M44.7,1.1L18.5,16.2l-0.9,0.5l-6.9,4v5.4L51.3,2.7c0.8-0.4,1.6-0.6,2.5-0.5c0,0,0,0,0,0
			c0.2,0,0.3,0.1,0.5,0.1c0,0,0.1,0,0.1,0C52.8,0.8,50.8,0,48.7,0C47.3,0,46,0.3,44.7,1.1"/>
		
			<linearGradient id="SVGID_00000115482420482004120120000011212259201606245513_" gradientUnits="userSpaceOnUse" x1="11.1286" y1="31.5767" x2="11.1286" y2="2.9857">
			<stop  offset="0" style="stop-color:#EB7000"/>
			<stop  offset="0.5" style="stop-color:#FF9100"/>
			<stop  offset="0.9954" style="stop-color:#FDB60B"/>
		</linearGradient>
		<path style="fill:url(#SVGID_00000115482420482004120120000011212259201606245513_);" d="M3.2,2.8C3.2,2.8,3.2,2.8,3.2,2.8
			c-0.1,0-0.2,0-0.2,0L3,2.8c0,0,0,0,0,0c0,0-0.1,0-0.1,0l-0.1,0c0,0-0.1,0-0.1,0c0,0-0.1,0-0.1,0c0,0-0.1,0-0.1,0c0,0-0.1,0-0.1,0
			c0,0-0.1,0-0.1,0c0,0,0,0-0.1,0l0,0c0,0,0,0-0.1,0c0,0-0.1,0-0.1,0c0,0,0,0,0,0l0,0c-0.1,0-0.1,0.1-0.2,0.1c0,0,0,0-0.1,0l0,0
			c0,0-0.1,0-0.1,0.1c0,0,0,0,0,0c-0.1,0-0.1,0.1-0.2,0.1c0,0,0,0,0,0c0,0-0.1,0-0.1,0.1l0,0C1.1,3.7,1,3.7,0.9,3.8l0,0
			c0,0-0.1,0.1-0.1,0.1l0,0C0.7,4.1,0.6,4.1,0.6,4.2C0.2,4.7,0,5.4,0,6.1v23.7v0v0c0,1.8,0.9,3.3,2.3,4.2l0.5,0.3
			c0.6,0.3,1.3,0.5,2,0.5v-10V9.4c0-0.2,0.1-0.3,0.2-0.4c0.1-0.1,0.3-0.1,0.5,0l5.2,3v0l6.9,4l4.7-2.7l-7-4.1l-10.3-6c0,0,0,0,0,0
			c0,0-0.1-0.1-0.1-0.1l0,0c0,0,0,0-0.1,0c0,0-0.1,0-0.1,0l0,0c0,0-0.1,0-0.1,0c0,0,0,0-0.1,0C4.2,3,4.2,3,4.1,3c0,0,0,0,0,0
			c-0.1,0-0.1,0-0.2,0c0,0,0,0-0.1,0c-0.1,0-0.1,0-0.2,0c0,0,0,0-0.1,0c0,0-0.1,0-0.1,0c0,0-0.1,0-0.1,0l0,0c0,0-0.1,0-0.1,0
			C3.3,2.8,3.3,2.8,3.2,2.8C3.2,2.8,3.2,2.8,3.2,2.8"/>
		
			<linearGradient id="SVGID_00000060728845588838771660000011924839499970746028_" gradientUnits="userSpaceOnUse" x1="14.9148" y1="12.7569" x2="14.9148" y2="1.2888">
			<stop  offset="0" style="stop-color:#EB7000"/>
			<stop  offset="0.5" style="stop-color:#FF9100"/>
			<stop  offset="0.9954" style="stop-color:#FDB60B"/>
		</linearGradient>
		<path style="fill:url(#SVGID_00000060728845588838771660000011924839499970746028_);" d="M2.3,2.3C2.6,2.2,3,2.2,3.3,2.2
			c0,0,0,0,0.1,0l0,0c0,0,0.1,0,0.1,0c0,0,0.1,0,0.1,0l0.1,0c0,0,0.1,0,0.1,0c0,0,0.1,0,0.1,0l0,0c0,0,0,0,0,0c0,0,0.1,0,0.1,0
			c0,0,0.1,0,0.1,0l0,0c0,0,0.1,0,0.1,0c0,0,0.1,0,0.1,0l0.1,0c0,0,0,0,0,0c0,0,0.1,0,0.1,0c0,0,0.1,0,0.1,0l0,0c0,0,0.1,0,0.1,0.1
			c0,0,0.1,0,0.1,0l0,0c0,0,0.1,0,0.1,0.1c0,0,0.1,0,0.1,0.1l0,0L22.9,13l3.6-2.1l1.1-0.6L13.2,2C11,0.8,9.1,0.2,7.4,0.2
			C5.5,0.2,3.9,0.9,2.3,2.3"/>
		<g>
			<defs>
				<path id="SVGID_00000013887561555855649930000001243265950964853154_" d="M32.8,20.2l0.7-0.4L32.8,20.2z"/>
			</defs>
			
				<linearGradient id="SVGID_00000125591734395538202210000010687104131178332036_" gradientUnits="userSpaceOnUse" x1="32.8243" y1="20.0172" x2="33.5162" y2="20.0172">
				<stop  offset="0" style="stop-color:#EB7000"/>
				<stop  offset="0.5" style="stop-color:#FF9100"/>
				<stop  offset="0.9954" style="stop-color:#FDB60B"/>
			</linearGradient>
			
				<use xlink:href="#SVGID_00000013887561555855649930000001243265950964853154_"  style="overflow:visible;fill:url(#SVGID_00000125591734395538202210000010687104131178332036_);"/>
			<clipPath id="SVGID_00000134210033695269203400000018234780818817039010_">
				<use xlink:href="#SVGID_00000013887561555855649930000001243265950964853154_"  style="overflow:visible;"/>
			</clipPath>
			
				<linearGradient id="SVGID_00000064346646546139333090000007156777920914644618_" gradientUnits="userSpaceOnUse" x1="32.8243" y1="20.0172" x2="33.5162" y2="20.0172">
				<stop  offset="0" style="stop-color:#EB7000"/>
				<stop  offset="0.5" style="stop-color:#FF9100"/>
				<stop  offset="0.9954" style="stop-color:#FDB60B"/>
			</linearGradient>
			
				<rect x="32.8" y="19.8" style="clip-path:url(#SVGID_00000134210033695269203400000018234780818817039010_);fill:url(#SVGID_00000064346646546139333090000007156777920914644618_);" width="0.7" height="0.4"/>
		</g>
		<g>
			<defs>
				<polygon id="SVGID_00000045597080095126618130000000758328043483477919_" points="51,9.7 51.1,16.4 51.1,9.7 				"/>
			</defs>
			
				<linearGradient id="SVGID_00000170269108679355172010000013184153851362857372_" gradientUnits="userSpaceOnUse" x1="51.0449" y1="13.0255" x2="51.0591" y2="13.0255">
				<stop  offset="0" style="stop-color:#EB7000"/>
				<stop  offset="0.5" style="stop-color:#FF9100"/>
				<stop  offset="0.9954" style="stop-color:#FDB60B"/>
			</linearGradient>
			
				<use xlink:href="#SVGID_00000045597080095126618130000000758328043483477919_"  style="overflow:visible;fill:url(#SVGID_00000170269108679355172010000013184153851362857372_);"/>
			<clipPath id="SVGID_00000150069039147832990410000010494842739633982851_">
				<use xlink:href="#SVGID_00000045597080095126618130000000758328043483477919_"  style="overflow:visible;"/>
			</clipPath>
			
				<linearGradient id="SVGID_00000074427021589667850450000002099790126903430528_" gradientUnits="userSpaceOnUse" x1="51.0449" y1="13.0255" x2="51.0591" y2="13.0255">
				<stop  offset="0" style="stop-color:#EB7000"/>
				<stop  offset="0.5" style="stop-color:#FF9100"/>
				<stop  offset="0.9954" style="stop-color:#FDB60B"/>
			</linearGradient>
			
				<rect x="51" y="9.7" style="clip-path:url(#SVGID_00000150069039147832990410000010494842739633982851_);fill:url(#SVGID_00000074427021589667850450000002099790126903430528_);" width="0" height="6.7"/>
		</g>
		
			<linearGradient id="SVGID_00000159438644995241414880000000047023734519255219_" gradientUnits="userSpaceOnUse" x1="39.9451" y1="25.3062" x2="39.9451" y2="17.5605">
			<stop  offset="0" style="stop-color:#EB7000"/>
			<stop  offset="0.5" style="stop-color:#FF9100"/>
			<stop  offset="0.9954" style="stop-color:#FDB60B"/>
		</linearGradient>
		<polygon style="fill:url(#SVGID_00000159438644995241414880000000047023734519255219_);" points="34.1,19.5 45.8,26.2 45.8,20.7 
			38.8,16.7 		"/>
		
			<linearGradient id="SVGID_00000054231081446795572210000003539337297239535493_" gradientUnits="userSpaceOnUse" x1="30.8591" y1="31.5767" x2="30.8591" y2="3.0067">
			<stop  offset="0" style="stop-color:#EB7000"/>
			<stop  offset="0.5" style="stop-color:#FF9100"/>
			<stop  offset="0.9954" style="stop-color:#FDB60B"/>
		</linearGradient>
		<path style="fill:url(#SVGID_00000054231081446795572210000003539337297239535493_);" d="M51.6,3.2L10,27.2v0h0V12.4L5.3,9.7v15.1
			v10c0.7,0,1.4-0.2,1.9-0.5c5.2-2.8,20.3-11.7,20.3-11.7l11.1-6.4L51,9c0.1-0.1,0.3-0.1,0.5,0c0.1,0.1,0.2,0.2,0.2,0.4v15.4v10
			c0.7,0,1.4-0.2,2-0.5l0.6-0.3c1.3-0.9,2.2-2.4,2.2-4.1v0l0-23.8c0-0.8-0.3-1.6-0.9-2.2l-0.1-0.1c-0.3-0.3-0.5-0.4-0.9-0.6
			c0,0,0,0,0,0c-0.1,0-0.1-0.1-0.2-0.1c0,0,0,0,0,0c-0.1,0-0.1,0-0.2-0.1c0,0,0,0,0,0c-0.3-0.1-0.6-0.1-0.9-0.1
			C52.7,2.8,52.1,2.9,51.6,3.2"/>
		<g>
			<defs>
				<polygon id="SVGID_00000084509300555244971620000004893155867606459834_" points="56.4,29.8 56.4,29.8 56.4,29.8 				"/>
			</defs>
			
				<linearGradient id="SVGID_00000163060736369050558020000008777243415349982904_" gradientUnits="userSpaceOnUse" x1="56.3955" y1="29.7873" x2="56.3958" y2="29.7873">
				<stop  offset="4.091662e-04" style="stop-color:#FD9801"/>
				<stop  offset="0.9954" style="stop-color:#FF9100"/>
			</linearGradient>
			
				<use xlink:href="#SVGID_00000084509300555244971620000004893155867606459834_"  style="overflow:visible;fill:url(#SVGID_00000163060736369050558020000008777243415349982904_);"/>
			<clipPath id="SVGID_00000166634136983484797120000016607986246351976368_">
				<use xlink:href="#SVGID_00000084509300555244971620000004893155867606459834_"  style="overflow:visible;"/>
			</clipPath>
			
				<linearGradient id="SVGID_00000007401217316319082910000012825478791243300277_" gradientUnits="userSpaceOnUse" x1="-1739.0544" y1="5521.3657" x2="-1738.7959" y2="5521.3657" gradientTransform="matrix(0 2.389640e-02 2.389640e-02 0 -75.5451 71.3411)">
				<stop  offset="4.091662e-04" style="stop-color:#FD9801"/>
				<stop  offset="0.9954" style="stop-color:#FF9100"/>
			</linearGradient>
			
				<rect x="56.4" y="29.8" style="clip-path:url(#SVGID_00000166634136983484797120000016607986246351976368_);fill:url(#SVGID_00000007401217316319082910000012825478791243300277_);" width="0" height="0"/>
		</g>
		<g>
			<defs>
				<path id="SVGID_00000088110813065321337020000004792451889062592419_" d="M53.6,34.3c0.2-0.1,0.4-0.2,0.6-0.3L53.6,34.3z"/>
			</defs>
			
				<linearGradient id="SVGID_00000061461992433565379050000005094610416860382885_" gradientUnits="userSpaceOnUse" x1="53.6315" y1="34.1014" x2="54.1916" y2="34.1014">
				<stop  offset="4.091662e-04" style="stop-color:#FD9801"/>
				<stop  offset="0.9954" style="stop-color:#FDA800"/>
			</linearGradient>
			
				<use xlink:href="#SVGID_00000088110813065321337020000004792451889062592419_"  style="overflow:visible;fill:url(#SVGID_00000061461992433565379050000005094610416860382885_);"/>
			<clipPath id="SVGID_00000021820265516685081690000006257873829514999434_">
				<use xlink:href="#SVGID_00000088110813065321337020000004792451889062592419_"  style="overflow:visible;"/>
			</clipPath>
			
				<linearGradient id="SVGID_00000121962824510444239590000007759819487799594129_" gradientUnits="userSpaceOnUse" x1="-433.1831" y1="619.3857" x2="-432.9246" y2="619.3857" gradientTransform="matrix(0 1.2496 1.2496 0 -720.0424 575.2242)">
				<stop  offset="4.091662e-04" style="stop-color:#FD9801"/>
				<stop  offset="0.9954" style="stop-color:#FDA800"/>
			</linearGradient>
			
				<rect x="53.6" y="33.9" style="clip-path:url(#SVGID_00000021820265516685081690000006257873829514999434_);fill:url(#SVGID_00000121962824510444239590000007759819487799594129_);" width="0.6" height="0.3"/>
		</g>
		
			<linearGradient id="SVGID_00000168813803496561258670000016872618269299966121_" gradientUnits="userSpaceOnUse" x1="39.9377" y1="31.5767" x2="39.9377" y2="2.4908">
			<stop  offset="0" style="stop-color:#EB7000"/>
			<stop  offset="0.5" style="stop-color:#FF9100"/>
			<stop  offset="0.9954" style="stop-color:#FDB60B"/>
		</linearGradient>
		<path style="fill:url(#SVGID_00000168813803496561258670000016872618269299966121_);" d="M46.4,12.4v8v6.9l-12.9-7.4l-4.7,2.7
			c0,0,15.2,8.9,20.3,11.7c0.6,0.3,1.2,0.5,1.9,0.5l0-25.1L46.4,12.4z"/>
	</g>
</g>
</svg>
