<?xml version="1.0" encoding="utf-8"?>
<!-- Generator: Adobe Illustrator 25.0.1, SVG Export Plug-In . SVG Version: 6.00 Build 0)  -->
<svg version="1.1" id="Capa_1" xmlns="http://www.w3.org/2000/svg" xmlns:xlink="http://www.w3.org/1999/xlink" x="0px" y="0px"
	 viewBox="0 0 40 40" style="enable-background:new 0 0 40 40;" xml:space="preserve" width="40" height="40">
<style type="text/css">
	.st0{fill:none;stroke:#5481CE;stroke-width:1.5;stroke-linecap:round;stroke-linejoin:round;stroke-miterlimit:10;}
</style>
<path class="st0" d="M32.8,4.1l-0.3-0.2l-0.3,0.2c-1.4,0.8-3,1.1-4.5,0.8v6.7c0,0.8,0.2,1.6,0.7,2.3c0.5,0.8,1.3,1.5,2.2,1.8l2,0.8
	l2-0.8c0.9-0.4,1.6-1,2.2-1.8c0.4-0.7,0.7-1.5,0.7-2.3V4.9C35.8,5.2,34.2,4.9,32.8,4.1z"/>
<ellipse transform="matrix(7.088869e-02 -0.9975 0.9975 7.088869e-02 -4.0171 14.9498)" class="st0" cx="6" cy="9.6" rx="3.3" ry="3.3"/>
<path class="st0" d="M6,14.3c-2.6,2.6-2.6,6.7,0,9.3l0.2,0.2C6.5,24,6.7,24.1,7,24.2c1,0.2,1.8-0.7,1.6-1.6
	c-0.1-0.3-0.2-0.6-0.4-0.8L8,21.6c-1.5-1.5-1.5-3.8,0-5.3l11.5,11.5c0.3,0.3,0.4,0.7,0.4,1.1v5.6c0,0.7,0.3,1.3,0.9,1.7
	c0.7,0.4,1.5,0.4,2.2,0c0.6-0.4,0.9-1,0.9-1.7v-7.6c0-0.4-0.2-0.8-0.4-1.1l-2.9-2.9l2.3-2.3c0.6-0.6,1.5-0.6,2.1,0l3,3
	c0.6,0.6,1.4,0.7,2.2,0.3c0.3-0.2,0.6-0.4,0.8-0.8c0.4-0.8,0.2-1.6-0.3-2.2l-5.7-5.7c-0.6-0.6-1.5-0.6-2.1,0l-4.2,4.2l-5.3-5.3v-0.7
	c2.9,0,5.3-2.4,5.3-5.3V8.2c0-0.3-0.1-0.6-0.2-0.8c-0.5-0.8-1.6-0.8-2.2,0c-0.2,0.2-0.2,0.5-0.2,0.8c0,1.5-1.3,2.8-2.8,2.8
	c-2.5-0.1-4.8,1-6.5,2.8L6,14.3z"/>
<line class="st0" x1="13.4" y1="29.4" x2="1.8" y2="29.4"/>
<line class="st0" x1="17.6" y1="36.4" x2="6.1" y2="36.4"/>
<line class="st0" x1="15" y1="32.9" x2="3.5" y2="32.9"/>
</svg>
