<svg width="40" height="40" viewBox="0 0 40 40" fill="none" xmlns="http://www.w3.org/2000/svg">
<path d="M39.9333 24.391L39.9393 24.389L33.372 10.0597L34.9647 9.26706L34.3687 8.07372L32.816 8.84706L32.606 8.38906C32.4525 8.05439 32.0568 7.90747 31.7222 8.06089C31.577 8.12747 31.4606 8.24389 31.394 8.38906L31.2067 8.79839C30.0767 8.27356 28.8459 8.00122 27.6 8.00039H22V6.66706H23.3333V5.33372H22.1873L22.6667 3.41572C23.0347 1.94298 22.1392 0.450725 20.6664 0.0826423C19.1937 -0.285358 17.7014 0.610142 17.3333 2.08289C17.224 2.52039 17.224 2.97814 17.3333 3.41564L17.8127 5.33364H16.6667V6.66697H18V8.00031H12.4033C11.1562 8.00131 9.92417 8.27431 8.79334 8.80031L8.60601 8.39097C8.45259 8.05631 8.05684 7.90939 7.72217 8.06281C7.57701 8.12939 7.46059 8.24581 7.39401 8.39097L7.18401 8.84897L5.63134 8.07231L5.03534 9.26697L6.62801 10.063L0.0606755 24.389C0.0201755 24.4761 -0.000491139 24.5711 8.86046e-06 24.667C0.00292553 27.2431 2.09059 29.3308 4.66667 29.3337H11.3333C13.9094 29.3308 15.9971 27.2431 16 24.667C15.9983 24.5713 15.9756 24.477 15.9333 24.391L9.34801 10.0077C10.3053 9.56339 11.348 9.33339 12.4033 9.33372H18V33.7244L15.724 36.0004H13.3333C11.4933 36.0025 10.0022 37.4937 10 39.3337C10 39.7019 10.2985 40.0004 10.6667 40.0004H29.3333C29.7015 40.0004 30 39.7019 30 39.3337C29.9978 37.4937 28.5067 36.0025 26.6667 36.0004H24.276L22 33.7244V9.33372H27.6C28.6553 9.33339 29.6981 9.56339 30.6553 10.0077L24.0607 24.389C24.0202 24.4761 23.9995 24.5711 24 24.667C24.0029 27.2431 26.0906 29.3308 28.6667 29.3337H35.3333C37.9094 29.3308 39.9971 27.2431 40 24.667C39.9984 24.5713 39.9757 24.477 39.9333 24.391ZM11.3333 28.0004H4.66667C3.08317 27.9986 1.71876 26.8848 1.40001 25.3337H14.6C14.2813 26.8848 12.9168 27.9986 11.3333 28.0004ZM14.2947 24.0004H1.70534L7.82934 10.6397C7.94117 10.6697 8.05884 10.6697 8.17067 10.6397L14.2947 24.0004ZM18.8847 1.87773C19.4038 1.26173 20.3241 1.18331 20.9401 1.70248C21.0033 1.75581 21.062 1.81448 21.1153 1.87773C21.385 2.22072 21.4803 2.66939 21.3733 3.09239L20.8127 5.33372H19.1873L18.6267 3.09239C18.5198 2.66939 18.6151 2.22072 18.8847 1.87773ZM19.3333 8.00039V6.66706H20.6667V8.00039H19.3333ZM20.6667 9.33372V33.3337H19.3333V9.33372H20.6667ZM26.6667 37.3337C27.514 37.3347 28.2691 37.8685 28.5527 38.667H11.4473C11.7309 37.8685 12.486 37.3347 13.3333 37.3337H26.6667ZM22.3907 36.0004H17.6093L18.9427 34.667H21.0573L22.3907 36.0004ZM31.828 10.6417C31.9381 10.6805 32.0588 10.6755 32.1653 10.6277L38.2947 24.0004H25.7053L31.828 10.6417ZM35.3333 28.0004H28.6667C27.0832 27.9986 25.7188 26.8848 25.4 25.3337H38.6C38.2813 26.8848 36.9168 27.9986 35.3333 28.0004Z" fill="#00C6A8"/>
</svg>
