<svg width="68" height="32" viewBox="0 0 68 32" fill="none" xmlns="http://www.w3.org/2000/svg">
<g clip-path="url(#clip0_947_26397)">
<path d="M2.2259 9.03884C2.19879 9.01449 2.17727 8.98456 2.16283 8.9511C2.14839 8.91764 2.14136 8.88145 2.14223 8.84502V7.72945C2.14066 7.69128 2.14732 7.65322 2.16176 7.61786C2.17619 7.58249 2.19807 7.55063 2.2259 7.52446C2.25236 7.49895 2.28359 7.47892 2.31781 7.46551C2.35203 7.45211 2.38857 7.44561 2.42531 7.44637H3.46557C3.96312 7.45134 4.45256 7.32018 4.88095 7.06709C5.30383 6.81987 5.65587 6.46783 5.90309 6.04495C6.15156 5.61513 6.28239 5.12743 6.28239 4.63096C6.28239 4.1345 6.15156 3.64679 5.90309 3.21698C5.65552 2.79437 5.30356 2.44242 4.88095 2.19485C4.45228 1.94241 3.96303 1.81129 3.46557 1.81556H2.43089C2.41045 1.81518 2.39016 1.81892 2.37121 1.82657C2.35226 1.83421 2.33504 1.8456 2.32059 1.86005C2.30614 1.8745 2.29476 1.89172 2.28712 1.91067C2.27947 1.92962 2.27572 1.94991 2.2761 1.97034V2.75403C2.27687 2.79024 2.26979 2.82619 2.25534 2.85941C2.2409 2.89262 2.21944 2.92232 2.19243 2.94646C2.16598 2.97197 2.13475 2.992 2.10053 3.00541C2.06631 3.01881 2.02977 3.02531 1.99302 3.02455H0.877459C0.807013 3.02055 0.740508 2.99077 0.690615 2.94088C0.640722 2.89098 0.610931 2.82448 0.606934 2.75403V0.42389C0.606902 0.386756 0.614287 0.349991 0.628654 0.315748C0.643021 0.281506 0.664087 0.250478 0.690606 0.224484C0.714446 0.198589 0.743304 0.177818 0.775428 0.163434C0.807552 0.14905 0.842265 0.141349 0.877459 0.140811H3.47394C4.26514 0.134814 5.0431 0.344007 5.72459 0.74601C6.40124 1.13957 6.96394 1.70228 7.3575 2.37892C7.753 3.06281 7.96124 3.83886 7.96124 4.62887C7.96124 5.41888 7.753 6.19494 7.3575 6.87883C6.96354 7.55516 6.40092 8.11777 5.72459 8.51174C5.04298 8.91332 4.26502 9.12203 3.47394 9.11554H2.43089C2.39331 9.11724 2.35578 9.11132 2.32056 9.09814C2.28533 9.08496 2.25313 9.06479 2.2259 9.03884Z" fill="#170D26"/>
<path d="M9.69463 1.65245C9.67202 1.62949 9.6542 1.60224 9.64223 1.57231C9.63026 1.54238 9.62437 1.51037 9.62491 1.47814V0.372341C9.624 0.341099 9.62974 0.310021 9.64176 0.28117C9.65378 0.252319 9.67181 0.226355 9.69463 0.205004C9.73862 0.164127 9.79634 0.141235 9.85639 0.140856H15.8177C15.8499 0.140204 15.8818 0.146188 15.9116 0.158423C15.9413 0.170658 15.9682 0.188885 15.9906 0.211975C16.0128 0.23241 16.0306 0.257194 16.0428 0.284779C16.055 0.312364 16.0615 0.342166 16.0617 0.372341V1.47814C16.0606 1.54103 16.0351 1.60103 15.9906 1.64548C15.9691 1.67008 15.9425 1.68968 15.9126 1.70292C15.8828 1.71617 15.8504 1.72274 15.8177 1.72217H9.85639C9.82609 1.72222 9.79611 1.71605 9.76829 1.70406C9.74047 1.69207 9.7154 1.67451 9.69463 1.65245Z" fill="#170D26"/>
<path d="M9.69463 9.07092C9.67277 9.05 9.65533 9.02489 9.64335 8.99711C9.63138 8.96932 9.62511 8.93941 9.62491 8.90915V2.97016C9.624 2.93892 9.62974 2.90784 9.64176 2.87899C9.65378 2.85014 9.67181 2.82418 9.69463 2.80283C9.73832 2.76147 9.79623 2.7385 9.85639 2.73868H10.9482C10.9791 2.73714 11.0099 2.74205 11.0387 2.7531C11.0675 2.76414 11.0937 2.78108 11.1156 2.80283C11.1371 2.82487 11.1539 2.85108 11.165 2.87986C11.176 2.90864 11.181 2.93937 11.1797 2.97016V3.89608C11.1797 4.05923 11.2913 4.14011 11.5144 4.14011H14.7551C14.8116 4.13918 14.8664 4.1596 14.9085 4.19729C14.9294 4.2157 14.946 4.23849 14.9571 4.26404C14.9681 4.28958 14.9735 4.31726 14.9726 4.3451V5.4509C14.9737 5.47876 14.9684 5.5065 14.9573 5.53208C14.9462 5.55766 14.9295 5.58042 14.9085 5.59871C14.8668 5.63727 14.8119 5.65825 14.7551 5.65728H11.4767C11.2787 5.65728 11.1797 5.74653 11.1797 5.92642V7.32784C11.1807 7.35957 11.1882 7.39076 11.2016 7.41953C11.215 7.44829 11.2341 7.47403 11.2578 7.49518C11.2789 7.51892 11.3046 7.53809 11.3334 7.55152C11.3622 7.56494 11.3934 7.57235 11.4252 7.57327H15.847C15.8778 7.57198 15.9085 7.577 15.9373 7.58804C15.9661 7.59907 15.9923 7.61587 16.0143 7.63741C16.0361 7.6593 16.053 7.68549 16.064 7.71431C16.0751 7.74312 16.08 7.77393 16.0785 7.80475V8.90915C16.0789 8.96936 16.0559 9.02739 16.0143 9.07092C15.9932 9.09404 15.9673 9.11225 15.9384 9.1243C15.9095 9.13634 15.8783 9.14192 15.847 9.14064H9.85081C9.82146 9.13994 9.79254 9.13341 9.76573 9.12144C9.73892 9.10947 9.71475 9.0923 9.69463 9.07092Z" fill="#170D26"/>
<path d="M18.9845 8.94823V2.00522C18.9854 1.96547 18.9777 1.926 18.9621 1.88945C18.9465 1.85289 18.9232 1.8201 18.8939 1.79327C18.8351 1.73798 18.757 1.70794 18.6763 1.7096H17.9428C17.921 1.70948 17.8995 1.70484 17.8795 1.69596C17.8596 1.68708 17.8418 1.67415 17.8271 1.65801C17.81 1.64143 17.7966 1.62144 17.7877 1.59934C17.7788 1.57724 17.7746 1.55352 17.7755 1.52972V0.334667C17.7748 0.310673 17.779 0.286789 17.7879 0.264485C17.7967 0.24218 17.8101 0.221929 17.8271 0.204984C17.842 0.189289 17.86 0.176754 17.8799 0.168131C17.8997 0.159507 17.9212 0.154973 17.9428 0.154785H23.5611C23.5828 0.154893 23.6042 0.159391 23.6241 0.16802C23.644 0.176648 23.6619 0.189226 23.6768 0.204984C23.6938 0.221929 23.7072 0.24218 23.7161 0.264485C23.7249 0.286789 23.7291 0.310673 23.7284 0.334667V1.52972C23.7293 1.55352 23.7251 1.57724 23.7163 1.59934C23.7074 1.62144 23.6939 1.64143 23.6768 1.65801C23.6622 1.67422 23.6444 1.68718 23.6244 1.69607C23.6045 1.70495 23.5829 1.70956 23.5611 1.7096H21.1571C21.1163 1.70904 21.0759 1.71679 21.0383 1.73238C21.0006 1.74796 20.9665 1.77105 20.9381 1.80024C20.9099 1.82641 20.8874 1.85813 20.8721 1.8934C20.8567 1.92868 20.8488 1.96675 20.8489 2.00522V8.94823C20.8497 8.9712 20.8455 8.99406 20.8365 9.01525C20.8276 9.03643 20.8142 9.05543 20.7973 9.07094C20.7655 9.09951 20.7243 9.11539 20.6815 9.11557H19.1476C19.1252 9.11812 19.1025 9.11552 19.0813 9.10795C19.06 9.10038 19.0408 9.08805 19.025 9.0719C19.0093 9.05574 18.9975 9.0362 18.9904 9.01476C18.9834 8.99333 18.9814 8.97057 18.9845 8.94823Z" fill="#170D26"/>
<path d="M25.8829 1.6524C25.8598 1.6297 25.8416 1.60253 25.8294 1.57256C25.8171 1.54259 25.8112 1.51046 25.8118 1.4781V0.372293C25.8107 0.340909 25.8166 0.30968 25.8289 0.280781C25.8411 0.251883 25.8596 0.226008 25.8829 0.204956C25.9262 0.163931 25.9836 0.140985 26.0432 0.140808H32.0087C32.0409 0.140072 32.0729 0.146015 32.1026 0.158256C32.1324 0.170496 32.1593 0.188769 32.1816 0.211927C32.2038 0.232361 32.2216 0.257145 32.2338 0.284731C32.2461 0.312316 32.2525 0.342117 32.2528 0.372293V1.4781C32.2516 1.54098 32.2261 1.60098 32.1816 1.64543C32.1602 1.6701 32.1336 1.68976 32.1037 1.70301C32.0738 1.71626 32.0414 1.72279 32.0087 1.72213H26.0432C26.0131 1.72223 25.9833 1.71608 25.9557 1.70408C25.9281 1.69208 25.9033 1.67449 25.8829 1.6524Z" fill="#170D26"/>
<path d="M25.8829 9.07094C25.8606 9.05029 25.8427 9.02527 25.8305 8.99745C25.8183 8.96962 25.8119 8.93957 25.8118 8.90918V2.97019C25.8107 2.93881 25.8166 2.90758 25.8289 2.87868C25.8411 2.84978 25.8596 2.82391 25.8829 2.80285C25.9258 2.7612 25.9834 2.73815 26.0432 2.7387H27.1365C27.1671 2.73727 27.1976 2.74224 27.2262 2.75328C27.2548 2.76433 27.2807 2.78121 27.3024 2.80285C27.324 2.82489 27.3408 2.85111 27.3518 2.87989C27.3628 2.90866 27.3679 2.9394 27.3666 2.97019V3.8961C27.3666 4.05925 27.4781 4.14013 27.7012 4.14013H30.942C30.9985 4.13921 31.0532 4.15963 31.0954 4.19731C31.1162 4.21573 31.1328 4.23852 31.1439 4.26406C31.155 4.28961 31.1603 4.31729 31.1595 4.34512V5.45093C31.1605 5.47879 31.1553 5.50653 31.1442 5.5321C31.1331 5.55768 31.1164 5.58045 31.0954 5.59874C31.0537 5.63729 30.9987 5.65827 30.942 5.6573H27.6706C27.4726 5.6573 27.3735 5.74656 27.3735 5.92644V7.32787C27.3792 7.39106 27.4068 7.45027 27.4517 7.49513C27.4966 7.53999 27.5558 7.56766 27.619 7.57329H32.0408C32.0716 7.57169 32.1024 7.57658 32.1312 7.58764C32.1601 7.59871 32.1862 7.6157 32.208 7.63753C32.2299 7.65935 32.2469 7.68551 32.2579 7.71432C32.269 7.74313 32.2739 7.77395 32.2723 7.80477V8.90918C32.2727 8.96939 32.2497 9.02741 32.2081 9.07094C32.1871 9.09413 32.1612 9.11241 32.1322 9.12446C32.1033 9.13651 32.0721 9.14204 32.0408 9.14066H26.0446C26.0143 9.14096 25.9842 9.13491 25.9564 9.1229C25.9285 9.11089 25.9035 9.0932 25.8829 9.07094Z" fill="#170D26"/>
<path d="M35.8658 8.64004C34.8214 8.01261 34.0639 7.00156 33.7551 5.82299C33.4464 4.64442 33.6108 3.39183 34.2134 2.33291C34.6089 1.63803 35.1783 1.058 35.8658 0.649799C36.5521 0.23533 37.3398 0.0190972 38.1415 0.0250844C38.7823 0.0214799 39.4162 0.157575 39.999 0.423897C40.5674 0.682514 41.0771 1.05453 41.4966 1.51715C41.5137 1.53373 41.5272 1.55371 41.536 1.57581C41.5449 1.59791 41.5491 1.62164 41.5482 1.64544C41.549 1.67206 41.5436 1.69849 41.5324 1.72267C41.5213 1.74686 41.5048 1.76815 41.4841 1.78489L40.5581 2.58112C40.5405 2.60074 40.519 2.61656 40.495 2.62759C40.4711 2.63862 40.4451 2.64463 40.4187 2.64527C40.3937 2.64572 40.369 2.64012 40.3467 2.62895C40.3243 2.61778 40.305 2.60137 40.2904 2.58112C40.0166 2.28384 39.6843 2.04645 39.3143 1.88389C38.8927 1.69543 38.4319 1.611 37.9709 1.63769C37.5098 1.66438 37.0619 1.80143 36.6648 2.03729C36.2177 2.30493 35.8478 2.68403 35.5911 3.13751C35.1983 3.82668 35.0908 4.64215 35.2914 5.40957C35.4921 6.17699 35.985 6.83545 36.6648 7.24418C37.0524 7.47493 37.4887 7.61154 37.9387 7.64302C38.3887 7.67451 38.8398 7.6 39.2557 7.42547C39.6066 7.27531 39.9252 7.05894 40.1942 6.7882C40.2598 6.72448 40.3468 6.68766 40.4382 6.68501C40.471 6.68305 40.5038 6.68773 40.5347 6.69875C40.5656 6.70977 40.594 6.72692 40.6181 6.74915L40.8635 6.95553L41.3767 7.41849C41.4176 7.4444 41.4511 7.48052 41.4739 7.52331C41.4966 7.56611 41.5078 7.61408 41.5064 7.66252C41.5066 7.69143 41.5009 7.72007 41.4896 7.74669C41.4783 7.77331 41.4617 7.79735 41.4408 7.81731C41.0205 8.27366 40.5096 8.63734 39.9408 8.88512C39.372 9.13291 38.7578 9.25935 38.1374 9.25639C37.3382 9.26183 36.5527 9.0487 35.8658 8.64004Z" fill="#170D26"/>
<path d="M44.351 8.94823V2.00522C44.3521 1.96558 44.3447 1.92617 44.3293 1.88962C44.3139 1.85307 44.2909 1.82023 44.2618 1.79327C44.2025 1.7379 44.124 1.70787 44.0429 1.7096H43.3094C43.2876 1.70948 43.266 1.70484 43.2461 1.69596C43.2262 1.68708 43.2083 1.67415 43.1936 1.65801C43.1768 1.64122 43.1636 1.6212 43.1547 1.59915C43.1458 1.5771 43.1415 1.55348 43.142 1.52972V0.334667C43.1416 0.310714 43.146 0.286923 43.1549 0.264663C43.1637 0.242404 43.1769 0.222118 43.1936 0.204984C43.2086 0.189289 43.2265 0.176754 43.2464 0.168131C43.2663 0.159507 43.2877 0.154973 43.3094 0.154785H48.929C48.9507 0.155128 48.9721 0.159737 48.9919 0.168352C49.0118 0.176966 49.0297 0.189414 49.0448 0.204984C49.0613 0.222187 49.0743 0.242517 49.0829 0.264782C49.0915 0.287048 49.0956 0.310801 49.095 0.334667V1.52972C49.0958 1.55339 49.0917 1.57697 49.0831 1.59903C49.0745 1.62109 49.0614 1.64115 49.0448 1.65801C49.03 1.67402 49.0121 1.68686 48.9922 1.69573C48.9723 1.7046 48.9508 1.70931 48.929 1.7096H46.5236C46.4831 1.70907 46.4429 1.71684 46.4055 1.73243C46.3681 1.74801 46.3342 1.77109 46.3061 1.80024C46.2776 1.82628 46.2549 1.85794 46.2393 1.89323C46.2237 1.92851 46.2155 1.96665 46.2154 2.00522V8.94823C46.2165 8.97123 46.2124 8.99419 46.2035 9.01542C46.1946 9.03665 46.181 9.05562 46.1638 9.07094C46.1322 9.09974 46.0909 9.11565 46.0481 9.11557H44.5142C44.4918 9.11812 44.4691 9.11552 44.4478 9.10795C44.4266 9.10038 44.4073 9.08805 44.3916 9.0719C44.3758 9.05574 44.364 9.0362 44.357 9.01476C44.35 8.99333 44.3479 8.97057 44.351 8.94823Z" fill="#170D26"/>
<path d="M50.5229 6.57626C50.0198 5.46613 49.9623 4.20511 50.3626 3.05386C50.5378 2.54424 50.8059 2.07146 51.1532 1.6594C51.5541 1.16069 52.0584 0.754879 52.6314 0.469933C53.1892 0.193849 53.7975 0.0344155 54.419 0.00138865H54.4441C54.4768 0.00072584 54.5093 0.00725152 54.5391 0.0205046C54.569 0.0337576 54.5956 0.0534211 54.6171 0.0780906C54.6655 0.131759 54.6949 0.199869 54.7007 0.271914V1.38748C54.7007 1.54924 54.6115 1.63988 54.4316 1.65661C54.0449 1.69146 53.669 1.80285 53.3258 1.98431C52.9802 2.16424 52.6776 2.41684 52.4389 2.72477C51.9858 3.25949 51.7385 3.93846 51.7417 4.63935C51.7413 5.06757 51.8331 5.49085 52.0108 5.88042C52.1884 6.27476 52.4524 6.62409 52.7833 6.90256C53.2124 7.26285 53.7352 7.49352 54.2906 7.5676C54.846 7.64169 55.411 7.55612 55.9195 7.3209C56.3115 7.14348 56.6553 6.87475 56.9221 6.53721C57.15 6.26958 57.3268 5.96235 57.4436 5.63081C57.5581 5.30653 57.6166 4.96513 57.6165 4.62123C57.6198 4.14801 57.5099 3.68089 57.2958 3.25885C57.2539 3.17928 57.2319 3.09077 57.2317 3.00087C57.2334 2.94323 57.248 2.88671 57.2746 2.83553C57.3011 2.78435 57.3389 2.73982 57.385 2.70524C57.4548 2.66341 57.5872 2.5658 57.7839 2.43611L58.1576 2.17814C58.2146 2.13949 58.2812 2.1173 58.35 2.11399C58.4146 2.11246 58.4782 2.12987 58.5329 2.16407C58.5877 2.19826 58.6312 2.24776 58.6582 2.30643C59.0663 3.01394 59.2794 3.81702 59.2759 4.63378C59.2763 5.17061 59.1848 5.70356 59.0054 6.20951C58.8265 6.71866 58.5567 7.19112 58.2092 7.60397C57.7932 8.14016 57.2522 8.56627 56.6334 8.84504C56.0146 9.12973 55.3414 9.27673 54.6603 9.27592C54.125 9.27596 53.594 9.18154 53.0915 8.99703C52.5942 8.81787 52.1359 8.54472 51.7417 8.19244C51.22 7.75137 50.8035 7.19915 50.5229 6.57626Z" fill="#170D26"/>
<path d="M61.2128 9.0765C61.1895 9.05556 61.1711 9.02967 61.1591 9.00072C61.147 8.97177 61.1415 8.94049 61.1431 8.90917V4.4232C61.1426 4.39093 61.1485 4.35888 61.1605 4.32894C61.1726 4.299 61.1905 4.27179 61.2132 4.2489C61.236 4.22602 61.2631 4.20793 61.293 4.19572C61.3229 4.1835 61.3549 4.1774 61.3871 4.17778H64.0478C64.2085 4.18179 64.3685 4.15309 64.5178 4.0934C64.6671 4.03371 64.8028 3.94428 64.9165 3.83056C65.0303 3.72331 65.1204 3.5935 65.1812 3.44943C65.2419 3.30536 65.2719 3.15021 65.2693 2.99388C65.2723 2.83585 65.2425 2.67893 65.1818 2.533C65.121 2.38707 65.0307 2.25531 64.9165 2.14605C64.8026 2.03259 64.6669 1.94334 64.5176 1.88367C64.3683 1.824 64.2085 1.79514 64.0478 1.79883H62.9685C62.9242 1.79772 62.8803 1.80569 62.8393 1.82224C62.7982 1.83879 62.7611 1.86356 62.73 1.89505C62.6995 1.92394 62.6753 1.95875 62.6587 1.99736C62.6422 2.03597 62.6337 2.07755 62.6338 2.11956V2.44167C62.6347 2.52534 62.6027 2.60601 62.5445 2.66619C62.515 2.69776 62.4791 2.72267 62.4392 2.73927C62.3993 2.75586 62.3563 2.76375 62.3131 2.76241H61.4638C61.3794 2.76029 61.2991 2.72582 61.2394 2.66612C61.1797 2.60643 61.1452 2.52607 61.1431 2.44167V0.372305C61.1422 0.340235 61.1479 0.308319 61.1599 0.278564C61.1719 0.248809 61.1899 0.221858 61.2128 0.199394C61.2355 0.176331 61.2627 0.158128 61.2927 0.145902C61.3226 0.133675 61.3548 0.127679 61.3871 0.128275H64.0478C64.5568 0.125805 65.0577 0.256069 65.501 0.506227C65.9444 0.756386 66.3149 1.11779 66.5759 1.5548C66.8161 1.96138 66.9503 2.42179 66.9661 2.89376C66.982 3.36572 66.879 3.8341 66.6666 4.25586C66.467 4.64549 66.1808 4.98419 65.8299 5.24593C65.807 5.25869 65.7878 5.27726 65.7743 5.29978C65.7608 5.32231 65.7536 5.34798 65.7532 5.37422C65.7523 5.41733 65.7565 5.46039 65.7657 5.50251L67.2564 8.83247C67.2882 8.88268 67.306 8.94044 67.308 8.99981C67.308 9.09463 67.248 9.13926 67.1281 9.13926H66.0739C66.0024 9.14226 65.9308 9.13378 65.862 9.11416C65.8062 9.08866 65.7622 9.04275 65.7392 8.98586L64.4034 5.97663C64.3827 5.93111 64.346 5.89484 64.3002 5.87483C64.2162 5.85186 64.129 5.84291 64.0422 5.84833H62.9503C62.8684 5.84426 62.7868 5.85955 62.7119 5.89296C62.6818 5.91307 62.6579 5.94128 62.6431 5.97434C62.6283 6.00739 62.6232 6.04395 62.6282 6.07982V8.90777C62.6295 8.93919 62.6238 8.97051 62.6115 8.99945C62.5992 9.0284 62.5806 9.05424 62.5571 9.07511C62.5101 9.11829 62.448 9.14132 62.3842 9.13926H61.3816C61.3195 9.14005 61.2593 9.11768 61.2128 9.0765Z" fill="#170D26"/>
<path d="M0.546983 25.5911C0.513491 25.5601 0.486687 25.5226 0.468222 25.4809C0.449757 25.4391 0.440019 25.3941 0.439607 25.3485V18.5895C0.438694 18.541 0.44776 18.4928 0.46623 18.448C0.4847 18.4031 0.512183 18.3625 0.546983 18.3288C0.577654 18.2952 0.614911 18.2684 0.656419 18.2499C0.697926 18.2315 0.74279 18.2217 0.788222 18.2214H5.06921C5.30484 18.2243 5.53863 18.1794 5.75648 18.0896C5.97432 17.9997 6.17172 17.8667 6.33677 17.6985C6.50744 17.5374 6.64288 17.3428 6.73456 17.1267C6.82624 16.9107 6.87218 16.6781 6.86946 16.4435C6.87401 16.2053 6.829 15.9687 6.7373 15.7488C6.64561 15.5289 6.50921 15.3305 6.33677 15.1661C6.17172 14.9979 5.97432 14.8649 5.75648 14.775C5.53863 14.6851 5.30484 14.6403 5.06921 14.6432H0.788222C0.74279 14.6428 0.697926 14.6331 0.656419 14.6147C0.614911 14.5962 0.577654 14.5694 0.546983 14.5358C0.512183 14.502 0.4847 14.4615 0.46623 14.4166C0.44776 14.3717 0.438694 14.3236 0.439607 14.2751V12.4888C0.43875 12.4401 0.447837 12.3917 0.466298 12.3466C0.484759 12.3016 0.51221 12.2607 0.546983 12.2266C0.57788 12.1935 0.615205 12.167 0.656683 12.1488C0.698161 12.1306 0.742919 12.121 0.788222 12.1206H5.06921C5.82502 12.1156 6.56792 12.3167 7.21807 12.7021C7.87011 13.082 8.41106 13.6263 8.78683 14.2806C9.17153 14.9347 9.37243 15.6805 9.36832 16.4393C9.3735 17.1955 9.17247 17.9389 8.78683 18.5895C8.40872 19.2396 7.86813 19.7802 7.21807 20.1583C6.56792 20.5437 5.82502 20.7448 5.06921 20.7398H3.01517C2.91501 20.7305 2.8143 20.7504 2.72512 20.7969C2.69545 20.8274 2.67311 20.8641 2.65982 20.9045C2.64653 20.9449 2.64263 20.9877 2.64843 21.0298V25.3526C2.65012 25.4 2.64138 25.4472 2.62282 25.4908C2.60427 25.5344 2.57635 25.5734 2.54106 25.605C2.47005 25.67 2.37645 25.7045 2.28029 25.7013H0.788222C0.742554 25.7007 0.697504 25.6906 0.655959 25.6717C0.614415 25.6527 0.577298 25.6252 0.546983 25.5911Z" fill="#170D26"/>
<path d="M29.7818 21.0689C29.7427 21.0689 29.7107 21.0243 29.6856 20.9294L28.0582 12.5627C28.0437 12.5124 28.0371 12.4602 28.0387 12.4079C28.0387 12.2155 28.1168 12.1179 28.2716 12.1179H30.2085C30.4149 12.1179 30.5376 12.2015 30.5766 12.3703L31.3896 16.9218C31.4053 16.9851 31.4119 17.0504 31.4091 17.1156C31.4153 17.3135 31.3821 17.5107 31.3115 17.6957L30.624 19.2645C30.308 19.9877 30.0658 20.5497 29.8975 20.9504C29.8724 21.0298 29.8334 21.0689 29.7818 21.0689ZM30.7412 25.6302C30.7179 25.6057 30.6998 25.5768 30.688 25.5452C30.6763 25.5135 30.6711 25.4798 30.6728 25.4461C30.675 25.3588 30.6949 25.2729 30.7314 25.1937L32.1161 21.4077C32.7548 19.6582 33.2939 18.1573 33.7337 16.905C33.7661 16.8105 33.8189 16.7244 33.8884 16.6526C33.9311 16.6168 33.9804 16.5898 34.0335 16.5733C34.0867 16.5568 34.1426 16.5511 34.198 16.5564H36.1154C36.2361 16.5495 36.3561 16.579 36.4598 16.6412C36.5635 16.7033 36.6461 16.7953 36.6969 16.905C37.5735 19.3453 38.0574 20.7073 38.1485 20.9908C38.2141 21.1595 38.2587 21.2432 38.288 21.2432C38.3173 21.2432 38.3647 21.1525 38.4037 20.9727C38.571 19.9398 38.8034 18.4645 39.1009 16.5467C39.3984 14.6288 39.6113 13.2441 39.7396 12.3926C39.7539 12.3085 39.7986 12.2326 39.8651 12.1792C39.9385 12.1363 40.0229 12.116 40.1077 12.1207H42.06C42.1001 12.1223 42.1387 12.1367 42.17 12.1618C42.2014 12.1868 42.2239 12.2213 42.2343 12.2601C42.2734 12.3586 42.2802 12.467 42.2538 12.5697L39.9306 25.4447C39.9154 25.523 39.8708 25.5926 39.806 25.6392C39.7413 25.6858 39.6612 25.706 39.582 25.6957H37.4903C37.4068 25.7 37.3235 25.6837 37.2477 25.6483C37.2142 25.6245 37.1859 25.5942 37.1643 25.5592C37.1427 25.5242 37.1284 25.4853 37.1222 25.4447C36.9363 24.9148 36.6425 24.0433 36.2409 22.8301C35.8393 21.6169 35.5325 20.6742 35.3206 20.0021C35.3085 19.938 35.2862 19.9059 35.2536 19.9059C35.2211 19.9059 35.1918 19.938 35.1658 20.0021L33.3655 25.4405C33.3265 25.6078 33.2038 25.6915 32.9974 25.6915H30.9057C30.8751 25.6933 30.8444 25.6888 30.8157 25.6783C30.7869 25.6677 30.7606 25.6513 30.7384 25.6302H30.7412Z" fill="#170D26"/>
<path d="M45.2672 14.4159C45.2323 14.3819 45.2048 14.3411 45.1863 14.296C45.1679 14.2509 45.1588 14.2025 45.1599 14.1537V12.4887C45.1585 12.4414 45.1673 12.3943 45.1859 12.3508C45.2044 12.3072 45.2322 12.2682 45.2672 12.2363C45.3322 12.1743 45.4187 12.1398 45.5085 12.1401H54.4957C54.5441 12.1393 54.5921 12.1482 54.637 12.1664C54.6818 12.1847 54.7224 12.2118 54.7565 12.2461C54.79 12.2771 54.8168 12.3146 54.8353 12.3563C54.8537 12.3981 54.8635 12.4431 54.8639 12.4887V14.1495C54.8621 14.2444 54.8236 14.3349 54.7565 14.4019C54.7241 14.4391 54.684 14.4687 54.639 14.4887C54.5939 14.5087 54.545 14.5186 54.4957 14.5177H45.5085C45.4634 14.5182 45.4188 14.5094 45.3772 14.4919C45.3357 14.4744 45.2983 14.4485 45.2672 14.4159Z" fill="#170D26"/>
<path d="M45.2672 25.5911C45.2337 25.5601 45.2069 25.5226 45.1884 25.4809C45.17 25.4391 45.1602 25.3941 45.1598 25.3484V16.4016C45.1583 16.3543 45.1672 16.3072 45.1857 16.2636C45.2042 16.22 45.232 16.181 45.2672 16.1492C45.3321 16.0871 45.4186 16.0527 45.5084 16.053H47.1553C47.2017 16.0506 47.2481 16.058 47.2915 16.0746C47.3349 16.0913 47.3743 16.1169 47.4071 16.1498C47.44 16.1826 47.4656 16.222 47.4823 16.2654C47.4989 16.3088 47.5063 16.3552 47.5039 16.4016V17.7961C47.5039 18.0415 47.6712 18.1628 48.0073 18.1628H52.8879C52.9739 18.1612 53.0573 18.1926 53.1208 18.2507C53.1521 18.2786 53.1769 18.3131 53.1935 18.3516C53.2101 18.3901 53.2181 18.4318 53.217 18.4738V20.1457C53.2181 20.1877 53.2101 20.2294 53.1935 20.2679C53.1769 20.3064 53.1521 20.3409 53.1208 20.3688C53.0571 20.4265 52.9737 20.4574 52.8879 20.4553H47.9487C47.6517 20.4553 47.5039 20.5947 47.5039 20.8625V22.9737C47.511 23.069 47.5521 23.1585 47.6196 23.2261C47.6872 23.2937 47.7768 23.3347 47.872 23.3418H54.5348C54.581 23.3399 54.627 23.3474 54.6702 23.364C54.7134 23.3805 54.7527 23.4057 54.7858 23.438C54.8182 23.4714 54.8435 23.5109 54.8603 23.5543C54.877 23.5977 54.8849 23.644 54.8834 23.6904V25.3554C54.883 25.4458 54.8481 25.5326 54.7858 25.5981C54.7542 25.633 54.7154 25.6606 54.672 25.6789C54.6286 25.6972 54.5818 25.7058 54.5348 25.704H45.5084C45.4626 25.7031 45.4174 25.6926 45.3758 25.6732C45.3343 25.6537 45.2973 25.6257 45.2672 25.5911Z" fill="#170D26"/>
<path d="M58.2622 25.6008C58.2271 25.5691 58.1994 25.53 58.181 25.4864C58.1627 25.4428 58.1542 25.3957 58.1562 25.3484V18.5895C58.155 18.5411 58.1638 18.4929 58.182 18.4481C58.2003 18.4032 58.2276 18.3626 58.2622 18.3287C58.2963 18.2939 58.3371 18.2665 58.3822 18.248C58.4273 18.2296 58.4756 18.2205 58.5243 18.2213H62.532C62.7738 18.2269 63.0142 18.1834 63.2388 18.0935C63.4633 18.0037 63.6674 17.8693 63.8386 17.6984C64.0093 17.5374 64.1447 17.3427 64.2364 17.1267C64.3281 16.9107 64.374 16.678 64.3713 16.4434C64.3758 16.2052 64.3308 15.9687 64.2391 15.7488C64.1474 15.5289 64.011 15.3305 63.8386 15.1661C63.6674 14.9952 63.4633 14.8609 63.2388 14.771C63.0142 14.6811 62.7738 14.6376 62.532 14.6432H60.9047C60.8386 14.6408 60.7727 14.6519 60.7111 14.6759C60.6495 14.6998 60.5934 14.7362 60.5463 14.7826C60.5013 14.8267 60.4657 14.8795 60.4417 14.9377C60.4177 14.996 60.4059 15.0585 60.4068 15.1215V15.6053C60.4066 15.7322 60.3565 15.8539 60.2674 15.9442C60.2226 15.991 60.1683 16.0277 60.1082 16.0517C60.0481 16.0758 59.9835 16.0867 59.9188 16.0836H58.6401C58.577 16.0849 58.5144 16.0732 58.4561 16.0492C58.3978 16.0252 58.3451 15.9895 58.3012 15.9442C58.2562 15.9001 58.2206 15.8474 58.1967 15.7891C58.1727 15.7308 58.1608 15.6683 58.1618 15.6053V12.4887C58.1607 12.4401 58.1695 12.3918 58.1877 12.3467C58.2059 12.3016 58.2332 12.2607 58.2678 12.2266C58.3021 12.1922 58.343 12.1652 58.3881 12.147C58.4331 12.1288 58.4813 12.1198 58.5299 12.1206H62.532C63.2985 12.1173 64.0526 12.3139 64.7199 12.691C65.3873 13.0681 65.9448 13.6126 66.3375 14.2708C66.7301 14.9255 66.9347 15.6758 66.9287 16.4392C66.9315 17.0997 66.7751 17.7512 66.4727 18.3385C66.1743 18.925 65.7448 19.4351 65.2177 19.8291C65.1833 19.8487 65.1545 19.8768 65.1343 19.9108C65.114 19.9448 65.1029 19.9834 65.102 20.023C65.1009 20.0881 65.1075 20.1532 65.1215 20.2168L67.368 25.2369C67.4155 25.3128 67.4424 25.3998 67.4461 25.4893C67.4461 25.6287 67.3554 25.7012 67.1672 25.7012H65.5998C65.492 25.7057 65.3842 25.693 65.2805 25.6636C65.1967 25.6246 65.131 25.5553 65.0964 25.4697L63.0828 20.9377C63.0527 20.8684 62.9974 20.8131 62.928 20.783C62.8017 20.7493 62.6708 20.7361 62.5404 20.7439H60.8865C60.7635 20.7375 60.6406 20.7604 60.5282 20.8109C60.4835 20.8411 60.4481 20.8833 60.4259 20.9325C60.4037 20.9818 60.3957 21.0362 60.4027 21.0897V25.3498C60.4042 25.397 60.3956 25.444 60.3773 25.4876C60.359 25.5312 60.3315 25.5703 60.2967 25.6022C60.2251 25.6671 60.1311 25.7016 60.0345 25.6984H58.5243C58.4276 25.7012 58.3335 25.6662 58.2622 25.6008Z" fill="#170D26"/>
<path d="M16.2639 18.7429C16.2547 18.4187 16.3116 18.0961 16.4313 17.7947C16.5537 17.4912 16.7364 17.2156 16.9681 16.9845C17.2028 16.7531 17.4816 16.5714 17.788 16.4501C18.0945 16.3289 18.4222 16.2707 18.7516 16.2789C19.0815 16.2794 19.4077 16.3487 19.7093 16.4824C20.0109 16.6162 20.2812 16.8114 20.5031 17.0556C20.7243 17.2989 20.8958 17.5831 21.0079 17.8923C21.1177 18.1972 21.1652 18.5211 21.1473 18.8447C21.1357 18.2044 20.8797 17.5928 20.4319 17.1351C20.2166 16.9082 19.957 16.7281 19.6691 16.6057C19.3813 16.4834 19.0714 16.4215 18.7586 16.4239C18.4455 16.4137 18.1334 16.4644 17.8397 16.5731C17.547 16.6858 17.2787 16.8533 17.049 17.0668C16.5813 17.5036 16.3001 18.104 16.2639 18.7429Z" fill="#170D26"/>
<path d="M21.8989 17.322C21.8283 17.2149 21.7809 17.0942 21.7594 16.9678C21.7554 16.8978 21.7713 16.8282 21.8055 16.767C21.8384 16.71 21.8767 16.6563 21.9198 16.6066C22.0871 16.417 22.2642 16.2454 22.4399 16.067C22.6156 15.8885 22.7886 15.7197 22.9894 15.5524C23.044 15.51 23.1075 15.4805 23.1751 15.4663C23.2428 15.452 23.3127 15.4533 23.3798 15.4701C23.4416 15.491 23.4984 15.5247 23.5464 15.5689C23.5945 15.6131 23.6327 15.6668 23.6587 15.7267C23.5887 15.628 23.4833 15.56 23.3645 15.5371C23.3088 15.5307 23.2524 15.5366 23.1992 15.5541C23.146 15.5717 23.0973 15.6006 23.0563 15.6389C22.974 15.7142 22.8848 15.8146 22.7997 15.901L22.5375 16.166C22.3618 16.3403 22.1778 16.5118 22.0007 16.6805C21.9095 16.751 21.8478 16.8529 21.8278 16.9664C21.8317 17.088 21.8557 17.2082 21.8989 17.322Z" fill="#170D26"/>
<path d="M14.9991 15.2079C14.9087 15.1517 14.8293 15.0794 14.7649 14.9946C14.7318 14.9508 14.708 14.9009 14.6948 14.8477C14.6816 14.7944 14.6794 14.7391 14.6882 14.685C14.7286 14.4605 14.9183 14.3155 15.073 14.1802C15.4063 13.917 15.7656 13.6885 16.1454 13.4983C16.9103 13.1155 17.7513 12.9092 18.6066 12.8945C19.4621 12.8726 20.3113 13.0472 21.0887 13.4049C21.4724 13.5872 21.8363 13.8082 22.175 14.0645C22.349 14.1879 22.5077 14.3316 22.6477 14.4926C22.7143 14.5806 22.7434 14.6914 22.7286 14.8008C22.7195 14.8535 22.6997 14.9039 22.6705 14.9487C22.6412 14.9935 22.6031 15.0319 22.5585 15.0615C22.6 15.0301 22.6347 14.9905 22.6603 14.9452C22.686 14.8998 22.7021 14.8498 22.7077 14.798C22.715 14.697 22.683 14.5971 22.6184 14.5191C22.4729 14.3694 22.3105 14.237 22.1346 14.1244C21.7928 13.8824 21.4274 13.6755 21.0441 13.5067C20.6618 13.3403 20.2625 13.2159 19.8532 13.1358C19.4431 13.0601 19.0263 13.0274 18.6094 13.0382C18.1924 13.0406 17.7768 13.0874 17.3697 13.1776C16.5546 13.3729 15.7873 13.7305 15.1135 14.229C15.0297 14.2902 14.9501 14.3568 14.875 14.4284C14.8013 14.4988 14.7482 14.588 14.7216 14.6864C14.7117 14.7365 14.7119 14.7881 14.7222 14.8382C14.7325 14.8882 14.7527 14.9357 14.7816 14.9779C14.8394 15.0672 14.9131 15.1452 14.9991 15.2079Z" fill="#170D26"/>
<path d="M13.6353 15.9024C13.6851 15.78 13.7559 15.6672 13.8445 15.5691C13.8946 15.5179 13.9563 15.4796 14.0244 15.4576C14.0959 15.4366 14.1719 15.4366 14.2433 15.4576C14.3716 15.5081 14.4873 15.5862 14.5822 15.6862L14.8611 15.9568C15.0424 16.1408 15.2236 16.3249 15.3993 16.5146C15.5025 16.6048 15.5799 16.7208 15.6238 16.8506C15.6365 16.917 15.6358 16.9853 15.6216 17.0514C15.6075 17.1175 15.5803 17.1801 15.5416 17.2355C15.592 17.1199 15.5979 16.9898 15.5583 16.8701C15.5037 16.7597 15.4234 16.664 15.324 16.5912C15.133 16.4169 14.9475 16.237 14.7662 16.0544L14.4874 15.7755C14.4094 15.6848 14.3147 15.6101 14.2085 15.5552C14.1559 15.5328 14.0981 15.5259 14.0418 15.5353C13.9855 15.5447 13.933 15.57 13.8905 15.6082C13.7915 15.6932 13.7056 15.7924 13.6353 15.9024Z" fill="#170D26"/>
<path d="M11.8421 18.9618C11.8877 20.3092 12.3301 21.613 13.1137 22.71C13.8974 23.8069 14.9874 24.6481 16.2472 25.1281C17.0803 25.4453 17.9679 25.5946 18.859 25.5674C20.6642 25.5293 22.3814 24.7802 23.6374 23.483C24.8934 22.1857 25.5866 20.4452 25.5663 18.6397C25.5958 19.5426 25.4489 20.4425 25.134 21.2892C24.8129 22.1374 24.326 22.9133 23.7018 23.5714C23.0777 24.2296 22.3287 24.7569 21.4987 25.1225C20.6662 25.4873 19.7705 25.6863 18.8618 25.7082C17.4951 25.7476 16.1481 25.3761 14.9949 24.6417C13.8417 23.9074 12.9353 22.844 12.3929 21.589C12.0425 20.7567 11.8555 19.8648 11.8421 18.9618Z" fill="#170D26"/>
<path d="M18.5885 11.9296C17.231 11.9525 15.9108 12.3779 14.7953 13.1518C13.6798 13.9257 12.819 15.0133 12.3222 16.2768C11.8253 17.5403 11.7147 18.9229 12.0043 20.2493C12.2938 21.5757 12.9706 22.7864 13.9489 23.7279C14.9271 24.6693 16.1628 25.2992 17.4994 25.5378C18.8359 25.7764 20.2132 25.6128 21.4568 25.0679C22.7003 24.523 23.7541 23.6213 24.4847 22.4769C25.2153 21.3326 25.5898 19.9971 25.5607 18.6397C25.5259 16.8253 24.7718 15.0991 23.4643 13.8407C22.1567 12.5823 20.4028 11.8949 18.5885 11.9296ZM18.7195 24.6192C17.259 24.629 15.8484 24.0878 14.7693 23.1036C13.6902 22.1193 13.0219 20.7643 12.8977 19.3091C12.8837 19.1808 12.8698 19.0525 12.8531 18.9242C12.8533 18.5864 12.8813 18.2492 12.9367 17.916C13.1395 16.551 13.8212 15.3027 14.86 14.3942C15.8987 13.4858 17.2268 12.9764 18.6066 12.9573C19.0756 12.9522 19.5437 13.0023 20.001 13.1065C20.061 13.1191 20.121 13.133 20.1795 13.1484C21.4088 13.4641 22.5006 14.1744 23.2872 15.1704C24.0739 16.1664 24.5121 17.393 24.5344 18.662C24.5344 18.7415 24.5344 18.8182 24.5344 18.8963C24.5344 18.9507 24.5344 19.0009 24.5428 19.0567C24.5343 19.509 24.4596 19.9577 24.3211 20.3884C24.3211 20.4051 24.3113 20.4232 24.3057 20.4414C24.289 20.493 24.2695 20.5459 24.2513 20.5975C23.8706 21.7652 23.1307 22.7827 22.1373 23.5049C21.1439 24.2271 19.9477 24.6171 18.7195 24.6192Z" fill="#170D26"/>
<path d="M22.6268 14.4731L22.6143 14.4856C22.6528 14.5255 22.6822 14.5733 22.7006 14.6256C22.719 14.678 22.7258 14.7336 22.7206 14.7889C22.7155 14.8441 22.6984 14.8976 22.6707 14.9456C22.6429 14.9936 22.6051 15.0351 22.5599 15.0671C22.1555 15.3669 21.7413 15.6542 21.3272 15.9387C21.2384 15.9844 21.1449 16.0204 21.0483 16.046C20.9498 16.0096 20.8539 15.9667 20.761 15.9177C21.2051 16.2411 21.5687 16.6625 21.8236 17.149C21.7413 16.912 21.7887 16.8046 22.0244 16.5676C22.334 16.2561 22.6459 15.948 22.9601 15.643C23.0046 15.5893 23.0619 15.5476 23.1267 15.5217C23.1915 15.4958 23.2618 15.4865 23.3311 15.4947C23.4004 15.5029 23.4665 15.5283 23.5235 15.5685C23.5805 15.6088 23.6265 15.6627 23.6573 15.7253C23.6616 15.7228 23.6654 15.7195 23.6685 15.7155C23.381 15.2547 23.0304 14.8365 22.6268 14.4731Z" fill="#170D26"/>
<path d="M15.5862 17.1183C15.8393 16.6451 16.197 16.2359 16.632 15.9219C16.4145 16.0711 16.2681 16.0613 16.0464 15.9135C15.7006 15.6765 15.3492 15.4464 15.0061 15.2037C14.6394 14.9444 14.6129 14.6543 14.9113 14.3671C14.4336 14.7755 14.0253 15.2587 13.7023 15.7978C13.9421 15.4255 14.1764 15.3794 14.4999 15.6904C14.8234 16.0014 15.1302 16.3305 15.4523 16.6414C15.52 16.6982 15.569 16.7741 15.5929 16.8592C15.6168 16.9443 15.6145 17.0346 15.5862 17.1183Z" fill="#170D26"/>
<path d="M21.224 23.6444C21.0622 23.1062 20.8982 22.5679 20.7317 22.0296C20.6935 21.9406 20.6873 21.8411 20.7142 21.748C20.7412 21.6549 20.7996 21.5741 20.8796 21.5193C20.8757 21.5135 20.871 21.5084 20.8656 21.5039C20.2422 22.0076 19.4639 22.2805 18.6624 22.2765C17.8698 22.2638 17.1047 21.9837 16.4912 21.4816C16.6906 21.6587 16.7269 21.794 16.646 22.0561C16.4824 22.5832 16.3206 23.1113 16.1607 23.6402C16.0966 23.855 16.0004 23.9191 15.8219 23.8341C15.8225 23.841 15.8225 23.848 15.8219 23.855C16.7055 24.3608 17.707 24.6244 18.7251 24.6192C19.7356 24.6147 20.7277 24.3486 21.6047 23.8466C21.6047 23.8466 21.6047 23.8327 21.5949 23.8243C21.4053 23.9191 21.2881 23.8606 21.224 23.6444Z" fill="#170D26"/>
<path d="M20.7485 15.9079C19.4307 15.0127 17.9345 15.0239 16.6251 15.9261C16.1473 16.2545 15.7713 16.7107 15.5402 17.2424C15.3838 17.598 15.2773 17.9734 15.2236 18.358C15.16 18.8605 15.2078 19.3708 15.3635 19.8528C15.5191 20.3348 15.7789 20.7766 16.1245 21.1469C16.2376 21.2656 16.3577 21.3774 16.4842 21.4816C16.6906 21.6629 17.6821 22.3183 18.7154 22.3183C19.7487 22.3183 20.6997 21.6712 20.8768 21.5262C21.4848 21.0366 21.9142 20.3598 22.0983 19.6011C22.2824 18.8424 22.2108 18.0442 21.8947 17.3303C21.5099 16.4434 21.0274 16.1018 20.7485 15.9079ZM18.6749 21.1929C18.0324 21.1813 17.42 20.9182 16.9693 20.4601C16.5185 20.002 16.2653 19.3855 16.2639 18.7429C16.2687 18.1033 16.5273 17.4918 16.9828 17.0428C17.4383 16.5939 18.0535 16.3441 18.6931 16.3486C19.9383 16.2817 21.1794 17.3805 21.1403 18.8391C21.1069 19.4718 20.8331 20.0678 20.3748 20.5054C19.9166 20.9429 19.3085 21.1888 18.6749 21.1929Z" fill="#170D26"/>
<path d="M1.62349 31.9986V29.9906H1.59421L1.12149 31.9903H0.89698L0.42984 29.9906H0.400553V31.9986H0.2388V29.8289H0.559523L1.00853 31.7602L1.46592 29.8289H1.78385V31.9986H1.62349Z" fill="#170D26"/>
<path d="M3.80305 31.8313V31.9986H3.0361V29.826H3.67058V29.9878H3.19786V30.7436H3.67058V30.9054H3.19786V31.8285L3.80305 31.8313Z" fill="#170D26"/>
<path d="M5.84174 29.9878H5.52937V31.9986H5.36622V29.9878H5.05386V29.826H5.84174V29.9878Z" fill="#170D26"/>
<path d="M7.09256 31.9986L7.4844 29.8275H7.72983L8.1133 31.9986H7.94736L7.83302 31.346H7.37564L7.2571 31.9986H7.09256ZM7.40492 31.1843H7.80234L7.60572 30.0687L7.40492 31.1843Z" fill="#170D26"/>
<path d="M9.93306 31.9986H9.36273V29.8289H9.52588V31.8369H9.93306V31.9986Z" fill="#170D26"/>
<path d="M13.634 30.3685V31.4506C13.634 31.5937 13.5771 31.731 13.4759 31.8322C13.3747 31.9334 13.2374 31.9902 13.0943 31.9902H12.7708H12.6104V29.826H12.7736H13.0971C13.168 29.8264 13.2381 29.8407 13.3034 29.8682C13.3688 29.8957 13.428 29.9357 13.4779 29.9861C13.5277 30.0365 13.5672 30.0962 13.594 30.1618C13.6208 30.2274 13.6343 30.2976 13.634 30.3685ZM13.4722 30.3685C13.4718 30.2684 13.4319 30.1725 13.3611 30.1017C13.2903 30.0309 13.1944 29.991 13.0943 29.9906H12.7708V31.8285H13.0943C13.1945 31.8285 13.2907 31.7887 13.3615 31.7178C13.4324 31.6469 13.4722 31.5508 13.4722 31.4506V30.3685Z" fill="#170D26"/>
<path d="M15.6517 31.8313V31.9986H14.8848V29.826H15.5193V29.9878H15.0479V30.7436H15.5193V30.9054H15.0479V31.8285L15.6517 31.8313Z" fill="#170D26"/>
<path d="M17.6904 29.9878H17.3781V31.9986H17.2121V29.9878H16.8998V29.826H17.6877L17.6904 29.9878Z" fill="#170D26"/>
<path d="M19.7082 31.8313V31.9986H18.9413V29.826H19.5827V29.9878H19.11V30.7436H19.5827V30.9054H19.11V31.8285L19.7082 31.8313Z" fill="#170D26"/>
<path d="M21.1166 31.8341C21.066 31.7839 21.0259 31.7242 20.9986 31.6583C20.9713 31.5925 20.9574 31.5219 20.9576 31.4506V30.3685C20.9575 30.2976 20.9713 30.2273 20.9983 30.1618C21.0254 30.0962 21.0652 30.0367 21.1153 29.9865C21.1655 29.9364 21.225 29.8966 21.2906 29.8696C21.3561 29.8425 21.4264 29.8287 21.4973 29.8289C21.6407 29.8285 21.7785 29.8846 21.8808 29.985L21.765 30.0994C21.6936 30.0292 21.5974 29.9901 21.4973 29.9906C21.4482 29.9904 21.3995 30 21.354 30.0186C21.3085 30.0373 21.2672 30.0647 21.2323 30.0994C21.1967 30.1346 21.1683 30.1765 21.149 30.2227C21.1296 30.2688 21.1195 30.3184 21.1194 30.3685V31.4506C21.1207 31.5516 21.1612 31.6481 21.2323 31.7197C21.2673 31.7547 21.3088 31.7825 21.3545 31.8014C21.4002 31.8204 21.4492 31.8301 21.4987 31.8301C21.5482 31.8301 21.5972 31.8204 21.6429 31.8014C21.6886 31.7825 21.7301 31.7547 21.765 31.7197L21.8808 31.8369C21.7785 31.9373 21.6407 31.9935 21.4973 31.9931C21.4265 31.9931 21.3563 31.9791 21.291 31.9518C21.2256 31.9245 21.1664 31.8845 21.1166 31.8341Z" fill="#170D26"/>
<path d="M23.9209 29.9878H23.6071V31.9986H23.4454V29.9878H23.133V29.826H23.9209V29.9878Z" fill="#170D26"/>
<path d="M25.1703 31.4534V30.3713C25.1774 30.2327 25.2374 30.1021 25.3379 30.0066C25.4385 29.911 25.5719 29.8577 25.7107 29.8577C25.8494 29.8577 25.9829 29.911 26.0834 30.0066C26.184 30.1021 26.244 30.2327 26.251 30.3713V31.4534C26.2547 31.5266 26.2435 31.5999 26.2181 31.6687C26.1926 31.7375 26.1534 31.8004 26.1028 31.8536C26.0523 31.9067 25.9915 31.9491 25.9241 31.978C25.8566 32.0069 25.784 32.0219 25.7107 32.0219C25.6373 32.0219 25.5647 32.0069 25.4973 31.978C25.4299 31.9491 25.3691 31.9067 25.3185 31.8536C25.268 31.8004 25.2288 31.7375 25.2033 31.6687C25.1778 31.5999 25.1666 31.5266 25.1703 31.4534ZM25.3335 30.3713V31.4534C25.3303 31.5048 25.3378 31.5564 25.3553 31.6049C25.3729 31.6534 25.4001 31.6977 25.4355 31.7353C25.4708 31.7728 25.5134 31.8028 25.5608 31.8232C25.6081 31.8437 25.6591 31.8542 25.7107 31.8542C25.7622 31.8542 25.8133 31.8437 25.8606 31.8232C25.9079 31.8028 25.9506 31.7728 25.9859 31.7353C26.0212 31.6977 26.0485 31.6534 26.066 31.6049C26.0836 31.5564 26.091 31.5048 26.0879 31.4534V30.3713C26.091 30.3198 26.0836 30.2682 26.066 30.2198C26.0485 30.1713 26.0212 30.1269 25.9859 30.0893C25.9506 30.0518 25.9079 30.0219 25.8606 30.0014C25.8133 29.981 25.7622 29.9704 25.7107 29.9704C25.6591 29.9704 25.6081 29.981 25.5608 30.0014C25.5134 30.0219 25.4708 30.0518 25.4355 30.0893C25.4001 30.1269 25.3729 30.1713 25.3553 30.2198C25.3378 30.2682 25.3303 30.3198 25.3335 30.3713Z" fill="#170D26"/>
<path d="M28.5574 31.8368V31.9986C28.505 31.9982 28.4549 31.9772 28.4178 31.9402C28.3808 31.9031 28.3598 31.853 28.3594 31.8006V31.3711C28.3581 31.2516 28.3109 31.1372 28.2276 31.0516C28.1443 30.9659 28.0312 30.9156 27.9118 30.9109H27.6706V31.9986H27.5088V29.8316H27.9495C28.0686 29.8313 28.1845 29.8704 28.279 29.9429C28.3736 30.0153 28.4415 30.117 28.4722 30.2321C28.503 30.3472 28.4947 30.4692 28.4488 30.5791C28.403 30.689 28.322 30.7807 28.2186 30.8398C28.3094 30.8957 28.3844 30.9738 28.4366 31.0668C28.4888 31.1597 28.5165 31.2645 28.517 31.3711V31.802C28.5169 31.8071 28.518 31.8121 28.5201 31.8167C28.5222 31.8214 28.5253 31.8255 28.5291 31.8288C28.533 31.8322 28.5375 31.8346 28.5424 31.836C28.5473 31.8374 28.5524 31.8377 28.5574 31.8368ZM27.6706 30.7436H27.9495C28.0497 30.7436 28.1458 30.7038 28.2167 30.6329C28.2876 30.562 28.3274 30.4659 28.3274 30.3657C28.3274 30.2655 28.2876 30.1693 28.2167 30.0985C28.1458 30.0276 28.0497 29.9878 27.9495 29.9878H27.6706V30.7436Z" fill="#170D26"/>
<path d="M30.1387 31.9526C30.0743 31.9261 30.0159 31.8868 29.9672 31.8369C29.9174 31.7887 29.878 31.7308 29.8515 31.6667L29.9993 31.6012C30.0195 31.6465 30.0478 31.6876 30.083 31.7225C30.1162 31.7567 30.156 31.7838 30.2001 31.802C30.2466 31.8227 30.297 31.8334 30.3479 31.8334C30.3988 31.8334 30.4492 31.8227 30.4957 31.802C30.5405 31.7835 30.5812 31.7565 30.6157 31.7225C30.6499 31.6875 30.6774 31.6463 30.6965 31.6012C30.7163 31.5544 30.7262 31.5041 30.7258 31.4534C30.725 31.4039 30.7141 31.3551 30.6937 31.31C30.6733 31.265 30.6439 31.2245 30.6073 31.1912C30.5157 31.1104 30.4145 31.0411 30.3061 30.9848C30.1881 30.919 30.0773 30.841 29.9756 30.752C29.923 30.7034 29.881 30.6446 29.8522 30.5791C29.8234 30.5136 29.8085 30.4428 29.8083 30.3713C29.8075 30.2993 29.8222 30.2279 29.8515 30.1621C29.8773 30.0973 29.9168 30.0388 29.9672 29.9906C30.0166 29.9412 30.0747 29.9014 30.1387 29.8735C30.2729 29.8192 30.4229 29.8192 30.5571 29.8735C30.6207 29.9022 30.6787 29.9418 30.7286 29.9906C30.7778 30.0396 30.8166 30.0979 30.843 30.1621L30.6938 30.2235C30.6749 30.1794 30.6474 30.1396 30.6129 30.1063C30.5781 30.0716 30.5375 30.0433 30.4929 30.0227C30.398 29.9851 30.2923 29.9851 30.1973 30.0227C30.1533 30.0429 30.1136 30.0713 30.0802 30.1063C30.0449 30.1395 30.0164 30.1793 29.9965 30.2235C29.9785 30.2707 29.9686 30.3207 29.9672 30.3713C29.9675 30.4211 29.9785 30.4703 29.9995 30.5155C30.0204 30.5607 30.0508 30.601 30.0885 30.6334C30.179 30.7157 30.2792 30.7864 30.387 30.844C30.5065 30.9067 30.6172 30.985 30.7161 31.0769C30.7696 31.1238 30.8124 31.1817 30.8415 31.2467C30.8706 31.3117 30.8854 31.3822 30.8848 31.4534C30.8843 31.5265 30.8701 31.5988 30.843 31.6667C30.7886 31.7916 30.689 31.8913 30.5641 31.9456C30.4981 31.9747 30.4269 31.9897 30.3549 31.9897C30.2829 31.9897 30.2116 31.9747 30.1457 31.9456L30.1387 31.9526Z" fill="#170D26"/>
<path d="M35.0347 31.1438H34.8604C34.9052 31.29 34.8957 31.4474 34.8339 31.5872C34.7672 31.745 34.6416 31.8706 34.4839 31.9373C34.4021 31.9722 34.3141 31.9902 34.2252 31.9902C34.1363 31.9902 34.0483 31.9722 33.9665 31.9373C33.8879 31.9058 33.8166 31.8583 33.7574 31.7978C33.6965 31.7388 33.649 31.6675 33.6179 31.5886C33.583 31.5069 33.565 31.4189 33.565 31.33C33.565 31.2411 33.583 31.1531 33.6179 31.0713C33.6507 30.9934 33.698 30.9224 33.7574 30.8621C33.8095 30.811 33.8693 30.7682 33.9345 30.7352C33.8385 30.6656 33.7705 30.5641 33.7428 30.4489C33.715 30.3337 33.7292 30.2123 33.783 30.1066C33.8367 30.001 33.9263 29.918 34.0358 29.8725C34.1452 29.827 34.2673 29.8221 34.3801 29.8586C34.4929 29.8951 34.5889 29.9707 34.6509 30.0717C34.713 30.1727 34.7369 30.2925 34.7185 30.4096C34.7001 30.5267 34.6405 30.6333 34.5505 30.7104C34.4604 30.7875 34.3458 30.8299 34.2273 30.8301C34.1602 30.8295 34.0938 30.8428 34.0321 30.8691C33.9724 30.8933 33.9184 30.9293 33.8731 30.9751C33.8269 31.02 33.7908 31.0741 33.7671 31.134C33.7395 31.1952 33.7253 31.2615 33.7253 31.3286C33.7253 31.3957 33.7395 31.462 33.7671 31.5231C33.7894 31.5829 33.8258 31.6365 33.8731 31.6793C33.9182 31.7263 33.9722 31.7638 34.0321 31.7894C34.0943 31.814 34.1605 31.8267 34.2273 31.8271C34.2928 31.8266 34.3576 31.8138 34.4183 31.7894C34.4787 31.7648 34.533 31.7272 34.5773 31.6793C34.6246 31.6365 34.661 31.5829 34.6833 31.5231C34.711 31.4622 34.7252 31.3961 34.7251 31.3293C34.7256 31.2653 34.7137 31.2019 34.6903 31.1424H34.4546V30.9807H35.0347V31.1438ZM33.887 30.3267C33.887 30.3936 33.9069 30.4591 33.9441 30.5148C33.9812 30.5705 34.0341 30.6139 34.0959 30.6396C34.1577 30.6653 34.2258 30.6721 34.2915 30.6591C34.3572 30.6461 34.4176 30.614 34.465 30.5667C34.5125 30.5195 34.5448 30.4593 34.5581 30.3936C34.5713 30.328 34.5648 30.2599 34.5394 30.1979C34.5139 30.136 34.4707 30.083 34.4152 30.0456C34.3596 30.0082 34.2943 29.9881 34.2273 29.9878C34.1375 29.9878 34.0514 30.0233 33.9877 30.0865C33.924 30.1497 33.8878 30.2355 33.887 30.3253V30.3267Z" fill="#170D26"/>
<path d="M37.7107 31.4478V30.3657C37.7107 30.2226 37.7675 30.0853 37.8687 29.9841C37.9699 29.8829 38.1072 29.826 38.2503 29.826C38.3934 29.826 38.5307 29.8829 38.6319 29.9841C38.7331 30.0853 38.79 30.2226 38.79 30.3657V31.4478C38.79 31.5909 38.7331 31.7282 38.6319 31.8294C38.5307 31.9306 38.3934 31.9875 38.2503 31.9875C38.1072 31.9875 37.9699 31.9306 37.8687 31.8294C37.7675 31.7282 37.7107 31.5909 37.7107 31.4478ZM37.8724 30.3657V31.4478C37.8724 31.548 37.9122 31.6441 37.9831 31.715C38.054 31.7859 38.1501 31.8257 38.2503 31.8257C38.3505 31.8257 38.4467 31.7859 38.5175 31.715C38.5884 31.6441 38.6282 31.548 38.6282 31.4478V30.3657C38.6282 30.2655 38.5884 30.1694 38.5175 30.0985C38.4467 30.0276 38.3505 29.9878 38.2503 29.9878C38.1501 29.9878 38.054 30.0276 37.9831 30.0985C37.9122 30.1694 37.8724 30.2655 37.8724 30.3657Z" fill="#170D26"/>
<path d="M40.0408 31.4269V29.826H40.2026V31.4269C40.2026 31.533 40.2447 31.6348 40.3198 31.7099C40.3948 31.7849 40.4966 31.8271 40.6028 31.8271C40.7089 31.8271 40.8107 31.7849 40.8858 31.7099C40.9608 31.6348 41.003 31.533 41.003 31.4269V29.826H41.1647V31.4269C41.1647 31.5759 41.1055 31.7189 41.0001 31.8243C40.8947 31.9296 40.7518 31.9889 40.6028 31.9889C40.4537 31.9889 40.3108 31.9296 40.2054 31.8243C40.1 31.7189 40.0408 31.5759 40.0408 31.4269Z" fill="#170D26"/>
<path d="M43.2034 29.9878H42.8897V31.9986H42.7307V29.9878H42.4183V29.826H43.2062L43.2034 29.9878Z" fill="#170D26"/>
<path d="M45.4806 30.3685V31.4506C45.4806 31.5937 45.4237 31.731 45.3225 31.8322C45.2213 31.9334 45.084 31.9902 44.9409 31.9902H44.616H44.4529V29.826H44.616H44.9409C45.012 29.826 45.0824 29.8401 45.1481 29.8674C45.2137 29.8947 45.2734 29.9347 45.3235 29.9851C45.3737 30.0355 45.4133 30.0953 45.4403 30.1611C45.4673 30.2269 45.4809 30.2974 45.4806 30.3685ZM45.3174 30.3685C45.3174 30.2685 45.2778 30.1726 45.2072 30.1018C45.1367 30.0309 45.0409 29.991 44.9409 29.9906H44.616V31.8285H44.9409C44.9905 31.8285 45.0396 31.8187 45.0853 31.7997C45.1311 31.7807 45.1727 31.7528 45.2076 31.7177C45.2426 31.6826 45.2703 31.6409 45.2892 31.5951C45.308 31.5493 45.3176 31.5002 45.3174 31.4506V30.3685Z" fill="#170D26"/>
<path d="M46.73 31.4534V30.3713C46.737 30.2327 46.797 30.1021 46.8976 30.0066C46.9982 29.911 47.1316 29.8577 47.2704 29.8577C47.4091 29.8577 47.5425 29.911 47.6431 30.0066C47.7437 30.1021 47.8037 30.2327 47.8107 30.3713V31.4534C47.8144 31.5266 47.8032 31.5999 47.7777 31.6687C47.7523 31.7375 47.7131 31.8004 47.6625 31.8536C47.612 31.9067 47.5511 31.9491 47.4837 31.978C47.4163 32.0069 47.3437 32.0219 47.2704 32.0219C47.197 32.0219 47.1244 32.0069 47.057 31.978C46.9896 31.9491 46.9287 31.9067 46.8782 31.8536C46.8276 31.8004 46.7884 31.7375 46.763 31.6687C46.7375 31.5999 46.7263 31.5266 46.73 31.4534ZM46.8931 30.3713V31.4534C46.89 31.5048 46.8974 31.5564 46.915 31.6049C46.9325 31.6534 46.9598 31.6977 46.9951 31.7353C47.0305 31.7728 47.0731 31.8028 47.1204 31.8232C47.1678 31.8437 47.2188 31.8542 47.2704 31.8542C47.3219 31.8542 47.3729 31.8437 47.4203 31.8232C47.4676 31.8028 47.5102 31.7728 47.5456 31.7353C47.5809 31.6977 47.6082 31.6534 47.6257 31.6049C47.6433 31.5564 47.6507 31.5048 47.6476 31.4534V30.3713C47.6507 30.3198 47.6433 30.2682 47.6257 30.2198C47.6082 30.1713 47.5809 30.1269 47.5456 30.0893C47.5102 30.0518 47.4676 30.0219 47.4203 30.0014C47.3729 29.981 47.3219 29.9704 47.2704 29.9704C47.2188 29.9704 47.1678 29.981 47.1204 30.0014C47.0731 30.0219 47.0305 30.0518 46.9951 30.0893C46.9598 30.1269 46.9325 30.1713 46.915 30.2198C46.8974 30.2682 46.89 30.3198 46.8931 30.3713Z" fill="#170D26"/>
<path d="M49.0615 31.4534V30.3713C49.0615 30.2281 49.1184 30.0909 49.2196 29.9897C49.3208 29.8885 49.4581 29.8316 49.6012 29.8316C49.7443 29.8316 49.8816 29.8885 49.9828 29.9897C50.084 30.0909 50.1408 30.2281 50.1408 30.3713V31.4534C50.1408 31.5965 50.084 31.7337 49.9828 31.8349C49.8816 31.9362 49.7443 31.993 49.6012 31.993C49.4581 31.993 49.3208 31.9362 49.2196 31.8349C49.1184 31.7337 49.0615 31.5965 49.0615 31.4534ZM49.2233 30.3713V31.4534C49.2202 31.5048 49.2276 31.5564 49.2451 31.6049C49.2627 31.6533 49.2899 31.6977 49.3253 31.7353C49.3606 31.7728 49.4033 31.8027 49.4506 31.8232C49.4979 31.8437 49.5489 31.8542 49.6005 31.8542C49.652 31.8542 49.7031 31.8437 49.7504 31.8232C49.7977 31.8027 49.8403 31.7728 49.8757 31.7353C49.911 31.6977 49.9383 31.6533 49.9558 31.6049C49.9734 31.5564 49.9808 31.5048 49.9777 31.4534V30.3713C49.9808 30.3198 49.9734 30.2682 49.9558 30.2198C49.9383 30.1713 49.911 30.1269 49.8757 30.0893C49.8403 30.0518 49.7977 30.0219 49.7504 30.0014C49.7031 29.981 49.652 29.9704 49.6005 29.9704C49.5489 29.9704 49.4979 29.981 49.4506 30.0014C49.4033 30.0219 49.3606 30.0518 49.3253 30.0893C49.2899 30.1269 49.2627 30.1713 49.2451 30.2198C49.2276 30.2682 49.2202 30.3198 49.2233 30.3713Z" fill="#170D26"/>
<path d="M52.4473 31.8368V31.9986C52.3949 31.9982 52.3447 31.9772 52.3077 31.9402C52.2706 31.9031 52.2496 31.853 52.2493 31.8006V31.3711C52.2479 31.2516 52.2007 31.1372 52.1174 31.0516C52.0341 30.9659 51.921 30.9156 51.8016 30.9109H51.5534V31.9986H51.3917V29.8316H51.8449C51.964 29.8313 52.0798 29.8704 52.1744 29.9429C52.269 30.0153 52.3369 30.117 52.3676 30.2321C52.3983 30.3472 52.3901 30.4692 52.3443 30.5791C52.2984 30.689 52.2174 30.7807 52.114 30.8398C52.2048 30.8957 52.2798 30.9738 52.332 31.0668C52.3842 31.1597 52.4119 31.2645 52.4124 31.3711V31.802C52.4124 31.8112 52.4161 31.8201 52.4226 31.8266C52.4291 31.8332 52.438 31.8368 52.4473 31.8368ZM51.5534 30.7492H51.8449C51.9451 30.7492 52.0412 30.7093 52.1121 30.6385C52.1829 30.5676 52.2228 30.4715 52.2228 30.3713C52.2228 30.271 52.1829 30.1749 52.1121 30.104C52.0412 30.0332 51.9451 29.9934 51.8449 29.9934H51.5534V30.7492Z" fill="#170D26"/>
<path d="M55.1232 31.4478H55.2808C55.2777 31.4993 55.2851 31.5508 55.3027 31.5993C55.3202 31.6478 55.3475 31.6922 55.3828 31.7297C55.4181 31.7673 55.4608 31.7972 55.5081 31.8176C55.5554 31.8381 55.6064 31.8487 55.658 31.8487C55.7096 31.8487 55.7606 31.8381 55.8079 31.8176C55.8553 31.7972 55.8979 31.7673 55.9332 31.7297C55.9686 31.6922 55.9958 31.6478 56.0134 31.5993C56.0309 31.5508 56.0383 31.4993 56.0352 31.4478C56.0352 31.2233 55.8414 31.109 55.6169 30.9765C55.3924 30.844 55.119 30.6836 55.119 30.3657C55.119 30.2226 55.1759 30.0853 55.2771 29.9841C55.3783 29.8829 55.5156 29.826 55.6587 29.826C55.8018 29.826 55.9391 29.8829 56.0403 29.9841C56.1415 30.0853 56.1984 30.2226 56.1984 30.3657H56.0352C56.0383 30.3142 56.0309 30.2627 56.0134 30.2142C55.9958 30.1657 55.9686 30.1213 55.9332 30.0838C55.8979 30.0462 55.8553 30.0163 55.8079 29.9959C55.7606 29.9754 55.7096 29.9649 55.658 29.9649C55.6064 29.9649 55.5554 29.9754 55.5081 29.9959C55.4608 30.0163 55.4181 30.0462 55.3828 30.0838C55.3475 30.1213 55.3202 30.1657 55.3027 30.2142C55.2851 30.2627 55.2777 30.3142 55.2808 30.3657C55.2808 30.5902 55.476 30.7046 55.6991 30.837C55.9223 30.9695 56.1984 31.1327 56.1984 31.4478C56.1984 31.5909 56.1415 31.7282 56.0403 31.8294C55.9391 31.9306 55.8018 31.9875 55.6587 31.9875C55.5156 31.9875 55.3783 31.9306 55.2771 31.8294C55.1759 31.7282 55.119 31.5909 55.119 31.4478H55.1232Z" fill="#170D26"/>
<path d="M57.4534 31.9986V29.8316H57.9066C58.0497 29.8316 58.187 29.8885 58.2882 29.9897C58.3894 30.0909 58.4462 30.2281 58.4462 30.3713C58.4462 30.5144 58.3894 30.6516 58.2882 30.7529C58.187 30.8541 58.0497 30.9109 57.9066 30.9109H57.6151V31.9986H57.4534ZM57.9066 30.7436C58.0068 30.7436 58.1029 30.7038 58.1738 30.6329C58.2447 30.562 58.2845 30.4659 58.2845 30.3657C58.2845 30.2655 58.2447 30.1693 58.1738 30.0985C58.1029 30.0276 58.0068 29.9878 57.9066 29.9878H57.6151V30.7436H57.9066Z" fill="#170D26"/>
<path d="M59.6971 31.4534V30.3713C59.7041 30.2327 59.7641 30.1021 59.8647 30.0066C59.9652 29.911 60.0987 29.8577 60.2374 29.8577C60.3762 29.8577 60.5096 29.911 60.6102 30.0066C60.7107 30.1021 60.7707 30.2327 60.7778 30.3713V31.4534C60.7815 31.5266 60.7703 31.5999 60.7448 31.6687C60.7193 31.7375 60.6801 31.8004 60.6296 31.8536C60.579 31.9067 60.5182 31.9491 60.4508 31.978C60.3834 32.0069 60.3108 32.0219 60.2374 32.0219C60.1641 32.0219 60.0915 32.0069 60.024 31.978C59.9566 31.9491 59.8958 31.9067 59.8453 31.8536C59.7947 31.8004 59.7555 31.7375 59.73 31.6687C59.7046 31.5999 59.6934 31.5266 59.6971 31.4534ZM59.8602 30.3713V31.4534C59.8571 31.5048 59.8645 31.5564 59.8821 31.6049C59.8996 31.6534 59.9269 31.6977 59.9622 31.7353C59.9975 31.7728 60.0402 31.8028 60.0875 31.8232C60.1348 31.8437 60.1859 31.8542 60.2374 31.8542C60.289 31.8542 60.34 31.8437 60.3873 31.8232C60.4347 31.8028 60.4773 31.7728 60.5126 31.7353C60.548 31.6977 60.5752 31.6534 60.5928 31.6049C60.6103 31.5564 60.6177 31.5048 60.6146 31.4534V30.3713C60.6177 30.3198 60.6103 30.2682 60.5928 30.2198C60.5752 30.1713 60.548 30.1269 60.5126 30.0893C60.4773 30.0518 60.4347 30.0219 60.3873 30.0014C60.34 29.981 60.289 29.9704 60.2374 29.9704C60.1859 29.9704 60.1348 29.981 60.0875 30.0014C60.0402 30.0219 59.9975 30.0518 59.9622 30.0893C59.9269 30.1269 59.8996 30.1713 59.8821 30.2198C59.8645 30.2682 59.8571 30.3198 59.8602 30.3713Z" fill="#170D26"/>
<path d="M63.0898 31.8368V31.9986C63.0374 31.9982 62.9872 31.9772 62.9502 31.9402C62.9131 31.9031 62.8921 31.853 62.8918 31.8006V31.3711C62.8904 31.2516 62.8432 31.1372 62.7599 31.0516C62.6766 30.9659 62.5635 30.9156 62.4441 30.9109H62.1959V31.9986H62.0342V29.8316H62.4874C62.6065 29.8313 62.7224 29.8704 62.8169 29.9429C62.9115 30.0153 62.9794 30.117 63.0101 30.2321C63.0409 30.3472 63.0326 30.4692 62.9868 30.5791C62.9409 30.689 62.8599 30.7807 62.7565 30.8398C62.8471 30.8958 62.922 30.9739 62.9739 31.0669C63.0259 31.1599 63.0533 31.2646 63.0535 31.3711V31.802C63.0539 31.8113 63.0579 31.8202 63.0646 31.8267C63.0714 31.8332 63.0804 31.8368 63.0898 31.8368ZM62.1959 30.7492H62.4874C62.5876 30.7492 62.6837 30.7093 62.7546 30.6385C62.8255 30.5676 62.8653 30.4715 62.8653 30.3713C62.8653 30.271 62.8255 30.1749 62.7546 30.104C62.6837 30.0332 62.5876 29.9934 62.4874 29.9934H62.1959V30.7492Z" fill="#170D26"/>
<path d="M65.1229 29.9878H64.8091V31.9986H64.6474V29.9878H64.335V29.826H65.1229V29.9878Z" fill="#170D26"/>
<path d="M66.7028 31.9526C66.6389 31.9258 66.5811 31.8864 66.5327 31.8369C66.4828 31.7887 66.4434 31.7308 66.4169 31.6667L66.5648 31.6012C66.5848 31.6462 66.6127 31.6872 66.647 31.7225C66.681 31.7565 66.7213 31.7835 66.7656 31.802C66.8118 31.8227 66.862 31.8333 66.9127 31.8333C66.9634 31.8333 67.0135 31.8227 67.0598 31.802C67.1051 31.7838 67.1464 31.7568 67.1811 31.7225C67.2145 31.687 67.2414 31.646 67.2606 31.6012C67.281 31.5546 67.291 31.5042 67.2899 31.4534C67.2894 31.404 67.2787 31.3552 67.2586 31.3101C67.2384 31.265 67.2092 31.2245 67.1727 31.1912C67.0809 31.1107 66.9798 31.0414 66.8715 30.9848C66.7533 30.9194 66.6425 30.8413 66.541 30.752C66.4883 30.7035 66.4461 30.6447 66.417 30.5792C66.388 30.5137 66.3728 30.4429 66.3723 30.3713C66.372 30.2992 66.3872 30.2278 66.4169 30.1621C66.4427 30.0973 66.4822 30.0388 66.5327 29.9906C66.5818 29.9415 66.6394 29.9018 66.7028 29.8735C66.837 29.8192 66.987 29.8192 67.1211 29.8735C67.1845 29.9025 67.2425 29.9421 67.2927 29.9906C67.3414 30.04 67.3802 30.0982 67.407 30.1621L67.2564 30.2235C67.2375 30.1798 67.2106 30.14 67.1769 30.1063C67.142 30.0712 67.1008 30.0428 67.0556 30.0227C66.9611 29.985 66.8558 29.985 66.7614 30.0227C66.7172 30.0432 66.677 30.0716 66.6428 30.1063C66.6084 30.1399 66.5805 30.1796 66.5606 30.2235C66.5419 30.2706 66.532 30.3207 66.5313 30.3713C66.5312 30.4212 66.542 30.4705 66.563 30.5158C66.584 30.561 66.6145 30.6012 66.6526 30.6334C66.7425 30.7157 66.8423 30.7864 66.9496 30.844C67.0698 30.9063 67.181 30.9847 67.2801 31.0769C67.3337 31.1238 67.3765 31.1817 67.4056 31.2467C67.4347 31.3117 67.4494 31.3822 67.4488 31.4534C67.4483 31.5265 67.4341 31.5988 67.407 31.6667C67.3795 31.7299 67.3407 31.7875 67.2927 31.8369C67.2432 31.8858 67.185 31.9251 67.1211 31.9526C67.0552 31.9814 66.984 31.9963 66.912 31.9963C66.84 31.9963 66.7688 31.9814 66.7028 31.9526Z" fill="#170D26"/>
</g>
<defs>
<clipPath id="clip0_947_26397">
<rect width="67.2128" height="32" fill="white" transform="translate(0.240204)"/>
</clipPath>
</defs>
</svg>
