<svg width="411" height="72" viewBox="0 0 411 72" fill="none" xmlns="http://www.w3.org/2000/svg">
<g clip-path="url(#clip0_1011_1047)">
<path d="M100.444 24.6914C98.6666 23.8025 97.5802 23.2099 97.0864 22.9136C96.5926 22.6173 96.2963 22.2222 96.0987 21.9259C95.9012 21.6296 95.8024 21.1358 95.8024 20.7407C95.8024 19.9506 96.0987 19.358 96.5926 18.8642C97.0864 18.3704 97.8765 18.1728 98.8642 18.1728C99.7531 18.1728 100.543 18.2716 101.432 18.4691C102.321 18.6667 103.407 19.0617 104.79 19.6543L106.469 15.5062C105.185 14.9136 103.901 14.5185 102.716 14.2222C101.531 13.9259 100.247 13.7284 98.9629 13.7284C96.2963 13.7284 94.2222 14.321 92.7407 15.6049C91.2592 16.8889 90.4691 18.5679 90.4691 20.8395C90.4691 22.0247 90.6666 23.0123 91.1605 23.9012C91.6543 24.7901 92.2469 25.5802 93.037 26.2716C93.8271 26.963 94.9136 27.6543 96.4938 28.3457C98.1728 29.1358 99.2592 29.7284 99.7531 30.0247C100.247 30.4198 100.642 30.716 100.938 31.1111C101.235 31.5062 101.333 31.9012 101.333 32.3951C101.333 33.2839 101.037 33.9753 100.346 34.3704C99.7531 34.8642 98.8642 35.0617 97.679 35.0617C96.6913 35.0617 95.6049 34.8642 94.4197 34.5679C93.2345 34.2716 91.8518 33.679 90.1728 32.9877V37.9259C92.2469 38.9136 94.6173 39.4074 97.2839 39.4074C100.148 39.4074 102.42 38.716 104.099 37.4321C105.778 36.1481 106.568 34.3704 106.568 32.0988C106.568 30.4198 106.173 29.037 105.284 27.9506C104.395 26.963 102.815 25.8765 100.444 24.6914Z" fill="white"/>
<path d="M117.235 23.9012C117.926 23.9012 118.617 24 119.407 24.1975C120.099 24.3951 120.889 24.6914 121.679 24.9877L123.259 20.9383C121.481 20.0494 119.506 19.6543 117.333 19.6543C114.272 19.6543 112 20.5432 110.321 22.2222C108.741 23.9012 107.852 26.4691 107.852 29.7284C107.852 36.2469 110.815 39.6049 116.839 39.6049C118.123 39.6049 119.21 39.5062 120.099 39.3086C120.988 39.1111 121.778 38.7161 122.667 38.2222V33.7778C121.778 34.3704 120.988 34.7654 120.099 35.0617C119.21 35.358 118.321 35.4568 117.333 35.4568C114.568 35.4568 113.284 33.5803 113.284 29.8272C113.185 25.8766 114.469 23.9012 117.235 23.9012Z" fill="white"/>
<path d="M132.741 20.642C131.753 21.3334 130.963 22.1235 130.37 23.2099H130.074L129.284 19.9506H125.333V39.1111H130.568V29.3334C130.568 27.7531 131.062 26.5679 131.951 25.7778C132.839 24.8889 134.222 24.4938 135.901 24.4938C136.494 24.4938 136.988 24.5926 137.481 24.6914L137.877 19.7531C137.383 19.6543 136.79 19.5556 136.099 19.5556C134.815 19.6543 133.728 20.0494 132.741 20.642Z" fill="white"/>
<path d="M147.457 19.6543C144.593 19.6543 142.42 20.5432 140.839 22.321C139.259 24.0988 138.469 26.5679 138.469 29.7284C138.469 32.8889 139.358 35.2593 141.037 36.9383C142.815 38.6173 145.185 39.5062 148.247 39.5062C149.728 39.5062 151.012 39.4074 152.099 39.2099C153.185 39.0124 154.074 38.6173 155.062 38.2222V34.1728C153.975 34.6667 152.889 35.0617 151.802 35.358C150.815 35.5556 149.728 35.7531 148.543 35.7531C147.062 35.7531 145.877 35.358 145.086 34.4691C144.296 33.5803 143.802 32.4938 143.802 31.0124H156.148V28.4444C156.148 25.679 155.358 23.6049 153.877 22.0247C152.198 20.4445 150.123 19.6543 147.457 19.6543ZM143.802 27.4568C143.901 26.1728 144.296 25.1852 144.889 24.4938C145.481 23.8025 146.37 23.4074 147.457 23.4074C148.543 23.4074 149.432 23.8025 150.123 24.4938C150.815 25.1852 151.111 26.1728 151.111 27.4568H143.802Z" fill="white"/>
<path d="M166.42 19.6543C163.556 19.6543 161.383 20.5432 159.704 22.321C158.123 24.0988 157.333 26.5679 157.333 29.7284C157.333 32.8889 158.222 35.2593 159.901 36.9383C161.679 38.6173 164.049 39.5062 167.111 39.5062C168.593 39.5062 169.877 39.4074 170.963 39.2099C172.049 39.0124 172.938 38.6173 173.926 38.2222V34.1728C172.839 34.6667 171.753 35.0617 170.667 35.358C169.679 35.5556 168.593 35.7531 167.407 35.7531C165.926 35.7531 164.741 35.358 163.951 34.4691C163.16 33.5803 162.667 32.4938 162.667 31.0124H175.012V28.4444C175.012 25.679 174.222 23.6049 172.741 22.0247C171.259 20.4445 169.185 19.6543 166.42 19.6543ZM162.765 27.4568C162.864 26.1728 163.259 25.1852 163.852 24.4938C164.444 23.8025 165.333 23.4074 166.42 23.4074C167.506 23.4074 168.395 23.8025 169.086 24.4938C169.778 25.1852 170.074 26.1728 170.074 27.4568H162.765Z" fill="white"/>
<path d="M188.444 19.6543C187.16 19.6543 185.975 19.8519 184.988 20.3457C184 20.8395 183.111 21.5309 182.617 22.4198H182.321L181.63 19.9506H177.58V39.1111H182.815V30.1235C182.815 27.8519 183.111 26.2716 183.802 25.284C184.494 24.2963 185.481 23.8025 186.963 23.8025C188.049 23.8025 188.839 24.1975 189.333 24.7901C189.827 25.4815 190.123 26.5679 190.123 27.9506V39.1111H195.358V26.5679C195.358 24.2963 194.765 22.5185 193.58 21.3333C192.296 20.3457 190.617 19.6543 188.444 19.6543Z" fill="white"/>
<path d="M219.951 33.3827H219.852L213.926 14.2222H206.716V39.3086H211.457V27.6543C211.457 26.2716 211.358 23.6049 211.16 19.6543H211.358L217.383 39.3086H222.222L228.741 19.6543H228.938C228.839 22.8148 228.741 24.7901 228.741 25.4815C228.741 26.1728 228.741 26.8642 228.741 27.4568V39.3086H233.679V14.2222H226.469L219.951 33.3827Z" fill="white"/>
<path d="M245.531 19.7531C242.667 19.7531 240.494 20.642 238.914 22.4197C237.333 24.1975 236.543 26.6667 236.543 29.8272C236.543 32.9877 237.432 35.358 239.111 37.037C240.889 38.716 243.259 39.6049 246.321 39.6049C247.802 39.6049 249.086 39.5062 250.173 39.3086C251.259 39.1111 252.148 38.716 253.136 38.321V34.2716C252.049 34.7654 250.963 35.1605 249.877 35.4568C248.889 35.6543 247.802 35.8518 246.617 35.8518C245.136 35.8518 243.951 35.4568 243.16 34.5679C242.37 33.679 241.877 32.5926 241.877 31.1111H254.222V28.5432C254.222 25.7778 253.432 23.7037 251.951 22.1235C250.37 20.5432 248.198 19.7531 245.531 19.7531ZM241.877 27.4568C241.975 26.1728 242.37 25.1852 242.963 24.4938C243.556 23.8025 244.444 23.4074 245.531 23.4074C246.617 23.4074 247.506 23.8025 248.198 24.4938C248.889 25.1852 249.185 26.1728 249.185 27.4568H241.877Z" fill="white"/>
<path d="M268.148 18.7654C268.148 19.8518 268.247 21.1358 268.543 22.6173H268.346C267.062 20.7407 265.284 19.7531 262.815 19.7531C260.543 19.7531 258.667 20.642 257.383 22.4197C256.099 24.1975 255.407 26.6667 255.407 29.7284C255.407 32.7901 256 35.2593 257.383 37.037C258.667 38.8148 260.444 39.7037 262.716 39.7037C265.185 39.7037 266.963 38.716 268.148 36.8395H268.346L269.333 39.3086H273.383V12.642H268.148V18.7654ZM268.543 30.321C268.444 32.1975 268.148 33.4815 267.556 34.2716C266.963 35.0617 265.975 35.4568 264.593 35.4568C263.407 35.4568 262.42 34.963 261.827 34.0741C261.136 33.0864 260.839 31.7037 260.839 29.8272C260.839 27.9506 261.136 26.4691 261.827 25.4815C262.42 24.4938 263.407 24 264.593 24C265.975 24 267.062 24.4938 267.654 25.3827C268.247 26.2716 268.642 27.7531 268.642 29.8272V30.321H268.543Z" fill="white"/>
<path d="M282.37 20.1482H277.136V39.3087H282.37V20.1482Z" fill="white"/>
<path d="M279.704 12.5432C277.827 12.5432 276.839 13.4321 276.839 15.1111C276.839 16.7901 277.827 17.679 279.704 17.679C280.691 17.679 281.383 17.4815 281.877 16.9877C282.37 16.4938 282.568 15.9012 282.568 15.1111C282.568 13.4321 281.679 12.5432 279.704 12.5432Z" fill="white"/>
<path d="M293.926 19.7531C291.259 19.7531 288.79 20.3457 286.617 21.5309L288.395 25.0864C290.469 24.1975 292.247 23.7037 293.827 23.7037C295.802 23.7037 296.79 24.6914 296.79 26.6667V27.5556L293.432 27.6543C290.568 27.7531 288.395 28.2469 287.012 29.2346C285.63 30.2222 284.839 31.7037 284.839 33.7778C284.839 35.7531 285.333 37.2346 286.42 38.321C287.506 39.4074 288.889 39.9012 290.765 39.9012C292.247 39.9012 293.531 39.7037 294.42 39.3086C295.309 38.9136 296.296 38.1235 297.185 37.037H297.284L298.272 39.6049H301.926V26.8642C301.926 24.5926 301.235 22.9136 299.852 21.7284C298.469 20.2469 296.494 19.7531 293.926 19.7531ZM296.691 32C296.691 33.1852 296.296 34.0741 295.605 34.7654C294.914 35.4568 293.926 35.8518 292.741 35.8518C291.062 35.8518 290.173 35.1605 290.173 33.679C290.173 32.6914 290.568 31.9012 291.259 31.4074C291.951 30.9136 293.136 30.6173 294.617 30.6173L296.593 30.5185V32H296.691Z" fill="white"/>
<path d="M322.864 29.6296H327.605V34.8642C326.42 35.0617 325.333 35.1605 324.247 35.1605C322.074 35.1605 320.494 34.4691 319.407 32.9876C318.321 31.5062 317.728 29.4321 317.728 26.7654C317.728 24.1975 318.42 22.1234 319.802 20.5432C321.185 18.963 323.062 18.2716 325.333 18.2716C327.309 18.2716 329.185 18.7654 331.062 19.6543L332.839 15.4074C330.469 14.4197 328 13.8271 325.432 13.8271C321.284 13.8271 318.123 14.9136 315.753 17.1852C313.383 19.4568 312.296 22.6173 312.296 26.6667C312.296 30.8148 313.284 33.9753 315.259 36.2469C317.235 38.5185 320.099 39.6049 323.951 39.6049C325.432 39.6049 326.914 39.5062 328.296 39.3086C329.679 39.1111 331.259 38.716 332.839 38.2222V25.1852H322.864V29.6296Z" fill="white"/>
<path d="M344 20.7407C343.012 21.4321 342.222 22.2222 341.63 23.3086H341.333L340.543 20.0494H336.593V39.2099H341.827V29.4321C341.827 27.8519 342.321 26.6667 343.21 25.8766C344.099 24.9877 345.481 24.5926 347.16 24.5926C347.753 24.5926 348.247 24.6914 348.741 24.7901L349.136 19.8519C348.642 19.7531 348.049 19.6543 347.358 19.6543C346.173 19.7531 345.086 20.0494 344 20.7407Z" fill="white"/>
<path d="M363.852 20.9383C362.469 20.1481 360.79 19.7531 359.012 19.7531C356.049 19.7531 353.778 20.642 352.099 22.321C350.42 24.0988 349.63 26.4691 349.63 29.6296C349.63 31.6049 350.025 33.3827 350.716 34.963C351.506 36.4444 352.593 37.6296 353.975 38.4198C355.358 39.2099 357.037 39.6049 358.815 39.6049C361.778 39.6049 364.049 38.716 365.728 36.9383C367.407 35.1605 368.198 32.6914 368.198 29.6296C368.198 27.6543 367.802 25.8765 367.111 24.3951C366.42 22.9136 365.333 21.7284 363.852 20.9383ZM361.975 33.9753C361.383 34.963 360.395 35.4568 358.914 35.4568C357.531 35.4568 356.444 34.963 355.852 33.9753C355.259 32.9877 354.963 31.6049 354.963 29.6296C354.963 27.7531 355.259 26.2716 355.852 25.3827C356.444 24.4938 357.432 24 358.914 24C360.296 24 361.284 24.4938 361.975 25.3827C362.568 26.3704 362.864 27.7531 362.864 29.6296C362.864 31.6049 362.568 32.9877 361.975 33.9753Z" fill="white"/>
<path d="M383.21 29.1358C383.21 31.4074 382.914 32.9877 382.222 33.9753C381.531 34.963 380.543 35.4568 379.062 35.4568C377.975 35.4568 377.185 35.1605 376.691 34.4692C376.197 33.7778 376 32.6914 376 31.3087V20.1482H370.765V32.6914C370.765 34.963 371.358 36.7408 372.444 37.9259C373.63 39.1111 375.309 39.7037 377.58 39.7037C378.864 39.7037 380.049 39.5062 381.136 39.0124C382.123 38.5185 382.914 37.8272 383.506 36.9383H383.802L384.494 39.4074H388.543V20.2469H383.309L383.21 29.1358Z" fill="white"/>
<path d="M408.197 22.4197C406.914 20.642 405.136 19.7531 402.864 19.7531C400.494 19.7531 398.617 20.7407 397.432 22.6173H397.235L396.543 20.1481H392.296V47.8025H397.531V40C397.531 39.7037 397.432 38.8148 397.235 37.2346H397.531C398.815 38.9136 400.593 39.7037 402.864 39.7037C404.346 39.7037 405.63 39.3086 406.815 38.5185C407.901 37.7284 408.79 36.5432 409.383 35.0617C409.975 33.5802 410.272 31.8025 410.272 29.7284C410.074 26.5679 409.481 24.1975 408.197 22.4197ZM401.185 35.4568C399.901 35.4568 398.914 34.963 398.321 34.0741C397.728 33.1852 397.432 31.7037 397.432 29.6296V29.037C397.432 27.1605 397.728 25.8765 398.321 25.0864C398.914 24.2963 399.901 23.9012 401.185 23.9012C402.469 23.9012 403.358 24.3951 403.951 25.2839C404.543 26.2716 404.839 27.6543 404.839 29.5309C404.741 33.4815 403.556 35.4568 401.185 35.4568Z" fill="white"/>
<path d="M62.6173 21.6296C62.6173 21.4321 62.716 21.3333 62.716 21.2346C64.8889 20.8395 66.7654 19.8519 68.3457 18.3704C70.321 16.3951 71.4074 13.8272 71.4074 10.963C71.4074 8 70.321 5.33333 68.2469 3.35802C66.1728 1.08642 63.6049 0 60.642 0C55.8025 0 51.358 1.67901 47.7037 5.03704C43.9506 8.39506 41.8765 12.5432 41.3827 17.284C39.3086 17.679 37.4321 18.6667 35.8519 20.1481C33.7778 22.2222 32.5926 24.8889 32.5926 27.7531C32.5926 30.321 33.4815 32.7901 35.1605 34.6667C31.2099 32.9877 26.3704 32.9877 22.4198 34.7654C20.4444 33.9753 18.3704 33.4815 16.1975 33.3827C11.8519 33.3827 7.90123 34.963 4.74074 38.1235C1.58025 41.3827 0 45.2346 0 49.5802V56C0 58.5679 0.987654 60.9383 2.8642 62.8148C6.41975 66.3704 12.4444 66.4691 16.0988 63.2099C19.5556 66.3704 25.3827 66.3704 28.9383 63.2099C32.5926 66.4691 38.716 66.3704 42.2716 62.8148C42.7654 62.321 43.2593 61.7284 43.6543 61.1358C44.2469 61.4321 44.7407 61.7284 45.3333 61.9259C45.3333 62.0247 45.3333 62.2222 45.3333 62.321C45.3333 64.9877 46.4198 67.4568 48.3951 69.3333C50.2716 71.1111 52.5432 72 55.1111 72C59.358 72 63.3086 70.321 66.4691 67.2593C68.2469 65.4815 69.5309 63.3086 70.321 61.037C70.321 61.037 71.0123 58.963 71.1111 56.1975C71.2099 55.1111 71.1111 56 71.1111 55.9012V49.284C71.0123 44.9383 69.4321 41.1852 66.3704 38.0247C63.7037 35.358 60.4444 33.7778 56.7901 33.4815C59.9506 30.321 62.0247 26.2716 62.6173 21.6296ZM39.2099 56C39.2099 57.0864 38.8148 57.9753 38.1235 58.7654C37.3333 59.5556 36.4444 59.9506 35.358 59.9506C34.2716 59.9506 33.284 59.5556 32.5926 58.7654C31.8025 57.9753 31.5062 57.0864 31.5062 56V49.5802C31.5062 48.8889 31.2099 48.2963 30.8148 47.7037C30.321 47.2099 29.7284 47.0123 29.037 47.0123C28.3457 47.0123 27.7531 47.2099 27.2593 47.7037C26.7654 48.1975 26.5679 48.7901 26.5679 49.4815V55.9012C26.5679 56.9877 26.1728 57.8765 25.4815 58.6667C24.6914 59.4568 23.8025 59.8519 22.716 59.8519C21.6296 59.8519 20.7407 59.4568 19.9506 58.6667C19.1605 57.8765 18.7654 56.9877 18.7654 55.9012V49.4815C18.7654 48.7901 18.5679 48.1975 18.0741 47.7037C17.5802 47.2099 16.9877 46.9136 16.2963 46.9136C15.6049 46.9136 15.0123 47.1111 14.5185 47.7037C14.0247 48.1975 13.7284 48.7901 13.7284 49.4815V55.9012C13.7284 56.9877 13.3333 57.8765 12.642 58.6667C11.8519 59.4568 10.963 59.8519 9.87654 59.8519C8.79012 59.8519 7.90123 59.4568 7.11111 58.6667C6.32099 57.8765 5.92593 56.9877 5.92593 55.9012V49.4815C5.92593 46.716 6.91358 44.2469 8.88889 42.2716C10.963 40.2963 13.3333 39.2099 16.1975 39.2099C18.5679 39.3086 20.642 40.0988 22.5185 41.4815C24.3951 40 26.4691 39.2099 28.9383 39.2099C31.7037 39.2099 34.1728 40.1975 36.1481 42.2716C38.2222 44.2469 39.2099 46.716 39.2099 49.4815V56ZM62.0247 42.0741C64 44.0494 64.9877 46.5185 65.0864 49.3827V55.9012C65.0864 58.7654 64.0988 61.1358 62.1235 63.1111C60.1482 65.0864 57.679 66.1728 54.9136 66.1728C53.8272 66.1728 52.9383 65.7778 52.1481 65.0864C51.358 64.2963 50.963 63.4074 50.963 62.321C50.963 61.2346 51.358 60.2469 52.1481 59.5556C52.9383 58.8642 53.8272 58.4691 54.8148 58.4691L55.6049 58.3704C56.8889 58.0741 57.4815 57.284 57.4815 55.9012V49.4815C57.4815 48.6914 57.284 48.0988 56.7901 47.6049C56.2963 47.1111 55.7037 46.9136 54.9136 46.9136C54.2222 46.9136 53.6296 47.1111 53.1358 47.6049C52.642 48.0988 52.4444 48.6914 52.4444 49.4815V52.7407C52.4444 53.8272 52.0494 54.716 51.358 55.5062C50.5679 56.2963 49.679 56.6914 48.5926 56.6914C47.5062 56.6914 46.6173 56.2963 45.8272 55.5062C45.037 54.716 44.642 53.8272 44.642 52.7407V49.4815C44.642 46.6173 45.6296 44.1481 47.6049 42.1728C49.5802 40.0988 52.0494 39.1111 54.9136 39.1111C57.679 39.1111 60.0494 40.0988 62.0247 42.0741ZM56.9877 19.8519C56.9877 20.2469 56.9877 20.5432 56.8889 20.7407C56.4938 24.1975 55.0123 27.0617 52.4444 29.4321C49.7778 31.8025 46.8148 32.8889 43.358 32.8889C41.9753 32.8889 40.7901 32.3951 39.8025 31.4074C38.8148 30.4198 38.321 29.2346 38.321 27.8519C38.321 26.5679 38.8148 25.3827 39.8025 24.3951C40.7901 23.4074 41.9753 22.9136 43.2593 22.9136C45.5309 22.9136 46.716 21.9259 46.9136 19.9506V18.963L47.0123 17.9753C47.3086 14.6173 48.7901 11.6543 51.4568 9.28395C54.0247 6.91358 57.0864 5.7284 60.5432 5.7284C61.9259 5.7284 63.1111 6.22222 64.0988 7.20988C65.0864 8.19753 65.5802 9.38272 65.5802 10.7654C65.5802 12.0494 65.0864 13.2346 64.1975 14.1235C63.2099 15.0123 62.1235 15.5062 60.642 15.5062C58.4691 15.5062 57.284 16.4938 56.9877 18.6667C56.9877 19.1605 56.9877 19.4568 56.9877 19.8519Z" fill="white"/>
<path d="M99.1605 54.321C99.1605 56.2963 98.5679 57.7778 97.4815 58.8642C96.3951 59.9506 94.8148 60.4445 92.7407 60.4445H89.3827V48.4938H93.1358C95.0124 48.4938 96.4938 48.9877 97.5803 50.0741C98.6667 51.0617 99.1605 52.5432 99.1605 54.321ZM97.0864 54.4198C97.0864 51.5556 95.7037 50.0741 93.037 50.0741H91.358V58.7654H92.7407C95.6049 58.8642 97.0864 57.3827 97.0864 54.4198Z" fill="white"/>
<path d="M101.432 48.9877C101.432 48.6914 101.531 48.3951 101.728 48.1975C101.926 48 102.222 47.9012 102.519 47.9012C102.815 47.9012 103.111 48 103.309 48.1975C103.506 48.3951 103.605 48.6914 103.605 48.9877C103.605 49.284 103.506 49.5803 103.309 49.7778C103.111 49.9753 102.815 50.0741 102.519 50.0741C102.123 50.0741 101.926 49.9753 101.728 49.7778C101.531 49.5803 101.432 49.284 101.432 48.9877ZM103.407 60.4445H101.432V51.358H103.407V60.4445Z" fill="white"/>
<path d="M113.877 51.358V52.4444L112.296 52.7407C112.395 52.9383 112.593 53.1358 112.691 53.4321C112.79 53.7284 112.79 54.0247 112.79 54.321C112.79 55.2099 112.494 56 111.802 56.4938C111.111 56.9877 110.222 57.2839 109.136 57.2839C108.84 57.2839 108.543 57.284 108.346 57.1852C107.951 57.4815 107.753 57.7778 107.753 58.0741C107.753 58.2716 107.852 58.4691 108.049 58.5679C108.247 58.6667 108.642 58.7654 109.136 58.7654H110.716C111.704 58.7654 112.494 58.963 112.988 59.358C113.481 59.7531 113.778 60.4444 113.778 61.2346C113.778 62.2222 113.383 63.0123 112.494 63.6049C111.605 64.1975 110.42 64.3951 108.84 64.3951C107.556 64.3951 106.667 64.1975 105.975 63.7037C105.284 63.2099 104.988 62.6173 104.988 61.8272C104.988 61.2346 105.185 60.8395 105.481 60.4444C105.877 60.0494 106.37 59.7531 106.963 59.6543C106.667 59.5556 106.469 59.358 106.37 59.1605C106.272 58.963 106.074 58.6667 106.074 58.3704C106.074 58.0741 106.173 57.7778 106.37 57.4815C106.568 57.284 106.864 56.9877 107.259 56.7901C106.765 56.5926 106.37 56.2963 106.074 55.8025C105.778 55.3086 105.679 54.8148 105.679 54.2222C105.679 53.2346 105.975 52.4444 106.568 51.9506C107.161 51.4568 108.049 51.1605 109.235 51.1605C109.531 51.1605 109.728 51.1605 110.025 51.2593C110.321 51.358 110.519 51.358 110.617 51.358H113.877ZM106.765 61.9259C106.765 62.321 106.963 62.6173 107.358 62.9136C107.753 63.1111 108.247 63.2099 108.938 63.2099C110.025 63.2099 110.815 63.0123 111.309 62.716C111.802 62.4198 112.099 62.0247 112.099 61.5309C112.099 61.1358 112 60.8395 111.704 60.642C111.407 60.4444 110.914 60.3457 110.123 60.3457H108.642C108.049 60.3457 107.654 60.4444 107.358 60.7407C106.864 61.1358 106.765 61.4321 106.765 61.9259ZM107.556 54.321C107.556 54.9136 107.654 55.3086 107.951 55.6049C108.247 55.9012 108.642 56.0988 109.235 56.0988C110.321 56.0988 110.914 55.5062 110.914 54.321C110.914 53.7284 110.815 53.2346 110.519 52.9383C110.222 52.642 109.827 52.4444 109.235 52.4444C108.642 52.4444 108.247 52.642 107.951 52.9383C107.753 53.2346 107.556 53.7284 107.556 54.321Z" fill="white"/>
<path d="M115.457 48.9877C115.457 48.6914 115.556 48.3951 115.753 48.1975C115.951 48 116.247 47.9012 116.543 47.9012C116.84 47.9012 117.136 48 117.333 48.1975C117.531 48.3951 117.63 48.6914 117.63 48.9877C117.63 49.284 117.531 49.5803 117.333 49.7778C117.136 49.9753 116.84 50.0741 116.543 50.0741C116.148 50.0741 115.951 49.9753 115.753 49.7778C115.556 49.5803 115.457 49.284 115.457 48.9877ZM117.432 60.4445H115.457V51.358H117.432V60.4445Z" fill="white"/>
<path d="M123.556 59.0618C124.049 59.0618 124.543 58.963 124.938 58.8642V60.3457C124.741 60.4445 124.444 60.5432 124.148 60.5432C123.852 60.642 123.457 60.642 123.062 60.642C121.284 60.642 120.296 59.6543 120.296 57.7778V52.9383H119.012V52.0494L120.494 51.3581L121.185 49.4815H122.37V51.4568H124.938V52.9383H122.37V57.7778C122.37 58.2716 122.469 58.5679 122.765 58.7655C122.963 58.963 123.259 59.0618 123.556 59.0618Z" fill="white"/>
<path d="M132.444 60.4445L132.049 59.1605H131.951C131.556 59.7531 131.062 60.0494 130.667 60.2469C130.272 60.4445 129.679 60.5432 128.988 60.5432C128.099 60.5432 127.407 60.3457 126.914 59.8519C126.42 59.358 126.123 58.6667 126.123 57.7778C126.123 56.8889 126.519 56.0988 127.21 55.7037C127.901 55.2099 128.988 55.0124 130.37 54.9136H131.951V54.4198C131.951 53.8272 131.852 53.4321 131.556 53.1358C131.259 52.8395 130.864 52.7408 130.272 52.7408C129.778 52.7408 129.383 52.8395 128.889 52.9383C128.494 53.0371 128.099 53.2346 127.704 53.4321L127.111 52.0494C127.605 51.7531 128.099 51.5556 128.691 51.4568C129.284 51.358 129.877 51.2593 130.37 51.2593C131.556 51.2593 132.346 51.5556 132.938 52.0494C133.531 52.5432 133.827 53.3333 133.827 54.4198V60.5432H132.444V60.4445ZM129.58 59.1605C130.272 59.1605 130.864 58.963 131.259 58.5679C131.654 58.1729 131.852 57.679 131.852 56.8889V56.0988H130.667C129.778 56.0988 129.086 56.2963 128.691 56.5926C128.296 56.8889 128.099 57.284 128.099 57.8766C128.099 58.2716 128.198 58.5679 128.494 58.8642C128.79 59.0617 129.185 59.1605 129.58 59.1605Z" fill="white"/>
<path d="M138.469 60.4444H136.494V47.7037H138.469V60.4444Z" fill="white"/>
<path d="M145.778 60.4445V48.4938H147.753V60.4445H145.778Z" fill="white"/>
<path d="M158.716 60.4444H156.741V54.9136C156.741 54.2222 156.642 53.7284 156.346 53.3333C156.049 53.037 155.654 52.8395 154.963 52.8395C154.173 52.8395 153.58 53.037 153.185 53.5309C152.79 54.0247 152.593 54.8148 152.593 55.9012V60.4444H150.617V51.358H152.099L152.395 52.5432H152.494C152.79 52.1481 153.185 51.7531 153.679 51.5556C154.173 51.358 154.765 51.1605 155.358 51.1605C157.531 51.1605 158.617 52.2469 158.617 54.5185L158.716 60.4444Z" fill="white"/>
<path d="M169.383 60.5432H167.407V55.0124C167.407 54.321 167.309 53.8272 167.012 53.4321C166.716 53.1358 166.321 52.9383 165.63 52.9383C164.84 52.9383 164.247 53.1358 163.852 53.6296C163.457 54.1235 163.259 54.9136 163.259 56V60.5432H161.284V51.4568H162.765L163.062 52.642H163.161C163.457 52.2469 163.852 51.8519 164.346 51.6543C164.84 51.4568 165.432 51.2593 166.025 51.2593C168.198 51.2593 169.284 52.3457 169.284 54.6173L169.383 60.5432Z" fill="white"/>
<path d="M180.049 55.9012C180.049 57.3827 179.654 58.5679 178.864 59.358C178.074 60.1481 177.086 60.642 175.704 60.642C174.815 60.642 174.123 60.4444 173.432 60.0494C172.741 59.6543 172.247 59.1605 171.951 58.3704C171.556 57.679 171.457 56.7901 171.457 55.9012C171.457 54.4198 171.852 53.2346 172.543 52.4444C173.333 51.6543 174.321 51.1605 175.704 51.1605C176.988 51.1605 178.074 51.5556 178.864 52.4444C179.654 53.3333 180.049 54.5185 180.049 55.9012ZM173.531 55.9012C173.531 57.9753 174.321 59.0617 175.802 59.0617C177.284 59.0617 178.074 57.9753 178.074 55.9012C178.074 53.8272 177.284 52.8395 175.802 52.8395C175.012 52.8395 174.42 53.1358 174.025 53.6296C173.63 54.2222 173.531 54.9136 173.531 55.9012Z" fill="white"/>
<path d="M184.395 60.5432L180.938 51.4568H183.012L184.889 56.6914C185.185 57.5802 185.383 58.2716 185.481 58.8642H185.58C185.58 58.4691 185.778 57.7778 186.173 56.6914L188.049 51.4568H190.123L186.667 60.5432H184.395Z" fill="white"/>
<path d="M196.938 60.5432L196.543 59.2593C196.148 59.8519 195.654 60.1482 195.259 60.3457C194.864 60.5432 194.272 60.642 193.58 60.642C192.691 60.642 192 60.4445 191.506 59.9506C191.012 59.4568 190.716 58.7654 190.716 57.8765C190.716 56.9877 191.111 56.1975 191.802 55.8025C192.494 55.4074 193.58 55.1111 194.963 55.0124H196.543V54.5185C196.543 53.9259 196.444 53.5309 196.148 53.2346C195.852 52.9383 195.457 52.8395 194.864 52.8395C194.37 52.8395 193.975 52.9383 193.481 53.037C192.988 53.1358 192.691 53.3333 192.296 53.5309L191.704 52.1482C192.198 51.8519 192.691 51.6543 193.284 51.5556C193.877 51.4568 194.469 51.358 194.963 51.358C196.148 51.358 196.938 51.6543 197.531 52.1482C198.123 52.642 198.42 53.4321 198.42 54.5185V60.642L196.938 60.5432ZM194.074 59.1605C194.765 59.1605 195.358 58.963 195.753 58.5679C196.148 58.1728 196.346 57.679 196.346 56.8889V56.0988H195.161C194.272 56.0988 193.58 56.2963 193.185 56.5926C192.79 56.8889 192.593 57.284 192.593 57.8765C192.593 58.2716 192.691 58.5679 192.988 58.8642C193.284 59.0617 193.58 59.1605 194.074 59.1605Z" fill="white"/>
<path d="M204.444 59.1605C204.938 59.1605 205.432 59.0617 205.827 58.963V60.4445C205.63 60.5432 205.333 60.642 205.037 60.642C204.741 60.7408 204.346 60.7408 203.951 60.7408C202.173 60.7408 201.185 59.7531 201.185 57.8766V53.0371H199.901V52.1482L201.185 51.4568L201.877 49.5803H203.062V51.5556H205.63V53.0371H203.062V57.8766C203.062 58.3704 203.16 58.6667 203.457 58.8642C203.753 58.963 204.049 59.1605 204.444 59.1605Z" fill="white"/>
<path d="M207.506 49.0864C207.506 48.7901 207.605 48.4938 207.802 48.2963C208 48.0988 208.296 48 208.593 48C208.889 48 209.185 48.0988 209.383 48.2963C209.58 48.4938 209.679 48.7901 209.679 49.0864C209.679 49.3827 209.58 49.679 209.383 49.8765C209.185 50.0741 208.889 50.1728 208.593 50.1728C208.198 50.1728 208 50.0741 207.802 49.8765C207.605 49.5802 207.506 49.3827 207.506 49.0864ZM209.58 60.5432H207.605V51.4568H209.58V60.5432Z" fill="white"/>
<path d="M220.346 56C220.346 57.4815 219.951 58.6667 219.16 59.4568C218.37 60.2469 217.383 60.7408 216 60.7408C215.111 60.7408 214.42 60.5432 213.728 60.1482C213.037 59.7531 212.543 59.2593 212.247 58.4692C211.852 57.7778 211.753 56.8889 211.753 56C211.753 54.5185 212.148 53.3334 212.84 52.5432C213.63 51.7531 214.617 51.2593 216 51.2593C217.284 51.2593 218.37 51.6543 219.16 52.5432C219.951 53.4321 220.346 54.5185 220.346 56ZM213.728 56C213.728 58.0741 214.519 59.1605 216 59.1605C217.481 59.1605 218.272 58.0741 218.272 56C218.272 53.9259 217.481 52.9383 216 52.9383C215.21 52.9383 214.617 53.2346 214.222 53.7284C213.926 54.2222 213.728 54.9136 213.728 56Z" fill="white"/>
<path d="M230.518 60.5432H228.543V55.0124C228.543 54.321 228.444 53.8272 228.148 53.4321C227.852 53.1358 227.457 52.9383 226.765 52.9383C225.975 52.9383 225.383 53.1358 224.988 53.6296C224.593 54.1235 224.395 54.9136 224.395 56V60.5432H222.42V51.4568H223.901L224.198 52.642H224.296C224.593 52.2469 224.988 51.8519 225.481 51.6543C225.975 51.4568 226.568 51.2593 227.16 51.2593C229.333 51.2593 230.42 52.3457 230.42 54.6173L230.518 60.5432Z" fill="white"/>
<path d="M242.963 60.5432L239.506 50.5679H239.407C239.506 52.0494 239.506 53.4321 239.506 54.716V60.5432H237.728V48.5926H240.494L243.852 58.1728L247.309 48.5926H250.074V60.5432H248.198V54.6173C248.198 54.0247 248.198 53.2346 248.198 52.2469C248.198 51.2593 248.296 50.6667 248.296 50.4691H248.198L244.642 60.4444H242.963V60.5432Z" fill="white"/>
<path d="M258.765 60.5432L258.37 59.2593H258.272C257.877 59.8519 257.383 60.1482 256.988 60.3457C256.593 60.5432 256 60.642 255.309 60.642C254.42 60.642 253.728 60.4445 253.235 59.9506C252.741 59.4568 252.444 58.7654 252.444 57.8765C252.444 56.9877 252.84 56.1975 253.531 55.8025C254.222 55.4074 255.309 55.1111 256.691 55.0124H258.272V54.5185C258.272 53.9259 258.173 53.5309 257.877 53.2346C257.58 52.9383 257.185 52.8395 256.593 52.8395C256.099 52.8395 255.704 52.9383 255.21 53.037C254.716 53.1358 254.42 53.3333 254.025 53.5309L253.432 52.1482C253.926 51.8519 254.42 51.6543 255.012 51.5556C255.605 51.4568 256.198 51.358 256.691 51.358C257.877 51.358 258.667 51.6543 259.259 52.1482C259.852 52.642 260.148 53.4321 260.148 54.5185V60.642L258.765 60.5432ZM255.901 59.2593C256.593 59.2593 257.185 59.0617 257.58 58.6667C257.975 58.2716 258.173 57.7778 258.173 56.9877V56.1975H256.988C256.099 56.1975 255.407 56.3951 255.012 56.6914C254.617 56.9877 254.42 57.3827 254.42 57.9753C254.42 58.3704 254.519 58.6667 254.815 58.963C255.012 59.0617 255.407 59.2593 255.901 59.2593Z" fill="white"/>
<path d="M267.457 51.2593C267.852 51.2593 268.148 51.2593 268.444 51.358L268.247 53.1358C267.951 53.0371 267.654 53.0371 267.358 53.0371C266.568 53.0371 265.975 53.3334 265.481 53.8272C264.988 54.321 264.79 55.0124 264.79 55.8025V60.5432H262.815V51.4568H264.296L264.593 53.0371H264.691C264.988 52.5432 265.383 52.0494 265.877 51.7531C266.37 51.4568 266.864 51.2593 267.457 51.2593Z" fill="white"/>
<path d="M271.901 55.7037L272.988 54.321L275.753 51.358H277.926L274.272 55.2099L278.123 60.3457H275.852L272.988 56.3951L271.901 57.284V60.3457H270.025V47.6049H271.901V53.8272V55.7037Z" fill="white"/>
<path d="M283.654 60.7407C282.272 60.7407 281.185 60.3457 280.395 59.4568C279.605 58.6667 279.21 57.4815 279.21 56.0988C279.21 54.6173 279.605 53.4321 280.296 52.642C280.988 51.7531 282.074 51.358 283.358 51.358C284.543 51.358 285.531 51.7531 286.222 52.4445C286.914 53.1358 287.309 54.1235 287.309 55.4074V56.4938H281.284C281.284 57.3827 281.58 58.0741 281.975 58.5679C282.37 59.0617 283.062 59.2593 283.852 59.2593C284.346 59.2593 284.839 59.1605 285.333 59.0617C285.827 58.963 286.321 58.7654 286.815 58.5679V60.1482C286.321 60.3457 285.827 60.5432 285.432 60.642C284.741 60.642 284.247 60.7407 283.654 60.7407ZM283.259 52.7407C282.667 52.7407 282.173 52.9383 281.778 53.3333C281.383 53.7284 281.185 54.321 281.086 55.0124H285.235C285.235 54.2222 285.037 53.7284 284.741 53.3333C284.346 52.9383 283.852 52.7407 283.259 52.7407Z" fill="white"/>
<path d="M292.741 59.1605C293.235 59.1605 293.728 59.0617 294.123 58.963V60.4445C293.926 60.5432 293.63 60.642 293.333 60.642C293.037 60.7408 292.642 60.7408 292.247 60.7408C290.469 60.7408 289.481 59.7531 289.481 57.8766V53.0371H288.198V52.1482L289.481 51.4568L290.173 49.5803H291.358V51.5556H293.926V53.0371H291.358V57.8766C291.358 58.3704 291.457 58.6667 291.753 58.8642C292.049 59.0617 292.346 59.1605 292.741 59.1605Z" fill="white"/>
<path d="M295.802 49.0864C295.802 48.7901 295.901 48.4938 296.099 48.2963C296.296 48.0988 296.593 48 296.889 48C297.185 48 297.481 48.0988 297.679 48.2963C297.877 48.4938 297.975 48.7901 297.975 49.0864C297.975 49.3827 297.877 49.679 297.679 49.8765C297.481 50.0741 297.185 50.1728 296.889 50.1728C296.494 50.1728 296.296 50.0741 296.099 49.8765C295.901 49.679 295.802 49.3827 295.802 49.0864ZM297.877 60.5432H295.901V51.4568H297.877V60.5432Z" fill="white"/>
<path d="M308.543 60.5432H306.568V55.0124C306.568 54.321 306.469 53.8272 306.173 53.4321C305.877 53.1358 305.481 52.9383 304.79 52.9383C304 52.9383 303.407 53.1358 303.012 53.6296C302.617 54.1235 302.42 54.9136 302.42 56V60.5432H300.444V51.4568H301.926L302.222 52.642H302.321C302.617 52.2469 303.012 51.8519 303.506 51.6543C304 51.4568 304.593 51.2593 305.185 51.2593C307.358 51.2593 308.444 52.3457 308.444 54.6173L308.543 60.5432Z" fill="white"/>
<path d="M318.914 51.4568V52.5432L317.333 52.8395C317.432 53.0371 317.63 53.2346 317.728 53.5309C317.827 53.8272 317.827 54.1235 317.827 54.4198C317.827 55.3087 317.531 56.0988 316.839 56.5926C316.148 57.0864 315.259 57.3827 314.173 57.3827C313.877 57.3827 313.58 57.3827 313.383 57.284C312.988 57.5803 312.79 57.8766 312.79 58.1729C312.79 58.3704 312.889 58.5679 313.086 58.6667C313.284 58.7655 313.679 58.8642 314.173 58.8642H315.753C316.741 58.8642 317.531 59.0617 318.025 59.4568C318.519 59.8519 318.815 60.5432 318.815 61.3333C318.815 62.321 318.42 63.1111 317.531 63.7037C316.642 64.2963 315.457 64.4938 313.877 64.4938C312.593 64.4938 311.704 64.2963 311.012 63.8025C310.321 63.3087 310.025 62.7161 310.025 61.9259C310.025 61.3334 310.222 60.9383 310.519 60.5432C310.914 60.1482 311.407 59.8519 312 59.7531C311.704 59.6543 311.506 59.4568 311.407 59.2593C311.309 59.0617 311.111 58.7654 311.111 58.4692C311.111 58.1729 311.21 57.8766 311.407 57.5803C311.605 57.3827 311.901 57.0864 312.296 56.8889C311.802 56.6914 311.407 56.3951 311.111 55.9012C310.815 55.4074 310.716 54.9136 310.716 54.321C310.716 53.3333 311.012 52.5432 311.605 52.0494C312.198 51.5556 313.086 51.2593 314.272 51.2593C314.568 51.2593 314.765 51.2593 315.062 51.358C315.358 51.4568 315.556 51.4568 315.654 51.4568H318.914ZM311.802 61.9259C311.802 62.321 312 62.6173 312.395 62.9136C312.79 63.1111 313.284 63.2099 313.975 63.2099C315.062 63.2099 315.852 63.0124 316.346 62.7161C316.839 62.4198 317.136 62.0247 317.136 61.5309C317.136 61.1358 317.037 60.8395 316.741 60.642C316.444 60.4445 315.951 60.3457 315.16 60.3457H313.679C313.086 60.3457 312.691 60.4445 312.395 60.7408C312 61.1358 311.802 61.5309 311.802 61.9259ZM312.593 54.4198C312.593 55.0124 312.691 55.4074 312.988 55.7037C313.284 56 313.679 56.1975 314.272 56.1975C315.358 56.1975 315.951 55.605 315.951 54.4198C315.951 53.8272 315.852 53.3334 315.556 53.0371C315.259 52.7408 314.864 52.5432 314.272 52.5432C313.679 52.5432 313.284 52.7408 312.988 53.0371C312.79 53.3334 312.593 53.8272 312.593 54.4198Z" fill="white"/>
<path d="M332.642 60.5432L331.457 57.1852H326.914L325.728 60.5432H323.654L328.099 48.4938H330.272L334.716 60.5432H332.642ZM330.864 55.5062L329.778 52.2469C329.679 52.0494 329.58 51.6543 329.481 51.2593C329.383 50.7654 329.284 50.4691 329.185 50.2716C329.086 50.963 328.79 51.6543 328.494 52.4445L327.407 55.6049L330.864 55.5062Z" fill="white"/>
<path d="M343.704 51.4568V52.5432L342.123 52.8395C342.222 53.0371 342.42 53.2346 342.518 53.5309C342.617 53.8272 342.617 54.1235 342.617 54.4198C342.617 55.3087 342.321 56.0988 341.63 56.5926C340.938 57.0864 340.049 57.3827 338.963 57.3827C338.667 57.3827 338.37 57.3827 338.173 57.284C337.778 57.5803 337.58 57.8766 337.58 58.1729C337.58 58.3704 337.679 58.5679 337.877 58.6667C338.074 58.7655 338.469 58.8642 338.963 58.8642H340.543C341.531 58.8642 342.321 59.0617 342.815 59.4568C343.309 59.8519 343.605 60.5432 343.605 61.3333C343.605 62.321 343.21 63.1111 342.321 63.7037C341.432 64.2963 340.247 64.4938 338.667 64.4938C337.383 64.4938 336.494 64.2963 335.802 63.8025C335.111 63.3087 334.815 62.7161 334.815 61.9259C334.815 61.3334 335.012 60.9383 335.309 60.5432C335.704 60.1482 336.198 59.8519 336.79 59.7531C336.494 59.6543 336.296 59.4568 336.197 59.2593C336.099 59.0617 335.901 58.7654 335.901 58.4692C335.901 58.1729 336 57.8766 336.197 57.5803C336.395 57.3827 336.691 57.0864 337.086 56.8889C336.593 56.6914 336.198 56.3951 335.901 55.9012C335.605 55.4074 335.506 54.9136 335.506 54.321C335.506 53.3333 335.802 52.5432 336.395 52.0494C336.988 51.5556 337.877 51.2593 339.062 51.2593C339.358 51.2593 339.556 51.2593 339.852 51.358C340.148 51.4568 340.346 51.4568 340.444 51.4568H343.704ZM336.593 61.9259C336.593 62.321 336.79 62.6173 337.185 62.9136C337.58 63.1111 338.074 63.2099 338.765 63.2099C339.852 63.2099 340.642 63.0124 341.136 62.7161C341.63 62.4198 341.926 62.0247 341.926 61.5309C341.926 61.1358 341.827 60.8395 341.531 60.642C341.235 60.4445 340.741 60.3457 339.951 60.3457H338.469C337.877 60.3457 337.481 60.4445 337.185 60.7408C336.79 61.1358 336.593 61.5309 336.593 61.9259ZM337.383 54.4198C337.383 55.0124 337.481 55.4074 337.778 55.7037C338.074 56 338.469 56.1975 339.062 56.1975C340.148 56.1975 340.741 55.605 340.741 54.4198C340.741 53.8272 340.642 53.3334 340.346 53.0371C340.049 52.7408 339.654 52.5432 339.062 52.5432C338.469 52.5432 338.074 52.7408 337.778 53.0371C337.58 53.3334 337.383 53.8272 337.383 54.4198Z" fill="white"/>
<path d="M349.333 60.7407C347.951 60.7407 346.864 60.3457 346.074 59.4568C345.284 58.6667 344.889 57.4815 344.889 56.0988C344.889 54.6173 345.284 53.4321 345.975 52.642C346.667 51.7531 347.753 51.358 349.037 51.358C350.222 51.358 351.21 51.7531 351.901 52.4445C352.593 53.1358 352.988 54.1235 352.988 55.4074V56.4938H346.963C346.963 57.3827 347.259 58.0741 347.654 58.5679C348.049 59.0617 348.741 59.2593 349.531 59.2593C350.025 59.2593 350.519 59.1605 351.012 59.0617C351.506 58.963 352 58.7654 352.494 58.5679V60.1482C352 60.3457 351.506 60.5432 351.111 60.642C350.519 60.642 350.025 60.7407 349.333 60.7407ZM349.037 52.8395C348.444 52.8395 347.951 53.037 347.556 53.4321C347.16 53.8272 346.963 54.4198 346.864 55.1111H351.012C351.012 54.321 350.815 53.8272 350.519 53.4321C350.123 52.9383 349.63 52.8395 349.037 52.8395Z" fill="white"/>
<path d="M363.062 60.5432H361.086V55.0124C361.086 54.321 360.988 53.8272 360.691 53.4321C360.395 53.1358 360 52.9383 359.309 52.9383C358.518 52.9383 357.926 53.1358 357.531 53.6296C357.136 54.1235 356.938 54.9136 356.938 56V60.5432H354.963V51.4568H356.444L356.741 52.642H356.839C357.136 52.2469 357.531 51.8519 358.025 51.6543C358.519 51.4568 359.111 51.2593 359.704 51.2593C361.877 51.2593 362.963 52.3457 362.963 54.6173L363.062 60.5432Z" fill="white"/>
<path d="M369.383 60.7407C368 60.7407 367.012 60.3457 366.222 59.5556C365.531 58.7654 365.136 57.5803 365.136 56.0988C365.136 54.6173 365.531 53.4321 366.222 52.5432C367.012 51.7531 368 51.358 369.481 51.358C370.469 51.358 371.259 51.5556 372.049 51.8519L371.457 53.4321C370.667 53.1358 369.975 52.9383 369.481 52.9383C367.901 52.9383 367.111 54.0247 367.111 56.0988C367.111 57.0864 367.309 57.8765 367.704 58.3704C368.099 58.8642 368.691 59.1605 369.383 59.1605C370.272 59.1605 371.062 58.963 371.852 58.5679V60.2469C371.556 60.4444 371.16 60.642 370.765 60.642C370.37 60.642 369.975 60.7407 369.383 60.7407Z" fill="white"/>
<path d="M372.642 51.5556H374.716L376.593 56.6914C376.889 57.3827 377.086 58.0741 377.185 58.7655H377.284C377.383 58.4692 377.383 58.0741 377.58 57.679C377.778 57.284 378.37 55.2099 379.654 51.5556H381.728L377.877 61.8272C377.185 63.7037 376 64.6914 374.321 64.6914C373.926 64.6914 373.432 64.6914 373.037 64.5926V63.1111C373.333 63.2099 373.63 63.2099 374.025 63.2099C374.914 63.2099 375.605 62.7161 376 61.6297L376.296 60.7408L372.642 51.5556Z" fill="white"/>
</g>
<defs>
<clipPath id="clip0_1011_1047">
<rect width="410.074" height="72" fill="white"/>
</clipPath>
</defs>
</svg>
