<svg width="120" height="16" viewBox="0 0 120 16" fill="none" xmlns="http://www.w3.org/2000/svg">
<g clip-path="url(#clip0_947_26384)">
<path d="M116.238 0V10.9832L104.182 0.836724C103.539 0.296692 102.915 0.0269717 102.309 0.0275645C101.869 0.0275645 101.53 0.162129 101.291 0.431255C101.056 0.695213 100.929 1.03812 100.936 1.39157V15.7902H104.184V4.85851L116.239 15.029C116.62 15.3615 117.055 15.6273 117.524 15.8151C117.764 15.9136 118.019 15.9687 118.278 15.9778C118.509 15.9839 118.737 15.9277 118.939 15.8151C119.32 15.5945 119.517 15.1437 119.517 14.4519V0H116.238Z" fill="#170D26"/>
<path d="M98.2183 2.12782C96.718 0.709868 94.7801 0.00059279 92.4048 0H87.9269C85.5676 0 83.6336 0.709276 82.125 2.12782C80.6163 3.54637 79.862 5.41129 79.862 7.72258C79.862 10.0499 80.624 11.9764 82.1481 13.5023C83.6721 15.0281 85.5987 15.7907 87.9278 15.7902H92.4057C94.749 15.7902 96.6791 15.0275 98.1961 13.5023C98.8444 12.8568 99.3712 12.0999 99.7513 11.2678V4.23163C99.3781 3.43963 98.8579 2.72571 98.2183 2.12782ZM96.2186 11.6297C95.2244 12.5698 93.9547 13.0399 92.4093 13.0399H87.9313C86.3984 13.0399 85.1363 12.5698 84.1452 11.6297C83.154 10.6895 82.6579 9.4639 82.6567 7.95288C82.6567 6.42763 83.1529 5.17921 84.1452 4.20763C85.1375 3.23604 86.3996 2.75114 87.9313 2.75292H92.4093C93.9565 2.75292 95.2262 3.23782 96.2186 4.20763C97.2109 5.17743 97.7073 6.42585 97.7079 7.95288C97.705 9.4639 97.2085 10.6895 96.2186 11.6297Z" fill="#170D26"/>
<path d="M80.0549 13.0835H73.6012C72.0689 13.0835 70.8065 12.6092 69.8142 11.6608C68.8219 10.7123 68.3254 9.47605 68.3248 7.95199C68.3248 6.41488 68.8213 5.15609 69.8142 4.17562C70.8071 3.19514 72.0695 2.70609 73.6012 2.70846H79.8673C80.0452 2.48883 80.7503 1.06169 82.6807 -0.00088501H72.4C70.5759 0.206592 69.0418 0.899561 67.7975 2.07803C67.0396 2.79075 66.4511 3.6643 66.0752 4.63444V10.8463C66.4592 11.8607 67.0541 12.782 67.8207 13.5494C69.088 14.8298 70.6346 15.5768 72.4604 15.7902H82.6798C80.7868 14.6831 80.1892 13.2417 80.0549 13.0835Z" fill="#170D26"/>
<path d="M64.8899 0H62.0374V15.7902H64.8899V0Z" fill="#170D26"/>
<path d="M35.8171 1.53741C35.5843 1.13955 35.2784 0.789289 34.9155 0.505072C34.4833 0.167181 34.0669 -0.00206224 33.6662 -0.00265503C33.2957 -0.00265503 32.8807 0.175182 32.4213 0.530856C32.0605 0.808136 31.7537 1.14931 31.5161 1.53741L22.9115 15.7857H26.446L33.5986 4.09293L36.3479 8.62778H32.1634L30.4989 11.3371H37.9894L40.7067 15.7831L42.9119 13.577L35.8171 1.53741Z" fill="#170D26"/>
<path d="M21.1144 1.53739C21.0152 1.14021 20.8088 0.777891 20.5178 0.489933C20.1825 0.170715 19.8153 0.00977342 19.4196 0.00977342C18.8227 0.00977342 18.258 0.51898 17.7257 1.53739L12.4795 11.7221L7.2529 1.53739C6.71939 0.51898 6.15476 0.00977342 5.559 0.00977342C5.35638 0.00912401 5.15568 0.0490734 4.96875 0.127266C4.78182 0.205458 4.61245 0.320309 4.47064 0.465036C4.16569 0.753852 3.95418 1.12733 3.86332 1.53739L0.36438 15.7901H3.45697L5.69949 4.92786L10.9457 14.9534C11.3108 15.6523 11.8444 16.0015 12.5462 16.0009C13.1686 16.0009 13.6595 15.6594 14.0125 14.9756L19.2587 4.92786L21.527 15.7901L23.7135 12.164L21.1144 1.53739Z" fill="#170D26"/>
<path d="M42.4264 0L50.1454 7.90664L42.4051 15.7902H46.3948L51.9896 10.0407L57.5621 15.7902H61.551L46.3006 0H42.4264Z" fill="#170D26"/>
<path d="M61.5288 0H57.6795L52.7392 5.04435L54.6749 7.04146L61.5288 0Z" fill="#170D26"/>
</g>
<defs>
<clipPath id="clip0_947_26384">
<rect width="119.151" height="16" fill="white" transform="translate(0.36438)"/>
</clipPath>
</defs>
</svg>
