<svg width="39" height="40" viewBox="0 0 39 40" fill="none" xmlns="http://www.w3.org/2000/svg">
<g clip-path="url(#clip0_947_26394)">
<path d="M10.006 21.342C9.72042 20.2568 9.47682 19.344 9.24082 18.4292C9.05682 17.7156 8.88082 16.9992 8.70402 16.2836C8.40082 15.0644 8.17482 14.8904 6.90402 14.932V0.0332031H18.0516C18.7952 4.85841 20.7204 9.28281 22.5932 13.7172C23.2512 15.2712 24.0912 16.7496 24.8912 18.24C25.0844 18.6 25.0912 18.8312 24.8112 19.114C23.9868 19.9464 23.2088 20.8284 22.348 21.6204C21.3284 22.5588 20.7248 22.4688 19.6964 21.5088C18.6164 20.5016 17.88 19.2588 17.066 18.0572C16.6424 17.4316 16.1176 16.8196 15.506 16.3856C14.2292 15.4784 12.5564 16.1856 11.8936 17.248C11.2308 18.3104 10.786 19.528 10.2504 20.6768C10.1808 20.8324 10.1312 20.9992 10.006 21.342Z" fill="#170D26"/>
<path d="M26.1948 20.5712C27.1844 21.5684 28.1072 22.55 29.0904 23.4676C29.5538 23.9025 30.0833 24.2611 30.6592 24.53C30.9536 24.6644 31.472 24.6196 31.7392 24.4368C32.1592 24.148 32.0928 23.6288 31.7684 23.2716C31.1284 22.5668 30.422 21.924 29.7684 21.2316C29.1436 20.566 28.5592 19.8624 27.9448 19.1864C27.6592 18.8724 27.8096 18.6316 28.0088 18.358C29.2844 16.604 30.3044 14.7252 30.816 12.598C31.5176 9.6828 31.096 6.9636 29.5152 4.39319C28.5432 2.81319 27.5152 1.29959 25.9772 0.0383911H33.2944V25.71H6.91722V19.104L6.96802 19.0844C7.13082 19.6992 7.24482 20.332 7.46642 20.9244C7.91002 22.112 8.36842 23.2984 8.90922 24.4444C9.16802 24.992 9.69002 25.316 10.366 25.312C10.966 25.308 11.3476 25.0744 11.5164 24.4868C11.8576 23.3 12.1936 22.1108 12.5696 20.9348C12.7624 20.3312 12.9768 19.7196 13.2896 19.1716C13.834 18.2116 14.604 18.1716 15.2584 19.0668C15.8584 19.8848 16.29 20.8372 16.9576 21.5868C17.7944 22.526 18.7476 23.3808 19.7436 24.1516C20.3836 24.6464 21.1736 24.4788 21.9036 24.1396C23.6052 23.3504 24.8784 22.0528 26.0956 20.6828C26.1476 20.6236 26.1992 20.5644 26.1948 20.5712Z" fill="#170D26"/>
<path d="M20.1404 0.00202568C21.084 0.00202568 21.8772 -0.00597427 22.67 0.0108257C22.79 0.0132257 22.9212 0.115226 23.03 0.194426C25.63 2.08283 27.5608 4.47163 28.4464 7.60323C29.1992 10.2648 28.5968 12.7704 27.4464 15.1892C27.1764 15.7572 26.8388 16.2932 26.436 16.8492C23.9232 11.4072 21.4752 5.96843 20.1404 0.00202568Z" fill="#170D26"/>
<path d="M0.997225 32.536H1.94282C1.94282 32.9408 1.94282 33.3456 1.92922 33.8316C2.34763 32.8868 3.33362 32.3064 4.63043 32.3332C6.88563 32.3604 7.68283 33.8992 7.68283 35.6672V39.7976H6.69683V35.8696C6.69683 34.304 5.99443 33.238 4.36003 33.2648C2.86122 33.2784 1.99683 34.1824 1.99683 35.6944V39.7976H0.996824L0.997225 32.536Z" fill="#170D26"/>
<path d="M16.9072 39.7976H15.9072V38.2996C15.34 39.3928 14.2324 40 12.936 40C10.5724 40 9.16762 38.1644 9.16762 36.1668C9.16762 34.034 10.7208 32.3332 12.936 32.3332C14.4892 32.3332 15.556 33.238 15.9072 34.0612V32.536H16.9072V39.7976ZM10.154 36.1804C10.1676 37.4896 11.074 39.0688 13.0712 39.0688C14.3544 39.0688 15.2996 38.3264 15.6916 37.3004C15.8533 36.9396 15.9361 36.5485 15.9344 36.1532C15.9484 35.754 15.8699 35.357 15.7048 34.9932C15.2996 33.9932 14.3272 33.252 13.0444 33.252C11.3696 33.252 10.154 34.548 10.154 36.1676V36.1804Z" fill="#170D26"/>
<path d="M18.8512 29.8112H19.8512V31.2016H18.8512V29.8112ZM18.8512 32.538H19.8512V39.7976H18.8512V32.538Z" fill="#170D26"/>
<path d="M21.7956 29.8112H22.7956V39.7976H21.7956V29.8112Z" fill="#170D26"/>
<path d="M24.7264 29.8112H25.7264V31.2016H24.7264V29.8112ZM24.7264 32.538H25.7264V39.7976H24.7264V32.538Z" fill="#170D26"/>
<path d="M28.238 33.3312H26.806V32.536H28.238V29.8112H29.2236V32.538H30.8176V33.3312H29.2236V39.7976H28.238V33.3312Z" fill="#170D26"/>
<path d="M31.952 36.4512C32.006 38.2732 33.5592 39.1504 34.788 39.1372C35.908 39.1372 36.814 38.5836 37.2868 37.6388H38.3268C37.9892 38.422 37.476 39.0156 36.8544 39.4072C36.237 39.7997 35.5196 40.0058 34.788 40.0008C32.2624 40.0008 30.9524 37.99 30.9524 36.1812C30.9524 34.0484 32.6 32.334 34.7748 32.334C35.8012 32.334 36.7464 32.6988 37.4352 33.36C37.8459 33.7558 38.1615 34.2397 38.3583 34.7751C38.5551 35.3105 38.6278 35.8836 38.5712 36.4512H31.952ZM37.584 35.6548C37.5164 34.3856 36.2872 33.144 34.788 33.1844C33.2216 33.1844 32.06 34.332 31.9652 35.6548H37.584Z" fill="#170D26"/>
</g>
<defs>
<clipPath id="clip0_947_26394">
<rect width="37.5896" height="40" fill="white" transform="translate(0.997223)"/>
</clipPath>
</defs>
</svg>
