<svg width="99" height="24" viewBox="0 0 99 24" fill="none" xmlns="http://www.w3.org/2000/svg">
<g clip-path="url(#clip0_947_26398)">
<path d="M6.80267 2.89636V7.90651L2.90375 2.89636H0.453003V12.3734H3.05228V7.17486L7.1011 12.3734H9.40332V2.89636H6.80267Z" fill="#170D26"/>
<path d="M17.0004 8.23104C17.0004 9.55819 16.3127 10.1812 15.2538 10.1812C14.1948 10.1812 13.5058 9.53068 13.5058 8.16365V2.89633H10.8391V8.21729C10.8391 11.1824 12.5321 12.5494 15.2263 12.5494C17.9204 12.5494 19.667 11.2099 19.667 8.14852V2.89496H17.0004V8.23104Z" fill="#170D26"/>
<path d="M28.5926 2.89636H20.2791V5.19858H23.1218V12.3734H25.7485V5.19858H28.5926V2.89636Z" fill="#170D26"/>
<path d="M31.8891 9.50318H33.0402L34.9491 12.3734H37.9816L35.7152 9.06584C36.8938 8.56524 37.6653 7.60392 37.6653 6.15575V6.12825C37.6653 5.19443 37.382 4.46278 36.8264 3.92092C36.1896 3.27041 35.1871 2.89221 33.7389 2.89221H29.2637V12.3693H31.8891V9.50318ZM31.8891 5.17105H33.6096C34.4898 5.17105 35.0303 5.55063 35.0303 6.29465V6.32216C35.0303 7.0098 34.5159 7.44576 33.622 7.44576H31.8891V5.17105Z" fill="#170D26"/>
<path d="M41.4693 2.89636H38.8288V12.3734H41.4693V2.89636Z" fill="#170D26"/>
<path d="M44.9873 12.3748H47.6127V5.19858H50.4568V2.89636H42.1432V5.19858H44.9873V12.3748Z" fill="#170D26"/>
<path d="M53.7919 2.89636H51.1513V12.3734H53.7919V2.89636Z" fill="#170D26"/>
<path d="M59.9627 12.5645C62.8866 12.5645 65.0801 10.3572 65.0801 7.63555V7.60804C65.0801 4.88636 62.9141 2.70654 59.9916 2.70654C57.0691 2.70654 54.8728 4.91387 54.8728 7.63555V7.66168C54.8728 10.3834 57.0402 12.5645 59.9613 12.5645H59.9627ZM57.5642 7.61354C57.5642 6.24651 58.5269 5.08165 59.9613 5.08165C61.3958 5.08165 62.3956 6.26852 62.3956 7.63555V7.66168C62.3956 9.03008 61.4329 10.1936 59.9861 10.1936C58.5393 10.1936 57.5615 9.00257 57.5615 7.63555L57.5642 7.61354Z" fill="#170D26"/>
<path d="M72.4957 7.9065L68.5967 2.89636H66.146V12.3748H68.7453V7.17486L72.7941 12.3748H75.0949V2.89636H72.4957V7.9065Z" fill="#170D26"/>
<path d="M31.9276 17.9337C30.6142 17.6366 30.2897 17.4468 30.2897 17.0136V16.9875C30.2897 16.6478 30.6005 16.3782 31.2372 16.3782C32.0762 16.3782 33.0251 16.7028 33.8901 17.312L35.2049 15.4568C34.1748 14.6316 32.9164 14.197 31.3046 14.197C29.0299 14.197 27.6354 15.4692 27.6354 17.2295V17.257C27.6354 19.2058 29.1922 19.7752 31.2111 20.2359C32.497 20.5343 32.8092 20.7502 32.8092 21.1436V21.1683C32.8092 21.5809 32.4296 21.8188 31.7255 21.8188C30.6252 21.8188 29.5869 21.4269 28.6531 20.6815L27.1884 22.4294C28.3533 23.4719 29.9513 24 31.6292 24C33.9314 24 35.4621 22.8489 35.4621 20.9125V20.8933C35.4621 19.1191 34.1074 18.4178 31.9276 17.9405" fill="#170D26"/>
<path d="M41.2617 18.0299L39.0007 14.3593H36.2254V23.8377H38.7972V18.4205L41.208 22.1035H41.2617L43.6863 18.3944V23.8377H46.2993V14.3593H43.524L41.2617 18.0299Z" fill="#170D26"/>
<path d="M50.9024 14.2919L46.8673 23.8377H49.6302L50.3069 22.1448H53.9624L54.65 23.8377H57.4666L53.4343 14.2919H50.9024ZM51.0784 20.1011L52.1484 17.4069L53.2046 20.1011H51.0784Z" fill="#170D26"/>
<path d="M66.4458 17.6228V17.5926C66.4458 16.6587 66.1611 15.9271 65.6055 15.3921C64.9701 14.7416 63.9676 14.3634 62.5194 14.3634H58.0374V23.8418H60.6641V20.9675H61.8153L63.7241 23.8377H66.758L64.4957 20.537C65.6729 20.0364 66.4458 19.0751 66.4458 17.6269V17.6228ZM63.8053 17.7892C63.8053 18.4769 63.2909 18.9128 62.397 18.9128H60.6641V16.6299H62.3846C63.2634 16.6299 63.8053 17.0094 63.8053 17.7535V17.7892Z" fill="#170D26"/>
<path d="M66.9134 16.6615H69.7575V23.8377H72.3843V16.6615H75.227V14.3593H66.9134V16.6615Z" fill="#170D26"/>
<path d="M98.5366 3.00358C99.6258 1.22397 96.3966 -1.13876 95.3211 0.618847C94.3905 2.13716 93.465 3.65501 92.5444 5.1724C91.4957 4.62126 90.3482 4.28332 89.1681 4.17807C83.7193 3.74761 77.7093 9.19096 76.6215 14.3675C76.4839 15.0221 77.9184 16.1348 78.0628 15.4499C78.9306 11.324 82.6136 7.83631 86.3928 6.30288C88.2632 5.54372 90.2092 5.49283 91.9531 6.15847C90.8295 8.0371 89.7265 9.92811 88.6648 11.8411C87.8823 10.4232 85.206 9.87585 85.1592 11.8838C85.1083 14.0732 85.3765 16.2503 85.3985 18.437C85.4178 20.2152 88.1752 21.4928 89.0567 19.6486C90.8845 15.8253 92.9832 12.1643 95.1602 8.54045C96.6332 10.3668 97.3772 12.7956 97.0196 15.1143C96.2673 20.013 90.6617 22.7732 86.1549 22.4899C83.6918 22.3345 81.4239 21.1366 80.3952 18.8564C79.1974 16.2049 80.8078 13.5025 82.5957 11.5812C83.0757 11.0655 81.7623 9.76308 81.2974 10.2651C79.3266 12.383 77.9005 15.0785 78.8219 18.0024C79.5907 20.4325 81.435 22.2369 83.7537 23.2119C89.2548 25.5265 96.8188 22.5724 98.3921 16.5817C99.2173 13.4351 97.9686 10.0546 95.731 7.61489C96.6634 6.0755 97.6023 4.53839 98.5475 3.00358" fill="#170D26"/>
</g>
<defs>
<clipPath id="clip0_947_26398">
<rect width="98.305" height="24" fill="white" transform="translate(0.453003)"/>
</clipPath>
</defs>
</svg>
