<svg width="107" height="40" viewBox="0 0 107 40" fill="none" xmlns="http://www.w3.org/2000/svg">
<g clip-path="url(#clip0_947_26388)">
<path d="M57.6276 29.296C57.5796 29.376 57.5316 29.44 57.4676 29.52C57.3396 29.68 57.2116 29.84 57.0516 29.968C56.8596 30.112 56.6356 30.208 56.3956 30.272C56.1076 30.352 55.8036 30.352 55.5156 30.32C55.1956 30.288 54.8916 30.192 54.6356 29.984C54.3956 29.792 54.2356 29.536 54.1716 29.216C54.1076 28.96 54.1076 28.688 54.1556 28.416C54.2196 28.064 54.4116 27.808 54.6996 27.6C54.8436 27.504 55.0196 27.424 55.1796 27.376C55.4996 27.264 55.8196 27.216 56.1556 27.184C56.2996 27.168 56.4436 27.152 56.5876 27.136C56.7636 27.104 56.9556 27.088 57.1316 27.056C57.3556 27.024 57.4996 26.88 57.5636 26.656C57.5956 26.496 57.5956 26.336 57.5796 26.176C57.5636 26.064 57.5476 25.968 57.4836 25.856C57.3556 25.6 57.1476 25.456 56.8756 25.392C56.5876 25.312 56.2996 25.312 56.0116 25.344C55.8036 25.36 55.5956 25.44 55.4196 25.552C55.1476 25.728 55.0196 25.968 54.9716 26.272C54.9556 26.352 54.9556 26.432 54.9396 26.496C54.9236 26.512 54.9076 26.528 54.8916 26.528C54.7156 26.544 54.5236 26.528 54.3316 26.528C54.3316 26.496 54.3156 26.464 54.3156 26.448C54.3316 26.224 54.3796 26 54.4596 25.792C54.6516 25.344 54.9716 25.056 55.4196 24.912C55.8356 24.768 56.2676 24.736 56.7156 24.8C56.9236 24.832 57.1476 24.864 57.3396 24.96C57.7236 25.136 57.9636 25.424 58.0916 25.808C58.1556 26 58.1876 26.192 58.1876 26.384C58.1876 26.896 58.1876 27.392 58.1876 27.904C58.1876 28.352 58.1876 28.8 58.1876 29.232C58.1876 29.312 58.1876 29.376 58.2196 29.44C58.2676 29.536 58.3316 29.6 58.4276 29.6C58.4916 29.6 58.5556 29.6 58.6196 29.6C58.6516 29.6 58.6836 29.6 58.7156 29.584C58.7476 29.68 58.7636 29.872 58.7316 30.08C58.7156 30.096 58.6996 30.112 58.6836 30.112C58.4756 30.16 58.2676 30.16 58.0596 30.112C57.8516 30.048 57.7236 29.904 57.6756 29.696C57.6436 29.6 57.6436 29.488 57.6276 29.392C57.6276 29.36 57.6276 29.312 57.6276 29.28C57.6436 29.296 57.6276 29.296 57.6276 29.296ZM57.5956 27.344C57.5476 27.376 57.5156 27.408 57.4836 27.424C57.4516 27.44 57.4196 27.456 57.3876 27.472C57.3556 27.488 57.3076 27.504 57.2596 27.504C57.1796 27.52 57.0996 27.536 57.0356 27.552C56.7156 27.6 56.3956 27.648 56.0916 27.696C55.8836 27.728 55.6916 27.776 55.4996 27.84C55.3076 27.904 55.1476 28 55.0036 28.128C54.9236 28.208 54.8596 28.288 54.8276 28.384C54.6996 28.768 54.7636 29.104 55.0356 29.408C55.2756 29.664 55.5796 29.776 55.9316 29.76C56.1076 29.76 56.2836 29.728 56.4436 29.68C57.1476 29.488 57.6116 28.896 57.6276 28.16C57.6276 27.92 57.6276 27.664 57.6276 27.424C57.6116 27.408 57.5956 27.392 57.5956 27.344Z" fill="#170D26"/>
<path d="M78.7636 29.616C78.7956 29.728 78.7956 29.984 78.7636 30.128C78.6996 30.16 78.6356 30.176 78.5716 30.176C78.4596 30.176 78.3476 30.192 78.2356 30.176C77.9636 30.16 77.7236 29.984 77.6756 29.648C77.6596 29.552 77.6596 29.456 77.6436 29.36C77.6436 29.344 77.6276 29.328 77.6116 29.296C77.5796 29.344 77.5476 29.376 77.5316 29.408C77.4196 29.536 77.3236 29.68 77.2116 29.792C76.9716 30.048 76.6836 30.192 76.3476 30.272C76.0756 30.336 75.7876 30.336 75.5156 30.304C75.2916 30.288 75.0675 30.224 74.8595 30.128C74.5235 29.952 74.2995 29.696 74.1875 29.328C74.1075 29.072 74.0915 28.832 74.1235 28.56C74.1395 28.48 74.1395 28.4 74.1555 28.336C74.2355 27.984 74.4595 27.744 74.7475 27.568C74.9235 27.456 75.1155 27.392 75.3075 27.344C75.5795 27.264 75.8516 27.232 76.1236 27.2C76.2676 27.184 76.4116 27.168 76.5396 27.152C76.7316 27.12 76.9076 27.104 77.0996 27.072C77.3716 27.024 77.5156 26.832 77.5316 26.592C77.5476 26.4 77.5476 26.224 77.4996 26.032C77.4196 25.76 77.2436 25.568 76.9716 25.456C76.8436 25.408 76.6996 25.376 76.5556 25.36C76.3796 25.344 76.2035 25.344 76.0115 25.36C75.7875 25.376 75.5635 25.44 75.3715 25.568C75.1315 25.712 75.0035 25.92 74.9395 26.176C74.9075 26.288 74.8915 26.416 74.8755 26.544C74.7955 26.576 74.6835 26.56 74.5875 26.56C74.4915 26.56 74.3955 26.56 74.2835 26.56C74.2835 26.528 74.2675 26.496 74.2675 26.464C74.2995 26.208 74.3475 25.952 74.4595 25.728C74.6515 25.344 74.9555 25.088 75.3715 24.944C75.7875 24.8 76.2196 24.768 76.6676 24.816C76.8436 24.832 77.0196 24.864 77.1956 24.928C77.6916 25.104 77.9796 25.456 78.0916 25.952C78.1236 26.096 78.1396 26.24 78.1396 26.384C78.1396 27.056 78.1396 27.728 78.1396 28.416C78.1396 28.688 78.1396 28.944 78.1396 29.216C78.1396 29.296 78.1396 29.376 78.1716 29.44C78.2036 29.536 78.2676 29.6 78.3636 29.616C78.4276 29.632 78.4916 29.648 78.5716 29.632C78.6996 29.616 78.7316 29.616 78.7636 29.616ZM77.5956 27.376C77.5636 27.376 77.5636 27.376 77.5476 27.376C77.4516 27.456 77.3396 27.488 77.2116 27.52C76.9236 27.568 76.6356 27.616 76.3476 27.664C76.0596 27.712 75.7716 27.76 75.4996 27.856C75.3075 27.92 75.1315 28.016 74.9875 28.144C74.8915 28.224 74.8275 28.32 74.7955 28.448C74.7795 28.512 74.7635 28.576 74.7635 28.64C74.7315 28.944 74.8115 29.216 75.0195 29.44C75.2595 29.696 75.5475 29.792 75.8836 29.792C76.1396 29.792 76.3796 29.744 76.6196 29.648C77.2276 29.376 77.5636 28.912 77.5956 28.256C77.6116 27.984 77.5956 27.712 77.5956 27.44C77.5956 27.408 77.5956 27.392 77.5956 27.376Z" fill="#170D26"/>
<path d="M32.5235 28.448C32.7315 28.448 32.9235 28.448 33.1155 28.448C33.1155 28.48 33.1315 28.496 33.1155 28.512C33.0515 28.8 32.9395 29.088 32.7955 29.36C32.5875 29.712 32.2995 30 31.9155 30.16C31.6755 30.256 31.4355 30.304 31.1795 30.32C31.0355 30.32 30.9075 30.336 30.7635 30.32C30.0755 30.272 29.5316 29.984 29.1476 29.408C28.9716 29.136 28.8596 28.832 28.7796 28.512C28.6676 28.048 28.6516 27.584 28.6996 27.12C28.7476 26.576 28.9076 26.048 29.2436 25.6C29.5796 25.152 30.0116 24.88 30.5715 24.8C30.8755 24.752 31.1795 24.768 31.4835 24.832C31.8995 24.928 32.2195 25.152 32.4915 25.456C32.7315 25.728 32.8755 26.032 32.9875 26.368C33.0995 26.752 33.1475 27.152 33.1635 27.536C33.1635 27.712 33.1635 27.712 32.9875 27.712C31.9155 27.712 30.8435 27.712 29.7716 27.712C29.6276 27.712 29.4836 27.712 29.3396 27.712C29.3236 27.744 29.3076 27.76 29.3076 27.776C29.3236 28.288 29.4356 28.768 29.7556 29.184C29.8835 29.344 30.0436 29.472 30.2196 29.584C30.4115 29.696 30.6035 29.744 30.8115 29.76C31.0675 29.776 31.3235 29.744 31.5635 29.664C31.8515 29.568 32.0595 29.36 32.2355 29.104C32.3315 28.944 32.4115 28.768 32.4755 28.592C32.4915 28.56 32.5075 28.512 32.5235 28.448ZM29.3236 27.184C29.3876 27.184 29.4356 27.184 29.4836 27.184C30.4435 27.184 31.3875 27.184 32.3475 27.184C32.3795 27.184 32.4115 27.184 32.4435 27.184C32.4755 27.184 32.5075 27.168 32.5235 27.168C32.5235 27.008 32.5075 26.848 32.4755 26.688C32.4115 26.432 32.3155 26.192 32.1715 25.968C31.9955 25.712 31.7555 25.52 31.4675 25.408C31.2755 25.328 31.0835 25.312 30.8915 25.328C30.7315 25.328 30.5715 25.36 30.4275 25.408C30.1555 25.52 29.9315 25.696 29.7556 25.936C29.5476 26.208 29.4356 26.512 29.3716 26.832C29.3396 26.944 29.3076 27.056 29.3236 27.184Z" fill="#170D26"/>
<path d="M37.0036 30.144C36.8916 30.176 36.5556 30.176 36.3956 30.16C36.3796 30.048 36.3636 26.848 36.3796 25.072C36.3796 25.024 36.3796 24.976 36.3796 24.928C36.5076 24.896 36.8276 24.896 36.9716 24.928C37.0036 25.056 36.9876 25.2 36.9876 25.328C36.9876 25.456 36.9716 25.6 36.9876 25.728C37.0356 25.744 37.0356 25.712 37.0516 25.696C37.1156 25.552 37.2116 25.424 37.3236 25.312C37.5956 25.04 37.8996 24.864 38.2836 24.8C38.7156 24.72 39.1316 24.768 39.5316 24.928C39.9476 25.104 40.2036 25.424 40.3316 25.84C40.4116 26.08 40.4276 26.336 40.4436 26.592C40.4436 26.688 40.4436 26.784 40.4436 26.88C40.4436 27.92 40.4436 28.96 40.4436 29.984C40.4436 30.032 40.4436 30.08 40.4436 30.128C40.3796 30.176 40.2996 30.144 40.2356 30.16C40.1716 30.16 40.1076 30.16 40.0436 30.16C39.9796 30.16 39.9156 30.16 39.8356 30.16C39.8036 30.112 39.8036 30.048 39.8036 30C39.8036 29.408 39.8036 28.816 39.8036 28.224C39.8036 27.808 39.8036 27.392 39.8036 26.96C39.8036 26.72 39.8036 26.464 39.7396 26.224C39.6596 25.888 39.4996 25.616 39.1956 25.44C39.0676 25.376 38.9236 25.328 38.7796 25.312C38.6196 25.296 38.4756 25.296 38.3156 25.312C38.0436 25.344 37.8036 25.44 37.5956 25.616C37.3396 25.824 37.1796 26.112 37.0836 26.432C37.0036 26.672 36.9876 26.928 36.9876 27.184C36.9876 28.112 36.9876 29.024 36.9876 29.952C37.0036 30.032 37.0036 30.096 37.0036 30.144Z" fill="#170D26"/>
<path d="M70.4916 26.56C70.4596 26.448 70.4276 26.352 70.3956 26.256C70.3476 26.112 70.2676 25.968 70.1876 25.84C70.0116 25.6 69.8036 25.44 69.4996 25.376C69.1636 25.296 68.8276 25.296 68.4916 25.424C68.2196 25.536 67.9956 25.712 67.8196 25.952C67.6276 26.192 67.5156 26.464 67.4356 26.752C67.3236 27.136 67.3076 27.52 67.3556 27.904C67.4036 28.32 67.5316 28.72 67.7716 29.072C67.9476 29.328 68.1716 29.536 68.4756 29.664C69.1156 29.936 69.8036 29.76 70.2196 29.184C70.3636 28.976 70.4756 28.752 70.5076 28.496C70.5236 28.432 70.5396 28.368 70.5556 28.304C70.6836 28.272 70.9876 28.272 71.1476 28.304C71.1476 28.32 71.1636 28.336 71.1636 28.336C71.0996 28.704 71.0036 29.072 70.7956 29.392C70.5396 29.808 70.1716 30.096 69.6916 30.224C69.5316 30.272 69.3716 30.304 69.2116 30.304C69.1476 30.304 69.0676 30.304 69.0036 30.304C68.2996 30.288 67.7396 30 67.3076 29.456C67.0676 29.152 66.9236 28.816 66.8276 28.448C66.7156 28 66.6996 27.552 66.7476 27.088C66.8116 26.528 66.9876 26.016 67.3396 25.584C67.6916 25.152 68.1396 24.896 68.6996 24.8C69.0676 24.736 69.4196 24.752 69.7716 24.864C70.3476 25.04 70.7636 25.392 70.9715 25.968C71.0355 26.144 71.0676 26.304 71.0996 26.48C71.0996 26.496 71.0996 26.528 71.0996 26.544C70.9716 26.576 70.6836 26.592 70.4916 26.56Z" fill="#170D26"/>
<path d="M44.3635 25.488C44.0595 25.472 43.7875 25.488 43.5155 25.472C43.4835 25.344 43.4835 25.056 43.5155 24.928C43.6595 24.912 43.8035 24.928 43.9315 24.912C44.0595 24.912 44.2035 24.928 44.3315 24.896C44.3795 24.848 44.3635 24.784 44.3635 24.736C44.3635 24.336 44.3635 23.936 44.3635 23.52C44.3635 23.456 44.3635 23.408 44.3635 23.36C44.4755 23.328 44.7795 23.328 44.9555 23.344C44.9875 23.392 44.9715 23.456 44.9715 23.504C44.9715 23.904 44.9715 24.304 44.9715 24.72C44.9715 24.768 44.9715 24.816 44.9715 24.864C45.0195 24.912 45.0675 24.896 45.1155 24.896C45.3395 24.896 45.5795 24.896 45.8035 24.896C45.8515 24.896 45.8995 24.896 45.9635 24.896C46.0115 24.992 45.9795 25.072 45.9795 25.168C45.9795 25.248 45.9795 25.328 45.9795 25.408C45.9315 25.456 45.8995 25.456 45.8515 25.456C45.6115 25.456 45.3715 25.456 45.1315 25.456C45.0835 25.456 45.0195 25.456 44.9715 25.472C44.9715 25.504 44.9715 25.536 44.9715 25.568C44.9715 26.688 44.9715 27.792 44.9715 28.912C44.9715 29.04 44.9875 29.152 44.9875 29.28C44.9875 29.296 44.9875 29.312 44.9875 29.328C45.0195 29.504 45.1155 29.632 45.3075 29.664C45.4515 29.696 45.5955 29.68 45.7555 29.664C45.8195 29.664 45.8835 29.632 45.9635 29.664C45.9955 29.744 45.9795 29.84 45.9795 29.92C45.9795 30 45.9795 30.08 45.9795 30.176C45.9475 30.192 45.9155 30.192 45.8995 30.208C45.6915 30.208 45.4835 30.224 45.2755 30.224C45.1155 30.224 44.9715 30.192 44.8275 30.128C44.6195 30.048 44.4755 29.904 44.4115 29.68C44.3475 29.488 44.3315 29.28 44.3315 29.072C44.3315 27.936 44.3315 26.784 44.3315 25.648C44.3635 25.6 44.3635 25.552 44.3635 25.488Z" fill="#170D26"/>
<path d="M84.3155 25.504C84.2195 25.504 84.1235 25.52 84.0435 25.52C83.6915 25.552 83.3875 25.68 83.1315 25.904C82.8435 26.144 82.6675 26.448 82.5555 26.8C82.4915 27.024 82.4755 27.264 82.4755 27.504C82.4755 28.336 82.4755 29.184 82.4755 30.016C82.4755 30.064 82.4755 30.112 82.4755 30.16C82.3155 30.192 81.9795 30.176 81.8675 30.16C81.8515 30.048 81.8355 25.344 81.8515 25.024C81.8515 24.992 81.8675 24.976 81.8675 24.944C81.9635 24.912 82.0435 24.928 82.1395 24.928C82.2355 24.928 82.3155 24.928 82.3955 24.928C82.4435 24.976 82.4275 25.024 82.4275 25.072C82.4275 25.36 82.4275 25.648 82.4275 25.936C82.4275 25.968 82.4275 26.016 82.4435 26.048C82.4915 26.048 82.4915 26.016 82.5075 25.984C82.5715 25.856 82.6355 25.728 82.7155 25.616C82.9395 25.28 83.2595 25.056 83.6435 24.928C83.8515 24.864 84.0595 24.848 84.2675 24.848C84.2835 24.848 84.2995 24.864 84.3155 24.864C84.3475 25.008 84.3315 25.36 84.3155 25.504Z" fill="#170D26"/>
<path d="M24.2196 24.944C24.2196 25.328 24.2196 25.712 24.2196 26.096C24.2835 26.08 24.2835 26.032 24.2995 26C24.4275 25.712 24.6035 25.472 24.8435 25.28C25.2115 24.976 25.6275 24.848 26.1075 24.88H26.1235C26.1555 24.992 26.1555 25.376 26.1235 25.504C26.0915 25.504 26.0435 25.52 26.0115 25.52C25.1955 25.52 24.5715 26.08 24.3795 26.768C24.3155 26.992 24.2836 27.216 24.2836 27.456C24.2836 28.128 24.2836 28.784 24.2836 29.456C24.2836 29.664 24.2836 29.872 24.2836 30.064C24.2836 30.112 24.2836 30.144 24.2836 30.192C24.1556 30.208 23.8036 30.208 23.6756 30.192C23.6596 30.064 23.6436 25.424 23.6596 25.04C23.6596 25.008 23.6756 24.992 23.6756 24.96C23.7876 24.912 24.0596 24.912 24.2196 24.944Z" fill="#170D26"/>
<path d="M47.0036 34.8C47.0036 34.8 47.0036 34.816 47.0196 34.832C47.0196 34.848 47.0356 34.864 47.0356 34.896C47.0356 34.928 47.0516 34.944 47.0516 34.96C47.0516 34.976 47.0676 34.992 47.0676 35.008C47.0676 35.088 47.0516 35.184 47.0196 35.28C46.9876 35.392 46.9396 35.504 46.8916 35.632C46.8436 35.76 46.7636 35.872 46.6996 36C46.6196 36.128 46.5396 36.24 46.4596 36.352C46.3796 36.464 46.2836 36.56 46.2036 36.656C46.1076 36.752 46.0276 36.816 45.9316 36.88C45.8996 36.848 45.8676 36.816 45.8196 36.768C45.7716 36.72 45.7236 36.688 45.6756 36.64C45.6276 36.592 45.5796 36.544 45.5316 36.496C45.4836 36.448 45.4356 36.4 45.3876 36.352C45.4516 36.304 45.5316 36.224 45.6116 36.144C45.6916 36.064 45.7716 35.968 45.8676 35.856C45.9476 35.744 46.0436 35.648 46.1236 35.536C46.2036 35.424 46.2836 35.312 46.3316 35.216C46.3956 35.12 46.4436 35.024 46.4756 34.928C46.5076 34.848 46.5236 34.784 46.5076 34.72C46.5076 34.688 46.4916 34.672 46.4756 34.672C46.4596 34.656 46.4276 34.656 46.3956 34.656C46.2516 34.656 46.0916 34.688 45.9156 34.736C45.7396 34.784 45.5476 34.864 45.3396 34.976C45.1476 35.072 44.9396 35.2 44.7316 35.36C44.5236 35.504 44.3476 35.68 44.1556 35.872C43.9796 36.064 43.8196 36.272 43.6756 36.496C43.5316 36.72 43.4356 36.96 43.3556 37.216C43.5156 37.216 43.6596 37.2 43.8036 37.2C43.9476 37.184 44.0916 37.184 44.2196 37.168C44.3476 37.152 44.4756 37.152 44.5876 37.136C44.6996 37.12 44.8276 37.12 44.9396 37.12C45.0036 37.12 45.0676 37.152 45.1316 37.216C45.1956 37.28 45.2596 37.36 45.3236 37.44C45.3876 37.536 45.4356 37.616 45.4676 37.712C45.4996 37.808 45.5316 37.888 45.5316 37.936C45.5316 38.096 45.4836 38.256 45.4036 38.416C45.3236 38.576 45.2116 38.736 45.0676 38.896C44.9236 39.04 44.7636 39.184 44.5876 39.328C44.3956 39.456 44.2036 39.568 44.0116 39.664C43.8036 39.76 43.5956 39.84 43.3876 39.888C43.1796 39.936 42.9716 39.968 42.7796 39.968C42.7476 39.952 42.7156 39.92 42.6836 39.872C42.6516 39.824 42.6036 39.776 42.5556 39.728C42.5076 39.68 42.4596 39.616 42.4116 39.568C42.3636 39.504 42.3156 39.456 42.2676 39.408C42.2196 39.36 42.1876 39.312 42.1556 39.264C42.1236 39.216 42.1076 39.184 42.0916 39.168C42.2196 39.184 42.3636 39.184 42.5396 39.184C42.7156 39.168 42.9076 39.152 43.0996 39.104C43.2916 39.056 43.4996 39.008 43.6916 38.928C43.8836 38.848 44.0756 38.752 44.2516 38.64C44.4276 38.528 44.5716 38.384 44.7156 38.224C44.8436 38.064 44.9396 37.872 45.0036 37.664C44.8756 37.664 44.7476 37.68 44.6516 37.68C44.5396 37.696 44.4436 37.696 44.3476 37.712C44.2516 37.728 44.1396 37.728 44.0436 37.744C43.9316 37.76 43.8196 37.76 43.6916 37.76C43.6436 37.76 43.6116 37.76 43.5636 37.76C43.5156 37.76 43.4676 37.76 43.4196 37.744C43.3716 37.744 43.3236 37.728 43.2756 37.712C43.2276 37.696 43.1956 37.68 43.1636 37.648C43.0996 37.6 43.0356 37.536 42.9876 37.488C42.9236 37.424 42.8756 37.376 42.8276 37.312C42.7796 37.248 42.7476 37.184 42.7156 37.136C42.6836 37.072 42.6676 37.008 42.6676 36.96C42.6676 36.784 42.7156 36.592 42.7956 36.384C42.8756 36.176 43.0036 35.952 43.1636 35.744C43.3236 35.52 43.4996 35.312 43.7076 35.12C43.9156 34.912 44.1396 34.736 44.3956 34.576C44.6356 34.416 44.9076 34.288 45.1796 34.192C45.4516 34.096 45.7236 34.048 46.0116 34.048C46.1076 34.048 46.2036 34.064 46.2836 34.096C46.3636 34.128 46.4436 34.16 46.5076 34.208C46.5716 34.256 46.6356 34.304 46.6836 34.368C46.7316 34.432 46.7796 34.48 46.8276 34.544C46.8756 34.592 46.9076 34.656 46.9396 34.704C46.9556 34.752 46.9876 34.784 47.0036 34.8Z" fill="#170D26"/>
<path d="M46.4115 39.632C46.3635 39.632 46.3155 39.616 46.2355 39.584C46.1715 39.552 46.1075 39.52 46.0435 39.472C45.9795 39.424 45.9315 39.376 45.8835 39.312C45.8355 39.248 45.8195 39.2 45.8195 39.152C45.8515 39.024 45.8835 38.864 45.9475 38.704C45.9955 38.528 46.0595 38.368 46.1075 38.192C46.1715 38.016 46.2195 37.84 46.2835 37.68C46.3475 37.504 46.4115 37.36 46.4595 37.232C46.5075 37.104 46.5555 36.992 46.6035 36.912C46.6355 36.832 46.6675 36.784 46.6835 36.784C46.6995 36.784 46.7475 36.8 46.8115 36.848C46.8755 36.88 46.9555 36.928 47.0355 36.992C47.1155 37.04 47.1795 37.104 47.2435 37.168C47.3075 37.232 47.3395 37.28 47.3395 37.328C47.3395 37.344 47.3395 37.344 47.3395 37.36C47.3395 37.376 47.3395 37.392 47.3235 37.408C47.3075 37.488 47.2755 37.568 47.2275 37.68C47.1955 37.776 47.1475 37.888 47.1155 38C47.0675 38.112 47.0355 38.224 46.9875 38.32C46.9395 38.432 46.9075 38.528 46.8755 38.624C46.8435 38.72 46.8115 38.8 46.7955 38.88C46.7795 38.944 46.7635 39.008 46.7635 39.04C46.7635 39.056 46.7795 39.072 46.7955 39.072C46.8275 39.072 46.8755 39.056 46.9395 39.008C47.0035 38.976 47.0835 38.912 47.1635 38.848C47.2435 38.784 47.3395 38.72 47.4355 38.64C47.5315 38.56 47.6115 38.496 47.7075 38.416C47.7875 38.336 47.8675 38.272 47.9315 38.224C47.9955 38.16 48.0595 38.112 48.0915 38.096C48.1235 38.128 48.1555 38.16 48.1875 38.192C48.2195 38.24 48.2675 38.272 48.2995 38.304C48.2355 38.368 48.1555 38.448 48.0595 38.544C47.9635 38.64 47.8515 38.736 47.7395 38.832C47.6275 38.928 47.4995 39.024 47.3875 39.12C47.2595 39.216 47.1475 39.312 47.0195 39.392C46.9075 39.472 46.7955 39.536 46.6995 39.584C46.5715 39.6 46.4755 39.632 46.4115 39.632ZM48.1875 35.408C48.1875 35.424 48.1715 35.456 48.1555 35.488C48.1395 35.536 48.1075 35.584 48.0915 35.648C48.0595 35.712 48.0275 35.776 47.9955 35.84C47.9635 35.904 47.9315 35.968 47.8995 36.032C47.8675 36.096 47.8355 36.128 47.8035 36.176C47.7715 36.208 47.7555 36.224 47.7395 36.224C47.6915 36.224 47.6275 36.208 47.5475 36.176C47.4675 36.144 47.4035 36.112 47.3235 36.08C47.2595 36.048 47.1955 36 47.1475 35.968C47.0995 35.936 47.0675 35.904 47.0675 35.888C47.0675 35.824 47.0835 35.744 47.1155 35.648C47.1475 35.552 47.1955 35.456 47.2435 35.36C47.2915 35.264 47.3395 35.184 47.3875 35.12C47.4355 35.056 47.4675 35.024 47.4995 35.024C47.5475 35.024 47.6115 35.04 47.6915 35.072C47.7715 35.104 47.8515 35.152 47.9155 35.184C47.9955 35.232 48.0435 35.28 48.1075 35.312C48.1555 35.36 48.1875 35.392 48.1875 35.408Z" fill="#170D26"/>
<path d="M49.2116 37.216C49.1796 37.312 49.1476 37.408 49.0996 37.504C49.0676 37.6 49.0356 37.712 48.9876 37.808C49.1796 37.6 49.3396 37.424 49.4676 37.28C49.5956 37.152 49.7236 37.04 49.8196 36.96C49.9156 36.88 49.9956 36.832 50.0436 36.8C50.1076 36.768 50.1396 36.752 50.1876 36.752C50.2196 36.752 50.2836 36.768 50.3636 36.816C50.4436 36.848 50.5236 36.896 50.6036 36.96C50.6836 37.024 50.7476 37.072 50.8116 37.136C50.8756 37.2 50.8916 37.248 50.8916 37.296C50.8916 37.312 50.8916 37.312 50.8916 37.328C50.8916 37.344 50.8916 37.36 50.8756 37.376C50.8596 37.456 50.8276 37.536 50.7796 37.648C50.7476 37.744 50.6996 37.856 50.6676 37.968C50.6196 38.08 50.5876 38.192 50.5396 38.288C50.4916 38.4 50.4596 38.496 50.4276 38.592C50.3956 38.688 50.3636 38.768 50.3476 38.848C50.3316 38.912 50.3156 38.976 50.3156 39.008C50.3156 39.024 50.3316 39.04 50.3476 39.04C50.3796 39.04 50.4276 39.024 50.4916 38.976C50.5556 38.944 50.6356 38.88 50.7156 38.816C50.7956 38.752 50.8916 38.688 50.9876 38.608C51.0836 38.528 51.1636 38.464 51.2596 38.384C51.3396 38.304 51.4196 38.24 51.4836 38.192C51.5476 38.128 51.6116 38.08 51.6436 38.064C51.6756 38.096 51.7076 38.128 51.7396 38.16C51.7716 38.208 51.8036 38.24 51.8356 38.272C51.7716 38.336 51.6916 38.416 51.5956 38.512C51.4996 38.608 51.3876 38.704 51.2756 38.8C51.1636 38.896 51.0356 38.992 50.9236 39.088C50.7956 39.184 50.6836 39.28 50.5556 39.36C50.4276 39.44 50.3316 39.504 50.2356 39.552C50.1396 39.6 50.0436 39.616 49.9796 39.616C49.9316 39.616 49.8836 39.6 49.8036 39.568C49.7396 39.536 49.6756 39.504 49.6116 39.456C49.5476 39.408 49.4996 39.36 49.4516 39.296C49.4036 39.232 49.3876 39.184 49.3876 39.136C49.4196 39.008 49.4516 38.88 49.4996 38.72C49.5476 38.56 49.5956 38.4 49.6436 38.24C49.6916 38.08 49.7556 37.92 49.8036 37.76C49.8676 37.6 49.9156 37.456 49.9636 37.312L49.9476 37.328C49.8836 37.392 49.8036 37.488 49.7076 37.6C49.5956 37.712 49.4836 37.856 49.3396 38.032C49.2116 38.208 49.0676 38.416 48.9076 38.656C48.7636 38.896 48.6196 39.2 48.4756 39.536C48.4596 39.584 48.4436 39.616 48.4276 39.632C48.4116 39.648 48.3796 39.664 48.3476 39.664C48.2996 39.664 48.2356 39.648 48.1716 39.616C48.1076 39.584 48.0436 39.552 47.9796 39.504C47.9156 39.456 47.8516 39.408 47.7716 39.344C47.6916 39.28 47.6436 39.232 47.5956 39.168C47.5956 39.152 47.6116 39.104 47.6276 39.008C47.6436 38.928 47.6596 38.816 47.6916 38.688C47.7236 38.56 47.7556 38.416 47.8036 38.256C47.8516 38.096 47.8996 37.92 47.9636 37.744C48.0276 37.568 48.0756 37.376 48.1556 37.2C48.2196 37.008 48.2996 36.832 48.3796 36.656C48.5076 36.72 48.6516 36.784 48.7956 36.88C48.9396 37.008 49.0836 37.104 49.2116 37.216Z" fill="#170D26"/>
<path d="M51.9796 39.712C51.9316 39.712 51.8676 39.696 51.8036 39.664C51.7396 39.632 51.6596 39.584 51.5956 39.52C51.5316 39.456 51.4516 39.392 51.3876 39.312C51.3236 39.232 51.2596 39.152 51.2276 39.056C51.2116 39.024 51.1956 38.992 51.1956 38.944C51.1956 38.896 51.1796 38.848 51.1796 38.784C51.1796 38.608 51.2116 38.448 51.2596 38.272C51.3076 38.096 51.3876 37.936 51.4836 37.776C51.5796 37.616 51.6916 37.472 51.8196 37.344C51.9476 37.216 52.0916 37.088 52.2356 36.992C52.3956 36.896 52.5556 36.816 52.7316 36.752C52.9076 36.688 53.0836 36.672 53.2596 36.672C53.2916 36.672 53.3236 36.688 53.3716 36.72C53.4196 36.752 53.4676 36.784 53.5156 36.832C53.5636 36.88 53.6276 36.928 53.6756 36.992C53.7236 37.056 53.7876 37.12 53.8196 37.168C53.8676 37.232 53.8996 37.296 53.9316 37.344C53.9636 37.408 53.9796 37.456 53.9796 37.504C53.9636 37.568 53.9156 37.616 53.8356 37.696C53.7556 37.76 53.6596 37.824 53.5636 37.888C53.4516 37.952 53.3396 38 53.2276 38.032C53.1156 38.064 53.0036 38.096 52.9236 38.096C52.8756 38.096 52.8436 38.08 52.8436 38.048C52.8436 38.016 52.8596 37.968 52.9076 37.904C52.9556 37.84 53.0036 37.776 53.0516 37.696C53.0996 37.616 53.1636 37.536 53.1956 37.472C53.2436 37.392 53.2596 37.328 53.2596 37.28C53.2596 37.248 53.2596 37.232 53.2436 37.216C53.2276 37.2 53.2116 37.184 53.1956 37.184C53.1316 37.184 53.0676 37.216 52.9876 37.28C52.9236 37.344 52.8436 37.424 52.7796 37.52C52.7156 37.616 52.6356 37.728 52.5716 37.856C52.5076 37.984 52.4436 38.112 52.3956 38.24C52.3476 38.368 52.2996 38.512 52.2836 38.64C52.2516 38.768 52.2356 38.896 52.2356 39.008C52.2356 39.072 52.2516 39.12 52.2996 39.152C52.3316 39.184 52.3956 39.184 52.4756 39.184C52.6676 39.184 52.8756 39.152 53.0516 39.088C53.2436 39.024 53.4196 38.928 53.5956 38.832C53.7716 38.72 53.9316 38.608 54.0916 38.48C54.2515 38.352 54.3956 38.224 54.5236 38.08C54.5556 38.112 54.6035 38.16 54.6515 38.192C54.6995 38.224 54.7315 38.256 54.7635 38.288C54.5716 38.48 54.3795 38.672 54.1716 38.848C53.9636 39.024 53.7396 39.168 53.5156 39.312C53.2916 39.44 53.0516 39.552 52.7956 39.616C52.5236 39.68 52.2516 39.712 51.9796 39.712Z" fill="#170D26"/>
<path d="M57.5956 38.288C57.3236 38.56 57.0675 38.784 56.8115 38.96C56.5715 39.136 56.3315 39.296 56.1075 39.392C55.8835 39.504 55.6755 39.584 55.4675 39.632C55.2595 39.68 55.0676 39.696 54.8756 39.696C54.7956 39.696 54.6995 39.664 54.6035 39.6C54.5075 39.536 54.4115 39.472 54.3315 39.376C54.2515 39.296 54.1715 39.2 54.1235 39.104C54.0595 39.008 54.0435 38.928 54.0435 38.864C54.0435 38.624 54.0755 38.4 54.1395 38.192C54.2035 37.984 54.2995 37.808 54.4115 37.632C54.5235 37.472 54.6516 37.328 54.7956 37.2C54.9396 37.072 55.0835 36.976 55.2435 36.88C55.4035 36.8 55.5475 36.736 55.7075 36.688C55.8675 36.64 55.9955 36.624 56.1235 36.624C56.2195 36.624 56.3156 36.656 56.3956 36.704C56.4916 36.752 56.5715 36.816 56.6515 36.896C56.7315 36.976 56.7795 37.056 56.8275 37.136C56.8755 37.216 56.8915 37.296 56.8915 37.36C56.8915 37.456 56.8435 37.568 56.7635 37.664C56.6835 37.776 56.5556 37.872 56.3956 37.984C56.2356 38.096 56.0596 38.208 55.8356 38.32C55.6116 38.432 55.3716 38.544 55.1156 38.672C55.0996 38.736 55.0995 38.816 55.0995 38.88C55.0995 38.976 55.1155 39.04 55.1635 39.072C55.2115 39.104 55.2755 39.12 55.3875 39.12C55.5795 39.12 55.7715 39.088 55.9475 39.024C56.1235 38.96 56.2835 38.88 56.4435 38.768C56.6035 38.656 56.7635 38.544 56.9075 38.416C57.0515 38.288 57.2116 38.144 57.3556 38.016L57.5956 38.288ZM56.0115 37.168C55.9475 37.168 55.8835 37.2 55.8195 37.264C55.7555 37.328 55.6755 37.408 55.6115 37.52C55.5475 37.632 55.4675 37.744 55.4035 37.888C55.3395 38.016 55.2755 38.16 55.2275 38.304C55.3395 38.24 55.4515 38.16 55.5475 38.08C55.6595 38 55.7556 37.92 55.8356 37.824C55.9156 37.728 55.9795 37.648 56.0435 37.552C56.0915 37.456 56.1235 37.36 56.1235 37.28C56.1235 37.248 56.1075 37.232 56.0915 37.216C56.0755 37.168 56.0435 37.168 56.0115 37.168Z" fill="#170D26"/>
<path d="M63.0676 35.328C63.0836 35.344 63.0836 35.376 63.0836 35.424C63.0836 35.472 63.0836 35.504 63.0836 35.552C63.0836 35.776 63.0676 35.984 63.0196 36.176C62.9716 36.384 62.8916 36.576 62.7796 36.784C62.6676 36.976 62.5236 37.184 62.3316 37.376C62.1556 37.568 61.9316 37.776 61.6596 37.968C61.3876 38.176 61.0836 38.384 60.7156 38.592C60.3636 38.8 59.9476 39.024 59.4676 39.264C59.6436 39.248 59.8036 39.216 59.9956 39.168C60.1716 39.136 60.3476 39.088 60.5236 39.056C60.6996 39.024 60.8596 38.976 61.0196 38.928C61.1796 38.88 61.3076 38.848 61.4356 38.816C61.5636 38.784 61.6596 38.752 61.7396 38.736C61.8196 38.72 61.8676 38.704 61.8836 38.704C61.8996 38.704 61.8996 38.704 61.8996 38.72C61.8996 38.736 61.8836 38.752 61.8676 38.8C61.8516 38.832 61.8196 38.88 61.7876 38.944C61.7556 38.992 61.7076 39.056 61.6596 39.12C61.6116 39.184 61.5636 39.248 61.5156 39.328C61.4676 39.392 61.4196 39.456 61.3716 39.52C61.3236 39.584 61.2916 39.632 61.2436 39.68C61.1636 39.68 61.0676 39.68 60.9396 39.696C60.8276 39.696 60.6836 39.696 60.5396 39.712C60.3956 39.712 60.2516 39.712 60.0916 39.728C59.9316 39.728 59.7876 39.728 59.6436 39.744C59.4996 39.744 59.3556 39.744 59.2116 39.76C59.0676 39.76 58.9556 39.76 58.8436 39.776C58.8276 39.76 58.7956 39.728 58.7796 39.68C58.7476 39.648 58.7316 39.6 58.6996 39.552C58.6676 39.504 58.6516 39.456 58.6356 39.408C58.6196 39.36 58.6036 39.312 58.5876 39.28C59.0996 39.056 59.5316 38.816 59.9156 38.56C60.2996 38.32 60.6356 38.064 60.9236 37.824C61.2116 37.584 61.4516 37.328 61.6436 37.088C61.8356 36.848 61.9956 36.608 62.1076 36.368C62.2196 36.128 62.2996 35.904 62.3636 35.696C62.4116 35.488 62.4436 35.28 62.4436 35.088C62.4436 35.072 62.4436 35.056 62.4436 35.024C62.4436 34.992 62.4276 34.976 62.4276 34.96C62.4116 34.944 62.4116 34.928 62.3956 34.912C62.3796 34.896 62.3636 34.896 62.3316 34.896C62.2516 34.896 62.1716 34.912 62.0756 34.96C61.9796 35.008 61.8676 35.072 61.7716 35.136C61.6596 35.216 61.5476 35.296 61.4356 35.408C61.3236 35.52 61.2116 35.616 61.0996 35.728C60.9876 35.84 60.8916 35.952 60.7956 36.064C60.6996 36.176 60.6196 36.288 60.5396 36.4C60.4756 36.512 60.4116 36.608 60.3636 36.688C60.3156 36.784 60.2996 36.848 60.2996 36.912C60.2996 36.928 60.2996 36.944 60.2996 36.96C60.2996 36.976 60.2996 36.976 60.3156 36.976C60.3316 36.976 60.3796 36.944 60.4436 36.896C60.5076 36.848 60.5876 36.768 60.6676 36.688C60.7476 36.608 60.8436 36.512 60.9396 36.4C61.0356 36.288 61.1156 36.192 61.1796 36.08C61.2116 36.112 61.2436 36.144 61.2916 36.192C61.3396 36.24 61.3876 36.288 61.4196 36.32C61.4676 36.368 61.4996 36.416 61.5476 36.448C61.5796 36.48 61.6116 36.512 61.6276 36.528C61.5636 36.624 61.4676 36.72 61.3396 36.816C61.2276 36.912 61.0996 36.992 60.9556 37.056C60.8276 37.12 60.6836 37.184 60.5556 37.232C60.4276 37.28 60.3156 37.296 60.2196 37.296C60.2036 37.296 60.1716 37.28 60.1396 37.264C60.1076 37.248 60.0596 37.216 60.0276 37.168C59.9956 37.136 59.9476 37.088 59.9156 37.04C59.8836 36.992 59.8356 36.96 59.8036 36.912C59.7716 36.864 59.7396 36.832 59.7236 36.8C59.7076 36.768 59.6916 36.752 59.6916 36.736C59.6916 36.56 59.7236 36.384 59.8036 36.208C59.8836 36.032 59.9796 35.856 60.1076 35.696C60.2356 35.536 60.3796 35.376 60.5556 35.232C60.7316 35.088 60.9076 34.96 61.0996 34.864C61.2916 34.768 61.4836 34.672 61.6756 34.624C61.8676 34.56 62.0596 34.528 62.2516 34.528C62.2996 34.528 62.3476 34.56 62.3956 34.592C62.4436 34.624 62.5076 34.672 62.5556 34.72C62.6036 34.768 62.6676 34.832 62.7156 34.896C62.7636 34.96 62.8116 35.024 62.8596 35.088C62.9076 35.152 62.9396 35.2 62.9716 35.248C63.0196 35.264 63.0516 35.296 63.0676 35.328Z" fill="#170D26"/>
<path d="M66.8436 35.216C66.8756 35.328 66.9076 35.44 66.9236 35.568C66.9396 35.68 66.9556 35.824 66.9556 35.952C66.9556 36.144 66.9236 36.352 66.8756 36.576C66.8276 36.8 66.7636 37.024 66.6676 37.248C66.5716 37.472 66.4756 37.696 66.3476 37.92C66.2196 38.144 66.0756 38.352 65.9316 38.544C65.7716 38.736 65.6116 38.928 65.4356 39.104C65.2596 39.28 65.0836 39.424 64.8916 39.552C64.6996 39.68 64.5076 39.776 64.3156 39.84C64.1236 39.904 63.9156 39.952 63.7236 39.952C63.6436 39.952 63.5636 39.92 63.4676 39.856C63.3716 39.792 63.2916 39.728 63.1956 39.648C63.1156 39.568 63.0356 39.472 62.9716 39.392C62.9076 39.296 62.8756 39.216 62.8596 39.152C62.8596 39.136 62.8436 39.12 62.8436 39.088C62.8436 39.056 62.8276 39.008 62.8276 38.976C62.8276 38.928 62.8116 38.88 62.8116 38.832C62.8116 38.784 62.8116 38.736 62.8116 38.704C62.8116 38.56 62.8276 38.4 62.8436 38.24C62.8596 38.08 62.9076 37.904 62.9716 37.728C63.0356 37.552 63.1156 37.36 63.2276 37.168C63.3396 36.976 63.4676 36.768 63.6436 36.56C63.6756 36.544 63.7076 36.544 63.7396 36.528C63.7876 36.512 63.8356 36.512 63.8836 36.496C63.9316 36.48 63.9956 36.48 64.0436 36.464C64.0916 36.448 64.1556 36.448 64.2036 36.432C64.2516 36.192 64.3156 35.968 64.4436 35.744C64.5556 35.52 64.6996 35.328 64.8596 35.152C65.0196 34.976 65.2116 34.832 65.4036 34.72C65.5956 34.608 65.8036 34.56 66.0276 34.56C66.1076 34.56 66.1876 34.592 66.2836 34.64C66.3636 34.688 66.4596 34.752 66.5396 34.832C66.6196 34.912 66.6836 34.976 66.7476 35.072C66.7636 35.072 66.8116 35.152 66.8436 35.216ZM64.2676 37.36C64.2516 37.312 64.2356 37.264 64.2196 37.2C64.2036 37.136 64.1876 37.072 64.1716 36.976C64.0756 37.136 63.9956 37.296 63.8996 37.472C63.8036 37.648 63.7236 37.824 63.6436 38.016C63.5636 38.192 63.5156 38.384 63.4676 38.56C63.4196 38.736 63.4036 38.912 63.4036 39.072C63.4036 39.104 63.4036 39.152 63.4196 39.184C63.4356 39.216 63.4516 39.248 63.4676 39.28C63.4836 39.312 63.5156 39.328 63.5316 39.344C63.5636 39.36 63.5796 39.376 63.5956 39.376C63.7076 39.376 63.8356 39.344 63.9796 39.264C64.1236 39.184 64.2676 39.088 64.4276 38.96C64.5876 38.832 64.7316 38.672 64.8916 38.496C65.0516 38.32 65.1956 38.128 65.3396 37.904C65.4836 37.68 65.6276 37.472 65.7556 37.232C65.8836 36.992 65.9956 36.768 66.0916 36.528C66.1876 36.288 66.2516 36.048 66.3156 35.808C66.3636 35.568 66.3956 35.344 66.3956 35.12C66.3956 35.056 66.3796 34.992 66.3476 34.944C66.3156 34.896 66.2516 34.864 66.1876 34.864C66.0756 34.864 65.9316 34.896 65.7876 34.96C65.6436 35.024 65.5156 35.12 65.3876 35.264C65.2596 35.408 65.1636 35.584 65.0836 35.792C65.0036 36 64.9556 36.256 64.9556 36.56C64.9556 36.672 64.9556 36.768 64.9716 36.864C64.9876 36.96 65.0036 37.056 65.0196 37.12C65.0356 37.2 65.0516 37.264 65.0676 37.312C65.0836 37.36 65.0836 37.392 65.0836 37.408C65.0356 37.424 64.9716 37.424 64.9076 37.424C64.8276 37.424 64.7476 37.424 64.6676 37.408C64.5876 37.392 64.5076 37.392 64.4276 37.376C64.3476 37.376 64.2836 37.36 64.2676 37.36Z" fill="#170D26"/>
<path d="M69.4676 35.12C69.4356 35.2 69.3876 35.312 69.3076 35.472C69.2276 35.632 69.1476 35.824 69.0356 36.048C68.9236 36.272 68.8116 36.512 68.6836 36.768C68.5556 37.024 68.4276 37.296 68.2836 37.568C68.1556 37.84 68.0116 38.096 67.8836 38.352C67.7556 38.608 67.6276 38.848 67.5156 39.072C67.4036 39.296 67.3076 39.488 67.2276 39.648C67.1476 39.808 67.0836 39.92 67.0516 40C67.0356 39.984 67.0036 39.968 66.9396 39.936C66.8916 39.904 66.8436 39.872 66.7796 39.824C66.7316 39.792 66.6676 39.744 66.6196 39.712C66.5716 39.68 66.5396 39.648 66.5076 39.632C66.7156 39.232 66.9236 38.848 67.0996 38.464C67.2756 38.08 67.4516 37.696 67.5956 37.328C67.7556 36.96 67.8996 36.592 68.0276 36.256C68.1556 35.904 68.2836 35.584 68.4116 35.28C68.3316 35.328 68.2516 35.376 68.1716 35.424C68.0916 35.472 68.0276 35.52 67.9636 35.552C67.8996 35.584 67.8356 35.616 67.7876 35.648C67.7396 35.68 67.7076 35.696 67.6916 35.696C67.6756 35.68 67.6596 35.664 67.6276 35.648C67.5956 35.616 67.5636 35.6 67.5316 35.568C67.4996 35.536 67.4676 35.504 67.4516 35.488C67.4196 35.456 67.4196 35.456 67.4196 35.44C67.4356 35.424 67.4676 35.408 67.5316 35.376C67.5796 35.344 67.6436 35.312 67.7236 35.264C67.8036 35.216 67.8836 35.168 67.9796 35.104C68.0756 35.04 68.1716 34.992 68.2516 34.912C68.3476 34.848 68.4436 34.768 68.5396 34.704C68.6356 34.624 68.7156 34.56 68.7956 34.48C68.8436 34.528 68.9076 34.576 68.9716 34.656C69.0356 34.72 69.1156 34.8 69.1796 34.864C69.2436 34.928 69.3076 34.992 69.3556 35.04C69.4196 35.072 69.4516 35.104 69.4676 35.12Z" fill="#170D26"/>
<path d="M72.9235 35.216C72.9555 35.328 72.9875 35.44 73.0035 35.568C73.0195 35.68 73.0355 35.824 73.0355 35.952C73.0355 36.144 73.0035 36.352 72.9555 36.576C72.9075 36.8 72.8435 37.024 72.7475 37.248C72.6515 37.472 72.5555 37.696 72.4275 37.92C72.2995 38.144 72.1555 38.352 72.0115 38.544C71.8515 38.736 71.6915 38.928 71.5155 39.104C71.3395 39.28 71.1635 39.424 70.9715 39.552C70.7795 39.68 70.5875 39.776 70.3955 39.84C70.2035 39.904 69.9955 39.952 69.8035 39.952C69.7235 39.952 69.6435 39.92 69.5475 39.856C69.4515 39.792 69.3715 39.728 69.2755 39.648C69.1955 39.568 69.1155 39.472 69.0515 39.392C68.9875 39.296 68.9555 39.216 68.9395 39.152C68.9395 39.136 68.9235 39.12 68.9235 39.088C68.9235 39.056 68.9075 39.008 68.9075 38.976C68.9075 38.928 68.8915 38.88 68.8915 38.832C68.8915 38.784 68.8915 38.736 68.8915 38.704C68.8915 38.56 68.9075 38.4 68.9235 38.24C68.9395 38.08 68.9875 37.904 69.0515 37.728C69.1155 37.552 69.1955 37.36 69.3075 37.168C69.4195 36.976 69.5475 36.768 69.7235 36.56C69.7555 36.544 69.7875 36.544 69.8195 36.528C69.8675 36.512 69.9155 36.512 69.9635 36.496C70.0115 36.48 70.0755 36.48 70.1235 36.464C70.1715 36.448 70.2355 36.448 70.2835 36.432C70.3315 36.192 70.3955 35.968 70.5235 35.744C70.6355 35.52 70.7795 35.328 70.9395 35.152C71.0995 34.976 71.2915 34.832 71.4835 34.72C71.6755 34.608 71.8835 34.56 72.1075 34.56C72.1875 34.56 72.2675 34.592 72.3635 34.64C72.4435 34.688 72.5395 34.752 72.6195 34.832C72.6995 34.912 72.7635 34.976 72.8275 35.072C72.8595 35.072 72.9075 35.152 72.9235 35.216ZM70.3475 37.36C70.3315 37.312 70.3155 37.264 70.2995 37.2C70.2835 37.136 70.2675 37.072 70.2515 36.976C70.1555 37.136 70.0755 37.296 69.9795 37.472C69.8835 37.648 69.8035 37.824 69.7235 38.016C69.6435 38.192 69.5955 38.384 69.5475 38.56C69.4995 38.736 69.4835 38.912 69.4835 39.072C69.4835 39.104 69.4835 39.152 69.4995 39.184C69.5155 39.216 69.5315 39.248 69.5475 39.28C69.5635 39.312 69.5955 39.328 69.6115 39.344C69.6435 39.36 69.6595 39.376 69.6755 39.376C69.7875 39.376 69.9155 39.344 70.0595 39.264C70.2035 39.184 70.3475 39.088 70.5075 38.96C70.6675 38.832 70.8115 38.672 70.9715 38.496C71.1315 38.32 71.2755 38.128 71.4195 37.904C71.5635 37.68 71.7075 37.472 71.8355 37.232C71.9635 36.992 72.0755 36.768 72.1715 36.528C72.2675 36.288 72.3315 36.048 72.3955 35.808C72.4435 35.568 72.4755 35.344 72.4755 35.12C72.4755 35.056 72.4595 34.992 72.4275 34.944C72.3955 34.896 72.3315 34.864 72.2675 34.864C72.1555 34.864 72.0115 34.896 71.8675 34.96C71.7235 35.024 71.5955 35.12 71.4675 35.264C71.3395 35.408 71.2435 35.584 71.1635 35.792C71.0835 36 71.0355 36.256 71.0355 36.56C71.0355 36.672 71.0355 36.768 71.0515 36.864C71.0675 36.96 71.0835 37.056 71.0995 37.12C71.1155 37.2 71.1315 37.264 71.1475 37.312C71.1635 37.36 71.1635 37.392 71.1635 37.408C71.1155 37.424 71.0515 37.424 70.9875 37.424C70.9075 37.424 70.8275 37.424 70.7475 37.408C70.6675 37.392 70.5875 37.392 70.5075 37.376C70.4275 37.376 70.3795 37.36 70.3475 37.36Z" fill="#170D26"/>
<path d="M17.4195 20.272C11.8675 20.256 7.21154 15.808 7.24354 10.08C7.27554 4.48001 11.7875 -0.0159879 17.4675 1.20546e-05C23.1955 0.0160121 27.6275 4.62401 27.6275 10.128C27.6275 15.728 23.0835 20.272 17.4195 20.272ZM17.4515 1.52001C16.7795 1.50401 16.1395 1.58401 15.5155 1.72801C14.7795 1.88801 14.0915 2.14401 13.4195 2.49601C12.2675 3.08801 11.2915 3.92001 10.4755 4.92801C10.2355 5.21601 10.0275 5.52001 9.83554 5.85601C9.35554 6.73601 8.98754 7.64801 8.79554 8.62401C8.74754 8.88001 8.71554 9.15201 8.74754 9.40801C8.79554 9.68001 8.97154 9.88801 9.32354 9.87201C9.49954 9.85601 9.67554 9.80801 9.85154 9.76001C10.2675 9.63201 10.6675 9.50401 11.0835 9.37601C11.7715 9.16801 12.4275 8.92801 13.0835 8.62401C14.1715 8.12801 15.3075 7.77601 16.5075 7.66401C17.5155 7.56801 18.5075 7.63201 19.4995 7.84001C20.1875 7.98401 20.8595 8.20801 21.4995 8.49601C21.8995 8.67201 22.3155 8.86401 22.7315 9.00801C23.4995 9.28001 24.2835 9.52001 25.0675 9.77601C25.2595 9.84001 25.4515 9.88801 25.6435 9.85601C25.8355 9.84001 25.9795 9.74401 26.0595 9.55201C26.0915 9.47201 26.1075 9.39201 26.1235 9.29601C26.1555 8.99201 26.0915 8.68801 26.0275 8.40001C25.8835 7.76001 25.6595 7.15201 25.3875 6.54401C25.1955 6.11201 24.9875 5.69601 24.7155 5.31201C24.0275 4.33601 23.1795 3.52001 22.1715 2.86401C21.2595 2.27201 20.2675 1.87201 19.2115 1.64801C18.6195 1.55201 18.0275 1.48801 17.4515 1.52001ZM16.3315 15.536C16.3315 15.472 16.3315 15.392 16.3315 15.328C16.3155 15.024 16.3155 14.72 16.2835 14.416C16.2355 14 16.1075 13.616 15.9475 13.232C15.7555 12.768 15.5155 12.32 15.1955 11.92C15.0035 11.664 14.7475 11.472 14.4595 11.36C14.1875 11.264 13.9155 11.2 13.6275 11.2C12.7795 11.184 11.9155 11.2 11.0675 11.344C10.7635 11.392 10.4595 11.472 10.1555 11.568C9.77154 11.712 9.48354 11.952 9.35554 12.336C9.19554 12.8 9.19554 13.28 9.40354 13.728C9.80354 14.624 10.3635 15.408 11.0355 16.112C12.1075 17.248 13.3875 18.048 14.8755 18.528C14.9875 18.56 15.0995 18.576 15.2275 18.576C15.5635 18.576 15.8195 18.448 15.9795 18.144C16.0115 18.096 16.0275 18.048 16.0435 18C16.1555 17.696 16.2035 17.376 16.2515 17.072C16.3155 16.56 16.3315 16.048 16.3315 15.536ZM18.6355 15.536C18.6515 16.048 18.6515 16.544 18.7315 17.056C18.7635 17.312 18.8275 17.584 18.8915 17.84C18.9235 17.968 18.9875 18.096 19.0675 18.224C19.1795 18.416 19.3555 18.528 19.5795 18.56C19.7555 18.592 19.9475 18.576 20.1075 18.528C21.3075 18.144 22.3955 17.536 23.3395 16.704C24.2515 15.888 24.9875 14.944 25.5315 13.856C25.7235 13.472 25.7875 13.072 25.7235 12.656C25.6435 12.176 25.4195 11.808 24.9555 11.616C24.6675 11.488 24.3635 11.408 24.0595 11.36C23.5635 11.264 23.0515 11.216 22.5395 11.2C22.2195 11.2 21.9155 11.2 21.5955 11.184C21.3395 11.184 21.0995 11.2 20.8435 11.264C20.4435 11.36 20.0915 11.552 19.8355 11.872C19.7235 12 19.6275 12.144 19.5315 12.288C19.2595 12.72 19.0355 13.2 18.8755 13.68C18.7795 13.984 18.6995 14.288 18.6835 14.608C18.6515 14.928 18.6515 15.232 18.6355 15.536Z" fill="#170D26"/>
<path d="M78.7475 7.52002C78.8115 7.39202 78.7795 7.29602 78.7795 7.20002C78.7795 7.10402 78.7795 6.99202 78.7795 6.89602C78.7795 6.80002 78.7795 6.68802 78.7795 6.59202C78.7795 6.49602 78.7795 6.38402 78.7795 6.28802C78.7795 6.19202 78.7795 6.08002 78.7795 5.98402C78.7795 5.88802 78.7795 5.77602 78.7795 5.68002C78.7795 5.58402 78.7795 5.47202 78.7795 5.37602C78.7795 5.28002 78.7795 5.16802 78.7795 5.05602C78.8435 5.04002 78.8755 5.02402 78.9235 5.02402C79.7715 5.02402 80.6195 5.02402 81.4675 5.02402C81.5315 5.02402 81.5955 5.04002 81.6435 5.04002C81.6755 5.24802 81.6915 18.8 81.6595 19.568C81.6595 19.6 81.6435 19.648 81.6435 19.68C81.6115 19.696 81.5795 19.712 81.5475 19.712C80.6355 19.712 79.7235 19.712 78.8275 19.712C78.7475 19.632 78.7795 19.552 78.7795 19.472C78.7795 18.8 78.7795 18.128 78.7795 17.456C78.7795 17.392 78.7795 17.328 78.7795 17.28C78.6995 17.264 78.6995 17.328 78.6675 17.36C78.3955 17.824 78.0435 18.24 77.6435 18.592C77.0515 19.12 76.3795 19.488 75.6435 19.744C74.6515 20.08 73.6435 20.192 72.6035 20.112C72.0755 20.08 71.5635 20 71.0515 19.872C69.4995 19.456 68.2035 18.64 67.1955 17.392C66.6035 16.64 66.1555 15.808 65.8835 14.912C65.5475 13.856 65.4355 12.768 65.5315 11.648C65.6275 10.48 65.9475 9.36002 66.5395 8.35202C67.4035 6.83202 68.6675 5.76002 70.3155 5.12002C70.9395 4.88002 71.5955 4.72002 72.2675 4.64002C72.7315 4.59202 73.1955 4.57602 73.6595 4.60802C74.0755 4.64002 74.4915 4.68802 74.8915 4.78402C75.8035 4.99202 76.6355 5.37602 77.3875 5.95202C77.8355 6.28802 78.2195 6.68802 78.5235 7.15202C78.5875 7.24802 78.6515 7.37602 78.7475 7.52002ZM74.0275 17.248C74.4915 17.248 75.0355 17.184 75.5635 17.008C76.4755 16.72 77.2275 16.192 77.7875 15.44C78.4595 14.528 78.7955 13.52 78.8115 12.384C78.8115 11.968 78.7635 11.552 78.6515 11.136C78.5715 10.848 78.4435 10.56 78.3155 10.288C77.8835 9.39202 77.2435 8.70402 76.3635 8.24002C75.6595 7.85602 74.8915 7.68002 74.0915 7.66402C73.5155 7.64802 72.9555 7.71202 72.3955 7.88802C71.2435 8.25602 70.3635 8.94402 69.7555 9.98402C69.4835 10.448 69.2915 10.944 69.1795 11.488C69.1155 11.84 69.0675 12.192 69.0675 12.56C69.0995 13.424 69.3235 14.24 69.7715 14.992C70.3315 15.936 71.1155 16.608 72.1555 16.992C72.7315 17.152 73.3235 17.232 74.0275 17.248Z" fill="#170D26"/>
<path d="M33.4995 19.664C33.2915 19.696 30.9555 19.712 30.6995 19.68C30.6835 19.648 30.6675 19.6 30.6675 19.552C30.6675 19.488 30.6675 19.424 30.6675 19.36C30.6675 14.72 30.6675 10.08 30.6675 5.42401C30.6675 5.32801 30.6675 5.23201 30.6675 5.13601C30.7315 5.12001 30.7635 5.10401 30.8115 5.10401C31.5955 5.10401 32.3795 5.10401 33.1635 5.10401C33.2115 5.10401 33.2595 5.12001 33.3075 5.12001C33.3075 5.20001 33.3235 5.26401 33.3235 5.32801C33.3235 5.87201 33.3235 6.41601 33.3235 6.96001C33.3235 7.02401 33.3075 7.10401 33.3395 7.15201C33.3875 7.16801 33.4035 7.13601 33.4195 7.12001C34.0275 6.00001 34.9875 5.31201 36.1875 4.94401C37.1475 4.64001 38.1395 4.60801 39.1475 4.72001C39.6115 4.76801 40.0595 4.86401 40.5075 5.00801C41.8835 5.45601 42.8755 6.33601 43.4995 7.63201C43.7395 8.14401 43.9155 8.68801 44.0275 9.24801C44.1555 9.87201 44.2035 10.512 44.2035 11.152C44.2035 13.92 44.2035 16.672 44.2035 19.44C44.2035 19.504 44.2035 19.568 44.2035 19.616C44.1395 19.68 44.0595 19.664 43.9955 19.664C43.5635 19.664 43.1315 19.664 42.6995 19.664C42.3475 19.664 41.9955 19.664 41.6435 19.664C41.5635 19.664 41.4835 19.664 41.4035 19.664C41.3875 19.6 41.3715 19.568 41.3715 19.52C41.3715 19.456 41.3715 19.376 41.3715 19.312C41.3715 16.912 41.3715 14.528 41.3715 12.128C41.3715 11.664 41.3555 11.184 41.3075 10.72C41.2275 10.08 41.0675 9.47201 40.7475 8.89601C40.3315 8.17601 39.7235 7.71201 38.9235 7.47201C38.2995 7.29601 37.6755 7.24801 37.0355 7.31201C36.6515 7.34401 36.2515 7.40801 35.8835 7.55201C34.9075 7.88801 34.2355 8.54401 33.8515 9.48801C33.5955 10.128 33.4835 10.8 33.4835 11.472C33.4835 13.776 33.4835 16.096 33.4835 18.4C33.4835 18.72 33.4835 19.056 33.4835 19.376C33.4995 19.504 33.4995 19.584 33.4995 19.664Z" fill="#170D26"/>
<path d="M99.9955 10.384C99.9315 10.4 99.8835 10.4 99.8355 10.4C98.9875 10.4 98.1395 10.4 97.2915 10.4C97.1635 10.4 97.0996 10.352 97.0676 10.24C96.9076 9.85601 96.6995 9.50401 96.4435 9.16801C95.9155 8.48001 95.2275 7.96801 94.4116 7.66401C93.5796 7.34401 92.7316 7.26401 91.8516 7.34401C90.8596 7.44001 90.0276 7.85601 89.2756 8.48001C88.6036 9.04001 88.1716 9.74401 87.8836 10.56C87.6116 11.328 87.5316 12.112 87.5956 12.912C87.6596 13.872 87.9476 14.736 88.5076 15.536C89.1156 16.4 89.9156 16.992 90.9076 17.328C91.6436 17.584 92.3956 17.648 93.1796 17.552C94.0275 17.456 94.7956 17.168 95.4836 16.688C96.1715 16.208 96.6835 15.584 97.0515 14.816C97.0835 14.752 97.0995 14.688 97.1635 14.64C97.5155 14.608 99.8195 14.624 99.9955 14.656C99.9955 14.704 99.9955 14.752 99.9795 14.784C99.5315 16.24 98.7315 17.472 97.5476 18.464C96.6996 19.168 95.7235 19.664 94.6515 19.952C93.9636 20.128 93.2756 20.224 92.5556 20.224C92.1556 20.224 91.7716 20.192 91.3876 20.144C90.6516 20.032 89.9476 19.84 89.2756 19.536C88.2836 19.088 87.4196 18.464 86.7156 17.648C86.1876 17.04 85.7556 16.352 85.4356 15.616C85.2116 15.104 85.0516 14.576 84.9556 14.032C84.7956 13.216 84.7476 12.416 84.8436 11.584C84.9076 11.008 85.0196 10.448 85.2116 9.90401C85.6276 8.65601 86.3156 7.56801 87.2916 6.67201C88.0916 5.93601 89.0356 5.39201 90.0756 5.05601C90.5556 4.89601 91.0516 4.80001 91.5636 4.73601C92.0276 4.68801 92.5076 4.67201 92.9716 4.68801C94.6515 4.80001 96.1556 5.34401 97.4676 6.38401C98.5395 7.23201 99.2915 8.30401 99.7715 9.56801C99.8355 9.76001 99.8995 9.95201 99.9635 10.144C99.9635 10.24 99.9635 10.304 99.9955 10.384Z" fill="#170D26"/>
<path d="M47.0836 5.15201C47.1636 5.10401 47.2436 5.12001 47.3236 5.12001C47.7396 5.12001 48.1396 5.12001 48.5556 5.12001C48.6356 5.12001 48.7156 5.13601 48.7956 5.10401C48.8436 5.02401 48.8115 4.94401 48.8115 4.86401C48.8115 3.72801 48.8115 2.60801 48.8115 1.47201C48.8115 1.39201 48.8115 1.29601 48.8115 1.20001C49.8675 0.928007 50.9076 0.688007 51.9636 0.432007C51.9796 0.480007 51.9956 0.512007 51.9956 0.544007C51.9956 0.608007 51.9956 0.688007 51.9956 0.752007C51.9956 2.12801 51.9956 3.50401 51.9956 4.86401C51.9956 4.94401 51.9956 5.02401 51.9956 5.08801C52.0756 5.13601 52.1556 5.12001 52.2356 5.12001C52.9076 5.12001 53.5796 5.12001 54.2676 5.12001C54.3476 5.12001 54.4436 5.12001 54.5076 5.12001C54.5236 5.13601 54.5396 5.15201 54.5396 5.15201V5.16801C54.5396 6.12801 54.5396 7.10401 54.5396 8.06401C54.5396 8.08001 54.5236 8.11201 54.5236 8.12801C54.4756 8.19201 54.3956 8.16001 54.3476 8.16001C53.7396 8.16001 53.1156 8.16001 52.5076 8.16001C52.3956 8.16001 52.2676 8.16001 52.1556 8.17601C52.1236 8.17601 52.0756 8.19201 52.0596 8.19201C51.9956 8.27201 52.0276 8.33601 52.0276 8.40001C52.0276 9.50401 52.0276 10.608 52.0276 11.696C52.0276 12.64 52.0276 13.568 52.0276 14.512C52.0276 14.96 52.1396 15.392 52.3476 15.792C52.4916 16.08 52.6996 16.304 52.9876 16.464C53.6116 16.816 54.2356 17.168 54.8596 17.536C54.9396 17.584 55.0356 17.616 55.0996 17.712C54.6196 18.544 54.1396 19.376 53.6596 20.224C53.6436 20.24 53.6276 20.256 53.5956 20.272C53.5156 20.224 53.4515 20.192 53.3715 20.144C52.4435 19.6 51.5156 19.056 50.6196 18.48C50.0756 18.128 49.6595 17.648 49.3715 17.072C49.0995 16.512 48.9236 15.92 48.8436 15.312C48.8116 15.056 48.7956 14.816 48.7956 14.56C48.7956 12.528 48.7956 10.48 48.7956 8.44801C48.7956 8.35201 48.8276 8.25601 48.7636 8.16001C48.5876 8.12801 48.3956 8.16001 48.2036 8.14401C48.0276 8.14401 47.8356 8.14401 47.6596 8.14401C47.4676 8.14401 47.2916 8.16001 47.0996 8.14401C47.0356 8.04801 47.0516 7.96801 47.0516 7.88801C47.0516 7.12001 47.0516 6.35201 47.0516 5.60001C47.0516 5.47201 47.0516 5.34401 47.0516 5.23201C47.0676 5.21601 47.0836 5.18401 47.0836 5.15201Z" fill="#170D26"/>
<path d="M57.4675 5.072C57.6915 5.04 59.9155 5.04 60.1395 5.072C60.1875 5.136 60.1715 5.2 60.1715 5.264C60.1715 5.792 60.1715 6.32 60.1715 6.848C60.1715 6.912 60.1715 6.992 60.1715 7.088C60.2195 7.056 60.2675 7.04 60.2835 7.008C60.4275 6.8 60.5395 6.576 60.6995 6.384C61.2275 5.68 61.9155 5.2 62.7475 4.912C63.3075 4.72 63.8835 4.608 64.4755 4.608C64.5235 4.608 64.5715 4.608 64.6035 4.608C64.6195 4.624 64.6355 4.624 64.6355 4.64V4.656C64.6355 5.536 64.6355 6.4 64.6355 7.28C64.6355 7.312 64.6355 7.36 64.6355 7.408C64.5875 7.424 64.5235 7.44 64.4755 7.44C64.1235 7.424 63.7875 7.472 63.4515 7.52C62.8115 7.632 62.2195 7.84 61.7075 8.256C61.2275 8.64 60.9075 9.152 60.6995 9.728C60.5235 10.208 60.4275 10.704 60.3955 11.216C60.3795 11.52 60.3635 11.84 60.3635 12.144C60.3635 14.624 60.3635 17.088 60.3635 19.568C60.3635 19.664 60.3635 19.76 60.3635 19.856C60.3155 19.872 60.2835 19.888 60.2355 19.888C59.3555 19.888 58.4755 19.888 57.5955 19.888C57.5795 19.888 57.5475 19.888 57.5155 19.872C57.4995 19.824 57.4995 19.792 57.4835 19.744C57.4835 19.696 57.4835 19.632 57.4835 19.584C57.4835 14.848 57.4835 10.096 57.4835 5.36C57.4675 5.264 57.4675 5.168 57.4675 5.072Z" fill="#170D26"/>
<path d="M104.268 4.43201C104.668 4.43201 105.036 4.52801 105.404 4.72001C105.772 4.91201 106.044 5.20001 106.252 5.56801C106.46 5.93601 106.556 6.32001 106.556 6.72001C106.556 7.12001 106.46 7.50401 106.252 7.85601C106.044 8.22401 105.772 8.49601 105.404 8.70401C105.036 8.91201 104.668 9.00801 104.268 9.00801C103.868 9.00801 103.484 8.91201 103.132 8.70401C102.764 8.49601 102.492 8.22401 102.284 7.85601C102.076 7.48801 101.98 7.12001 101.98 6.72001C101.98 6.32001 102.076 5.93601 102.284 5.56801C102.492 5.20001 102.78 4.91201 103.132 4.72001C103.5 4.52801 103.868 4.43201 104.268 4.43201ZM104.268 4.88001C103.948 4.88001 103.644 4.96001 103.356 5.12001C103.068 5.28001 102.844 5.50401 102.668 5.79201C102.508 6.08001 102.412 6.40001 102.412 6.72001C102.412 7.04001 102.492 7.34401 102.652 7.63201C102.812 7.92001 103.036 8.14401 103.34 8.32001C103.628 8.48001 103.932 8.56001 104.252 8.56001C104.572 8.56001 104.876 8.48001 105.164 8.32001C105.452 8.16001 105.676 7.93601 105.852 7.63201C106.012 7.34401 106.092 7.04001 106.092 6.72001C106.092 6.40001 106.012 6.08001 105.836 5.79201C105.676 5.50401 105.436 5.26401 105.148 5.12001C104.892 4.96001 104.588 4.88001 104.268 4.88001ZM103.228 7.95201V5.52001H103.724C104.188 5.52001 104.444 5.52001 104.508 5.52001C104.668 5.53601 104.796 5.56801 104.892 5.61601C104.988 5.66401 105.052 5.74401 105.116 5.85601C105.18 5.96801 105.212 6.08001 105.212 6.20801C105.212 6.38401 105.148 6.52801 105.036 6.65601C104.924 6.78401 104.764 6.86401 104.556 6.89601C104.636 6.92801 104.684 6.96001 104.732 6.99201C104.764 7.02401 104.828 7.08801 104.892 7.18401C104.908 7.20001 104.972 7.31201 105.068 7.48801L105.356 7.98401H104.748L104.54 7.58401C104.396 7.31201 104.284 7.15201 104.204 7.08801C104.108 7.02401 103.996 6.99201 103.868 6.99201H103.724V8.00001H103.228V7.95201ZM103.724 6.57601H103.932C104.22 6.57601 104.396 6.56001 104.46 6.54401C104.524 6.52801 104.588 6.48001 104.62 6.43201C104.652 6.38401 104.684 6.32001 104.684 6.24001C104.684 6.17601 104.668 6.11201 104.62 6.06401C104.588 6.01601 104.524 5.96801 104.46 5.95201C104.396 5.93601 104.204 5.92001 103.932 5.92001H103.724V6.57601Z" fill="#170D26"/>
</g>
<defs>
<clipPath id="clip0_947_26388">
<rect width="105.92" height="40" fill="white" transform="translate(0.683533)"/>
</clipPath>
</defs>
</svg>
