<svg width="131" height="32" viewBox="0 0 131 32" fill="none" xmlns="http://www.w3.org/2000/svg">
<g clip-path="url(#clip0_947_26396)">
<path fill-rule="evenodd" clip-rule="evenodd" d="M130.234 8.48055H128.251L124.568 22.2302H126.55L130.234 8.48055ZM120.974 19.0406C120.814 19.5808 120.488 20.0569 120.042 20.4016C119.596 20.7462 119.053 20.9419 118.49 20.9611C117.751 20.9611 117.224 20.499 117.505 19.4542C117.956 17.7798 119.833 17.4835 121.393 17.4835L120.974 19.0423V19.0406ZM123.615 16.4186C124.152 14.4094 123.873 12.5777 121.095 12.5777C119.964 12.5808 118.849 12.8528 117.843 13.3713L117.902 14.6924C118.66 14.2767 119.509 14.0525 120.373 14.0394C122.277 14.0394 121.9 15.4458 121.713 16.149C118.473 16.149 116.12 17.3211 115.491 19.6651C115.101 21.1218 115.764 22.4245 117.529 22.4245C118.655 22.4071 119.728 21.9448 120.514 21.1386H120.566L120.408 22.2369H122.197C122.288 21.4761 122.444 20.7245 122.662 19.99L123.617 16.4253L123.615 16.4186ZM113.86 20.4471L113.736 21.9389C112.92 22.2516 112.054 22.4122 111.18 22.4127C108.454 22.4127 107.171 20.5442 107.961 17.5957C108.728 14.7325 111.159 12.5726 114.193 12.5726C115.102 12.5726 115.831 12.7953 116.187 13.0013L115.384 14.5266C114.896 14.2594 114.344 14.1292 113.788 14.1499C111.936 14.1499 110.503 15.6568 110.007 17.5103C109.452 19.5848 110.342 20.8188 111.983 20.8188C112.629 20.8138 113.269 20.6859 113.867 20.442L113.86 20.4471ZM107.273 12.7836H105.286L102.754 22.2302H104.743L107.273 12.7836ZM108.144 10.1783C108.323 9.50859 107.993 9.00629 107.307 9.00629C106.966 9.01459 106.638 9.13346 106.371 9.34491C106.105 9.55637 105.914 9.84891 105.828 10.1783C105.661 10.8112 105.984 11.3269 106.666 11.3269C107.003 11.3222 107.329 11.2075 107.595 11.0001C107.861 10.7928 108.052 10.5042 108.139 10.1783H108.144ZM99.2699 18.3558C98.9167 19.6752 97.7731 20.807 96.4872 20.807C94.9803 20.807 94.5366 19.3838 95.0322 17.532C95.5278 15.6802 96.7785 14.1549 98.3038 14.1549C99.4173 14.1549 100.146 15.0641 99.7388 16.6061L99.2699 18.3558ZM103.905 8.4772L100.891 19.707C100.661 20.5643 100.424 21.5756 100.283 22.2185H98.5349L98.8279 20.7434H98.776C98.3852 21.2501 97.886 21.663 97.315 21.9518C96.744 22.2407 96.1156 22.3981 95.4759 22.4127C93.3327 22.4127 92.2143 20.5107 92.9945 17.5957C93.8534 14.3893 96.1758 12.5726 98.2838 12.5726C99.501 12.5726 100.228 13.1218 100.447 13.8418H100.48L101.919 8.47552L103.905 8.4772ZM85.9037 16.5341C86.3005 15.4374 87.3034 13.9975 88.7618 13.9975C90.2871 13.9975 90.3742 15.4039 90.0527 16.5341H85.9037ZM90.0895 20.4437C89.2903 20.7473 88.4413 20.8984 87.5864 20.8891C86.0946 20.8891 84.9912 20.0837 85.5085 17.9573H91.5094C91.6195 17.6845 91.7118 17.4049 91.7856 17.1201C92.4102 14.7895 91.9397 12.5777 89.2825 12.5777C86.6253 12.5777 84.4269 14.8229 83.6768 17.6358C82.9049 20.5157 84.0401 22.4178 86.8865 22.4178C87.9632 22.4299 89.0324 22.2378 90.0376 21.8518L90.0895 20.4471V20.4437ZM82.0711 16.5174C82.8715 13.5337 81.5856 12.5743 80.1791 12.5743C78.8262 12.5743 77.7162 13.2608 76.802 14.3056H76.7668C76.658 13.2424 75.9296 12.5743 74.7275 12.5743C73.2875 12.5743 72.2159 13.3797 71.5462 14.1683H71.4943L71.7639 12.7802H70.0493C69.8668 13.5856 69.691 14.3742 69.4064 15.4374L67.5864 22.2269H69.5404L71.0757 16.5006C71.4742 15.0088 72.7015 14.2034 73.5872 14.2034C74.7358 14.2034 74.9619 15.208 74.6086 16.5341L73.0833 22.2269H75.0372L76.5994 16.3968C76.9661 15.0255 78.1063 14.2034 79.0221 14.2034C80.221 14.2034 80.4554 15.2482 80.0267 16.8255L78.5801 22.2269H80.5341L82.0711 16.5174Z" fill="#170D26"/>
<path fill-rule="evenodd" clip-rule="evenodd" d="M63.9949 19.0406C63.8344 19.5808 63.5082 20.0569 63.0623 20.4016C62.6164 20.7462 62.0734 20.9419 61.5102 20.9611C60.7718 20.9611 60.2444 20.499 60.5257 19.4542C60.9761 17.7798 62.853 17.4835 64.4135 17.4835L63.9949 19.0423V19.0406ZM66.6354 16.4186C67.1728 14.4094 66.8932 12.5776 64.1155 12.5776C62.9806 12.5786 61.8623 12.8507 60.8539 13.3713L60.9108 14.6923C61.6691 14.2767 62.5175 14.0525 63.3821 14.0393C65.2858 14.0393 64.9091 15.4458 64.7216 16.149C61.4817 16.149 59.1293 17.3211 58.4997 19.6651C58.1096 21.1218 58.7727 22.4244 60.5374 22.4244C61.6633 22.4071 62.7366 21.9448 63.5228 21.1386H63.5747L63.4173 22.2369H65.2172C65.3087 21.4761 65.4644 20.7245 65.6827 19.99L66.637 16.4253L66.6354 16.4186ZM59.4909 12.6296L58.9803 14.5316C58.7927 14.4955 58.602 14.4787 58.411 14.4814C57.0715 14.4814 55.9397 15.5781 55.4993 17.2239L54.1598 22.2302H52.1707L53.9305 15.6635C54.2235 14.5668 54.4512 13.6542 54.6337 12.7836H56.365L55.9698 14.5149H56.0385C56.7886 13.3144 57.9807 12.5776 59.0087 12.5776C59.1715 12.5761 59.3339 12.5935 59.4926 12.6296H59.4909ZM45.1536 16.6748C45.5269 15.2867 46.8279 14.1632 48.02 14.1632C49.5454 14.1632 49.9506 15.6551 49.4683 17.455C48.9443 19.4106 47.7237 20.8321 46.1816 20.8321C45.2038 20.8321 44.231 20.1122 44.6847 18.4161L45.1536 16.6664V16.6748ZM45.6056 14.2235L45.8886 12.7836H44.1389C43.948 13.6208 43.722 14.6002 43.3905 15.8359L40.6529 26.0494H42.6421L43.9648 21.1118H43.9983C44.2545 21.8836 45.038 22.4144 46.1749 22.4144C48.164 22.4144 50.5868 20.8556 51.5144 17.3914C52.3013 14.4596 51.2113 12.5743 49.0866 12.5743C47.7655 12.5743 46.5751 13.157 45.6441 14.2202L45.6056 14.2235ZM41.6542 12.7836L39.8476 19.5262C39.5629 20.586 39.3754 21.4751 39.208 22.2302H37.46L37.7245 20.8589H37.6726C37.1033 21.5102 35.9347 22.4178 34.4093 22.4178C32.7802 22.4178 31.6283 21.4131 32.4353 18.3993L33.9422 12.7869H35.9313L34.5131 18.0594C34.0761 19.6869 34.2503 20.7668 35.5529 20.7668C36.4621 20.7668 37.7178 20.0469 38.0979 18.6254L39.6651 12.7786L41.6542 12.7836ZM32.3298 9.50858C31.8426 9.21724 30.9903 8.90917 29.7312 8.90917C27.1259 8.90917 25.0431 10.4697 24.4889 12.5442C24.01 14.3273 25.0146 15.5094 26.7576 16.298C28.1423 16.9493 28.6278 17.6375 28.3281 18.7493C28.0117 19.933 26.9217 20.7384 25.3612 20.7384C24.2812 20.7384 23.3101 20.4035 22.7224 19.9665L21.8317 21.6291C22.3507 22.0578 23.5562 22.4178 24.7919 22.4178C27.7404 22.4178 29.8149 20.7719 30.3976 18.5785C30.8798 16.7786 30.1766 15.63 28.3147 14.7041C26.8463 13.9841 26.2553 13.4349 26.5533 12.3198C26.7794 11.4826 27.6735 10.5718 29.2323 10.5718C29.9989 10.5512 30.7551 10.7536 31.4089 11.1545L32.3298 9.50858ZM15.6935 3.19464L14.92 5.41314C17.5018 5.68606 20.0619 6.00418 21.2674 6.84135C21.0431 4.71996 19.7873 2.92674 17.0012 1.75471C16.768 2.38454 16.2991 2.89907 15.6935 3.18962V3.19464ZM21.897 7.56467C21.9707 7.75576 22.0048 7.95987 21.997 8.16455C21.9892 8.36923 21.9398 8.57018 21.8518 8.75512C21.8317 8.80536 21.8099 8.85391 21.7865 8.90247C21.3043 12.0201 19.3168 15.6986 16.7166 19.1628C16.6124 19.337 16.4889 19.4988 16.3482 19.645C14.046 22.6364 11.4053 25.3513 8.47881 27.7354C8.73187 27.8102 8.97783 27.9071 9.21385 28.0251C8.94618 27.9314 8.67196 27.8575 8.39342 27.8041C7.80907 28.2679 7.2331 28.6949 6.67387 29.0783L5.8367 31.4625C5.58722 32.1775 5.11003 32.1792 5.3143 31.4625L5.50183 30.8012C5.0665 29.7714 4.54913 28.5475 4.01669 27.1896C2.74084 26.9301 1.92711 26.5015 2.48969 25.5655C2.6634 25.2843 2.87591 25.0289 3.12092 24.807C-0.355009 15.0758 -2.95526 1.10841 13.8367 0.0686435C8.65797 1.0113 5.3796 2.74759 3.44072 5.06823L7.80405 3.82084C8.53741 4.58769 10.5198 4.92256 12.7785 5.18208L13.3444 3.19464C12.9275 2.87652 12.7568 2.35747 12.9443 1.75973C13.2524 0.788611 14.4093 0 15.5311 0C16.6529 0 17.311 0.788611 17.0046 1.75973C20.5207 2.69736 21.9187 4.84052 21.9003 7.56467H21.897ZM21.0029 9.8334C19.357 11.0707 16.01 11.1176 12.8572 11.3286L11.1996 16.0787C13.7781 16.288 16.4035 16.5274 16.9175 17.7279C18.8045 15.1009 20.3683 12.3516 21.0029 9.8334ZM14.473 20.8723C12.889 21.5973 10.7894 22.1465 8.85219 22.8146L7.2465 27.4157C7.5596 27.4877 7.86433 27.5613 8.15064 27.64C10.3738 25.495 12.484 23.2361 14.473 20.8723ZM8.04683 27.7371C7.77224 27.6902 7.47923 27.6484 7.17785 27.6099L6.67554 29.0398C7.01041 28.7233 7.47923 28.283 8.04181 27.7371H8.04683ZM5.49514 30.7995L6.42607 27.5211C5.71113 27.4391 4.98446 27.3537 4.34486 27.2516C4.72494 28.4236 5.11339 29.609 5.49514 30.7995ZM3.46919 24.509C4.55583 23.6718 6.16822 23.0774 7.84257 22.5333L9.59727 16.36C6.06106 16.149 2.21845 16.1725 3.09413 14.036C3.90116 12.0703 7.46081 11.702 11.0004 11.4173L12.5994 5.78485C9.40472 5.63918 5.69438 5.80494 3.22305 5.3311C-0.401893 9.99581 1.10334 16.9108 3.47085 24.509H3.46919ZM14.7275 5.9506C17.2524 6.25533 19.0539 6.9753 18.9133 8.77019C18.7727 10.5651 16.0418 10.9853 12.8689 11.265L14.7224 5.9506H14.7275ZM11.059 16.4688L9.08157 22.1381C12.0368 21.2072 14.8296 20.3131 14.9267 18.4981C14.9987 17.1369 13.244 16.6815 11.059 16.4688ZM6.50477 27.2465L7.63661 23.2599C6.2151 23.8259 4.97776 24.499 4.23603 25.4182C3.39886 26.4462 4.87396 26.8681 6.50477 27.2465ZM9.7128 15.9531L10.9803 11.4893C8.6362 11.7488 6.62699 12.2796 5.902 13.7296C5.10836 15.3118 7.16947 15.7154 9.71782 15.9531H9.7128Z" fill="#170D26"/>
</g>
<defs>
<clipPath id="clip0_947_26396">
<rect width="129.689" height="32" fill="white" transform="translate(0.550812)"/>
</clipPath>
</defs>
</svg>
