<svg width="71" height="48" viewBox="0 0 71 48" fill="none" xmlns="http://www.w3.org/2000/svg">
<path fill-rule="evenodd" clip-rule="evenodd" d="M6.14197 4.43076H64.4804V43.2H6.14197V4.43076ZM7.24966 5.53845V42.0923H63.3727V5.53845H7.24966Z" fill="#170D26"/>
<path d="M14.0213 13.9569C14.1578 14.1232 14.3244 14.2622 14.5124 14.3668C14.7018 14.4683 14.9142 14.5191 15.129 14.5145C15.3986 14.5263 15.6626 14.4352 15.8675 14.2597C15.958 14.1779 16.0296 14.0774 16.0774 13.9652C16.1252 13.853 16.1481 13.7318 16.1444 13.6098C16.1565 13.3908 16.0926 13.1743 15.9635 12.9969C15.8374 12.8397 15.677 12.7134 15.4946 12.6277C15.2919 12.5292 15.0835 12.4429 14.8706 12.3692C14.7303 12.3212 14.5715 12.2548 14.3943 12.1772C14.2176 12.0947 14.0505 11.9932 13.8958 11.8745C13.7359 11.7497 13.6028 11.594 13.5044 11.4166C13.3983 11.2115 13.3462 10.9828 13.353 10.752C13.3485 10.4818 13.4229 10.2162 13.5672 9.98769C13.7118 9.75981 13.9161 9.57592 14.158 9.456C14.4269 9.3252 14.7229 9.25943 15.022 9.264C15.3041 9.25767 15.5838 9.31841 15.838 9.44123C16.0623 9.55325 16.2639 9.706 16.4324 9.89169C16.5841 10.0651 16.7086 10.2606 16.8016 10.4714L16.1998 10.8185C16.1263 10.6683 16.0359 10.5271 15.9303 10.3975C15.8196 10.2615 15.6843 10.1476 15.5315 10.0615C15.3556 9.96803 15.1583 9.9222 14.9592 9.92862C14.8363 9.9178 14.7125 9.93255 14.5955 9.97195C14.4786 10.0114 14.3711 10.0745 14.2798 10.1575C14.2124 10.2227 14.1587 10.3007 14.1219 10.3869C14.0851 10.4732 14.066 10.5659 14.0656 10.6597C14.0645 10.8146 14.1067 10.9668 14.1875 11.0991C14.296 11.2529 14.4388 11.3793 14.6047 11.4683C14.8552 11.6114 15.12 11.7277 15.3949 11.8154C15.5614 11.877 15.7242 11.9485 15.8823 12.0295C16.0532 12.1198 16.2121 12.2315 16.3549 12.3618C16.5074 12.4997 16.6327 12.6651 16.7241 12.8492C16.8236 13.0602 16.8717 13.2918 16.8644 13.5249C16.8678 13.7605 16.8186 13.9938 16.7204 14.208C16.6278 14.407 16.493 14.5834 16.3253 14.7249C16.1586 14.868 15.9672 14.9794 15.7604 15.0535C15.5127 15.1416 15.25 15.1795 14.9876 15.1649C14.7251 15.1503 14.4682 15.0836 14.2318 14.9686C13.966 14.8363 13.7269 14.6561 13.5266 14.4369C13.3329 14.2237 13.1689 13.9852 13.0392 13.728L13.5967 13.3588C13.7213 13.5697 13.8633 13.7698 14.0213 13.9569Z" fill="#170D26"/>
<path d="M21.6164 9.33783V15.0904H20.9112V9.33783H21.6164ZM21.3063 11.6381H25.2497V12.2954H21.3063V11.6381ZM25.4786 9.33783V15.0904H24.7807V9.33783H25.4786Z" fill="#170D26"/>
<path d="M30.9026 12.9231L30.8361 13.0708L29.9795 15.0905H29.2004L31.87 9.04984L34.5395 15.0905H33.7604L32.9223 13.1188L32.8558 12.9526L31.87 10.6375L30.9026 12.9231ZM30.6146 12.7089H33.1586L33.406 13.3661H30.3672L30.6146 12.7089Z" fill="#170D26"/>
<path d="M38.9592 9.33783V15.0904H38.2651V9.33783H38.9592ZM38.6343 15.0904V14.4H39.9709C40.2742 14.403 40.5755 14.3517 40.8608 14.2486C41.1182 14.1519 41.3531 14.0036 41.5512 13.8129C41.747 13.6188 41.8981 13.3845 41.9943 13.1261C42.201 12.5408 42.201 11.9023 41.9943 11.3169C41.8961 11.0616 41.7441 10.8305 41.5484 10.6393C41.3528 10.4482 41.1183 10.3015 40.8608 10.2092C40.576 10.1043 40.2743 10.053 39.9709 10.0578H38.6343V9.35629H39.9709C40.4867 9.35075 40.9953 9.47789 41.4478 9.72552C41.8738 9.96142 42.2264 10.3102 42.4669 10.7335C42.7096 11.1986 42.8363 11.7154 42.8363 12.24C42.8363 12.7646 42.7096 13.2814 42.4669 13.7464C42.2275 14.1706 41.8746 14.5196 41.4478 14.7544C40.9953 15.0021 40.4867 15.1292 39.9709 15.1237L38.6343 15.0904Z" fill="#170D26"/>
<path d="M47.5697 9.33783V15.0904H46.8718V9.33783H47.5697ZM47.2595 9.33783H50.158V9.99507H47.2595V9.33783ZM47.2595 11.6381H49.9955V12.2954H47.2595V11.6381ZM47.2595 14.4332H50.158V15.0904H47.2595V14.4332Z" fill="#170D26"/>
<path d="M55.0429 13.9569C55.1781 14.123 55.3434 14.2621 55.5303 14.3668C55.7199 14.4678 55.9321 14.5186 56.1469 14.5145C56.4167 14.5278 56.6812 14.4365 56.8854 14.2597C56.9771 14.1787 57.0498 14.0785 57.0984 13.9661C57.1469 13.8538 57.17 13.7321 57.166 13.6098C57.1781 13.3908 57.1142 13.1743 56.9851 12.9969C56.8584 12.8388 56.6966 12.7124 56.5125 12.6277C56.3108 12.5298 56.1037 12.4435 55.8921 12.3692C55.7518 12.3212 55.5931 12.2548 55.4158 12.1772C55.238 12.0948 55.0696 11.9932 54.9137 11.8745C54.7488 11.7489 54.6118 11.5905 54.5112 11.4092C54.4035 11.2047 54.3513 10.9756 54.3598 10.7446C54.3557 10.475 54.4287 10.2098 54.5703 9.9803C54.7159 9.75191 54.9216 9.56797 55.1648 9.44861C55.4325 9.31811 55.7272 9.25235 56.0251 9.25661C56.3085 9.24984 56.5895 9.31058 56.8448 9.43384C57.0685 9.54679 57.27 9.69942 57.4392 9.88431C57.5912 10.0575 57.7157 10.253 57.8085 10.464L57.2103 10.8111C57.1355 10.6617 57.0451 10.5206 56.9408 10.3901C56.8301 10.2542 56.6948 10.1402 56.542 10.0541C56.3661 9.96064 56.1688 9.91481 55.9697 9.92123C55.8462 9.91034 55.7218 9.92505 55.6043 9.96444C55.4867 10.0038 55.3786 10.0671 55.2866 10.1502C55.1528 10.2831 55.0771 10.4637 55.0761 10.6523C55.075 10.8073 55.1172 10.9595 55.198 11.0917C55.305 11.2454 55.4467 11.3719 55.6115 11.4609C55.8637 11.6032 56.1297 11.7195 56.4054 11.808C56.5707 11.8697 56.7322 11.9412 56.8891 12.0221C57.0606 12.1115 57.2195 12.2233 57.3617 12.3545C57.5152 12.4915 57.6406 12.657 57.7309 12.8418C57.8288 13.0534 57.8768 13.2845 57.8712 13.5175C57.8746 13.7531 57.8254 13.9865 57.7272 14.2006C57.6334 14.3988 57.4987 14.5749 57.3321 14.7175C57.1654 14.8606 56.974 14.972 56.7672 15.0462C56.5196 15.1342 56.2568 15.1721 55.9944 15.1575C55.7319 15.1429 55.475 15.0762 55.2386 14.9612C54.9751 14.8271 54.7386 14.6456 54.5408 14.4258C54.3447 14.2137 54.1794 13.975 54.0497 13.7169L54.6109 13.3477C54.7373 13.5627 54.8818 13.7665 55.0429 13.9569Z" fill="#170D26"/>
<path d="M20.0066 20.4111H20.7894L18.5297 26.4517L16.8017 21.9803L15.0774 26.4517L12.8177 20.4111H13.6005L15.1291 24.6425L16.8017 20.1231L18.5112 24.6425L20.0066 20.4111Z" fill="#170D26"/>
<path d="M25.7334 20.4111V26.1637H25.0355V20.4111H25.7334Z" fill="#170D26"/>
<path d="M29.9795 20.4111H33.6349V21.0683H32.158V26.1637H31.4601V21.0683H29.9832L29.9795 20.4111Z" fill="#170D26"/>
<path d="M38.5826 20.4111V26.1637H37.8958V20.4111H38.5826ZM38.2687 22.7114H42.2158V23.3686H38.265L38.2687 22.7114ZM42.4447 20.4111V26.1637H41.7469V20.4111H42.4447Z" fill="#170D26"/>
<path d="M47.9648 20.4111V26.1637H47.2669V20.4111H47.9648Z" fill="#170D26"/>
<path d="M57.8343 20.4111V26.4517L53.4774 21.8806V26.1637H52.7795V20.1231L57.1328 24.6905V20.4111H57.8343Z" fill="#170D26"/>
<path d="M14.0915 31.4843V37.2332H13.3937V31.4843H14.0915ZM13.7814 31.4843H14.9555C15.2995 31.4781 15.6404 31.55 15.9524 31.6948C16.2356 31.8246 16.4771 32.0304 16.6503 32.2892C16.8215 32.5667 16.9122 32.8863 16.9122 33.2123C16.9122 33.5384 16.8215 33.858 16.6503 34.1354C16.4774 34.3964 16.236 34.6046 15.9524 34.7372C15.6404 34.882 15.2995 34.954 14.9555 34.9477H13.7814V34.3385H14.9555C15.1805 34.3423 15.4035 34.297 15.6091 34.2056C15.7882 34.126 15.9416 33.9981 16.0521 33.8363C16.1627 33.6555 16.2179 33.4463 16.2109 33.2345C16.2185 33.0238 16.1632 32.8156 16.0521 32.6363C15.9423 32.4738 15.7887 32.3458 15.6091 32.2671C15.4027 32.1786 15.18 32.1346 14.9555 32.1379H13.7814V31.4843ZM15.1992 34.4012L17.2558 37.2332H16.3918L14.4201 34.4012H15.1992Z" fill="#170D26"/>
<path d="M23.6952 31.4843V37.2332H22.9974V31.4843H23.6952ZM23.3851 31.4843H26.2835V32.1415H23.3851V31.4843ZM23.3851 33.7846H26.1211V34.4419H23.3851V33.7846ZM23.3851 36.5797H26.2835V37.2332H23.3851V36.5797Z" fill="#170D26"/>
<path d="M33.6054 35.0769L33.5389 35.2246L32.6823 37.2443H31.9032L34.5727 31.1963L37.2423 37.2332H36.4632L35.625 35.2615L35.5586 35.0991L34.5727 32.784L33.6054 35.0769ZM33.3174 34.8628H35.865L36.1087 35.52H33.07L33.3174 34.8628Z" fill="#170D26"/>
<path d="M43.4084 35.5348C43.5979 35.8636 43.8687 36.1382 44.1949 36.3323C44.5124 36.5234 44.8766 36.623 45.2472 36.6203C45.4973 36.6215 45.7462 36.5854 45.9857 36.5132C46.2056 36.4437 46.4145 36.343 46.606 36.2141C46.787 36.0894 46.9476 35.9375 47.0823 35.7637V36.6831C46.853 36.8907 46.586 37.0524 46.2958 37.1594C45.9547 37.2744 45.5959 37.3282 45.2361 37.3181C44.8562 37.3189 44.4798 37.2449 44.1284 37.1003C43.7821 36.9557 43.4682 36.7434 43.205 36.4758C42.9419 36.2083 42.7349 35.8908 42.5961 35.5421C42.3007 34.7809 42.3007 33.9366 42.5961 33.1754C42.8083 32.6467 43.1754 32.1946 43.6491 31.8783C44.1229 31.562 44.6813 31.3963 45.2509 31.4031C45.6104 31.3939 45.9688 31.4463 46.3106 31.5581C46.6008 31.6651 46.8678 31.8268 47.097 32.0344V32.9538C46.9623 32.7812 46.8016 32.6305 46.6207 32.5071C46.431 32.3753 46.2216 32.2744 46.0004 32.208C45.7613 32.1341 45.5122 32.0979 45.262 32.1009C44.8914 32.0982 44.5272 32.1978 44.2097 32.3889C43.8844 32.581 43.6137 32.8529 43.4232 33.1791C43.227 33.5407 43.1243 33.9455 43.1243 34.3569C43.1243 34.7683 43.227 35.1732 43.4232 35.5348H43.4084Z" fill="#170D26"/>
<path d="M54.0275 31.4843V37.2332H53.3297V31.4843H54.0275ZM53.7136 33.7846H57.6607V34.4419H53.7136V33.7846ZM57.8896 31.4843V37.2332H57.1918V31.4843H57.8896Z" fill="#170D26"/>
</svg>
