<svg width="75" height="32" viewBox="0 0 75 32" fill="none" xmlns="http://www.w3.org/2000/svg">
<g clip-path="url(#clip0_947_26393)">
<path d="M26.2508 1.01218C26.2521 0.771541 26.3483 0.541133 26.5185 0.370975C26.6886 0.200816 26.919 0.10464 27.1597 0.103333H30.7577C31.0257 0.118505 31.2853 0.201971 31.512 0.345792C31.7386 0.489613 31.9247 0.689011 32.0525 0.925028L35.3268 7.73513C35.5385 8.18333 35.7252 8.14598 35.7252 7.64798V1.02463C35.7265 0.783992 35.8227 0.553584 35.9929 0.383425C36.163 0.213267 36.3934 0.117091 36.6341 0.115783H39.7217C39.9623 0.117091 40.1927 0.213267 40.3629 0.383425C40.533 0.553584 40.6292 0.783992 40.6305 1.02463V17.6826C40.6292 17.9232 40.533 18.1537 40.3629 18.3238C40.1927 18.494 39.9623 18.5901 39.7217 18.5915H36.1236C35.8569 18.5778 35.5983 18.4948 35.3735 18.3507C35.1486 18.2066 34.9652 18.0064 34.8413 17.7698L31.6665 10.9846C31.4549 10.5364 31.2806 10.5737 31.2806 11.0717V17.6577C31.2793 17.8983 31.1831 18.1288 31.013 18.2989C30.8428 18.4691 30.6124 18.5652 30.3718 18.5666H27.1472C26.9066 18.5652 26.6762 18.4691 26.506 18.2989C26.3359 18.1288 26.2397 17.8983 26.2384 17.6577V1.01218H26.2508ZM39.0867 15.1428V2.57962C39.0579 2.37789 38.9581 2.19306 38.8052 2.05839C38.6523 1.92373 38.4563 1.84808 38.2526 1.84508H38.2401C38.0163 1.84735 37.8023 1.93727 37.644 2.09555C37.4857 2.25382 37.3958 2.46784 37.3935 2.69167V14.3697C37.3935 14.6187 37.1819 14.6685 37.0698 14.4444C36.9578 14.2203 31.3553 2.71657 31.3553 2.71657C31.1415 2.38712 30.8287 2.13397 30.462 1.99353C30.0952 1.85309 29.6933 1.83259 29.3142 1.93499C28.935 2.03739 28.5981 2.25741 28.3519 2.5634C28.1057 2.86939 27.9629 3.24558 27.944 3.63786V15.8637C27.9428 16.0686 28.017 16.2668 28.1524 16.4206C28.2879 16.5744 28.4751 16.6731 28.6786 16.6978H28.9151C29.1022 16.6733 29.2755 16.5861 29.4067 16.4505C29.5378 16.3148 29.6191 16.1387 29.6372 15.9508V4.21056C29.6372 3.73746 29.8613 3.87441 29.9734 4.12341C30.0854 4.37241 35.7999 15.9135 35.7999 15.9135C35.9459 16.1341 36.1388 16.3199 36.3647 16.4576C36.5906 16.5954 36.8441 16.6816 37.1072 16.7103H37.5056C37.907 16.6643 38.2812 16.4846 38.5681 16.2C38.8549 15.9155 39.0376 15.5426 39.0867 15.1416" fill="#170D26"/>
<path d="M43.4691 18.5665C43.2284 18.5652 42.998 18.4691 42.8279 18.2989C42.6577 18.1288 42.5615 17.8983 42.5602 17.6577V1.01218C42.5615 0.771541 42.6577 0.541133 42.8279 0.370974C42.998 0.200816 43.2284 0.10464 43.4691 0.103333H46.6936C46.9342 0.10464 47.1646 0.200816 47.3348 0.370974C47.505 0.541133 47.6011 0.771541 47.6024 1.01218V17.6702C47.6011 17.9108 47.505 18.1412 47.3348 18.3114C47.1646 18.4815 46.9342 18.5777 46.6936 18.579H43.4691V18.5665ZM45.1249 16.8111C45.6104 16.8111 46.0089 16.3256 46.0089 15.7155V2.85476C46.0089 2.25717 45.6104 1.75917 45.1249 1.75917C44.6394 1.75917 44.241 2.24472 44.241 2.85476V15.7155C44.2285 16.3131 44.6269 16.8111 45.1249 16.8111Z" fill="#170D26"/>
<path d="M12.4937 0.875228C12.4927 0.670812 12.4111 0.475049 12.2665 0.330503C12.122 0.185957 11.9262 0.104315 11.7218 0.103333H0.952621C0.748204 0.104315 0.552438 0.185957 0.407892 0.330503C0.263346 0.475049 0.181699 0.670812 0.180717 0.875228V3.68891C0.181699 3.89333 0.263346 4.08909 0.407892 4.23363C0.552438 4.37818 0.748204 4.45982 0.952621 4.4608H3.33055C3.43079 4.46075 3.52712 4.4997 3.59915 4.56941C3.67119 4.63911 3.71326 4.73411 3.71649 4.8343V17.8071C3.71748 18.0115 3.79912 18.2073 3.94367 18.3518C4.08821 18.4964 4.28398 18.578 4.4884 18.579H8.04907C8.25348 18.578 8.44925 18.4964 8.5938 18.3518C8.73834 18.2073 8.81997 18.0115 8.82096 17.8071V4.8343C8.82388 4.7307 8.86718 4.63236 8.94161 4.56025C9.01605 4.48814 9.11573 4.44799 9.21936 4.44835H11.7218C11.9262 4.44737 12.122 4.36573 12.2665 4.22118C12.4111 4.07664 12.4927 3.88087 12.4937 3.67646V0.875228Z" fill="#170D26"/>
<path d="M24.8689 17.5955L20.6608 0.775631C20.6049 0.588426 20.4922 0.423208 20.3383 0.302786C20.1844 0.182364 19.997 0.112673 19.8018 0.103333H15.4991C15.3029 0.108925 15.1136 0.177221 14.959 0.298204C14.8044 0.419188 14.6926 0.586502 14.6401 0.775631L10.432 17.5955C10.3997 17.7107 10.3945 17.8318 10.4169 17.9494C10.4392 18.0669 10.4885 18.1777 10.5609 18.273C10.6333 18.3683 10.7268 18.4455 10.834 18.4986C10.9412 18.5517 11.0593 18.5792 11.179 18.579H14.2417C14.4365 18.572 14.6236 18.5012 14.7743 18.3774C14.925 18.2537 15.0309 18.084 15.0758 17.8943L15.387 16.3754C15.4368 16.1513 15.5738 16.0268 15.773 16.0268H19.5702C19.7694 16.0268 19.9064 16.1388 19.9562 16.3754L20.2674 17.8943C20.3123 18.084 20.4182 18.2537 20.5689 18.3774C20.7196 18.5012 20.9067 18.572 21.1016 18.579H24.1642C24.2807 18.5736 24.3945 18.542 24.497 18.4865C24.5996 18.431 24.6883 18.3531 24.7565 18.2585C24.8247 18.164 24.8707 18.0552 24.891 17.9404C24.9114 17.8256 24.9055 17.7077 24.8739 17.5955H24.8689ZM18.9104 12.9641H16.632C16.5613 12.9686 16.4906 12.9563 16.4256 12.9281C16.3606 12.8999 16.3033 12.8566 16.2583 12.8019C16.2133 12.7472 16.1819 12.6826 16.1668 12.6134C16.1517 12.5441 16.1533 12.4723 16.1714 12.4038L17.7152 4.72225C17.7774 4.411 17.877 4.411 17.9393 4.72225L19.3835 12.3914C19.398 12.4612 19.3967 12.5334 19.3796 12.6027C19.3625 12.6719 19.33 12.7365 19.2846 12.7915C19.2391 12.8465 19.1819 12.8905 19.1171 12.9204C19.0524 12.9503 18.9817 12.9652 18.9104 12.9641Z" fill="#170D26"/>
<path d="M60.9413 0.875228C60.9403 0.670812 60.8586 0.475049 60.7141 0.330503C60.5695 0.185957 60.3738 0.104315 60.1694 0.103333H49.4127C49.2082 0.104315 49.0125 0.185957 48.8679 0.330503C48.7234 0.475049 48.6417 0.670812 48.6408 0.875228V3.68891C48.6417 3.89333 48.7234 4.08909 48.8679 4.23363C49.0125 4.37818 49.2082 4.45982 49.4127 4.4608H51.7906C51.8908 4.46075 51.9872 4.4997 52.0592 4.56941C52.1312 4.63911 52.1733 4.73411 52.1765 4.8343V17.8071C52.1775 18.0115 52.2592 18.2073 52.4037 18.3518C52.5482 18.4964 52.744 18.578 52.9484 18.579H56.5091C56.7135 18.578 56.9093 18.4964 57.0538 18.3518C57.1984 18.2073 57.28 18.0115 57.281 17.8071V4.8343C57.2832 4.73264 57.3246 4.63576 57.3965 4.56385C57.4684 4.49195 57.5653 4.45057 57.6669 4.44835H60.1831C60.3875 4.44737 60.5833 4.36573 60.7278 4.22118C60.8723 4.07664 60.954 3.88087 60.955 3.67646V0.875228H60.9413Z" fill="#170D26"/>
<path d="M73.3115 17.5955L69.1034 0.775631C69.0491 0.587477 68.9369 0.421233 68.7826 0.300537C68.6284 0.179842 68.4401 0.110835 68.2444 0.103333H63.9292C63.733 0.108925 63.5437 0.177221 63.3891 0.298204C63.2346 0.419188 63.1228 0.586502 63.0702 0.775631L58.8621 17.5955C58.8298 17.7107 58.8246 17.8318 58.847 17.9494C58.8694 18.0669 58.9187 18.1777 58.991 18.273C59.0634 18.3683 59.1569 18.4455 59.2641 18.4986C59.3714 18.5517 59.4895 18.5792 59.6091 18.579H62.6718C62.8666 18.572 63.0538 18.5012 63.2045 18.3774C63.3552 18.2537 63.4611 18.084 63.5059 17.8943L63.8172 16.3754C63.867 16.1513 64.0039 16.0268 64.2031 16.0268H68.0003C68.1995 16.0268 68.3365 16.1388 68.3863 16.3754L68.6976 17.8943C68.7424 18.084 68.8483 18.2537 68.999 18.3774C69.1497 18.5012 69.3369 18.572 69.5317 18.579H72.5944C72.7118 18.5752 72.8269 18.5448 72.9309 18.49C73.0348 18.4352 73.125 18.3575 73.1945 18.2628C73.2641 18.1681 73.3112 18.0588 73.3323 17.9432C73.3534 17.8276 73.348 17.7087 73.3165 17.5955H73.3115ZM67.353 12.9641H65.0871C65.0164 12.9686 64.9456 12.9563 64.8806 12.9281C64.8157 12.8999 64.7583 12.8566 64.7133 12.8019C64.6683 12.7472 64.637 12.6826 64.6219 12.6134C64.6068 12.5441 64.6083 12.4723 64.6264 12.4038L66.1702 4.72225C66.2325 4.411 66.3321 4.411 66.3943 4.72225L67.8385 12.3914C67.8507 12.462 67.8473 12.5343 67.8285 12.6034C67.8096 12.6725 67.7759 12.7366 67.7296 12.7912C67.6833 12.8458 67.6256 12.8896 67.5605 12.9195C67.4954 12.9494 67.4246 12.9646 67.353 12.9641Z" fill="#170D26"/>
<path d="M73.4235 3.14611C73.1123 3.14611 72.808 3.05382 72.5493 2.8809C72.2905 2.70799 72.0888 2.46222 71.9697 2.17467C71.8506 1.88712 71.8194 1.5707 71.8801 1.26544C71.9408 0.960179 72.0907 0.679777 72.3108 0.459696C72.5309 0.239614 72.8113 0.0897376 73.1165 0.0290173C73.4218 -0.0317031 73.7382 -0.00053787 74.0258 0.118569C74.3133 0.237677 74.5591 0.439377 74.732 0.698166C74.9049 0.956954 74.9972 1.26121 74.9972 1.57245C74.9969 1.98971 74.831 2.38979 74.5359 2.68484C74.2409 2.97988 73.8408 3.14578 73.4235 3.14611ZM73.4235 0.207939C73.1527 0.207939 72.8879 0.288257 72.6627 0.438738C72.4375 0.58922 72.2619 0.803104 72.1583 1.05335C72.0546 1.30359 72.0275 1.57895 72.0804 1.8446C72.1332 2.11026 72.2636 2.35428 72.4552 2.5458C72.6467 2.73733 72.8907 2.86776 73.1564 2.9206C73.422 2.97345 73.6974 2.94632 73.9476 2.84267C74.1979 2.73902 74.4118 2.56349 74.5622 2.33828C74.7127 2.11306 74.793 1.84829 74.793 1.57743C74.7914 1.2153 74.6464 0.868558 74.3897 0.613074C74.1331 0.35759 73.7857 0.214159 73.4235 0.214163V0.207939Z" fill="#170D26"/>
<path d="M73.0252 0.887707H73.6103C73.6787 0.884375 73.7469 0.897167 73.8095 0.925055C73.8544 0.95157 73.891 0.990093 73.9152 1.03628C73.9394 1.08247 73.9502 1.1345 73.9464 1.1865C73.9496 1.23283 73.9423 1.27927 73.9251 1.32238C73.9078 1.36549 73.8811 1.40416 73.8469 1.4355C73.7652 1.48654 73.6687 1.50848 73.5729 1.49775H73.0252V0.887707ZM73.0252 2.4564V1.69695H73.5729C73.6455 1.69093 73.7185 1.70379 73.7846 1.7343C73.873 1.77165 73.9091 1.84635 73.9091 1.97085L73.9215 2.26965C73.9233 2.31549 73.9274 2.3612 73.934 2.40659C73.9344 2.42969 73.9433 2.45183 73.9589 2.46884H74.2577V2.43149C74.2203 2.41904 74.1954 2.3817 74.1842 2.31945C74.1728 2.27053 74.1686 2.22019 74.1718 2.17005L74.1593 1.9335C74.163 1.85408 74.1412 1.77557 74.0971 1.7094C74.0564 1.65578 73.9997 1.61653 73.9352 1.59735C74.0083 1.55728 74.0719 1.50211 74.122 1.4355C74.1716 1.35787 74.1936 1.26573 74.1842 1.17405C74.1903 1.08662 74.1697 0.9994 74.1253 0.923855C74.0808 0.84831 74.0146 0.787969 73.9352 0.750758C73.8286 0.707499 73.7142 0.686322 73.5991 0.688508H72.7774V2.46884H73.0264L73.0252 2.4564Z" fill="#170D26"/>
<path d="M66.8463 25.9855C66.6433 25.9802 66.4416 26.0188 66.2549 26.0985C66.0683 26.1782 65.9009 26.2972 65.7644 26.4474C65.4902 26.7718 65.3398 27.1829 65.3398 27.6077C65.3398 28.0325 65.4902 28.4436 65.7644 28.768C65.9054 28.9128 66.074 29.0279 66.2603 29.1065C66.4465 29.185 66.6466 29.2255 66.8487 29.2255C67.0509 29.2255 67.251 29.185 67.4372 29.1065C67.6235 29.0279 67.7921 28.9128 67.9331 28.768C68.2115 28.4465 68.3646 28.0354 68.3646 27.6102C68.3646 27.1849 68.2115 26.7739 67.9331 26.4523C67.7965 26.3006 67.6285 26.1803 67.4409 26.0997C67.2533 26.0191 67.0504 25.9801 66.8463 25.9855Z" fill="#170D26"/>
<path d="M28.4009 26.2033C28.3698 26.0788 28.3287 25.922 28.2764 25.729C28.2428 25.8647 28.2092 25.9929 28.1756 26.1162C28.142 26.2394 28.1096 26.3577 28.076 26.4698L27.4958 28.2887H29.0695L28.4819 26.4698C28.4582 26.415 28.4333 26.3254 28.4009 26.2033Z" fill="#170D26"/>
<path d="M69.1171 23.1992H4.58177C3.99767 23.1893 3.41746 23.2959 2.87497 23.5126C2.33248 23.7294 1.83855 24.0519 1.42202 24.4615C1.00548 24.8711 0.674658 25.3595 0.448834 25.8983C0.22301 26.4371 0.106705 27.0154 0.106705 27.5996C0.106705 28.1838 0.22301 28.7621 0.448834 29.3009C0.674658 29.8396 1.00548 30.3281 1.42202 30.7377C1.83855 31.1472 2.33248 31.4698 2.87497 31.6865C3.41746 31.9033 3.99767 32.0098 4.58177 32H69.1171C69.7012 32.0098 70.2814 31.9033 70.8239 31.6865C71.3664 31.4698 71.8603 31.1472 72.2769 30.7377C72.6934 30.3281 73.0242 29.8396 73.2501 29.3009C73.4759 28.7621 73.5922 28.1838 73.5922 27.5996C73.5922 27.0154 73.4759 26.4371 73.2501 25.8983C73.0242 25.3595 72.6934 24.8711 72.2769 24.4615C71.8603 24.0519 71.3664 23.7294 70.8239 23.5126C70.2814 23.2959 69.7012 23.1893 69.1171 23.1992ZM9.70988 28.7244C9.55291 29.0762 9.32634 29.3926 9.04382 29.6544C8.7491 29.9232 8.40663 30.1343 8.03413 30.2769C7.27319 30.5717 6.42959 30.5717 5.66865 30.2769C5.29946 30.1359 4.96119 29.9245 4.67266 29.6544C4.38539 29.3931 4.15523 29.0752 3.99662 28.7207C3.8447 28.3697 3.76633 27.9914 3.76633 27.6089C3.76633 27.2265 3.8447 26.8481 3.99662 26.4971C4.1553 26.1434 4.38548 25.8264 4.67266 25.5659C4.96092 25.2955 5.29926 25.084 5.66865 24.9434C6.42988 24.6502 7.2729 24.6502 8.03413 24.9434C8.4058 25.0839 8.74661 25.2953 9.03759 25.5659C9.32024 25.8271 9.54613 26.1437 9.70118 26.4959C9.85654 26.8488 9.93505 27.2308 9.9315 27.6164C9.93515 27.9971 9.85969 28.3744 9.70988 28.7244ZM14.4184 26.0514H12.4165V27.0076H14.3039V28.1891H12.4165V30.3429H10.8827V24.8363H14.4184V26.0514ZM16.8611 30.3429H15.2725V24.8363H16.8611V30.3429ZM22.2706 26.6876C22.0868 26.4853 21.8689 26.3168 21.6269 26.1896C21.4131 26.0832 21.1773 26.0286 20.9385 26.0303C20.7348 26.0221 20.5316 26.0572 20.3426 26.1334C20.1535 26.2096 19.9827 26.3251 19.8416 26.4722C19.5545 26.7863 19.4036 27.2013 19.4221 27.6264C19.4156 27.8289 19.4501 28.0306 19.5235 28.2195C19.5969 28.4084 19.7076 28.5806 19.8491 28.7257C19.9906 28.8698 20.1605 28.9829 20.3481 29.0579C20.5356 29.1329 20.7366 29.1681 20.9385 29.1614C21.1773 29.1631 21.4131 29.1085 21.6269 29.0021C21.8699 28.8728 22.0879 28.7012 22.2706 28.4954V30.1412C22.031 30.2527 21.7807 30.3394 21.5236 30.4002C21.2788 30.4581 21.0281 30.4873 20.7766 30.4873C20.4827 30.4896 20.1897 30.4536 19.9051 30.3803C19.6446 30.311 19.3967 30.2009 19.1706 30.0541C18.7577 29.7969 18.4181 29.4375 18.1845 29.0108C17.9548 28.5752 17.8384 28.0889 17.8459 27.5965C17.8408 27.2025 17.914 26.8115 18.0613 26.4461C18.2106 26.0915 18.4314 25.7715 18.7099 25.5061C18.9732 25.244 19.2877 25.0389 19.6337 24.9036C19.9995 24.7671 20.3874 24.6995 20.7779 24.7044C21.0294 24.7044 21.2801 24.7336 21.5249 24.7915C21.782 24.8523 22.0323 24.939 22.2718 25.0505L22.2706 26.6876ZM24.7444 30.3429H23.157V24.8363H24.7444V30.3429ZM29.6858 30.3429L29.3944 29.3569H27.1597L26.8609 30.3429H25.2959L27.2879 24.8314H29.2587L31.2507 30.3429H29.6858ZM35.2882 30.3429H31.7612V24.8363H33.3336V29.0606H35.2945L35.2882 30.3429ZM43.6496 30.3429L43.3097 27.96C43.286 27.7919 43.2649 27.6052 43.245 27.3985C43.225 27.1919 43.2076 26.969 43.1914 26.725C43.1399 27.0202 43.0675 27.3115 42.9748 27.5965C42.9511 27.6687 42.935 27.721 42.9238 27.7583L42.1419 30.3429H41.0936L40.3093 27.7608C40.2993 27.7247 40.2831 27.6712 40.262 27.599C40.1676 27.3144 40.0952 27.0231 40.0453 26.7275C40.0292 26.9354 40.0117 27.1421 39.9906 27.35C39.9694 27.5579 39.9445 27.7596 39.9159 27.9625L39.5747 30.3429H38.1131L39.0033 24.8314H40.5608L41.4323 27.6737C41.4323 27.6936 41.4485 27.726 41.4646 27.772C41.536 27.9838 41.5873 28.2018 41.6178 28.4232C41.6305 28.3132 41.6504 28.2043 41.6775 28.097C41.7062 27.9725 41.746 27.8343 41.802 27.6662L42.681 24.8314H44.241L45.1274 30.3429H43.6496ZM49.4612 26.0402H47.4593V26.9964H49.3467V28.1779H47.4593V29.1079H49.4612V30.3429H45.9267V24.8363H49.4612V26.0402ZM53.8759 30.3429L52.8986 28.7095C52.8522 28.6376 52.8106 28.5628 52.7741 28.4854C52.7403 28.4105 52.7124 28.3331 52.6907 28.2538C52.6688 28.3385 52.6413 28.4217 52.6085 28.5028C52.5776 28.5764 52.5406 28.6472 52.4977 28.7145L51.5192 30.3429H49.7363L51.8765 27.4521L49.9405 24.8314H51.808L52.5015 26.1112L52.5089 26.1261C52.5894 26.2632 52.6517 26.4101 52.6945 26.5631C52.7354 26.4189 52.7952 26.2808 52.8725 26.1523L52.8961 26.1112L53.5896 24.8314H55.4571L53.5298 27.4819L55.6625 30.3454L53.8759 30.3429ZM57.7491 30.3429H56.1605V24.8363H57.7491V30.3429ZM63.1586 26.6876C62.9748 26.4853 62.7569 26.3168 62.5149 26.1896C62.3012 26.0832 62.0653 26.0286 61.8265 26.0303C61.6228 26.0221 61.4196 26.0572 61.2306 26.1334C61.0415 26.2096 60.8707 26.3251 60.7296 26.4722C60.4421 26.7861 60.2907 27.2011 60.3088 27.6264C60.3026 27.829 60.3374 28.0308 60.411 28.2196C60.4846 28.4085 60.5955 28.5806 60.7371 28.7257C60.8786 28.8698 61.0485 28.9829 61.236 29.0579C61.4236 29.1329 61.6246 29.1681 61.8265 29.1614C62.0653 29.1631 62.3012 29.1085 62.5149 29.0021C62.7579 28.8728 62.9759 28.7012 63.1586 28.4954V30.1412C62.919 30.2527 62.6687 30.3394 62.4116 30.4002C62.1668 30.4581 61.9161 30.4873 61.6646 30.4873C61.3707 30.4896 61.0777 30.4536 60.7931 30.3803C60.5326 30.311 60.2847 30.2009 60.0586 30.0541C59.6457 29.7969 59.3061 29.4375 59.0725 29.0108C58.8428 28.5752 58.7264 28.0889 58.7339 27.5965C58.7288 27.2025 58.802 26.8115 58.9493 26.4461C59.0986 26.0918 59.3189 25.7719 59.5967 25.5061C59.8607 25.2443 60.1755 25.0392 60.5217 24.9036C60.8875 24.7671 61.2754 24.6995 61.6658 24.7044C61.9174 24.7044 62.1681 24.7336 62.4128 24.7915C62.67 24.8523 62.9203 24.939 63.1598 25.0505L63.1586 26.6876ZM69.6998 28.7244C69.5433 29.0765 69.3166 29.3929 69.0337 29.6544C68.7397 29.9234 68.3975 30.1346 68.0253 30.2769C67.2643 30.5713 66.4208 30.5713 65.6598 30.2769C65.2905 30.1361 64.9522 29.9246 64.6638 29.6544C64.3758 29.3937 64.1455 29.0757 63.9878 28.7207C63.8358 28.3697 63.7575 27.9914 63.7575 27.6089C63.7575 27.2265 63.8358 26.8481 63.9878 26.4971C64.1456 26.1429 64.3759 25.8257 64.6638 25.5659C64.952 25.2954 65.2903 25.0839 65.6598 24.9434C66.4211 24.6505 67.264 24.6505 68.0253 24.9434C68.3942 25.0849 68.7324 25.2963 69.0213 25.5659C69.3039 25.8274 69.5301 26.1438 69.6861 26.4959C69.8376 26.8478 69.9158 27.227 69.9158 27.6102C69.9158 27.9933 69.8376 28.3725 69.6861 28.7244H69.6998Z" fill="#170D26"/>
<path d="M6.85637 25.9855C6.65344 25.9802 6.45176 26.0188 6.26507 26.0985C6.07838 26.1782 5.91105 26.2972 5.77448 26.4473C5.4992 26.771 5.34751 27.1817 5.34637 27.6065C5.34523 28.0314 5.49471 28.4429 5.76824 28.768C5.90941 28.9128 6.07813 29.0279 6.26448 29.1065C6.45082 29.1851 6.65103 29.2256 6.85326 29.2256C7.0555 29.2256 7.25569 29.1851 7.44204 29.1065C7.62838 29.0279 7.79711 28.9128 7.93827 28.768C8.21587 28.4461 8.36858 28.0352 8.36858 27.6102C8.36858 27.1851 8.21587 26.7742 7.93827 26.4523C7.80215 26.3012 7.63502 26.1813 7.4483 26.1007C7.26158 26.0202 7.05967 25.9808 6.85637 25.9855Z" fill="#170D26"/>
</g>
<defs>
<clipPath id="clip0_947_26393">
<rect width="74.8165" height="32" fill="white" transform="translate(0.180725)"/>
</clipPath>
</defs>
</svg>
