<svg width="69" height="40" viewBox="0 0 69 40" fill="none" xmlns="http://www.w3.org/2000/svg">
<g clip-path="url(#clip0_947_26385)">
<path d="M22.7475 9.88101C22.9515 9.88101 23.1781 9.90367 23.45 9.99433C23.722 10.0623 23.9486 10.153 24.1752 10.2663C24.4019 10.3796 24.5832 10.4929 24.7192 10.6062C24.8778 10.7195 24.9458 10.8329 24.9458 10.9235C24.5605 11.762 24.1979 12.5779 23.858 13.4164C23.518 14.255 23.2461 15.0482 22.9968 15.8187C22.7701 16.5892 22.5888 17.3144 22.4529 17.9717C22.3169 18.6516 22.2716 19.2181 22.2716 19.7167C22.2716 20.2606 22.3396 20.7365 22.4529 21.0991C22.5662 21.4617 22.7702 21.7337 23.0421 21.8923C22.8155 22.051 22.4982 22.187 22.1356 22.2776C21.7503 22.3683 21.433 22.4363 21.1384 22.4363C20.0733 22.4363 19.552 21.711 19.552 20.238C19.552 19.1048 19.9373 17.5864 20.6852 15.6374C20.2999 16.5439 19.8466 17.3824 19.3254 18.1756C18.8041 18.9688 18.2829 19.6714 17.7617 20.2833C17.2177 20.8952 16.6965 21.3938 16.1526 21.779C15.6087 22.1643 15.1101 22.3909 14.6568 22.4816C13.9316 22.4816 13.3424 22.1416 12.8891 21.4844C12.4359 20.8272 12.2092 19.966 12.2092 18.9462C12.2092 17.8357 12.4359 16.6799 12.9118 15.4561C13.3877 14.2323 13.9996 13.0991 14.7248 12.034C15.4727 10.9915 16.2659 10.1076 17.1271 9.40509C17.9883 8.70254 18.8268 8.33994 19.6427 8.33994C19.8466 8.40792 20.0506 8.52124 20.2999 8.70254C20.5492 8.88385 20.7758 9.08781 21.0024 9.31444C21.2291 9.54107 21.4104 9.79036 21.569 10.0397C21.7277 10.2889 21.8183 10.4929 21.841 10.6742C21.0478 10.7875 20.2319 11.1728 19.3934 11.83C18.5549 12.4872 17.807 13.2578 17.1271 14.1643C16.4472 15.0708 15.8806 16.0453 15.45 17.1105C15.0194 18.153 14.7928 19.1275 14.7928 20.034C14.7928 20.3966 14.9288 20.6459 15.2007 20.7365C15.7673 20.6232 16.4245 20.1246 17.1724 19.2634C17.9203 18.4023 18.8268 17.0878 19.892 15.2974C20.0959 14.9348 20.2999 14.5496 20.5492 14.119C20.7985 13.6884 21.0478 13.2351 21.2971 12.7592C21.5464 12.2833 21.7956 11.8074 22.0449 11.3314C22.2942 10.7875 22.5209 10.3343 22.7475 9.88101Z" fill="#170D26"/>
<path d="M31.8353 21.1671C31.45 20.8499 31.2007 20.4646 31.0874 19.9887C30.9515 19.5127 30.9061 19.1048 30.9061 18.7875C30.9061 18.3796 30.9515 18.017 31.0648 17.7224C30.9968 17.7224 30.8155 17.881 30.5209 18.1983C30.2489 18.5156 29.9543 18.8782 29.6143 19.3088C29.2971 19.7394 28.9798 20.17 28.6625 20.5779C28.3452 20.9858 28.1186 21.3031 27.96 21.4844C27.7107 21.7564 27.4614 21.983 27.2347 22.1416C27.0081 22.3003 26.8268 22.3909 26.6908 22.4136C26.3736 22.4136 26.0563 22.3683 25.6937 22.255C25.3537 22.1416 25.0138 21.983 24.7192 21.8017C24.4019 21.5977 24.1526 21.3711 23.926 21.0991C23.6993 20.8272 23.5407 20.5099 23.4727 20.1473C23.4727 19.6034 23.4954 19.1501 23.518 18.7875C23.5407 18.4249 23.6087 18.0397 23.6993 17.6317C23.8806 16.8838 24.1299 16.0453 24.4925 15.0935C24.8325 14.1416 25.2404 13.2125 25.6937 12.3059C26.1469 11.3994 26.6455 10.5382 27.2121 9.74503C27.7786 8.95183 28.3679 8.31727 29.0024 7.86401C29.1837 7.86401 29.3877 7.88668 29.6143 7.90934C29.841 7.932 30.0903 7.99999 30.3396 8.06798C30.5888 8.13597 30.8155 8.24928 31.0421 8.33993C31.2687 8.45325 31.45 8.58923 31.6087 8.77053C31.4274 8.9745 30.9741 9.63172 30.2716 10.7422C29.5464 11.8753 28.7532 13.4844 27.8693 15.5921C27.7786 15.8187 27.6427 16.1133 27.5067 16.5439C27.3707 16.9518 27.2347 17.3824 27.0988 17.8357C26.9628 18.2889 26.8495 18.7422 26.7588 19.1728C26.6682 19.6034 26.6228 19.9433 26.6228 20.2153C26.6228 20.3739 26.6455 20.4872 26.6908 20.5779C26.7362 20.6459 26.7815 20.7139 26.8268 20.7592C27.1214 20.6459 27.5067 20.3059 27.96 19.7847C28.4132 19.2408 29.0478 18.4249 29.841 17.3371C30.0449 17.0651 30.2716 16.7479 30.5435 16.3853C30.8155 16.0227 31.0874 15.66 31.3594 15.2521C31.6313 14.8442 31.9033 14.4363 32.1526 14.0057C32.4019 13.5751 32.6058 13.1445 32.7645 12.7139C32.8551 12.4872 32.9458 12.1926 33.0818 11.8753C33.2177 11.5581 33.3764 11.2181 33.5577 10.8555C33.739 10.4929 33.9656 10.1303 34.2149 9.7677C34.4642 9.40509 34.7588 9.06515 35.0988 8.74787C35.3481 8.74787 35.62 8.77053 35.9146 8.83852C36.2092 8.90651 36.4812 8.9745 36.7531 9.06515C37.0251 9.1558 37.2517 9.24645 37.4557 9.35976C37.6597 9.47308 37.7956 9.58639 37.909 9.69971C37.5464 10.5609 37.1611 11.4221 36.7305 12.2606C36.2999 13.0991 35.892 13.9377 35.5067 14.7535C35.1441 15.5694 34.8268 16.3853 34.5548 17.2011C34.3056 18.017 34.1696 18.7875 34.1696 19.5581C34.1696 19.966 34.1922 20.3286 34.2829 20.6459C34.3509 20.9405 34.4189 21.2125 34.5095 21.4164C34.5775 21.6204 34.6682 21.8017 34.7362 21.9377C34.8041 22.0736 34.8495 22.187 34.8495 22.3003C34.8495 22.3229 34.8268 22.3456 34.7815 22.3909C34.7588 22.4136 34.7362 22.4136 34.7135 22.4136C34.5775 22.4136 34.3962 22.3909 34.1922 22.3229C33.9656 22.255 33.739 22.187 33.467 22.0736C33.1951 21.9603 32.9458 21.847 32.6738 21.711C32.3112 21.4618 32.0619 21.3258 31.8353 21.1671Z" fill="#170D26"/>
<path d="M35.3027 21.2125C35.3934 20.6459 35.5747 19.898 35.824 18.9462C36.0733 18.017 36.3679 17.0198 36.6852 15.9547C37.0251 14.9122 37.365 13.847 37.7503 12.7819C38.1356 11.7167 38.4982 10.7649 38.8381 9.9037C39.0874 9.2918 39.3141 8.81588 39.518 8.47594C39.722 8.13599 39.926 7.84137 40.1752 7.61475C40.4472 7.66007 40.7418 7.72806 41.0364 7.81871C41.331 7.90936 41.6257 8.04534 41.8976 8.18132C42.1696 8.3173 42.4189 8.45327 42.6455 8.61191C42.8721 8.77055 43.0308 8.90653 43.1441 9.04251C42.6228 9.67707 42.1469 10.3796 41.739 11.1955C41.331 12.0113 40.9231 13.0312 40.5152 14.3003C41.5803 13.3485 42.5095 12.4419 43.348 11.5808C44.1639 10.7196 44.9345 9.74506 45.637 8.6799C45.7503 8.58925 45.9543 8.52126 46.2489 8.52126C46.5209 8.52126 46.7928 8.56659 47.0421 8.65724C47.2914 8.74789 47.4727 8.86121 47.5633 9.01985C47.2007 9.97169 47.0874 10.9009 47.0421 11.83C46.9741 12.9405 47.3141 13.5524 47.3141 13.5524C47.3141 13.5524 47.0648 14.0057 46.7928 14.5496C46.6115 14.9349 46.4302 15.5468 46.4302 15.5468C46.4302 15.5468 45.5917 15.1842 44.7758 14.255C44.3679 13.7791 44.0506 13.2351 43.8693 12.6686C42.9401 13.3258 42.1469 13.9604 41.5124 14.5723C40.8551 15.1842 40.3112 15.8867 39.8353 16.6346C39.382 17.3825 38.9741 18.2663 38.6568 19.2408C38.3395 20.2153 38.0223 21.3938 37.7276 22.7536C37.5463 22.7309 37.3424 22.6629 37.0931 22.5723C36.8438 22.4589 36.5945 22.323 36.3452 22.1643C36.0959 22.0057 35.8693 21.847 35.688 21.6657C35.5067 21.5524 35.3707 21.3711 35.3027 21.2125Z" fill="#170D26"/>
<path d="M54.6795 21.1671C54.2942 20.8499 54.0449 20.4646 53.9316 19.9887C53.7956 19.5127 53.7503 19.1048 53.7503 18.7875C53.7503 18.3796 53.7956 18.017 53.909 17.7224C53.841 17.7224 53.6597 17.881 53.365 18.1983C53.0931 18.5156 52.7985 18.8782 52.4585 19.3088C52.1412 19.7394 51.8013 20.17 51.5067 20.5779C51.1894 20.9858 50.9628 21.3031 50.8041 21.4844C50.5548 21.7564 50.3056 21.983 50.0789 22.1416C49.8523 22.3003 49.671 22.3909 49.535 22.4136C49.2177 22.4136 48.9005 22.3683 48.5378 22.255C48.1979 22.1416 47.858 21.983 47.5633 21.8017C47.2461 21.5977 46.9968 21.3711 46.7701 21.0991C46.5435 20.8272 46.3849 20.5099 46.3169 20.1473C46.3169 19.6034 46.3395 19.1501 46.3622 18.7875C46.3849 18.4249 46.4529 18.0397 46.5435 17.6317C46.7248 16.8838 46.9741 16.0453 47.3367 15.0935C47.6767 14.1416 48.0846 13.2125 48.5378 12.3059C48.9911 11.3994 49.4897 10.5382 50.0563 9.74503C50.6228 8.95183 51.2121 8.31727 51.8466 7.86401C52.0279 7.86401 52.2319 7.88668 52.4585 7.90934C52.6852 7.932 52.9344 7.99999 53.1837 8.06798C53.433 8.13597 53.6597 8.24928 53.8863 8.33993C54.1129 8.45325 54.2942 8.58923 54.4529 8.77053C54.2716 8.9745 53.8183 9.63172 53.1158 10.7422C52.3905 11.8753 51.5973 13.4844 50.7135 15.5921C50.6228 15.8187 50.4869 16.1133 50.3509 16.5439C50.2149 16.9518 50.0789 17.3824 49.9429 17.8357C49.807 18.2889 49.6937 18.7422 49.603 19.1728C49.5124 19.6034 49.467 19.9433 49.467 20.2153C49.467 20.3739 49.4897 20.4872 49.535 20.5779C49.5803 20.6459 49.6257 20.7139 49.671 20.7592C49.9656 20.6459 50.3509 20.3059 50.8041 19.7847C51.2574 19.2408 51.892 18.4249 52.6852 17.3371C52.8891 17.0651 53.1158 16.7479 53.3877 16.3853C53.6597 16.0227 53.9316 15.66 54.2036 15.2521C54.4755 14.8442 54.7475 14.4363 54.9968 14.0057C55.2461 13.5751 55.45 13.1445 55.6087 12.7139C55.6767 12.4872 55.79 12.1926 55.926 11.8753C56.0619 11.5581 56.2206 11.2181 56.4019 10.8555C56.5832 10.4929 56.8098 10.1303 57.0591 9.7677C57.3084 9.40509 57.603 9.06515 57.9203 8.74787C58.1696 8.74787 58.4415 8.77053 58.7588 8.83852C59.0534 8.90651 59.3254 8.9745 59.5973 9.06515C59.8693 9.1558 60.0959 9.24645 60.2999 9.35976C60.5039 9.47308 60.6398 9.58639 60.7531 9.69971C60.3905 10.5609 60.0053 11.4221 59.5747 12.2606C59.1441 13.0991 58.7361 13.9377 58.3735 14.7535C57.9883 15.5694 57.6937 16.3853 57.4217 17.2011C57.1724 18.017 57.0364 18.7875 57.0364 19.5581C57.0364 19.966 57.0818 20.3286 57.1497 20.6459C57.2177 20.9405 57.2857 21.2125 57.3764 21.4164C57.4444 21.6204 57.535 21.8017 57.603 21.9377C57.671 22.0736 57.7163 22.187 57.7163 22.3003C57.7163 22.3229 57.6937 22.3456 57.6483 22.3909C57.6257 22.4136 57.603 22.4136 57.5803 22.4136C57.4444 22.4136 57.2631 22.3909 57.0591 22.3229C56.8325 22.255 56.6058 22.187 56.3339 22.0736C56.0619 21.9603 55.8126 21.847 55.5407 21.711C55.1781 21.4618 54.9288 21.3258 54.6795 21.1671Z" fill="#170D26"/>
<path d="M68.9344 9.13316C68.9798 9.49576 68.9571 9.9037 68.9118 10.3116C68.8665 10.7196 68.7758 11.1048 68.6852 11.4448C68.5718 11.7847 68.4585 12.0793 68.2999 12.3286C68.1639 12.5779 68.0053 12.6912 67.8466 12.7139C67.62 12.7366 67.484 12.6006 67.3934 12.3286C67.3934 12.2606 67.3934 12.17 67.416 12.034C67.4387 11.898 67.484 11.7394 67.5067 11.5807C67.552 11.4221 67.5747 11.2408 67.5973 11.0822C67.62 10.9235 67.62 10.7875 67.5973 10.6516C67.552 10.3796 67.4614 10.153 67.3027 9.99435C67.1441 9.83571 66.9628 9.76772 66.7588 9.79038C65.9883 9.9037 65.467 10.4929 65.1951 11.5128C64.9231 12.5326 64.9458 14.0057 65.2177 15.8867C65.2404 16.0907 65.2631 16.204 65.3084 16.2266C65.7163 16.1587 66.0789 16.1133 66.3962 16.068C66.7135 16.0227 67.0308 15.9774 67.348 15.932C67.3707 15.9774 67.3934 16.0453 67.416 16.1587C67.4387 16.34 67.416 16.4759 67.348 16.5439C66.9174 16.7026 66.5775 16.8385 66.3282 16.9519C66.0789 17.0652 65.875 17.1558 65.7616 17.2238C65.6257 17.2918 65.5577 17.3825 65.535 17.4504C65.5123 17.5184 65.5123 17.6091 65.535 17.7224C65.5577 17.881 65.5803 18.0397 65.6257 18.1757C65.6483 18.3343 65.6937 18.5156 65.7163 18.7649C65.9656 20.3966 65.7163 21.7791 64.9684 22.8895C64.2206 24.0227 63.0874 24.7706 61.5237 25.1785C61.2517 25.2011 60.9571 25.1558 60.6398 25.0652C60.3225 24.9745 60.0279 24.8385 59.7333 24.6572C59.4387 24.4759 59.1667 24.272 58.9401 24.0453C58.7135 23.8187 58.5322 23.5694 58.4189 23.2975C58.3056 22.5496 58.3509 21.8244 58.5548 21.0992C58.7588 20.374 59.0988 19.7167 59.552 19.1048C60.0053 18.4929 60.5718 17.9943 61.2517 17.5638C61.9316 17.1332 62.7022 16.8385 63.5633 16.7252C63.4954 16.2266 63.3594 15.7734 63.2007 15.3201C63.0421 14.8669 62.8608 14.4363 62.6795 14.0057C62.4982 13.5751 62.3395 13.1672 62.1809 12.7592C62.0223 12.3513 61.909 11.9434 61.841 11.5354C61.773 11.0142 61.7956 10.4703 61.9316 9.92636C62.0676 9.38245 62.2716 8.8612 62.5662 8.36262C62.8608 7.86404 63.2007 7.43344 63.6313 7.04817C64.0619 6.6629 64.5152 6.36828 64.9911 6.18698C65.2177 6.20964 65.535 6.34562 65.9203 6.57225C66.3282 6.79888 66.7361 7.07083 67.1214 7.36545C67.5293 7.66007 67.892 7.97735 68.2092 8.29463C68.6172 8.63457 68.8438 8.90653 68.9344 9.13316ZM61.2744 23.9094C61.705 23.6374 62.1129 23.2975 62.4755 22.8669C62.8381 22.4363 63.1327 21.9604 63.382 21.4391C63.6313 20.9179 63.79 20.3966 63.9033 19.83C64.0166 19.2861 64.0166 18.7422 63.9486 18.2436C63.5633 18.357 63.1554 18.6062 62.7475 18.9689C62.3169 19.3315 61.9316 19.7621 61.5917 20.238C61.2517 20.7139 60.9798 21.2125 60.7531 21.6884C60.5492 22.187 60.4585 22.5949 60.5265 22.9122C60.6172 23.3881 60.8438 23.7054 61.2744 23.9094Z" fill="#170D26"/>
<path d="M39.9033 30.323C39.8806 30.2776 39.8353 30.2776 39.7673 30.255C26.6228 25.8357 3.14409 31.5468 3.14409 31.5468L0.515198 39.4561C0.515198 39.4561 17.943 32.1586 25.943 31.0482C33.0818 30.051 38.5435 30.9575 39.5633 31.2975C39.6767 31.3201 39.6767 31.3201 39.722 31.2748C39.7673 31.2521 39.7673 31.1388 39.7673 31.1388L39.9033 30.4589C39.926 30.4589 39.9486 30.3909 39.9033 30.323Z" fill="#170D26"/>
<path d="M22.2262 0.815864C21.909 0.271955 21.365 0 20.6398 0C20.3905 0 19.8013 0.0453258 18.9175 0.15864C18.0336 0.271955 17.0138 0.385269 15.8353 0.498584C14.7022 0.611898 13.4784 0.679887 12.2092 0.679887C10.9401 0.679887 9.80698 0.679887 8.80981 0.679887C8.12993 0.679887 7.56335 0.657224 7.04211 0.634561C6.54353 0.611898 6.15826 0.566572 5.90896 0.498584C5.84098 0.657224 5.77299 0.838527 5.72766 1.06516C5.68234 1.29178 5.65967 1.47309 5.65967 1.63173C5.65967 2.26629 5.86364 2.8102 6.29423 3.24079C6.72483 3.69405 7.31406 3.89802 8.10726 3.89802C8.67384 3.89802 9.33106 3.85269 10.0789 3.7847C10.8268 3.71671 11.5973 3.62606 12.4359 3.53541C12.3226 3.98867 12.1639 4.48725 12.0053 5.05382C11.8466 5.59773 11.6427 6.18697 11.4387 6.7762C11.2347 7.36544 11.0308 7.95467 10.8041 8.56657C10.5775 9.17847 10.3736 9.74504 10.1922 10.289C9.64834 11.762 9.19508 13.0765 8.76449 14.255C8.35656 15.4108 7.99395 16.4533 7.67667 17.3824C7.51803 17.8357 7.38205 18.2436 7.26874 18.6289C6.52086 20.8725 4.9118 25.881 5.41038 25.6317C6.83814 24.9292 9.24041 24.3399 9.51236 24.2946C9.55769 24.2946 9.58035 24.3173 9.62568 24.3173C9.76165 23.4788 9.92029 22.6402 10.1016 21.779C10.2829 20.9178 10.4869 19.9887 10.7362 19.0368C10.9854 18.085 11.2574 17.0425 11.5973 15.932C11.9146 14.8215 12.2999 13.6204 12.7305 12.306C12.9571 11.6261 13.2064 10.8782 13.501 10.0397C13.7956 9.20113 14.1129 8.36261 14.4302 7.50142C14.7475 6.66289 15.0874 5.84703 15.4274 5.05382C15.7673 4.28329 16.0619 3.6034 16.3339 3.01416C16.9911 2.94618 17.6257 2.90085 18.2602 2.90085C18.8948 2.90085 19.5294 2.90085 20.1639 2.90085C20.5265 2.90085 20.9571 2.90085 21.4557 2.90085C21.9543 2.90085 22.4755 2.92351 22.9741 2.9915C22.7928 2.08499 22.5662 1.35977 22.2262 0.815864Z" fill="#170D26"/>
<path d="M49.739 31.1615C49.875 31.1161 49.943 31.0028 49.943 30.8669C49.9656 30.7535 49.943 30.6629 49.875 30.5722C49.807 30.5042 49.739 30.4589 49.6483 30.4363C49.4897 30.3909 49.3537 30.3456 49.1951 30.3003C49.0364 30.2776 48.8778 30.255 48.7192 30.2776C48.5379 30.3003 48.3566 30.3229 48.1753 30.3456C47.994 30.3683 47.8126 30.3909 47.6313 30.4363C47.2914 30.5042 46.9288 30.5722 46.5662 30.6629C46.2036 30.7535 45.8636 30.8215 45.501 30.9122L45.1158 31.0028C45.1384 30.9575 45.1838 30.8895 45.2064 30.8442C45.2744 30.7535 45.3197 30.6629 45.3877 30.5496C45.8636 29.7564 46.3849 28.9632 46.9288 28.1926C47.45 28.102 47.9939 28.0113 48.5379 27.9207C49.0591 27.83 49.603 27.7394 50.1696 27.6487C50.6228 27.5807 51.0534 27.5354 51.484 27.4674C51.9146 27.3994 52.3679 27.3314 52.8211 27.2861C53.2064 27.2408 53.569 27.1955 53.9543 27.1501C54.3396 27.1275 54.7248 27.0822 55.0874 27.0822C55.2461 27.0822 55.4047 27.0822 55.6087 27.0822C55.6313 27.0822 55.654 27.0822 55.6767 27.0822C55.45 27.1275 55.2234 27.1955 55.0194 27.2635C54.7248 27.3541 54.4529 27.4448 54.1583 27.5581C53.4784 27.7847 52.7985 28.0793 52.0959 28.3966C52.0279 28.4193 52.0053 28.4646 51.9826 28.5099C51.9826 28.5326 51.9826 28.5779 52.0279 28.6232C52.0733 28.6912 52.1639 28.7365 52.2319 28.7365L52.7758 28.5326C52.9571 28.4873 53.1384 28.4193 53.3197 28.3513C53.4784 28.3059 53.6597 28.238 53.841 28.17C54.1809 28.0567 54.5435 27.966 54.9061 27.8754C55.2687 27.7847 55.6313 27.7167 55.9939 27.6487C56.0846 27.6487 56.1526 27.6261 56.2432 27.6261C56.3112 27.6034 56.4019 27.6034 56.4699 27.5807L56.9911 27.5354C57.0591 27.5354 57.1271 27.5127 57.1951 27.5127C57.2857 27.5127 57.3764 27.4674 57.4217 27.3994C57.5124 27.3314 57.5577 27.2408 57.5577 27.1728C57.5577 27.1048 57.535 27.0595 57.4897 26.9915C57.399 26.9009 57.3311 26.8102 57.2631 26.7195C57.1724 26.6062 57.0591 26.4929 56.9231 26.3796C56.7871 26.2663 56.6512 26.1983 56.4925 26.1076C56.3339 26.0397 56.1526 26.017 55.9486 26.017C55.5634 26.017 55.2461 25.9943 54.8835 26.017C54.7248 26.017 54.5435 26.0397 54.3849 26.0623C53.8183 26.1303 53.2291 26.221 52.6852 26.3343C52.1186 26.4476 51.552 26.5382 51.0081 26.6289C50.4189 26.7195 49.807 26.8329 49.1951 26.9462C48.6512 27.0368 48.1073 27.1501 47.5634 27.2408L48.0846 26.5382C48.1526 26.4476 48.1526 26.3343 48.1073 26.2436C48.0619 26.153 47.9713 26.085 47.8353 26.085C47.7673 26.1077 47.6993 26.1303 47.6087 26.1756C47.5407 26.221 47.4954 26.2436 47.4274 26.2663C47.2461 26.3796 47.0874 26.5156 46.9515 26.6969C46.8155 26.8555 46.7022 27.0142 46.5889 27.1501C46.5435 27.2181 46.4755 27.2635 46.4529 27.3314C46.4302 27.3768 46.3849 27.4221 46.3622 27.4674L46.0223 27.5354C45.773 27.5807 45.501 27.6261 45.2291 27.6714L44.1866 27.8527L44.4359 27.7394C44.5039 27.7167 44.5719 27.6487 44.5945 27.5807C44.6172 27.4901 44.5945 27.4221 44.5265 27.3541C44.4812 27.3088 44.4132 27.2861 44.3679 27.2861H44.3452C44.3226 27.2861 44.2546 27.3088 44.2093 27.3088C44.0506 27.3314 43.892 27.3768 43.756 27.4221C43.5974 27.4674 43.4614 27.5127 43.2801 27.5807C43.1668 27.6487 43.0308 27.7167 42.9401 27.8074C42.8268 27.898 42.7362 28.0113 42.6908 28.1473C42.6682 28.2153 42.6682 28.3059 42.6908 28.3966V28.4419C42.6908 28.4646 42.6908 28.4873 42.7135 28.5099L42.7362 28.5552H42.7588C42.8268 28.6232 42.9175 28.6912 43.0308 28.7139C43.1894 28.7592 43.3707 28.7592 43.552 28.7139C43.7333 28.6912 43.892 28.6686 44.0506 28.6459L44.6852 28.5552C44.8438 28.5326 44.9798 28.5099 45.1384 28.4873C45.2744 28.4646 45.433 28.4419 45.5917 28.4193L45.705 28.3966C45.6143 28.5099 45.5464 28.6232 45.4784 28.7365C45.3877 28.8952 45.2744 29.0538 45.1611 29.1898C44.9345 29.5297 44.7078 29.8697 44.4812 30.2323C44.2772 30.5722 44.0506 30.9122 43.8466 31.2295C43.8013 31.2295 43.756 31.2068 43.688 31.2068C43.5294 31.1615 43.3707 31.1388 43.2347 31.1615C43.0988 31.1841 42.9628 31.2295 42.8042 31.3201C42.6682 31.3654 42.5549 31.4561 42.4189 31.5694C42.3962 31.5921 42.3736 31.6147 42.3282 31.6601C42.3282 31.6827 42.3056 31.6827 42.3056 31.6827L42.2829 31.7054C42.2149 31.7507 42.1696 31.8414 42.1696 31.932C42.1696 32.0227 42.1923 32.1133 42.2602 32.1813C42.3056 32.2266 42.3962 32.2493 42.4869 32.2493C42.6228 32.272 42.7588 32.272 42.8948 32.2493C42.9855 32.2493 43.0761 32.2493 43.1668 32.2493L43.0534 32.4533C42.6682 33.0878 42.3056 33.7224 41.9203 34.3569C41.5577 34.9688 41.2178 35.6261 40.8778 36.3059C40.8098 36.4646 40.7418 36.6006 40.6738 36.7592C40.6965 36.7139 40.6965 36.6459 40.7192 36.6006C40.7418 36.5552 40.7645 36.4872 40.7872 36.4419C40.8098 36.3739 40.8098 36.2833 40.7872 36.238C40.7418 36.0113 40.6059 35.9887 40.5152 35.9887C40.4246 35.9887 40.2886 36.034 40.1979 36.2153C40.1526 36.3286 40.0846 36.4646 40.0619 36.6006C40.0393 36.7365 39.994 36.8725 39.9486 37.0085C39.858 37.3031 39.79 37.5977 39.722 37.915C39.6767 38.2096 39.6314 38.5269 39.6087 38.8442C39.6087 38.9122 39.6087 39.0255 39.6087 39.1615C39.6087 39.2974 39.6314 39.4334 39.6767 39.5694C39.722 39.7054 39.7673 39.8187 39.858 39.9093C39.926 40 40.0393 40.0453 40.1753 40.0453C40.1979 40.0453 40.1979 40.0453 40.2206 40.0453C40.4019 40.0227 40.4925 39.9547 40.5605 39.796L40.6738 39.4561L40.8098 39.0708C41.0138 38.5496 41.2178 38.051 41.4444 37.5524C41.671 37.0538 41.9203 36.5779 42.1696 36.0793C42.5095 35.3994 42.8948 34.7195 43.2574 34.0623C43.6427 33.4051 44.0279 32.7479 44.4132 32.1133L45.4784 31.8867L47.8806 31.4108C47.858 31.4334 47.8353 31.4561 47.8126 31.4561C47.7447 31.5241 47.6767 31.5921 47.586 31.6827C47.4954 31.7734 47.4274 31.8867 47.4047 31.9773C47.3594 32.068 47.3821 32.1586 47.4274 32.2266C47.4954 32.3173 47.5634 32.3399 47.6087 32.3399C47.6313 32.3399 47.6313 32.3399 47.654 32.3399C47.6993 32.3173 47.7673 32.2946 47.8126 32.2719C47.858 32.2266 47.8806 32.204 47.9033 32.1813C48.1073 32 48.3566 31.8187 48.6058 31.6827C48.8551 31.5467 49.1271 31.4108 49.3764 31.3201C49.467 31.2748 49.5577 31.2521 49.6483 31.2068L49.739 31.1615Z" fill="#170D26"/>
<path d="M65.9656 25.7677C65.9203 25.6091 65.8296 25.4731 65.6483 25.3598C65.535 25.2918 65.3991 25.2465 65.2631 25.2465H65.2404C65.1044 25.2465 64.9685 25.2691 64.8325 25.3371C64.6965 25.3824 64.5605 25.4504 64.4472 25.5411C64.3339 25.6317 64.2206 25.6997 64.1299 25.7904C63.858 26.017 63.6313 26.2663 63.4047 26.5609C63.1781 26.8329 62.9741 27.1048 62.7928 27.3994C61.9543 28.6232 61.2744 29.9603 60.7758 31.3654C60.6852 31.5921 60.6172 31.8187 60.5492 32.068C60.4812 32.2946 60.4132 32.5439 60.3679 32.7705C60.0279 33.0652 59.6653 33.3371 59.3027 33.5637C59.2574 33.5864 59.1441 33.6544 59.0081 33.7224C58.8721 33.7904 58.7362 33.8584 58.6228 33.881C58.5549 33.9037 58.4869 33.9263 58.4189 33.9263C58.3736 33.9263 58.3509 33.9264 58.3056 33.9037C58.2829 33.9037 58.2149 33.881 58.2376 33.6997C58.2602 33.4051 58.3509 33.1105 58.5322 32.8385C58.7135 32.5666 58.9175 32.2946 59.1214 32.0907C59.3027 31.9094 59.5067 31.7507 59.7107 31.5921C59.9146 31.4334 60.1639 31.3428 60.3906 31.2521C60.5039 31.2295 60.5719 31.1615 60.5945 31.0482C60.6172 30.9802 60.5945 30.8669 60.4812 30.7762C60.4132 30.7309 60.2999 30.7082 60.1866 30.7309C60.0733 30.7535 60.0053 30.7762 59.9373 30.7989C59.7333 30.8442 59.5294 30.9122 59.3254 31.0255C59.1441 31.1161 58.9401 31.2295 58.7815 31.3654C58.5095 31.5694 58.2829 31.796 58.0563 32.068L57.8523 32.2493C57.7617 32.3399 57.7163 32.3399 57.6937 32.3626C57.5577 32.4533 57.4217 32.4986 57.2631 32.5213C57.1271 32.5439 56.9685 32.5439 56.8325 32.4759C56.7418 32.4533 56.6512 32.4079 56.5379 32.3399C56.5832 32.2266 56.6512 32.1133 56.6738 31.9773C56.7192 31.8414 56.7645 31.6827 56.7645 31.5467C56.7871 31.4108 56.7645 31.2748 56.7418 31.1388C56.6965 31.0028 56.6285 30.8895 56.5152 30.7989C56.4019 30.7082 56.2886 30.6856 56.1753 30.7309C56.0846 30.7762 55.9939 30.8215 55.9486 30.9122C55.858 30.8669 55.6993 30.8669 55.586 30.8895H55.518C55.4274 30.8895 55.3367 30.9122 55.2461 30.9348C55.1554 30.9575 55.0648 31.0028 54.9741 31.0482H54.9061C54.7475 31.0708 54.6115 31.0935 54.4529 31.1388C54.3169 31.1841 54.1809 31.2068 54.0223 31.2295C53.7503 31.2975 53.4784 31.3428 53.2291 31.3654C53.1837 31.2748 53.1158 31.1841 53.0251 31.0935C52.9345 31.0255 52.8211 30.9575 52.7078 30.9122C52.5945 30.8669 52.4812 30.8442 52.3679 30.8669H52.3452C52.2319 30.8442 52.0959 30.8442 52.0053 30.8442C51.892 30.8442 51.7786 30.8895 51.6653 30.9122C51.3481 31.0255 51.0534 31.1841 50.7815 31.4334C50.5095 31.6827 50.3056 31.9547 50.1243 32.2266C49.9656 32.4986 49.8523 32.8159 49.739 33.1785C49.6257 33.5637 49.6257 33.9037 49.739 34.2436C49.807 34.4476 49.9203 34.5836 50.0789 34.6516C50.2149 34.7196 50.3509 34.7422 50.4869 34.7422C50.5095 34.7422 50.5322 34.7422 50.5549 34.7422C50.7362 34.7422 50.9175 34.6969 51.0761 34.6289C51.2574 34.5609 51.3934 34.4929 51.5067 34.4249C51.8013 34.2663 52.0733 34.0623 52.2999 33.813C52.5265 33.5637 52.7305 33.2918 52.9118 32.9972C52.9798 32.8612 53.0704 32.7026 53.1384 32.5213C53.2064 32.3399 53.2517 32.1813 53.2744 32C53.3877 31.9773 53.501 31.9547 53.6143 31.932C53.705 31.9094 53.7956 31.8867 53.8863 31.864C53.8183 31.9547 53.7277 32.0453 53.6597 32.136C53.5237 32.2946 53.4104 32.4759 53.3197 32.6799C53.2291 32.8839 53.1611 33.1105 53.1158 33.3371C53.0704 33.5864 53.0704 33.8357 53.1611 34.0623C53.2517 34.2436 53.3651 34.3569 53.501 34.4249C53.637 34.4929 53.773 34.5156 53.909 34.5156H53.9543C54.1129 34.5156 54.2716 34.4703 54.4302 34.4249C54.5888 34.3569 54.7475 34.3116 54.8608 34.2436C55.1554 34.085 55.4047 33.881 55.6313 33.6317C55.8353 33.4051 56.0393 33.1558 56.1979 32.9065C56.4925 33.1105 56.8325 33.2011 57.1951 33.1331C57.2857 33.1105 57.3537 33.0878 57.4444 33.0652C57.3764 33.2691 57.3311 33.4731 57.3084 33.6997C57.2857 33.949 57.3311 34.153 57.4444 34.3796C57.5577 34.5836 57.739 34.7422 57.9883 34.8102C58.2149 34.8782 58.4642 34.8782 58.6908 34.8102C58.9175 34.7422 59.1441 34.6742 59.3254 34.5836C59.5067 34.4929 59.6653 34.4023 59.8466 34.289C59.9826 34.1983 60.0959 34.1077 60.2319 34.017C60.2546 34.2436 60.2772 34.4476 60.3452 34.6742C60.4359 34.9462 60.5945 35.1728 60.8438 35.3314C61.0704 35.4901 61.3424 35.5807 61.6143 35.5807C61.637 35.5807 61.6823 35.5807 61.705 35.5807C61.9543 35.5807 62.2036 35.5354 62.4302 35.4674C62.7022 35.3768 62.9515 35.2408 63.2007 35.0822C63.45 34.9235 63.6313 34.7422 63.79 34.5609C63.994 34.3116 64.1526 34.017 64.2432 33.6997C64.3566 33.3598 64.3112 33.0425 64.1526 32.7252C64.1299 32.7026 64.1073 32.6572 64.0619 32.6119C64.0166 32.5666 63.9939 32.5213 63.9486 32.4759C63.9033 32.4306 63.8353 32.4079 63.79 32.3853C63.722 32.3626 63.654 32.3853 63.586 32.4533C63.5407 32.5212 63.518 32.5892 63.5407 32.6572C63.5407 32.7026 63.5407 32.7479 63.5407 32.7932V32.9972C63.5407 33.0425 63.518 33.1105 63.518 33.1558C63.4727 33.4504 63.3594 33.7224 63.1781 33.949C62.9968 34.1756 62.7928 34.3796 62.5435 34.5382C62.3622 34.6516 62.1356 34.7649 61.8863 34.8329C61.637 34.9009 61.433 34.8782 61.2291 34.7649C61.0251 34.6289 60.9345 34.4249 60.9118 34.1756C60.8891 33.9264 60.8891 33.6544 60.9345 33.4051L61.6823 32.6799C62.2036 32.136 62.7022 31.5694 63.1781 31.0028C63.654 30.4363 64.1073 29.8244 64.5152 29.2125C64.7192 28.8952 64.9231 28.5779 65.1044 28.2606C65.3084 27.9433 65.467 27.6034 65.6257 27.2635C65.671 27.1501 65.739 27.0142 65.807 26.8329C65.875 26.6742 65.9203 26.4929 65.943 26.3116C66.011 26.1076 65.9883 25.9263 65.9656 25.7677ZM64.8551 26.5382C64.8551 26.5836 64.8325 26.6516 64.8325 26.6969C64.8325 26.7649 64.8098 26.8555 64.7872 26.9462C64.7418 27.1048 64.6965 27.2408 64.6512 27.3541C64.6058 27.4901 64.5379 27.6261 64.4699 27.762C64.3112 28.0567 64.1526 28.3286 63.9713 28.6006C63.79 28.8725 63.586 29.1445 63.4047 29.3938C63.0648 29.8697 62.7022 30.3229 62.3396 30.7535C62.0449 31.1161 61.7277 31.4788 61.3877 31.8187C61.4557 31.5921 61.569 31.3654 61.6597 31.1615C61.7956 30.8442 61.9543 30.5269 62.0903 30.2323C62.2942 29.8244 62.5209 29.4164 62.7475 29.0312C62.9741 28.6232 63.2461 28.238 63.518 27.8754C63.654 27.6941 63.79 27.5127 63.926 27.3314C64.0619 27.1501 64.2206 26.9915 64.4019 26.8555C64.4925 26.7875 64.5832 26.7195 64.6512 26.6516C64.7192 26.6062 64.7645 26.5609 64.8551 26.5382ZM55.654 32.0453C55.6767 32.1133 55.6993 32.204 55.722 32.272C55.7447 32.3399 55.7673 32.3853 55.79 32.4306C55.7673 32.4759 55.7447 32.4986 55.722 32.5213C55.6767 32.5666 55.654 32.5892 55.6313 32.6346C55.4727 32.8612 55.2914 33.0878 55.0874 33.2918C54.8835 33.4958 54.6342 33.6544 54.3622 33.7677C54.2716 33.7904 54.1809 33.813 54.0676 33.8584C53.9769 33.881 53.8863 33.8584 53.841 33.813C53.773 33.745 53.7503 33.6317 53.7956 33.4731C53.841 33.3145 53.8863 33.1785 53.9316 33.0878C54.0449 32.8385 54.2036 32.6119 54.3849 32.3626C54.5662 32.136 54.7702 31.9094 54.9741 31.7507C55.0874 31.6601 55.2234 31.5921 55.3367 31.5014C55.4274 31.4561 55.518 31.4108 55.6313 31.3881C55.6087 31.5921 55.6087 31.8187 55.654 32.0453ZM52.6398 31.932C52.6398 31.9547 52.6398 31.9773 52.6398 31.9773C52.5945 32.1586 52.5039 32.3173 52.4359 32.4759C52.3452 32.6346 52.2546 32.7932 52.1413 32.9292C52.0279 33.0878 51.892 33.2238 51.756 33.3598C51.62 33.4958 51.484 33.6091 51.3254 33.7224C51.2121 33.813 51.0761 33.9037 50.9175 33.9943C50.7815 34.0623 50.6455 34.1077 50.5322 34.1077C50.5095 34.1077 50.5095 34.1077 50.4869 34.1077C50.3509 34.085 50.3056 34.0397 50.3056 33.9037C50.3056 33.745 50.3282 33.5637 50.4189 33.3824C50.4869 33.1785 50.5775 32.9972 50.6682 32.8159C50.7815 32.6346 50.8495 32.4986 50.8948 32.4533C51.0308 32.2266 51.2121 32 51.416 31.7734C51.5973 31.5921 51.8013 31.4334 52.0279 31.3428C52.0506 31.4334 52.0959 31.5241 52.1866 31.5921C52.2772 31.7734 52.4359 31.864 52.6398 31.932Z" fill="#170D26"/>
</g>
<defs>
<clipPath id="clip0_947_26385">
<rect width="68.4419" height="40" fill="white" transform="translate(0.515198)"/>
</clipPath>
</defs>
</svg>
