<svg width="86" height="32" viewBox="0 0 86 32" fill="none" xmlns="http://www.w3.org/2000/svg">
<g clip-path="url(#clip0_947_26392)">
<path d="M4.98807 3.24894C5.88524 3.24894 6.61254 2.52164 6.61254 1.62447C6.61254 0.727301 5.88524 0 4.98807 0C4.0909 0 3.3636 0.727301 3.3636 1.62447C3.3636 2.52164 4.0909 3.24894 4.98807 3.24894Z" fill="#170D26"/>
<path d="M4.98807 13.2353C5.88524 13.2353 6.61254 12.508 6.61254 11.6108C6.61254 10.7136 5.88524 9.98633 4.98807 9.98633C4.0909 9.98633 3.3636 10.7136 3.3636 11.6108C3.3636 12.508 4.0909 13.2353 4.98807 13.2353Z" fill="#170D26"/>
<path d="M2.38476 8.23692C3.28193 8.23692 4.00923 7.50962 4.00923 6.61245C4.00923 5.71528 3.28193 4.98798 2.38476 4.98798C1.48758 4.98798 0.760284 5.71528 0.760284 6.61245C0.760284 7.50962 1.48758 8.23692 2.38476 8.23692Z" fill="#170D26"/>
<path d="M11.0174 2.04101H6.22726C5.99817 2.04101 5.81073 1.85357 5.81073 1.62448C5.81073 1.39539 5.99817 1.20795 6.22726 1.20795H11.0174C11.2465 1.20795 11.4339 1.39539 11.4339 1.62448C11.4339 1.85357 11.2569 2.04101 11.0174 2.04101Z" fill="#170D26"/>
<path d="M11.0174 12.0169H6.22726C5.99817 12.0169 5.81073 11.8295 5.81073 11.6004C5.81073 11.3713 5.99817 11.1838 6.22726 11.1838H11.0174C11.2465 11.1838 11.4339 11.3713 11.4339 11.6004C11.4339 11.8399 11.2569 12.0169 11.0174 12.0169Z" fill="#170D26"/>
<path d="M11.0174 22.0241C11.9145 22.0241 12.6418 21.2968 12.6418 20.3996C12.6418 19.5024 11.9145 18.7751 11.0174 18.7751C10.1202 18.7751 9.39288 19.5024 9.39288 20.3996C9.39288 21.2968 10.1202 22.0241 11.0174 22.0241Z" fill="#170D26"/>
<path d="M11.0174 32C11.9145 32 12.6418 31.2727 12.6418 30.3755C12.6418 29.4783 11.9145 28.751 11.0174 28.751C10.1202 28.751 9.39288 29.4783 9.39288 30.3755C9.39288 31.2727 10.1202 32 11.0174 32Z" fill="#170D26"/>
<path d="M13.6207 27.0121C14.5179 27.0121 15.2452 26.2848 15.2452 25.3876C15.2452 24.4904 14.5179 23.7631 13.6207 23.7631C12.7235 23.7631 11.9962 24.4904 11.9962 25.3876C11.9962 26.2848 12.7235 27.0121 13.6207 27.0121Z" fill="#170D26"/>
<path d="M9.49703 20.8162H4.98808C4.75899 20.8162 4.57155 20.6287 4.57155 20.3996C4.57155 20.1705 4.75899 19.9831 4.98808 19.9831H9.49703C9.72612 19.9831 9.91356 20.1705 9.91356 20.3996C9.91356 20.6287 9.72612 20.8162 9.49703 20.8162Z" fill="#170D26"/>
<path d="M13.3202 25.8041H2.53872C2.23067 25.8041 1.97864 25.6166 1.97864 25.3875C1.97864 25.1584 2.23067 24.971 2.53872 24.971H13.3202C13.6282 24.971 13.8803 25.1584 13.8803 25.3875C13.8803 25.6166 13.6282 25.8041 13.3202 25.8041Z" fill="#170D26"/>
<path d="M11.0174 30.792H4.97766C4.74857 30.792 4.56113 30.6046 4.56113 30.3755C4.56113 30.1464 4.74857 29.959 4.97766 29.959H11.0174C11.2465 29.959 11.4339 30.1464 11.4339 30.3755C11.4339 30.6046 11.2569 30.792 11.0174 30.792Z" fill="#170D26"/>
<path d="M11.0174 3.24894C11.9145 3.24894 12.6418 2.52164 12.6418 1.62447C12.6418 0.727301 11.9145 0 11.0174 0C10.1202 0 9.39288 0.727301 9.39288 1.62447C9.39288 2.52164 10.1202 3.24894 11.0174 3.24894Z" fill="#170D26"/>
<path d="M11.0174 13.2353C11.9145 13.2353 12.6418 12.508 12.6418 11.6108C12.6418 10.7136 11.9145 9.98633 11.0174 9.98633C10.1202 9.98633 9.39288 10.7136 9.39288 11.6108C9.39288 12.508 10.1202 13.2353 11.0174 13.2353Z" fill="#170D26"/>
<path d="M8.24743 17.6297C9.1446 17.6297 9.8719 16.9024 9.8719 16.0052C9.8719 15.108 9.1446 14.3807 8.24743 14.3807C7.35026 14.3807 6.62296 15.108 6.62296 16.0052C6.62296 16.9024 7.35026 17.6297 8.24743 17.6297Z" fill="#170D26"/>
<path d="M4.98807 22.0241C5.88524 22.0241 6.61254 21.2968 6.61254 20.3996C6.61254 19.5024 5.88524 18.7751 4.98807 18.7751C4.0909 18.7751 3.3636 19.5024 3.3636 20.3996C3.3636 21.2968 4.0909 22.0241 4.98807 22.0241Z" fill="#170D26"/>
<path d="M4.98807 32C5.88524 32 6.61254 31.2727 6.61254 30.3755C6.61254 29.4783 5.88524 28.751 4.98807 28.751C4.0909 28.751 3.3636 29.4783 3.3636 30.3755C3.3636 31.2727 4.0909 32 4.98807 32Z" fill="#170D26"/>
<path d="M2.38476 27.0121C3.28193 27.0121 4.00923 26.2848 4.00923 25.3876C4.00923 24.4904 3.28193 23.7631 2.38476 23.7631C1.48758 23.7631 0.760284 24.4904 0.760284 25.3876C0.760284 26.2848 1.48758 27.0121 2.38476 27.0121Z" fill="#170D26"/>
<path d="M21.3786 5.63361H16.3906H6.85205C6.31056 5.63361 5.86279 6.07096 5.86279 6.62287C5.86279 7.17477 6.30015 7.61213 6.85205 7.61213H16.3802H17.6506V19.275H20.0561V7.60172H21.3786H23.9923V5.63361H21.3786Z" fill="#170D26"/>
<path d="M30.6464 19.2646C29.1261 19.2646 28.0535 19.0043 27.4495 18.494C26.856 17.9838 26.554 17.057 26.554 15.7449V5.64404H35.4261V7.75794H28.9594V11.3401H33.4684L33.3018 13.454H28.9594V15.5471C28.9594 16.1406 29.1052 16.5676 29.3864 16.8071C29.6676 17.0466 30.1361 17.1611 30.8338 17.1611H35.4157V19.2646H30.6464Z" fill="#170D26"/>
<path d="M42.6217 19.3791C42.0593 19.3791 41.6845 19.1188 41.4762 18.5773L37.2276 5.63361H39.7059L42.6217 15.0993L45.5374 5.63361H48.047L43.7255 18.5877C43.5172 19.1188 43.1631 19.3791 42.6217 19.3791Z" fill="#170D26"/>
<path d="M56.7108 19.2646L55.9298 16.8591H51.0252L50.265 19.2646H47.7658L52.1602 6.70617C52.3373 6.30006 52.5455 6.0189 52.7538 5.8627C52.9725 5.71691 53.2328 5.63361 53.5556 5.63361C53.868 5.63361 54.1283 5.7065 54.3158 5.84187C54.5032 5.97724 54.6802 6.26882 54.8364 6.70617L59.2204 19.2646H56.7108ZM51.6083 14.8702H55.3988L53.5452 8.65346L51.6083 14.8702Z" fill="#170D26"/>
<path d="M68.9985 19.2646L66.2806 14.0996H64.073V19.2646H61.6676V8.47646C61.6676 7.47678 61.8966 6.74785 62.3444 6.31049C62.7922 5.86272 63.5732 5.64404 64.6666 5.64404H66.9783C68.3112 5.64404 69.3838 6.05016 70.1648 6.8624C70.9458 7.67463 71.3415 8.70555 71.3415 9.95514C71.3415 10.8611 71.102 11.6421 70.6334 12.2981C70.1648 12.9542 69.5816 13.4124 68.8944 13.6623L68.7173 13.7247L71.7893 19.275H68.9985V19.2646ZM65.4372 7.74753C64.5416 7.74753 64.0626 8.22654 64.0626 9.14291V12.1419H66.7805C67.3949 12.1419 67.9155 11.9233 68.3112 11.4963C68.7069 11.0694 68.9152 10.5383 68.9152 9.90307C68.9152 9.26786 68.7173 8.7472 68.3321 8.3515C67.9468 7.95579 67.4261 7.75794 66.7805 7.75794H65.4372V7.74753Z" fill="#170D26"/>
<path d="M80.0261 19.2646C78.0684 19.2646 76.7147 19.0042 76.0066 18.5044C75.3089 18.0046 74.9549 17.0882 74.9549 15.7657V5.63361H80.224C81.7443 5.63361 82.9419 6.07096 83.7958 6.91444C84.483 7.60172 84.8996 8.4556 85.0245 9.44486C85.1182 10.1738 85.1599 11.1526 85.1599 12.3814L85.1807 13.8913C85.1287 14.8181 85.0141 15.6199 84.8371 16.2551C84.6601 16.8799 84.3164 17.4527 83.7958 17.9733C82.9419 18.8272 81.6714 19.2646 80.0261 19.2646ZM77.3708 15.6199C77.3708 16.2031 77.579 16.6092 77.9851 16.8383C78.36 17.0466 79.0056 17.1507 79.9532 17.1507C80.9009 17.1507 81.6402 16.8383 82.14 16.2343C82.4108 15.9115 82.5774 15.4637 82.6503 14.9118C82.7232 14.3808 82.7648 13.5373 82.7648 12.4126C82.7648 11.288 82.7232 10.4654 82.6503 9.95511C82.5774 9.42404 82.4004 8.99709 82.14 8.67428C81.6402 8.0599 80.9113 7.75791 79.9845 7.75791H77.3812V15.6199H77.3708Z" fill="#170D26"/>
<path d="M22.4199 26.9808C22.4199 27.7931 21.7639 28.4491 20.9516 28.4491H17.8381C17.7131 28.4491 17.609 28.345 17.609 28.22V23.6173C17.609 23.4924 17.7131 23.3882 17.8381 23.3882H20.6913C21.0349 23.3882 21.3682 23.5132 21.6389 23.7319C22.2637 24.2525 22.3366 25.1793 21.8159 25.7937C22.2012 26.0749 22.4199 26.5122 22.4199 26.9808ZM18.6295 25.5126H20.5039C20.8683 25.5126 21.1599 25.221 21.1599 24.8565C21.1599 24.4921 20.8683 24.2005 20.5039 24.2005H18.6295V25.5126ZM21.4098 26.9808C21.4098 26.6164 21.1182 26.3248 20.7538 26.3248H18.6295V27.6369H20.7538C21.1182 27.6369 21.4098 27.3453 21.4098 26.9808Z" fill="#170D26"/>
<path d="M24.1589 28.4387C24.034 28.4387 23.9298 28.3345 23.9298 28.2096V23.6069C23.9298 23.4819 24.034 23.3778 24.1589 23.3778H24.7108C24.8358 23.3778 24.9399 23.4819 24.9399 23.6069V28.22C24.9399 28.3449 24.8358 28.4491 24.7108 28.4491H24.1589V28.4387Z" fill="#170D26"/>
<path d="M32.7811 25.9186C32.7811 26.5538 32.6874 27.314 32.2292 27.7514C31.6044 28.397 30.5214 28.4387 29.6259 28.4387C28.7303 28.4387 27.6474 28.397 27.0226 27.7514C26.5644 27.3036 26.4707 26.5538 26.4707 25.9186C26.4707 25.2834 26.5644 24.5233 27.0226 24.0859C27.6474 23.4403 28.7303 23.3986 29.6259 23.3986C30.5214 23.3986 31.6044 23.4403 32.2292 24.0859C32.6874 24.5233 32.7811 25.273 32.7811 25.9186ZM31.771 25.9186C31.771 25.4813 31.7085 24.971 31.3961 24.669C30.9692 24.2317 30.2299 24.2004 29.6259 24.2004C29.0115 24.2004 28.2826 24.2317 27.8556 24.669C27.5432 24.971 27.4807 25.4813 27.4807 25.9186C27.4807 26.356 27.5432 26.8662 27.8556 27.1682C28.2826 27.6056 29.0219 27.6368 29.6259 27.6368C30.2403 27.6368 30.9692 27.6056 31.3961 27.1682C31.7085 26.8662 31.771 26.3456 31.771 25.9186Z" fill="#170D26"/>
<path d="M34.291 24.8565C34.291 24.2942 34.6138 23.836 35.1345 23.6486C35.7905 23.4091 36.4986 23.3882 37.1963 23.3882C37.894 23.3882 38.6125 23.4091 39.2582 23.6486C39.6851 23.8048 39.9767 24.138 40.0704 24.5754C40.0808 24.6483 40.0704 24.7107 40.0287 24.7628C39.9871 24.8149 39.9246 24.8461 39.8517 24.8461H39.2894C39.1853 24.8461 39.102 24.7836 39.0707 24.6899C39.0187 24.5337 38.8937 24.4192 38.7375 24.3671C38.2377 24.2317 37.717 24.1797 37.2067 24.1797C36.6965 24.1797 36.1758 24.2317 35.676 24.3671C35.4573 24.4296 35.3115 24.6066 35.3115 24.8357C35.3115 25.0648 35.4469 25.2522 35.676 25.3043C36.1758 25.4397 36.6965 25.4917 37.2067 25.4917C37.9044 25.4917 38.623 25.5126 39.2686 25.7521C39.7892 25.9395 40.1121 26.3977 40.1121 26.96C40.1121 27.5223 39.7892 27.9805 39.2686 28.1679C38.6125 28.4074 37.9044 28.4283 37.2067 28.4283C36.5091 28.4283 35.7905 28.4074 35.1449 28.1679C34.718 28.0117 34.4264 27.6785 34.3327 27.2412C34.3223 27.1683 34.3327 27.1058 34.3743 27.0537C34.416 27.0017 34.4785 26.9704 34.5514 26.9704H35.1241C35.2282 26.9704 35.3115 27.0329 35.3428 27.1266C35.3948 27.2828 35.5198 27.3974 35.676 27.4494C36.1758 27.5848 36.6965 27.6369 37.2067 27.6369C37.717 27.6369 38.2377 27.5848 38.7375 27.4494C38.9562 27.3869 39.102 27.2099 39.102 26.9808C39.102 26.7517 38.9666 26.5643 38.7375 26.5122C38.2377 26.3769 37.717 26.3248 37.2067 26.3248C36.5091 26.3248 35.7905 26.304 35.1449 26.0645C34.6138 25.8666 34.291 25.4084 34.291 24.8565Z" fill="#170D26"/>
<path d="M42.1635 24.0755C42.7883 23.4299 43.8712 23.3882 44.7668 23.3882C45.6519 23.3882 46.7245 23.4299 47.3493 24.0547C47.3909 24.0963 47.4222 24.1588 47.4118 24.2317C47.4118 24.2942 47.3805 24.3567 47.3284 24.3983C47.1827 24.5129 47.0369 24.6274 46.8911 24.742C46.787 24.8253 46.662 24.8149 46.5787 24.7107C46.5683 24.6899 46.5474 24.6795 46.5266 24.6587C46.0997 24.2213 45.3603 24.1901 44.7564 24.1901C44.142 24.1901 43.4131 24.2213 42.9861 24.6587C42.6737 24.9606 42.6112 25.4709 42.6112 25.9083C42.6112 26.3456 42.6737 26.8559 42.9861 27.1578C43.4131 27.5952 44.1524 27.6264 44.7564 27.6264C45.3707 27.6264 46.0997 27.5952 46.5266 27.1578C46.5474 27.137 46.5579 27.1266 46.5787 27.1058C46.662 27.0121 46.787 27.0017 46.8911 27.0745C47.0369 27.1891 47.1827 27.3036 47.3284 27.4182C47.3805 27.4598 47.4118 27.5223 47.4118 27.5848C47.4118 27.6473 47.3909 27.7098 47.3493 27.7618C46.7245 28.3866 45.6519 28.4283 44.7668 28.4283C43.8712 28.4283 42.7883 28.3866 42.1635 27.741C41.7053 27.2932 41.6116 26.5435 41.6116 25.9083C41.6116 25.273 41.7053 24.5233 42.1635 24.0755Z" fill="#170D26"/>
<path d="M49.1612 28.4387C49.0362 28.4387 48.9321 28.3345 48.9321 28.2096V23.6069C48.9321 23.4819 49.0362 23.3778 49.1612 23.3778H49.7131C49.838 23.3778 49.9422 23.4819 49.9422 23.6069V28.22C49.9422 28.3449 49.838 28.4491 49.7131 28.4491H49.1612V28.4387Z" fill="#170D26"/>
<path d="M55.5341 26.3248H52.4726V27.6369H56.5442C56.6692 27.6369 56.7733 27.741 56.7733 27.866V28.22C56.7733 28.345 56.6692 28.4491 56.5442 28.4491H51.6916C51.5667 28.4491 51.4625 28.345 51.4625 28.22V23.6173C51.4625 23.4924 51.5667 23.3882 51.6916 23.3882H56.5442C56.6692 23.3882 56.7733 23.4924 56.7733 23.6173V23.9714C56.7733 24.0963 56.6692 24.2005 56.5442 24.2005H52.4726V25.5126H55.5341C55.6591 25.5126 55.7632 25.6167 55.7632 25.7416V26.0957C55.7632 26.2207 55.6591 26.3248 55.5341 26.3248Z" fill="#170D26"/>
<path d="M59.2933 24.6274V28.22C59.2933 28.345 59.1892 28.4491 59.0642 28.4491H58.5123C58.3874 28.4491 58.2832 28.345 58.2832 28.22V23.6173C58.2832 23.4924 58.3874 23.3882 58.5123 23.3882H59.1892C59.2517 23.3882 59.3141 23.4195 59.3662 23.4715L62.5839 27.2099V23.6173C62.5839 23.4924 62.688 23.3882 62.813 23.3882H63.3649C63.4899 23.3882 63.594 23.4924 63.594 23.6173V28.22C63.594 28.345 63.4899 28.4491 63.3649 28.4491H62.688C62.6256 28.4491 62.5631 28.4179 62.511 28.3658L59.2933 24.6274Z" fill="#170D26"/>
<path d="M65.6663 24.0755C66.2911 23.4299 67.374 23.3882 68.2696 23.3882C69.1547 23.3882 70.2273 23.4299 70.8521 24.0547C70.8937 24.0963 70.925 24.1588 70.9146 24.2317C70.9146 24.2942 70.8833 24.3567 70.8312 24.3983C70.6855 24.5129 70.5397 24.6274 70.3939 24.742C70.2898 24.8253 70.1648 24.8149 70.0815 24.7107C70.0711 24.6899 70.0503 24.6795 70.0294 24.6587C69.6025 24.2213 68.8631 24.1901 68.2592 24.1901C67.6448 24.1901 66.9159 24.2213 66.4889 24.6587C66.1765 24.9606 66.114 25.4709 66.114 25.9083C66.114 26.3456 66.1765 26.8559 66.4889 27.1578C66.9159 27.5952 67.6552 27.6264 68.2592 27.6264C68.8735 27.6264 69.6025 27.5952 70.0294 27.1578C70.0503 27.137 70.0607 27.1266 70.0815 27.1058C70.1648 27.0121 70.2898 27.0017 70.3939 27.0745C70.5397 27.1891 70.6855 27.3036 70.8312 27.4182C70.8833 27.4598 70.9146 27.5223 70.9146 27.5848C70.9146 27.6473 70.8937 27.7098 70.8521 27.7618C70.2273 28.3866 69.1547 28.4283 68.2696 28.4283C67.374 28.4283 66.2911 28.3866 65.6663 27.741C65.2081 27.2932 65.1143 26.5435 65.1143 25.9083C65.1143 25.273 65.2081 24.5233 65.6663 24.0755Z" fill="#170D26"/>
<path d="M76.5065 26.3248H73.445V27.6369H77.5166C77.6415 27.6369 77.7457 27.741 77.7457 27.866V28.22C77.7457 28.345 77.6415 28.4491 77.5166 28.4491H72.664C72.539 28.4491 72.4349 28.345 72.4349 28.22V23.6173C72.4349 23.4924 72.539 23.3882 72.664 23.3882H77.5166C77.6415 23.3882 77.7457 23.4924 77.7457 23.6173V23.9714C77.7457 24.0963 77.6415 24.2005 77.5166 24.2005H73.445V25.5126H76.5065C76.6314 25.5126 76.7356 25.6167 76.7356 25.7416V26.0957C76.7251 26.2207 76.6314 26.3248 76.5065 26.3248Z" fill="#170D26"/>
<path d="M79.2556 24.8565C79.2556 24.2942 79.5784 23.836 80.099 23.6486C80.7551 23.4091 81.4632 23.3882 82.1609 23.3882C82.8585 23.3882 83.5771 23.4091 84.2227 23.6486C84.6496 23.8048 84.9412 24.138 85.0349 24.5754C85.0453 24.6483 85.0349 24.7107 84.9933 24.7628C84.9516 24.8149 84.8891 24.8461 84.8162 24.8461H84.2435C84.1394 24.8461 84.0561 24.7836 84.0248 24.6899C83.9728 24.5337 83.8478 24.4192 83.6916 24.3671C83.1918 24.2317 82.6711 24.1797 82.1609 24.1797C81.6506 24.1797 81.1299 24.2317 80.6301 24.3671C80.4114 24.4296 80.2656 24.6066 80.2656 24.8357C80.2656 25.0648 80.401 25.2522 80.6301 25.3043C81.1299 25.4397 81.6506 25.4917 82.1609 25.4917C82.8585 25.4917 83.5771 25.5126 84.2227 25.7521C84.7433 25.9395 85.0662 26.3977 85.0662 26.96C85.0662 27.5223 84.7433 27.9805 84.2227 28.1679C83.5666 28.4074 82.8585 28.4283 82.1609 28.4283C81.4632 28.4283 80.7447 28.4074 80.099 28.1679C79.6721 28.0117 79.3805 27.6785 79.2868 27.2412C79.2764 27.1683 79.2868 27.1058 79.3284 27.0537C79.3701 27.0017 79.4326 26.9704 79.5055 26.9704H80.0782C80.1823 26.9704 80.2656 27.0329 80.2969 27.1266C80.3489 27.2828 80.4739 27.3974 80.6301 27.4494C81.1299 27.5848 81.6506 27.6369 82.1609 27.6369C82.6711 27.6369 83.1918 27.5848 83.6916 27.4494C83.9103 27.3869 84.0561 27.2099 84.0561 26.9808C84.0561 26.7517 83.9207 26.5643 83.6916 26.5122C83.1918 26.3769 82.6711 26.3248 82.1609 26.3248C81.4632 26.3248 80.7447 26.304 80.099 26.0645C79.5784 25.8666 79.2556 25.4084 79.2556 24.8565Z" fill="#170D26"/>
</g>
<defs>
<clipPath id="clip0_947_26392">
<rect width="84.4204" height="32" fill="white" transform="translate(0.760284)"/>
</clipPath>
</defs>
</svg>
