<svg width="75" height="40" viewBox="0 0 75 40" fill="none" xmlns="http://www.w3.org/2000/svg">
<g clip-path="url(#clip0_947_26383)">
<path d="M2.55493 30.7139C2.66261 27.404 2.65792 23.2233 2.73751 18.6821C1.83585 18.5691 0.94108 18.4065 0.0572658 18.1952C0.0338576 17.2051 0.0245034 16.7509 0.00811768 16.0276C3.05119 16.559 4.56569 16.6315 7.57599 16.5309C7.50343 17.3455 7.46831 17.8581 7.40277 18.9841C6.32365 18.9841 5.78526 18.97 4.71317 18.8904C4.53058 23.5721 4.47908 27.9284 4.27309 31.3436C3.68943 31.1649 3.11588 30.9547 2.55493 30.7139Z" fill="#170D26"/>
<path d="M8.78387 32.3361C9.032 27.0997 9.07648 21.8609 9.3246 16.6245C10.1252 16.552 10.5231 16.5051 11.3213 16.3904C11.0264 21.7533 10.9608 27.1184 10.6682 32.4813C9.90513 32.4508 9.52826 32.4227 8.78387 32.3361Z" fill="#170D26"/>
<path d="M12.8311 24.6278C12.7211 19.1386 14.7038 16.1283 17.2951 15.323C19.8864 14.5178 21.7427 16.463 21.958 22.3783C22.1734 28.2935 20.1532 31.6503 17.4566 32.1653C14.76 32.6802 12.9388 30.117 12.8311 24.6278ZM20.0409 23.0126C19.9332 19.3727 18.8705 17.3947 17.2694 17.8628C15.6682 18.331 14.664 20.845 14.7319 24.3305C14.7998 27.816 15.8461 29.9743 17.48 29.6419C19.1139 29.3095 20.1462 26.6128 20.0409 23.0126Z" fill="#170D26"/>
<path d="M24.5821 28.8647C25.0643 27.7177 25.2984 27.0623 25.7525 25.6906C26.4103 26.861 27.466 27.5164 28.7956 27.0365C29.3064 26.8428 29.743 26.4928 30.0431 26.0363C30.3433 25.5798 30.4916 25.0401 30.4669 24.4944C30.4295 21.2289 24.9285 24.8947 25.0596 17.8488C25.1181 14.7355 26.4992 12.7903 28.5896 12.0599C29.9941 11.5684 31.1645 11.5403 32.0634 12.5445C31.6584 13.6072 31.4548 14.2275 31.0404 15.5407C30.282 14.4359 29.3106 14.279 28.3859 14.6044C27.5549 14.904 27.0821 15.714 27.0727 16.8165C27.047 19.7449 32.3536 16.2664 32.5175 23.2538C32.5994 26.676 31.3471 28.5557 28.6668 29.5412C26.7965 30.2505 25.4552 30.0679 24.5821 28.8647Z" fill="#170D26"/>
<path d="M34.5189 27.3572C34.5189 21.7111 34.5251 16.0651 34.5376 10.419C35.3475 10.1568 35.7502 10.0211 36.5554 9.74017C36.4828 15.3581 36.4477 20.9761 36.3775 26.5777C35.6261 26.9054 35.2539 27.0623 34.5189 27.3572Z" fill="#170D26"/>
<path d="M46.429 22.0318C46.5203 19.4382 46.5671 15.1685 46.6631 10.1545C45.5208 15.6086 44.9379 20.1311 43.7792 23.2631L42.9131 23.6751C41.9768 21.5075 41.5086 17.4157 40.5512 12.6966C40.4552 17.8464 40.4061 22.1863 40.3171 24.8993C39.5376 25.2622 39.1467 25.4401 38.3859 25.7889C38.4983 20.213 38.5521 14.6372 38.6645 9.06367C39.7881 8.65169 40.3475 8.43633 41.4618 8.00328C42.2811 9.96489 42.6837 13.0524 43.5006 17.3338C44.4955 12.2495 44.9941 8.81086 45.9772 6.21255C47.0868 5.76779 47.6415 5.54541 48.7488 5.11002C48.6387 10.4401 48.5872 15.7678 48.4772 21.0978C47.6486 21.47 47.2413 21.6573 46.429 22.0318Z" fill="#170D26"/>
<path d="M50.5652 13.0782C50.6284 7.14184 52.6088 4.00046 55.2469 3.05008C57.885 2.09971 59.8466 3.86235 59.8841 9.72845C59.9215 15.5946 57.9763 18.3029 55.2188 19.3258C52.4613 20.3488 50.4974 19.0192 50.5652 13.0782ZM57.9412 10.2692C57.9271 6.62686 56.8644 4.69802 55.2375 5.28557C53.6107 5.87311 52.5503 8.56272 52.5245 12.2425C52.4988 15.9223 53.5545 17.7036 55.2211 17.0857C56.8878 16.4677 57.9505 13.8834 57.9365 10.2739L57.9412 10.2692Z" fill="#170D26"/>
<path d="M67.988 16.5215C66.2768 13.8273 65.3639 10.2224 63.5662 5.71162C63.613 10.4892 63.6364 14.162 63.6832 16.5356C62.9014 16.6128 62.5128 16.669 61.7122 16.8071C61.6467 11.5613 61.6163 6.31556 61.5507 1.06743C62.3536 0.887186 62.7539 0.802915 63.5592 0.660125C65.3054 2.62876 66.1926 5.95975 67.8826 10.8263C67.8569 6.02764 67.8452 2.54917 67.8195 0.142805C68.6036 0.0959886 68.9899 0.0842855 69.7834 0.0889671V16.8071C69.1915 16.6742 68.5919 16.5788 67.988 16.5215Z" fill="#170D26"/>
<path d="M12.4543 40V36.6292C13.1565 36.6479 13.5077 36.6456 14.2005 36.6292C14.8279 36.6081 15.1369 36.9827 15.1369 37.4251C15.1402 37.602 15.0854 37.7752 14.981 37.918C14.8766 38.0609 14.7283 38.1657 14.5587 38.2163C14.7386 38.2446 14.9012 38.34 15.0137 38.4833C15.1261 38.6267 15.1802 38.8072 15.165 38.9888C15.1653 39.1145 15.1407 39.239 15.0927 39.3551C15.0446 39.4713 14.9741 39.5768 14.8851 39.6656C14.7961 39.7544 14.6904 39.8247 14.5741 39.8724C14.4578 39.9202 14.3333 39.9444 14.2076 39.9438C13.5006 39.9789 13.1519 39.993 12.4543 40ZM14.4159 37.5843C14.4188 37.5352 14.4107 37.4862 14.3924 37.4407C14.3741 37.3951 14.3459 37.3542 14.3098 37.3209C14.2738 37.2875 14.2308 37.2625 14.184 37.2478C14.1372 37.233 14.0877 37.2288 14.039 37.2355C13.6879 37.2472 13.5123 37.2495 13.1589 37.2519C13.1589 37.5421 13.1589 37.6873 13.1589 37.9775C13.5077 37.9775 13.6832 37.9775 14.032 37.9588C14.0819 37.9597 14.1315 37.9507 14.1778 37.9324C14.2242 37.914 14.2665 37.8866 14.3022 37.8517C14.3379 37.8169 14.3664 37.7753 14.3859 37.7294C14.4054 37.6835 14.4156 37.6341 14.4159 37.5843ZM14.4557 38.9326C14.4577 38.8799 14.448 38.8274 14.4273 38.7788C14.4067 38.7303 14.3756 38.6869 14.3362 38.6518C14.2968 38.6167 14.2502 38.5907 14.1997 38.5757C14.1491 38.5607 14.0958 38.5571 14.0437 38.5651C13.6856 38.5815 13.5076 38.5861 13.1495 38.5908V39.368C13.503 39.368 13.6809 39.3539 14.0367 39.3375C14.0914 39.3401 14.1461 39.3314 14.1973 39.312C14.2485 39.2926 14.2952 39.2629 14.3345 39.2247C14.3738 39.1865 14.4048 39.1407 14.4256 39.0901C14.4465 39.0394 14.4567 38.985 14.4557 38.9302V38.9326Z" fill="#170D26"/>
<path d="M16.4079 39.7448C16.422 39.2135 16.429 38.9443 16.443 38.4059C15.9749 37.6849 15.7268 37.3174 15.2399 36.573C15.5582 36.5543 15.708 36.5426 16.0334 36.5145C16.3424 37.0108 16.5016 37.2565 16.8059 37.7481L17.6345 36.3436C17.9482 36.3015 18.1027 36.2781 18.414 36.2313C17.9037 37.0693 17.6462 37.4953 17.1312 38.338C17.1172 38.8764 17.1102 39.1432 17.0938 39.6746C16.8199 39.698 16.6818 39.7144 16.4079 39.7448Z" fill="#170D26"/>
<path d="M22.6205 38.6049C22.6205 37.7013 22.6345 37.2285 22.6439 36.3085C22.2834 37.3197 22.0985 37.8324 21.7263 38.8155L21.4313 38.8834C21.0896 38.0618 20.9187 37.6334 20.5816 36.7931C20.5629 37.7083 20.5535 38.1741 20.5348 39.0754C20.2609 39.1315 20.1252 39.1596 19.8536 39.2111C19.8841 37.9237 19.9004 37.2448 19.9309 35.955C20.3077 35.8825 20.4974 35.8427 20.8672 35.7608C21.1575 36.463 21.3026 36.8375 21.5952 37.5608C21.9159 36.6971 22.0634 36.2547 22.3841 35.4003C22.7586 35.3043 22.9435 35.2551 23.3204 35.1545C23.3204 36.4443 23.3063 37.1442 23.2993 38.4316L22.6205 38.6049Z" fill="#170D26"/>
<path d="M23.9173 38.2701C23.9173 36.978 23.9173 36.2757 23.9173 34.9813C24.1795 34.9063 24.3106 34.8689 24.5704 34.7893C24.5704 36.0861 24.5704 36.7931 24.5704 38.0875C24.3176 38.1624 24.1841 38.1999 23.9173 38.2701Z" fill="#170D26"/>
<path d="M27.3162 37.2659C27.2366 37.067 27.1968 36.9663 27.1195 36.765C26.5975 36.9335 26.3354 37.0154 25.8087 37.1746C25.7338 37.4228 25.6963 37.5468 25.6191 37.7903L24.8677 38.008C25.3358 36.5754 25.5699 35.7889 26.0264 34.3329L26.8293 34.066C27.3115 35.2154 27.5573 35.8661 28.0512 37.0248L27.3162 37.2659ZM26.4384 34.904C26.2581 35.5384 26.1668 35.8614 25.9819 36.4958C26.3634 36.3787 26.5531 36.3179 26.9323 36.1938C26.7333 35.6765 26.635 35.419 26.4384 34.904Z" fill="#170D26"/>
<path d="M30.9023 36.0276C30.8719 35.0913 30.8555 34.5903 30.8251 33.6259C30.5301 34.7144 30.3827 35.2785 30.0783 36.3249L29.8068 36.4232C29.4463 35.6133 29.2661 35.1732 28.9079 34.3422C28.9313 35.2949 28.9454 35.7912 28.9711 36.7158L28.3321 36.9312C28.3017 35.6156 28.2853 34.8806 28.2525 33.5651C28.606 33.4387 28.7815 33.3731 29.1327 33.242C29.4393 33.9443 29.6008 34.3071 29.9028 35.0328C30.1626 34.0964 30.2914 33.6166 30.5465 32.6919L31.4103 32.3549C31.4548 33.6891 31.4758 34.4616 31.5203 35.7865L30.9023 36.0276Z" fill="#170D26"/>
<path d="M32.0727 35.5852C32.0306 34.2463 32.0072 33.4785 31.965 32.1419L32.5713 31.9078C32.6135 33.2491 32.6345 34.0145 32.6767 35.3628L32.0727 35.5852Z" fill="#170D26"/>
<path d="M34.2942 34.7168C34.2637 33.3684 34.2473 32.5843 34.2169 31.236C35.0058 30.9153 35.3873 30.7537 36.1715 30.4424V31.0885L34.8209 31.6386C34.8209 31.9312 34.8209 32.081 34.8209 32.3806L36.134 31.8469V32.5164L34.8326 33.0454C34.8326 33.633 34.849 33.9256 34.8583 34.485L34.2942 34.7168Z" fill="#170D26"/>
<path d="M36.5601 33.7921V30.2809L37.1078 30.0468C37.1078 31.3998 37.1078 32.1957 37.1078 33.5463L36.5601 33.7921Z" fill="#170D26"/>
<path d="M39.4487 32.5328C38.929 31.8727 38.6738 31.5052 38.1729 30.8029C38.1729 31.7392 38.1729 32.2074 38.187 33.0922L37.6298 33.338C37.6298 31.9827 37.6298 31.1915 37.6298 29.8385L38.194 29.588C38.6762 30.2224 38.922 30.5735 39.4206 31.243C39.4089 30.3511 39.4018 29.8877 39.3878 29.0333L39.9402 28.7687C39.966 30.1358 39.98 30.92 40.0081 32.28L39.4487 32.5328Z" fill="#170D26"/>
<path d="M40.5254 32.0459C40.4903 30.6765 40.4739 29.8923 40.4388 28.5206C41.1738 28.1625 41.539 27.9799 42.2787 27.6124C42.2787 27.8722 42.2951 28.0056 42.3068 28.2725L41.01 28.9045C41.01 29.2018 41.024 29.3539 41.0334 29.6559L42.3115 29.0449C42.3115 29.3141 42.3279 29.4499 42.3396 29.7214L41.0521 30.3277C41.0521 30.6508 41.0662 30.8146 41.0755 31.133L42.4028 30.5197C42.4028 30.7865 42.4192 30.92 42.4309 31.1798L40.5254 32.0459Z" fill="#170D26"/>
<path d="M43.9243 30.5033C43.84 29.0988 43.7979 28.3099 43.7136 26.8984C44.4557 26.5356 44.8279 26.353 45.5863 26.0019C45.6074 26.2711 45.6167 26.4068 45.6378 26.6807C45.1111 26.9148 44.8489 27.0459 44.3269 27.2963L44.3738 28.0665C44.8911 27.8324 45.1486 27.7036 45.6682 27.4672C45.6893 27.7434 45.6987 27.8815 45.7197 28.1578C45.1977 28.3918 44.9379 28.5112 44.4182 28.75C44.4557 29.3539 44.4744 29.6582 44.5119 30.2434L43.9243 30.5033Z" fill="#170D26"/>
<path d="M45.9842 27.713C45.9 26.6011 46.4196 25.5478 47.2249 25.1966C48.0301 24.8455 48.7019 25.4026 48.8073 26.5239C48.9126 27.6451 48.3859 28.6657 47.5573 29.0052C46.7286 29.3446 46.0709 28.8226 45.9842 27.713ZM48.2244 26.758C48.1589 26.0557 47.789 25.6718 47.2881 25.8848C46.7871 26.0979 46.5203 26.7556 46.5858 27.4485C46.6514 28.1414 47.0072 28.5206 47.5081 28.3123C48.0091 28.1039 48.2782 27.4602 48.2244 26.758Z" fill="#170D26"/>
<path d="M49.0811 26.4185C48.9758 25.2949 49.4931 24.2673 50.3148 23.9888C51.1364 23.7102 51.8199 24.3305 51.9229 25.4424C52.0259 26.5543 51.5063 27.5281 50.6846 27.8137C49.863 28.0993 49.1888 27.5398 49.0811 26.4185ZM51.326 25.6273C51.2605 24.9251 50.8836 24.5131 50.3897 24.691C49.8958 24.8689 49.6172 25.5033 49.6874 26.2008C49.7577 26.8984 50.1275 27.301 50.6238 27.1372C51.12 26.9733 51.3915 26.3155 51.326 25.6273Z" fill="#170D26"/>
<path d="M52.4964 27.1559C52.363 25.6999 52.2974 24.9438 52.1664 23.4878C52.6017 23.3708 52.8194 23.317 53.2595 23.221C54.1326 23.0314 54.7904 23.6611 54.856 24.7355C54.9215 25.8099 54.3878 26.6339 53.5545 26.8563C53.1401 26.9686 52.9201 27.0295 52.4964 27.1559ZM54.2614 24.8502C54.2169 24.2135 53.8822 23.7734 53.3251 23.9022C53.1237 23.9466 53.0231 23.97 52.8241 24.0192C52.9014 24.9321 52.9412 25.3956 53.0184 26.3085L53.5076 26.1774C54.032 26.0417 54.3105 25.4612 54.2614 24.8502Z" fill="#170D26"/>
<path d="M55.1579 25.9691C55.2679 25.7163 55.3241 25.5899 55.4365 25.3394C55.5406 25.465 55.6749 25.562 55.8268 25.6214C55.9788 25.6807 56.1433 25.7005 56.3049 25.6788C56.6163 25.6344 56.7731 25.4331 56.7591 25.2388C56.7473 24.6325 55.2024 25.2669 55.1205 23.9326C55.1064 23.7871 55.1219 23.6404 55.1661 23.5011C55.2103 23.3618 55.2822 23.2329 55.3776 23.1222C55.473 23.0115 55.5898 22.9213 55.721 22.857C55.8523 22.7927 55.9951 22.7557 56.1411 22.7481C56.3482 22.7276 56.5572 22.7554 56.7518 22.8293C56.9463 22.9033 57.1211 23.0213 57.2623 23.1742C57.1289 23.3872 57.061 23.4949 56.9323 23.7149C56.8278 23.6025 56.6991 23.5154 56.5559 23.4602C56.4127 23.405 56.2588 23.3833 56.106 23.3965C56.0544 23.3945 56.003 23.4033 55.955 23.4223C55.907 23.4413 55.8636 23.4701 55.8274 23.507C55.7912 23.5438 55.7632 23.5878 55.7451 23.6361C55.7269 23.6844 55.7191 23.7359 55.7221 23.7875C55.7455 24.3446 57.3255 23.846 57.3255 25.103C57.3446 25.4016 57.2473 25.6959 57.0539 25.9242C56.8605 26.1525 56.5862 26.297 56.2885 26.3273C56.0852 26.3708 55.874 26.3606 55.6758 26.2978C55.4776 26.235 55.2991 26.1218 55.1579 25.9691Z" fill="#170D26"/>
<path d="M72.1617 2.34082V0.578175H72.9435C73.0647 0.573459 73.1858 0.589287 73.3017 0.624991C73.384 0.657983 73.4531 0.717229 73.4983 0.79353C73.5459 0.87352 73.571 0.964935 73.5709 1.05804C73.5727 1.11618 73.5629 1.17409 73.542 1.22837C73.5211 1.28264 73.4895 1.33218 73.4491 1.37405C73.347 1.47039 73.2146 1.5283 73.0746 1.53791C73.1253 1.561 73.1725 1.59093 73.215 1.62686C73.2897 1.69611 73.355 1.7748 73.4093 1.86095L73.716 2.34082H73.421L73.187 1.9733C73.1191 1.86797 73.0629 1.78604 73.0184 1.73922C72.9849 1.6943 72.9446 1.65483 72.899 1.62218C72.8663 1.60177 72.8308 1.58601 72.7937 1.57536C72.7501 1.57196 72.7062 1.57196 72.6626 1.57536H72.3934V2.3572L72.1617 2.34082ZM72.3958 1.35533H72.8967C72.9815 1.35908 73.0662 1.34799 73.1472 1.32256C73.2031 1.30403 73.2511 1.26684 73.2829 1.21722C73.3145 1.17021 73.3308 1.11465 73.3297 1.05804C73.3304 1.0197 73.3228 0.981662 73.3075 0.946518C73.2921 0.911375 73.2694 0.879951 73.2408 0.854391C73.1579 0.793152 73.0556 0.764046 72.9529 0.772464H72.3958V1.35533Z" fill="#170D26"/>
<path d="M72.8639 3.00327C72.5665 3.00373 72.2756 2.91592 72.0281 2.75097C71.7806 2.58602 71.5876 2.35134 71.4736 2.07664C71.3596 1.80194 71.3296 1.49958 71.3875 1.20785C71.4454 0.916114 71.5886 0.648124 71.7989 0.437812C72.0092 0.227499 72.2772 0.0843253 72.569 0.0264138C72.8607 -0.0314978 73.1631 -0.0015432 73.4378 0.112491C73.7125 0.226525 73.9471 0.419507 74.1121 0.667001C74.2771 0.914495 74.3648 1.20537 74.3644 1.5028C74.3632 1.90037 74.2047 2.2813 73.9236 2.56243C73.6424 2.84355 73.2615 3.00203 72.8639 3.00327ZM72.8639 0.175551C72.6013 0.175088 72.3445 0.252535 72.1259 0.398093C71.9073 0.543651 71.7368 0.750776 71.636 0.993257C71.5352 1.23574 71.5086 1.50268 71.5595 1.76029C71.6105 2.01791 71.7367 2.25462 71.9222 2.44047C72.1078 2.62633 72.3443 2.75296 72.6018 2.80437C72.8593 2.85577 73.1263 2.82962 73.3689 2.72924C73.6116 2.62885 73.819 2.45874 73.965 2.24042C74.1109 2.02211 74.1888 1.7654 74.1888 1.5028C74.1888 1.1512 74.0493 0.813958 73.8009 0.565118C73.5525 0.316278 73.2155 0.176171 72.8639 0.175551Z" fill="#170D26"/>
</g>
<defs>
<clipPath id="clip0_947_26383">
<rect width="74.3563" height="40" fill="white" transform="translate(0.00811768)"/>
</clipPath>
</defs>
</svg>
