<svg width="80" height="40" viewBox="0 0 80 40" fill="none" xmlns="http://www.w3.org/2000/svg">
<g clip-path="url(#clip0_947_26387)">
<path d="M16.2656 31.2485H15.0394V39.7106H20.2493V38.4897H16.2656V31.2485Z" fill="#170D26"/>
<path d="M30.9479 31.1222L27.5431 39.7106H28.8639C29.127 39.0107 29.5533 37.995 29.8796 37.2162H32.9213L33.9369 39.7106H35.2473L31.8425 31.1222H30.9479ZM30.3269 36.0637L31.3794 33.0746L32.4319 36.0637H30.3269Z" fill="#170D26"/>
<path d="M23.9014 31.1328C23.3281 31.1328 22.7604 31.2458 22.2307 31.4653C21.7011 31.6849 21.2199 32.0067 20.8148 32.4124C20.4096 32.818 20.0884 33.2996 19.8694 33.8295C19.6505 34.3594 19.5382 34.9273 19.5389 35.5006C19.5389 36.6576 19.9985 37.7673 20.8166 38.5854C21.6348 39.4036 22.7444 39.8632 23.9014 39.8632C25.0585 39.8632 26.1681 39.4036 26.9862 38.5854C27.8044 37.7673 28.264 36.6576 28.264 35.5006C28.2647 34.9273 28.1524 34.3594 27.9335 33.8295C27.7145 33.2996 27.3933 32.818 26.9881 32.4124C26.5829 32.0067 26.1018 31.6849 25.5722 31.4653C25.0425 31.2458 24.4748 31.1328 23.9014 31.1328ZM23.9014 38.6265C23.074 38.6196 22.2824 38.2883 21.6968 37.7037C21.1112 37.1191 20.7785 36.328 20.7703 35.5006C20.7703 34.6677 21.0993 33.8686 21.6858 33.2772C22.2722 32.6858 23.0686 32.3501 23.9014 32.3431C24.7388 32.3431 25.542 32.6758 26.1341 33.2679C26.7263 33.8601 27.0589 34.6632 27.0589 35.5006C27.0506 36.3325 26.7143 37.1276 26.123 37.7129C25.5318 38.2982 24.7334 38.6265 23.9014 38.6265Z" fill="#170D26"/>
<path d="M5.77226 37.1688C5.77226 38.1002 4.76712 38.5739 3.88302 38.5739C2.99893 38.5739 1.98328 38.116 1.98328 37.1793V31.2433H0.746582V37.1688C0.746582 38.9001 2.39373 39.8 3.90406 39.8C5.41439 39.8 7.02997 38.9054 7.02997 37.1688V31.2433H5.7933L5.77226 37.1688Z" fill="#170D26"/>
<path d="M12.9344 37.2056L8.80341 31.2327L7.85617 31.2222V39.7106H9.08233V33.7903L13.1765 39.7106H14.1448V31.2327H12.9344V37.2056Z" fill="#170D26"/>
<path d="M79.2941 31.1064L75.8367 36.2058L72.395 31.1064H72.0056V39.8369H72.4371V31.9274L75.6999 36.7741H75.9893L79.252 31.9274V39.8369H79.6835V31.1064H79.2941Z" fill="#170D26"/>
<path d="M58.0759 31.5801C58.5818 31.5776 59.0829 31.678 59.5488 31.8752C60.0147 32.0724 60.4357 32.3623 60.786 32.7273C61.1101 33.0606 61.3721 33.4491 61.5596 33.8745L61.5912 33.9534H62.0701L62.0017 33.7745C61.7895 33.2695 61.4842 32.8089 61.1018 32.4168C60.7093 32.0108 60.2392 31.6878 59.7193 31.4672C59.1995 31.2467 58.6406 31.1329 58.0759 31.1328C57.5129 31.1343 56.956 31.2487 56.4381 31.4693C55.9202 31.6899 55.4517 32.012 55.0605 32.4168C54.2567 33.242 53.8072 34.3486 53.808 35.5006C53.8132 36.6452 54.2622 37.7431 55.0605 38.5634C55.4508 38.9712 55.9197 39.2956 56.4388 39.5172C56.958 39.7388 57.5167 39.8529 58.0811 39.8527C58.6465 39.8536 59.2062 39.7399 59.7263 39.5183C60.2464 39.2967 60.7161 38.9718 61.107 38.5634C61.4895 38.1712 61.7948 37.7106 62.0069 37.2056L62.0754 37.032H61.5965L61.5649 37.1057C61.3758 37.5271 61.1139 37.9118 60.7913 38.2423C60.4419 38.6097 60.0215 38.9022 59.5556 39.1021C59.0898 39.3021 58.5881 39.4052 58.0811 39.4053C57.5752 39.4036 57.0748 39.2997 56.61 39.0998C56.1452 38.9 55.7256 38.6083 55.3762 38.2423C54.6527 37.5131 54.2461 36.5279 54.2448 35.5006C54.2467 34.4698 54.6508 33.4805 55.371 32.7431C55.7192 32.3756 56.1386 32.083 56.6037 31.883C57.0687 31.6831 57.5696 31.58 58.0759 31.5801Z" fill="#170D26"/>
<path d="M53.6239 38.2581C53.5261 38.2573 53.4291 38.2764 53.3389 38.3143C53.2486 38.3522 53.1671 38.408 53.0991 38.4785C53.0312 38.5489 52.9782 38.6324 52.9436 38.7239C52.909 38.8154 52.8933 38.913 52.8976 39.0108C52.904 39.2024 52.9822 39.3845 53.1168 39.5211C53.2514 39.6576 53.4324 39.7385 53.6239 39.7476C53.8218 39.7477 54.0121 39.6709 54.1544 39.5335C54.2968 39.396 54.3802 39.2086 54.3871 39.0108C54.3908 38.91 54.3736 38.8096 54.3365 38.7158C54.2993 38.6221 54.2431 38.5371 54.1713 38.4663C54.0995 38.3956 54.0137 38.3405 53.9195 38.3046C53.8253 38.2688 53.7246 38.2529 53.6239 38.2581Z" fill="#170D26"/>
<path d="M33.4897 32.3747H36.0577V39.7474H37.2839V32.3747H39.8362V31.2327H33.4897V32.3747Z" fill="#170D26"/>
<path d="M66.9168 30.9854C65.7235 30.991 64.581 31.4693 63.7396 32.3156C62.8982 33.1619 62.4265 34.3072 62.428 35.5006C62.4293 36.6958 62.9051 37.8415 63.7507 38.6862C64.5964 39.5308 65.7427 40.0052 66.9379 40.0052C68.1289 39.9997 69.2693 39.5226 70.1096 38.6784C70.9498 37.8343 71.4215 36.6917 71.4215 35.5006C71.4222 34.9083 71.3062 34.3217 71.0802 33.7743C70.8542 33.2269 70.5226 32.7293 70.1043 32.31C69.686 31.8908 69.1892 31.558 68.6423 31.3307C68.0954 31.1034 67.5091 30.9861 66.9168 30.9854ZM66.9168 39.5369C65.8459 39.5369 64.8187 39.1118 64.0609 38.355C63.3031 37.5982 62.8766 36.5716 62.8752 35.5006C62.8752 34.9698 62.9798 34.4443 63.1829 33.9539C63.386 33.4636 63.6837 33.018 64.059 32.6428C64.4343 32.2675 64.8798 31.9698 65.3702 31.7666C65.8605 31.5635 66.3861 31.459 66.9168 31.459C67.4476 31.459 67.9731 31.5635 68.4635 31.7666C68.9538 31.9698 69.3994 32.2675 69.7746 32.6428C70.1499 33.018 70.4476 33.4636 70.6507 33.9539C70.8538 34.4443 70.9584 34.9698 70.9584 35.5006C70.957 36.5716 70.5306 37.5982 69.7728 38.355C69.015 39.1118 67.9878 39.5369 66.9168 39.5369Z" fill="#170D26"/>
<path d="M45.1934 34.8217H41.6044V31.2485H40.3835V39.7106H41.6044V36.0321H45.1934V39.7106H46.4301V31.2485H45.1934V34.8217Z" fill="#170D26"/>
<path d="M48.4035 36.09H52.2398V34.8533H48.4035V32.4694H52.324V31.2485H47.1668V39.7106H52.3398V38.4897H48.4035V36.09Z" fill="#170D26"/>
<path d="M50.8505 12.2407V12.5407H50.7611V12.5723L50.6348 12.9617C50.8939 12.9104 51.1387 12.8033 51.3522 12.6479C51.5658 12.4925 51.743 12.2925 51.8716 12.0617C51.994 11.848 52.0332 11.5966 51.9817 11.3558C51.9303 11.1149 51.7917 10.9015 51.5926 10.7565C51.4742 10.8073 51.353 10.8512 51.2295 10.888C51.1926 11.0302 51.1505 11.1775 51.1137 11.3144L50.8505 12.2407Z" fill="#170D26"/>
<path d="M51.461 9.98316C51.4294 10.1937 51.3873 10.3884 51.3452 10.5884C51.8735 10.3864 52.321 10.0166 52.6189 9.5358C53.0241 8.80948 52.8189 8.13053 52.0084 7.95685C51.7942 8.07288 51.5726 8.17484 51.3452 8.26211H51.2715C51.4643 8.81403 51.529 9.40253 51.461 9.98316Z" fill="#170D26"/>
<path d="M52.8504 13.2352L53.3136 13.2931V13.6457L53.2768 14.0773C53.5686 14.0205 53.8506 13.9212 54.1136 13.7825C54.5189 13.5668 54.9399 13.2562 54.882 12.7878C53.9181 12.967 52.9243 12.8926 51.9978 12.572C51.7828 12.7704 51.533 12.9274 51.261 13.0352L52.8767 13.2352H52.8504Z" fill="#170D26"/>
<path d="M62.8226 1.86817C62.0806 1.10512 60.1545 1.02618 58.7021 1.08407C56.7311 1.19332 54.7907 1.6198 52.9555 2.34706C53.0292 2.37863 50.1243 3.22589 48.1561 5.58348H48.2772C48.9074 5.71299 49.4965 5.99484 49.9927 6.40442C50.3471 6.70485 50.6509 7.0602 50.8926 7.45691C50.9939 7.62604 51.0836 7.80186 51.161 7.98316C51.5266 7.85858 51.8631 7.6609 52.1498 7.40215C52.4366 7.14341 52.6678 6.82901 52.8292 6.47809C53.2028 5.4256 52.2766 5.05723 51.4609 5.17826C51.1873 5.22036 50.9031 4.94672 51.3136 4.88357C52.024 4.77832 53.5975 4.85199 53.5291 6.03605C53.4849 6.40996 53.352 6.7679 53.1415 7.08005C52.931 7.39219 52.6489 7.6495 52.3187 7.83055C52.9292 7.98842 53.5239 8.46731 53.2292 9.26194C52.9873 9.86336 52.5319 10.3543 51.9504 10.6407C52.0891 10.728 52.2076 10.844 52.2979 10.9808C52.3883 11.1175 52.4484 11.272 52.4743 11.4339C52.5002 11.5958 52.4913 11.7613 52.4481 11.9195C52.405 12.0776 52.3286 12.2247 52.224 12.351C53.3547 12.7051 54.5771 12.6224 55.6499 12.1195C56.2919 11.8142 57.2918 11.0985 56.6287 10.346C55.7072 10.5662 54.7599 10.6582 53.8133 10.6197C53.587 10.6197 53.0976 10.246 53.5502 10.2671C54.9712 10.3327 56.3874 10.0585 57.6812 9.46717C58.2548 9.19353 59.7862 8.26733 58.8968 7.66215C57.6675 7.96848 56.3938 8.05577 55.1342 7.92001C54.7395 7.88317 54.429 7.43586 55.0131 7.49375C56.5855 7.68393 58.1797 7.42675 59.6125 6.75174C60.1942 6.51684 60.6824 6.09706 61.0018 5.55716C61.2912 4.82042 60.6913 4.4731 60.0546 4.30996C58.7683 4.67177 57.4316 4.82108 56.0972 4.75201C57.7469 4.46579 59.366 4.02532 60.9334 3.43639C61.2959 3.28533 61.6475 3.1095 61.9859 2.91014C62.3911 2.68386 62.9963 2.14708 62.8226 1.86817Z" fill="#170D26"/>
<path d="M50.8716 12.5405V12.2405L50.7821 12.5405H50.8716Z" fill="#170D26"/>
<path d="M51.6241 14.1087L51.2136 14.1508L49.8506 14.2876L49.3823 14.3349L48.2666 14.4507L45.3302 14.7454L36.905 15.6032V28.091H48.2666H51.3925L52.4924 14.4244L52.5134 14.1665L52.524 14.0192L51.6241 14.1087Z" fill="#170D26"/>
<path d="M42.3309 6.03107C42.3309 5.86265 42.294 5.69422 42.2835 5.50475C42.2783 5.41184 42.2783 5.31871 42.2835 5.2258C42.0754 5.01349 41.8462 4.82302 41.5993 4.65738C41.1306 4.3234 40.6119 4.06583 40.0625 3.89423C40.0278 4.46615 40.0596 5.04016 40.1572 5.60475C40.1572 5.67317 40.1888 5.73633 40.1993 5.80475L40.4467 5.76791C41.0856 5.73865 41.7244 5.82787 42.3309 6.03107Z" fill="#170D26"/>
<path d="M45.6565 5.86265C46.241 5.68042 46.8453 5.56909 47.4565 5.53108C47.5091 5.45213 47.567 5.37318 47.6249 5.2995C47.6924 4.84492 47.7153 4.38484 47.6933 3.92581C47.146 4.09857 46.6292 4.35609 46.1617 4.68897C45.9908 4.79834 45.8304 4.92345 45.6828 5.06266C45.696 5.25014 45.696 5.43833 45.6828 5.62581C45.6722 5.6995 45.6617 5.78371 45.6565 5.86265Z" fill="#170D26"/>
<path d="M47.5931 5.5309L47.6247 5.29932C47.5668 5.373 47.5089 5.45195 47.4562 5.5309H47.5931Z" fill="#170D26"/>
<path d="M45.2565 5.46243C45.2565 5.35718 45.2565 5.24667 45.2565 5.14142C45.2565 5.03617 45.2302 4.95724 45.2144 4.86251C45.1493 4.43773 45.0381 4.0213 44.8829 3.62057C44.6769 3.08463 44.4065 2.5757 44.0777 2.10498C43.6985 2.53639 43.3895 3.02475 43.1621 3.55216C43.0204 3.85975 42.9093 4.18056 42.8305 4.50993C42.8042 4.68885 42.7726 4.86777 42.7516 5.03617C42.7305 5.20457 42.7516 5.2572 42.7516 5.36245C42.7516 5.4677 42.7516 5.4677 42.7516 5.52558C42.7516 5.58347 42.7516 5.65715 42.7516 5.7203C42.7516 5.78345 42.7516 5.9992 42.7516 6.13603C42.8621 6.16234 42.9621 6.18339 43.0673 6.19918H43.1305H43.3305H43.5357C43.7927 6.20948 44.0502 6.19361 44.304 6.15182L44.5303 6.10972L44.8092 6.04657C44.9724 6.00973 45.1407 5.96237 45.3091 5.915C45.3091 5.79397 45.3091 5.67293 45.3091 5.55716C45.3091 5.44138 45.2618 5.50453 45.2565 5.46243Z" fill="#170D26"/>
<path d="M48.0667 6.62018C47.9869 6.60276 47.906 6.59046 47.8246 6.58334H47.593H47.3352C47.1853 6.59339 47.036 6.61095 46.8879 6.63596C46.509 6.69385 46.1143 6.79384 45.7038 6.89382L45.4723 6.94645L45.3091 6.97803L45.1302 7.02012C44.8747 7.07449 44.6165 7.1149 44.3566 7.14116H44.2461H44.0619H43.6672H43.4831C43.2891 7.1233 43.0971 7.08808 42.9094 7.03591H42.8516L42.6727 6.98328L42.5095 6.93066C41.859 6.63297 41.1669 6.436 40.4571 6.34653H40.0572H39.8204C39.5745 6.37249 39.3325 6.42725 39.0994 6.50967C39.1328 6.64275 39.1556 6.77823 39.1678 6.91487C39.194 7.30835 39.1366 7.70291 38.9994 8.07261C39.1906 8.34921 39.3313 8.65742 39.4152 8.98302C39.5081 9.34814 39.5171 9.72957 39.4415 10.0987C39.3601 10.4606 39.2101 10.8036 38.9994 11.1091C38.91 11.2459 38.7995 11.3617 38.6995 11.488L38.6627 11.5301L38.31 11.8669C38.31 11.9879 38.31 12.1037 38.31 12.2194C38.2754 12.9043 38.1767 13.5843 38.0154 14.2508C37.989 14.3665 37.9469 14.477 37.9101 14.5928L37.9522 14.7875L49.1034 13.6614L49.6665 13.6035L50.1348 13.5561C50.1348 13.4614 50.1348 13.3614 50.1769 13.2614C50.219 13.1614 50.1769 13.1246 50.1769 13.0509C50.1744 13.0088 50.1744 12.9667 50.1769 12.9246L50.2243 12.5615C50.2243 12.5352 50.2243 12.5089 50.2243 12.4773L50.4348 11.1827C50.5149 10.7708 50.5694 10.3542 50.5979 9.93553C50.6165 9.17731 50.3757 8.43546 49.9155 7.83263C49.4552 7.22979 48.803 6.80207 48.0667 6.62018Z" fill="#170D26"/>
<path d="M36.5526 14.9033L35.0894 14.6507L36.5526 14.9033L37.7157 14.7875L36.5526 14.9033Z" fill="#170D26"/>
<path d="M31.7688 14.0666L34.9267 14.5929L31.7688 14.0666Z" fill="#170D26"/>
<path d="M39.0363 9.06721C38.9439 8.76147 38.7919 8.47708 38.589 8.23048L38.51 8.14102L38.5469 8.00946C38.6599 7.67085 38.7011 7.31239 38.6679 6.95696C38.6679 6.87276 38.6258 6.79909 38.6047 6.72015V6.68331C38.5967 6.64063 38.5862 6.59846 38.5732 6.55702C38.5118 6.34483 38.4234 6.14143 38.31 5.95183C38.1048 5.64453 37.8627 5.36353 37.5891 5.1151C37.3132 4.8677 37.0115 4.65069 36.6892 4.46782L36.4682 4.34152L36.5313 4.05734C36.6211 3.797 36.6428 3.51803 36.5945 3.24692C36.5304 2.99998 36.3883 2.78033 36.1893 2.62069C35.9625 2.44328 35.7059 2.30783 35.4315 2.22075C35.1481 2.12369 34.8553 2.05666 34.5579 2.02077L34.1948 1.98393L34.1632 1.58399V1.17878C34.1379 1.05793 34.1063 0.938483 34.0685 0.820928C34.0135 0.628995 33.8874 0.465255 33.7159 0.363096C33.5238 0.2737 33.3103 0.240844 33.1002 0.268372C32.8517 0.297726 32.6088 0.363323 32.3793 0.46308L32.1688 0.557805L31.9372 0.447293L31.4846 0.242058C31.332 0.178908 31.1847 0.136807 31.0373 0.0841821C30.7821 0.0168205 30.5137 0.0168205 30.2585 0.0841821C30.1548 0.122923 30.061 0.184038 29.9837 0.263172C29.9064 0.342307 29.8475 0.437516 29.8112 0.542018C29.7035 0.803994 29.6498 1.08501 29.6533 1.36822V2.05235L28.9692 1.88921L28.4429 1.76817C28.2798 1.76817 28.1219 1.72607 27.9641 1.71029C27.6895 1.69646 27.4164 1.75835 27.1747 1.88921C26.9615 2.04416 26.8105 2.26986 26.7484 2.52597C26.6691 2.82788 26.6442 3.1415 26.6747 3.45216V3.68371L26.5326 3.85211C26.2078 4.21706 25.9155 4.60974 25.6591 5.02564C27.4988 5.89571 29.1383 7.13743 30.4743 8.67252C31.2628 9.62495 31.7452 10.7934 31.8583 12.0247C31.8712 12.2666 31.8712 12.509 31.8583 12.7509C31.8548 13.1811 31.7964 13.6091 31.6846 14.0245C31.6846 14.0245 31.7109 14.0823 31.7267 14.1087L34.8842 14.6665C34.7684 13.9508 34.6526 13.2403 34.5263 12.5615L34.479 12.3194C34.479 12.1615 34.4158 12.0037 34.3843 11.8458C34.1974 10.9637 33.9512 10.0951 33.6475 9.24613C32.9154 7.23615 31.8866 5.34705 30.5953 3.64161C31.401 4.3774 32.1085 5.21401 32.7003 6.13076C33.2946 7.05108 33.7819 8.03628 34.1527 9.06721C34.4677 9.95686 34.695 10.8751 34.8316 11.809C34.8316 11.9563 34.8789 12.1037 34.8947 12.2563C34.9105 12.4089 34.8947 12.4405 34.9263 12.5299C34.9981 13.2574 35.0332 13.9881 35.0315 14.7191L36.4945 14.9717L37.6575 14.8559C37.6996 14.698 37.747 14.5402 37.7838 14.3823C37.7838 14.3455 37.7838 14.3034 37.8101 14.2665C37.9552 13.6152 38.0276 12.9498 38.0259 12.2826C38.0259 12.1458 38.0259 12.0089 38.0259 11.8721V11.8195L38.068 11.7774L38.2995 11.53L38.4206 11.409C38.5153 11.2669 38.6311 11.1459 38.71 10.9985C38.8844 10.7203 39.0041 10.4113 39.0626 10.0881C39.1356 9.75062 39.1266 9.40051 39.0363 9.06721Z" fill="#170D26"/>
<path d="M31.4478 14.7612C30.9437 15.9231 30.3194 17.029 29.5849 18.0608C28.8008 19.1448 28.2324 20.0026 28.2482 20.8972C28.2641 21.2998 28.4149 21.6853 28.6765 21.9917C28.938 22.2982 29.2951 22.5076 29.6901 22.5865C30.0259 22.596 30.3619 22.5802 30.6953 22.5391C30.155 22.7753 29.5669 22.8812 28.9782 22.8483C28.3895 22.8154 27.8168 22.6446 27.3063 22.3497C26.6562 21.9864 26.13 21.4365 25.7959 20.7709C25.7162 20.6123 25.651 20.4467 25.6012 20.2763C25.2356 20.3503 24.8639 20.3909 24.4908 20.3973L25.0171 28.0805H36.1735V15.5927L31.4478 14.7612Z" fill="#170D26"/>
<path d="M31.1531 12.0405C31.0426 10.9515 30.6103 9.92004 29.9112 9.07775C28.6521 7.62744 27.1032 6.45686 25.3644 5.64136C25.2118 5.56242 25.0697 5.49927 24.9329 5.43612L24.5013 5.24667C24.2538 5.15848 24.0113 5.05658 23.7751 4.94145C21.4216 4.01758 18.9331 3.48431 16.4077 3.36271C14.5447 3.28904 12.0872 3.36271 11.1452 4.36258C10.9242 4.72043 11.703 5.41507 12.1977 5.66767C12.6383 5.92611 13.0995 6.14788 13.5764 6.33074C15.5778 7.08781 17.6464 7.65342 19.7546 8.01999C18.0492 8.10435 16.3414 7.91242 14.6974 7.45164C13.8869 7.65688 13.1186 8.10419 13.487 9.03038C13.7659 9.74082 14.6342 10.2302 15.2657 10.5565C17.0949 11.4194 19.1308 11.7478 21.1386 11.5037C21.8911 11.4353 21.4912 12.03 20.986 12.03C19.3778 12.2061 17.751 12.0957 16.1814 11.7037C15.0499 12.472 17.0023 13.6614 17.7285 14.0139C19.3787 14.7613 21.1811 15.1109 22.991 15.0349C23.5699 15.0085 22.9436 15.4769 22.6542 15.4874C21.4439 15.5331 20.2331 15.4145 19.0547 15.1348C18.2074 16.0926 19.4862 17.0135 20.3072 17.403C21.3235 17.8638 22.4442 18.0455 23.5541 17.9292C23.7971 17.9016 24.038 17.8577 24.275 17.7977C24.4119 17.7608 24.554 17.724 24.6855 17.6766C24.5522 17.5154 24.4548 17.3276 24.3996 17.1258C24.3445 16.924 24.333 16.7128 24.3659 16.5062C24.3987 16.2996 24.4752 16.1024 24.5902 15.9276C24.7052 15.7529 24.8561 15.6046 25.0328 15.4927C24.6759 15.3042 24.3495 15.0629 24.0645 14.777C23.7715 14.477 23.5455 14.1183 23.4015 13.7245C23.3247 13.5455 23.2923 13.3506 23.3069 13.1564C23.3216 12.9621 23.3829 12.7743 23.4857 12.6089C23.7396 12.2531 24.1133 12.0008 24.5382 11.8984C24.1117 11.6702 23.746 11.3434 23.4714 10.9452C23.1967 10.547 23.0212 10.089 22.9594 9.60926C22.9015 8.55677 23.833 8.19892 24.7223 8.10945C24.8976 8.09876 25.0733 8.09876 25.2486 8.10945C25.4354 8.10833 25.6219 8.12241 25.8064 8.15155H25.8906C26.0169 8.18313 26.0695 8.23576 26.0695 8.29364C26.0695 8.35153 25.8801 8.5094 25.6854 8.5094H25.617C25.4316 8.48837 25.2445 8.48837 25.0592 8.5094C24.2066 8.56729 23.4804 9.08301 23.8698 10.1881C24.0597 10.6113 24.3313 10.9928 24.6691 11.3107C25.0069 11.6286 25.4041 11.8766 25.838 12.0405L26.0695 12.1405L26.28 12.2247C26.4221 12.2773 26.4116 12.3352 26.3432 12.3931C26.1625 12.5049 25.9483 12.5496 25.738 12.5194L25.5854 12.4562C25.3474 12.3617 25.1155 12.2527 24.8907 12.13C24.5758 12.1737 24.2876 12.3309 24.0803 12.572C23.9557 12.7443 23.8785 12.9463 23.8563 13.1577C23.8342 13.3692 23.8679 13.5828 23.954 13.7771C23.9989 13.8946 24.0517 14.0088 24.1119 14.1192C24.3789 14.5281 24.7259 14.8788 25.132 15.1501C25.538 15.4214 25.9948 15.6077 26.4748 15.6979C26.8273 15.7821 26.3853 15.9874 26.2064 15.9453C25.9218 15.8806 25.6436 15.7908 25.3749 15.6769C25.1203 15.8622 24.9434 16.1352 24.8783 16.4433C24.8131 16.7513 24.8644 17.0726 25.0223 17.3451C25.256 17.7373 25.5907 18.0595 25.9916 18.278C26.3925 18.4965 26.8447 18.6032 27.301 18.587C27.6272 18.587 27.643 18.8554 27.301 18.8607C26.4264 18.8909 25.574 18.5816 24.9223 17.9976C24.7013 18.0766 24.475 18.1397 24.2487 18.1976C24.011 18.2546 23.7703 18.2985 23.5278 18.3292C22.768 18.4257 21.9978 18.4062 21.2439 18.2713C21.1702 18.8501 21.707 19.2711 22.2227 19.5448C22.6676 19.772 23.1482 19.9215 23.6435 19.9868C23.8861 20.0185 24.1304 20.0343 24.375 20.0342C24.7275 20.04 25.0798 20.0136 25.4275 19.9553V19.8921L25.8538 19.8027C25.907 20.0619 25.9937 20.3131 26.1116 20.5499C26.4116 21.1325 26.8765 21.6139 27.4483 21.934C27.8667 22.1679 28.3144 22.3449 28.7797 22.4602C28.4791 22.3171 28.2186 22.1019 28.0212 21.8338C27.8238 21.5658 27.6957 21.2531 27.6483 20.9236C27.4851 19.7658 28.1745 18.7028 28.9165 17.624C29.5879 16.6779 30.1643 15.6679 30.6374 14.6086C30.69 14.4876 30.7426 14.3718 30.79 14.2455C30.8373 14.1192 30.8584 14.035 30.8952 13.9245C30.9373 13.7929 30.9742 13.6666 31.0057 13.5298C31.0057 13.4772 31.0057 13.4245 31.0057 13.3719C31.0032 13.3281 31.0032 13.2842 31.0057 13.2404C31.0279 13.0815 31.0419 12.9217 31.0478 12.7615C31.0984 12.5237 31.1336 12.2829 31.1531 12.0405Z" fill="#170D26"/>
</g>
<defs>
<clipPath id="clip0_947_26387">
<rect width="78.937" height="40" fill="white" transform="translate(0.746582)"/>
</clipPath>
</defs>
</svg>
