<svg width="72" height="32" viewBox="0 0 72 32" fill="none" xmlns="http://www.w3.org/2000/svg">
<g clip-path="url(#clip0_947_26395)">
<path d="M9.34743 2.39398L13.8835 11.3574L18.2805 2.39398C18.4791 2.00586 18.5788 1.67152 18.5795 1.39097C18.5795 0.678789 17.7557 0.322699 16.1081 0.322699V-0.00152588H21.6275V0.322699C20.7197 0.322699 20.0497 0.538846 19.6174 0.971144C19.3139 1.27463 18.9789 1.79342 18.6123 2.52752L14.2356 11.3792L14.2679 19.4514C14.2679 20.9644 15.1324 21.7208 16.8612 21.7204V22.0447H6.48758V21.7204C8.21644 21.7204 9.08087 20.9641 9.08087 19.4514L9.0485 13.2916L3.60195 2.52904C2.88876 1.05916 1.88372 0.324212 0.586823 0.324212V-6.97002e-06H7.04296C7.86507 -6.97002e-06 8.63323 0.797989 9.34743 2.39398Z" fill="#170D26"/>
<path d="M26.068 2.52907L26.3431 3.37225L22.5131 15.1131C22.6391 15.0832 22.7635 15.0499 22.8864 15.0119L26.5227 3.86643L29.1817 12.056C30.1719 11.7019 31.2156 11.5207 32.2672 11.5203C33.0282 11.5225 33.7871 11.6018 34.5322 11.757L31.4832 2.39706C30.9649 0.79769 30.2409 -0.00216524 29.3112 -0.00250244H23.0533V0.321723C24.5445 0.323409 25.5493 1.05919 26.068 2.52907Z" fill="#170D26"/>
<path d="M37.0572 19.5161L35.8458 15.7979C34.4801 16.0417 33.4487 16.6072 32.4417 17.1535C31.9783 17.4064 31.5256 17.6532 31.0618 17.853L31.644 19.6471C31.7742 20.0474 31.8391 20.3716 31.8387 20.6198C31.8387 21.3546 31.1363 21.722 29.7315 21.722V22.0462H40.1047V21.722C38.5488 21.7209 37.533 20.9857 37.0572 19.5161Z" fill="#170D26"/>
<path d="M21.198 20.5819C21.198 20.3215 21.2582 20.0069 21.3786 19.638L21.8642 18.1509C21.7536 18.1402 21.6443 18.1267 21.5364 18.1105L21.0777 19.5161C20.6022 20.9857 19.5973 21.7204 18.063 21.7204V22.0447H23.5511V21.7204C21.9824 21.7204 21.198 21.3409 21.198 20.5819Z" fill="#170D26"/>
<path d="M49.6038 0L55.9264 14.2294L63.1873 0H70.2544V0.324219C68.5256 0.324219 67.6611 1.08074 67.6611 2.59378L68.958 19.4514C69.0764 20.9644 69.9408 21.7208 71.5513 21.7205V22.0447H61.1782V21.7205C62.9067 21.7205 63.7708 21.072 63.7705 19.7751V19.4514L62.4422 2.17295L56.1049 14.5921C56.7847 15.888 57.1246 17.1405 57.1246 18.3497C57.1246 19.0623 57.0491 19.5591 56.898 19.8404H52.586C52.6943 19.7325 52.7484 19.5819 52.7484 19.3887C52.7525 19.3217 52.7387 19.2548 52.7084 19.1949L45.2938 2.59328L43.9964 19.4514V19.7751C43.9964 21.072 44.8608 21.7205 46.5896 21.7205V22.0447H41.0763V21.7205C42.7185 21.7205 43.5829 20.9641 43.6696 19.4514L44.9711 2.59632C44.9711 1.08327 44.1065 0.326751 42.3773 0.326751V0.00252534L49.6038 0Z" fill="#170D26"/>
<path d="M40.1047 15.4302C40.1047 15.4302 38.9332 14.9128 37.2969 14.9128C33.1736 14.9128 31.5135 17.543 29.0826 17.543C27.1893 17.543 26.5348 17.0696 26.5348 17.0696C26.9005 17.0696 30.7032 13.5319 35.3865 13.5319C38.0415 13.5329 40.1047 15.4302 40.1047 15.4302Z" fill="#170D26"/>
<path d="M35.0329 12.6665C34.1328 12.4099 33.2012 12.2803 32.2651 12.2816C27.6066 12.2816 25.417 16.0837 20.7241 16.0837C19.1738 16.0837 18.061 15.5385 18.061 15.5385C18.061 15.5385 19.9841 17.4165 22.3614 17.4165C26.7113 17.4165 29.6021 12.6619 34.3779 12.6619L35.0329 12.6665Z" fill="#170D26"/>
<path d="M7.01009 27.1786L8.49009 31.1507L9.9185 27.1786H10.1744C10.1168 27.3197 8.67522 31.2084 8.39349 31.9514C8.37427 32.002 8.37427 32.002 8.3166 32.002C8.25894 32.002 8.24629 31.9889 8.22707 31.9378C7.98985 31.22 6.51643 27.3248 6.45674 27.1776L7.01009 27.1786Z" fill="#170D26"/>
<path d="M12.9746 27.0674C13.0317 27.0674 13.0641 27.0866 13.0758 27.1377L14.7161 31.8017H14.1263L13.5699 30.123C12.8972 30.123 11.9109 30.1296 11.8466 30.1296C11.7824 30.1296 11.7252 30.1488 11.7121 30.1938C11.6868 30.2515 11.4177 30.9495 11.1557 31.8124C10.6752 31.819 10.9574 31.7997 10.8805 31.7997L12.5396 27.2641L12.9746 27.0674ZM11.8466 29.8286C11.8148 29.8923 11.8466 29.9297 11.8851 29.9297H13.4804L12.6539 27.5782C12.3403 28.4573 11.879 29.7643 11.8466 29.8286Z" fill="#170D26"/>
<path d="M19.0231 27.9257C19.0283 27.9319 19.0318 27.9393 19.0334 27.9473C19.0349 27.9552 19.0344 27.9635 19.0319 27.9712C19.0293 27.9789 19.0249 27.9858 19.0189 27.9913C19.0129 27.9968 19.0057 28.0007 18.9978 28.0026C18.9829 28.0077 18.9697 28.0166 18.9593 28.0284C18.9426 28.0345 18.9244 28.0353 18.9072 28.0307C18.89 28.0261 18.8746 28.0162 18.8632 28.0026C18.581 27.5286 18.1005 27.2145 17.4343 27.2403C16.7682 27.2661 15.9417 27.7143 15.9417 29.5468C15.9417 31.2827 16.9219 31.6479 17.537 31.6479C18.3569 31.6479 18.7605 31.2316 19.1384 30.4436C19.1515 30.4178 19.196 30.393 19.2092 30.3986C19.2354 30.4161 19.2632 30.4312 19.2922 30.4436C19.3053 30.4436 19.3245 30.4881 19.3053 30.5265C19.017 31.353 18.3443 31.917 17.5112 31.917C16.3984 31.917 15.2431 31.1608 15.2431 29.5594C15.2431 27.9768 16.4222 27.0304 17.3893 27.0481C18.0797 27.0607 18.4667 27.2337 19.0231 27.9257Z" fill="#170D26"/>
<path d="M21.6927 27.0674C21.7504 27.0674 21.7827 27.0866 21.7939 27.1377L23.4342 31.8017H22.8444L22.288 30.123C21.6153 30.123 20.629 30.1296 20.5648 30.1296C20.5005 30.1296 20.4434 30.1488 20.4302 30.1938C20.4049 30.2515 20.1358 30.9495 19.8738 31.8124C19.3933 31.819 19.6755 31.7997 19.5987 31.7997L21.2577 27.2641L21.6927 27.0674ZM20.5653 29.8286C20.5334 29.8923 20.5653 29.9297 20.6037 29.9297H22.199L21.3725 27.5782C21.0589 28.4573 20.5976 29.7643 20.5653 29.8286Z" fill="#170D26"/>
<path d="M23.8004 27.2914V27.1058H28.201V27.2914H26.5293C26.2667 27.2914 26.2925 27.3233 26.286 27.5413L26.2733 31.8017H25.7351V27.5413C25.7351 27.3106 25.7351 27.3046 25.466 27.298L23.8004 27.2914Z" fill="#170D26"/>
<path d="M29.4887 31.8143H28.9445L28.9511 27.125H29.4887V31.8143Z" fill="#170D26"/>
<path d="M34.8382 29.3991C34.8382 30.9494 33.8195 31.8776 32.6597 31.8776C31.4998 31.8776 30.4432 30.8715 30.4432 29.5392C30.4432 27.9181 31.5964 27.0213 32.6151 27.0213C33.7107 27.0223 34.8382 27.9257 34.8382 29.3991ZM31.1225 29.4441C31.1225 31.6287 32.2818 31.7122 32.6597 31.7122C33.1149 31.7122 34.1589 31.4623 34.1589 29.4826C34.1589 27.5221 33.1473 27.2145 32.6728 27.2145C32.1984 27.2145 31.1225 27.3622 31.1225 29.4441Z" fill="#170D26"/>
<path d="M36.2711 27.1123C36.2911 27.1101 36.3112 27.1137 36.3292 27.1227C36.3471 27.1317 36.3621 27.1456 36.3723 27.1629C36.4107 27.2135 38.9095 30.7183 38.9479 30.7698C38.9732 30.8017 39.0182 30.7951 39.0182 30.7506V27.1118H39.2362C39.2362 27.6303 39.2231 31.4744 39.2296 31.5832V31.832C39.2296 31.8705 39.217 31.8897 39.1528 31.8897C39.0759 31.8897 39.0632 31.8771 39.0374 31.8391C38.8963 31.57 37.346 29.5008 36.0774 27.7709C36.0713 27.7583 36.0268 27.739 36.0268 27.7775V31.8007H35.8088V27.1113L36.2711 27.1123Z" fill="#170D26"/>
<path d="M44.3135 27.0865C45.4344 27.0865 46.056 27.5347 46.056 28.3035C46.056 28.9955 45.2872 29.393 44.6848 29.4507C45.1592 30.1745 46.101 31.6095 46.2416 31.8017L45.492 31.7951L44.2629 29.4891H43.5391V31.8017L42.9564 31.8083V27.0865H44.3135ZM43.5381 27.477V29.2838C43.9033 29.2838 44.2751 29.2904 44.4288 29.2711C44.8643 29.2206 45.3899 29.0278 45.3899 28.3167C45.3899 27.7603 45.2169 27.3683 44.4288 27.2914C44.2411 27.279 44.0528 27.277 43.8648 27.2853C43.5548 27.3046 43.5371 27.2914 43.5371 27.477H43.5381Z" fill="#170D26"/>
<path d="M47.1116 27.1185L50.3994 27.125V27.2915H48.016C47.8238 27.2915 47.7343 27.342 47.7343 27.5479C47.7343 27.6759 47.7151 29.1624 47.7151 29.207C47.7151 29.2646 47.7211 29.2904 47.7656 29.2904H48.3488V29.4422H47.7924C47.7601 29.4422 47.7216 29.4548 47.7216 29.4927L47.7282 31.2034C47.7282 31.4533 47.7732 31.5944 48.0231 31.5944H50.4004V31.7866C50.368 31.7927 47.3251 31.7866 47.1126 31.7866L47.1116 27.1185Z" fill="#170D26"/>
<path d="M51.8136 27.1123C51.8336 27.1101 51.8537 27.1137 51.8717 27.1227C51.8896 27.1317 51.9046 27.1456 51.9148 27.1629C51.9532 27.2135 54.4519 30.7183 54.4904 30.7698C54.5157 30.8017 54.5607 30.7951 54.5607 30.7506V27.1118H54.7787C54.7787 27.6303 54.7655 31.4744 54.7721 31.5832V31.832C54.7721 31.8705 54.7595 31.8897 54.6952 31.8897C54.6183 31.8897 54.6057 31.8771 54.5799 31.8391C54.4388 31.57 52.8885 29.5008 51.6199 27.7709C51.6138 27.7583 51.5693 27.739 51.5693 27.7775V31.8007H51.3513V27.1113L51.8136 27.1123Z" fill="#170D26"/>
<path d="M55.4266 27.2914V27.1058H59.8272V27.2914H58.158C57.895 27.2914 57.9208 27.3233 57.9142 27.5413L57.9015 31.8017H57.3634V27.5413C57.3634 27.3106 57.3634 27.3046 57.0943 27.298L55.4266 27.2914Z" fill="#170D26"/>
<path d="M62.2045 27.0674C62.2621 27.0674 62.294 27.0866 62.3056 27.1377L63.9455 31.8017H63.3562L62.7998 30.123C62.1271 30.123 61.1402 30.1296 61.0765 30.1296C61.0128 30.1296 60.9546 30.1488 60.942 30.1938C60.9162 30.2515 60.6471 30.9495 60.3856 31.8124C59.9051 31.819 60.1868 31.7997 60.1099 31.7997L61.7695 27.2641L62.2045 27.0674ZM61.077 29.8286C61.0446 29.8923 61.077 29.9297 61.1155 29.9297H62.7103L61.8843 27.5782C61.5702 28.4573 61.1089 29.7643 61.077 29.8286Z" fill="#170D26"/>
<path d="M65.1124 31.8143V27.1442H65.6688V31.3424C65.6688 31.6307 65.6687 31.6307 65.951 31.6307H68.1609V31.8164L65.1124 31.8143Z" fill="#170D26"/>
<path d="M71.2498 27.817C71.2625 27.8488 71.2559 27.8615 71.2367 27.8746C71.2048 27.8873 71.1471 27.9383 71.1213 27.8807C70.8077 27.343 70.3975 27.2019 69.7956 27.2085C69.2767 27.2145 68.9049 27.5797 68.9049 28.0026C68.9049 28.4381 69.2443 28.6819 69.6419 28.8164C70.0516 28.957 70.3975 29.0405 70.7177 29.1816C71.1153 29.3546 71.5508 29.738 71.5508 30.4689C71.5508 31.2377 70.827 31.8528 69.7056 31.8346C69.0394 31.8219 68.3091 31.0597 68.3733 30.9504C68.3925 30.9186 68.3859 30.912 68.4052 30.9059C68.5569 30.8801 69.046 31.5847 69.738 31.5847C70.5194 31.5847 71.1345 31.1942 71.1471 30.6176C71.1663 29.8999 70.1988 29.7142 69.5903 29.4962C69.2701 29.3809 68.5079 29.1184 68.5079 28.2793C68.5079 27.5423 69.1613 27.0491 69.7825 27.0299C70.6282 27.0031 71.0202 27.3172 71.2498 27.817Z" fill="#170D26"/>
</g>
<defs>
<clipPath id="clip0_947_26395">
<rect width="70.964" height="32" fill="white" transform="translate(0.586823)"/>
</clipPath>
</defs>
</svg>
